<svg xmlns="http://www.w3.org/2000/svg" viewBox="0 0 152.16 108.03"><title>chevron-single</title><g id="Layer_2" data-name="Layer 2"><g id="Layer_1-2" data-name="Layer 1"><path d="M.09,26.3Q.2,16.73.38,7.16c0-1.76.11-3.66,1.2-5C2.91.43,5.41.05,7.47.63A16.38,16.38,0,0,1,13,3.92l37.76,29.9a16.57,16.57,0,0,1,4.68,4.87c1.08,2,1.21,4.68-.29,6.38a5.73,5.73,0,0,1-5.88,1.26,17,17,0,0,1-5.39-3.28L15.76,20.67C11.1,17,12.13,32.34,12.29,34.1c.86,9.72,5.79,17.13,13.89,22.54,15.91,11,30.66,23.7,45.71,35.91,3.26,2.65,5.33,2.47,8.5-.09,12.28-9.9,24.84-19.49,37-29.51,6.82-5.61,19.74-11.81,22.34-20.73a24.06,24.06,0,0,0,.57-7.44L140,23.07c0-1.07-.17-2.34-1.11-2.87s-2.38.21-3.35,1L84.93,61.88c-2.43,1.95-5,4-8.14,4.32s-6.67-1.86-6.57-5c.08-2.37,2.09-4.15,3.94-5.63q33.18-26.49,66.51-52.81C142.78,1.13,145.4-.64,148,.23c3.05,1,3.72,5,3.84,8.21q.65,16.92.18,33.84c-.28,10-6.6,13.26-13.92,19q-9.47,7.45-18.91,15Q101,90.63,82.87,105c-5.1,4-8.5,4-13.72-.13Q50.94,90.47,32.73,76,23.63,68.8,14.5,61.6C5.84,54.77,0,50.19,0,38.32Q0,32.31.09,26.3Z"/></g></g></svg>