<svg xmlns="http://www.w3.org/2000/svg" viewBox="0 0 224.3 187.25"><title>chevron-multi</title><g id="Layer_2" data-name="Layer 2"><g id="Layer_1-2" data-name="Layer 1"><path d="M226,111.5c-7.57,8.19-16.46,14.9-24.83,22.17q-38.68,33.62-77.58,67c-1,.86-2,1.73-3,2.57-5.56,4.48-7.64,4.62-13,.05q-23.26-19.86-46.38-39.91c-18.33-15.82-36.6-31.71-55-47.44A11.42,11.42,0,0,1,1.7,106.5q.12-39.07,0-78.13c0-3.3.36-6.43,3.66-8.11,3.47-1.77,6.41-.37,9.09,1.94Q50,53,85.56,83.74c4.06,3.53,4.61,7.28,2.06,10.39-2.75,3.33-6.7,3.39-10.94-.25Q49.48,70.56,22.43,47.09c-2-1.72-4-3.39-6.89-5.79,0,8.89-.21,16.85.18,24.79.08,1.52,2.36,3.08,3.84,4.36Q60.41,105.75,101.3,141c3.14,2.71,6.49,5.21,9.42,8.12,2.42,2.42,4,2.2,6.56,0q35.47-30.85,71.17-61.46c7-6.06,14-12.17,21.13-18.15a8.56,8.56,0,0,0,3.25-7.35c-.17-6.58-.05-13.16-.05-21.16-7.86,6.73-14.73,12.58-21.56,18.47Q155.6,90.13,120,120.85c-2.08,1.8-4.22,3.24-7.14,2.75a6.23,6.23,0,0,1-5.26-4.69c-1-3.52.78-6.06,3.31-8.23l27.87-24.05q36.74-31.69,73.47-63.37c5.91-5.09,8.15-5.12,13.74-.36Zm-210.26-26A22.29,22.29,0,0,0,15.27,88c-.82,16.64-.93,16.77,11.78,27.8,27.81,24.12,55.78,48.07,83.61,72.18,2.5,2.17,4.08,2.28,6.62.05,12.58-11.06,25.34-21.92,38-32.86Q182.05,132.09,208.8,109c1.72-1.49,3.84-2.85,3.86-5.52,0-5.74,0-11.49,0-18-1.69,1.26-2.75,2-3.7,2.78q-43,37-85.91,74.09c-8.18,7.06-10,7.08-18.08,0q-34.23-29.66-68.5-59.24C29.75,97.31,23,91.59,15.74,85.45Z" transform="translate(-1.7 -19.39)"/></g></g></svg>