<svg xmlns="http://www.w3.org/2000/svg" viewBox="0 0 28.36 28.38"><title>facebookIcon</title><g id="Layer_2" data-name="Layer 2"><g id="Layer_1-2" data-name="Layer 1"><path d="M14.14,0A14.19,14.19,0,1,1,0,14.1,14.16,14.16,0,0,1,14.14,0ZM17,8.86c-.17-.2.43-.86-.31-1.12a3.28,3.28,0,0,0-4.06,2,5.65,5.65,0,0,0-.11,1.88c0,.62,0,1.12-.85,1s-.81.49-.78,1.05-.27,1.29.77,1.16c.8-.11.88.34.86,1,0,1.5.05,3,0,4.5-.05,1,.57.86,1.14.82s1.33.34,1.29-.79c-.06-1.37,0-2.76,0-4.13-.06-1,.13-1.59,1.29-1.41a.7.7,0,0,0,.93-.6c.43-1.48.43-1.6-1.3-1.55-1.14,0-.89-.67-.91-1.3s.08-1.24,1-1.05C16.91,10.5,17.22,10,17,8.86Z"/></g></g></svg>