<svg width="585" height="562" viewBox="0 0 585 562" fill="none" xmlns="http://www.w3.org/2000/svg">
<g opacity="0.03">
<path d="M433.74 500.757C475.991 466.967 516.299 431.573 521.792 372.02C503.708 403.697 490.188 439.598 444.894 444.835C455.457 424.815 465.767 405.471 475.738 386.296C520.524 300.386 481.991 173.845 397.066 127.808C274.367 61.3272 159.528 84.4729 103.418 186.939C77.0529 235.595 68.6026 286.448 99.0236 334.767C113.643 358.166 99.7842 384.015 115.924 406.231C155.725 460.125 195.442 512.921 269.128 519.848C283.071 521.199 294.479 526.605 293.296 538.601C291.775 554.482 273.353 541.811 266.847 547.639C254.34 558.79 224.088 516.384 225.102 562C217.794 561.317 210.683 559.253 204.145 555.918C167.725 524.916 117.868 523.733 77.0529 494.675C43.6742 471.107 32.0128 444.582 20.2669 413.074C-24.4352 292.868 11.8166 184.996 81.7005 88.5276C149.979 -5.57553 253.411 -9.20786 355.913 8.44703C477.597 28.8051 620.829 202.735 576.381 321.758C552.382 386.38 523.736 450.664 468.555 497.462C458.668 505.91 449.119 510.302 436.613 504.727L433.74 500.757Z" fill="black"/>
</g>
</svg>
