<svg width="440" height="381" viewBox="0 0 440 381" fill="none" xmlns="http://www.w3.org/2000/svg">
<g opacity="0.39">
<path d="M122.943 159.691C122.567 168.127 125.244 175.741 129.429 182.912C129.927 183.759 130.506 184.634 131.73 184.472C130.721 182.576 129.604 180.732 128.716 178.782C124.975 170.562 122.136 162.234 126.159 153.22H126.025V153.14C123.118 154.418 123.051 157.135 122.943 159.691Z" fill="url(#paint0_linear)"/>
<path d="M254.5 110.923C254.333 111.011 254.194 111.143 254.097 111.304C254 111.465 253.948 111.65 253.948 111.838H254.11C254.116 111.887 254.116 111.937 254.11 111.986C254.321 111.965 254.521 111.882 254.686 111.748C254.851 111.614 254.973 111.435 255.038 111.233C255.038 111.152 255.038 111.071 254.957 110.977C254.807 110.944 254.654 110.926 254.5 110.923Z" fill="url(#paint1_linear)"/>
<path d="M218.358 390.967C212.908 386.864 208.468 381.711 203.731 376.854V376.922L203.61 376.814C206.799 383.339 211.374 388.411 218.358 390.967Z" fill="url(#paint2_linear)"/>
<path d="M307.477 250.007L307.381 249.896L307.477 250.007Z" fill="url(#paint3_linear)"/>
<path d="M356.803 346.611C356.803 346.611 356.803 346.611 356.803 346.705C360.164 350.358 363.848 353.699 367.81 356.688C365.415 352.159 361.526 348.599 356.803 346.611Z" fill="url(#paint4_linear)"/>
<path d="M120.118 152.628C118.823 154.355 117.925 156.347 117.487 158.461C117.05 160.574 117.084 162.759 117.588 164.858C119.23 172.015 120.683 179.333 126.698 184.472C120.777 174.625 116.969 164.346 120.118 152.628Z" fill="url(#paint5_linear)"/>
<path d="M177.116 151.121C185.297 158.413 195.335 162.247 205.252 166.337C196.452 160.189 186.279 156.57 177.116 151.121Z" fill="url(#paint6_linear)"/>
<path d="M316.033 224.766C309.951 218.779 303.922 212.765 296.333 208.622V208.716C302.483 214.595 308.619 220.461 316.033 224.766Z" fill="url(#paint7_linear)"/>
<path d="M307.3 249.802H307.394C304.703 243.748 300.209 239.04 295.351 234.748V234.815H295.27C298.311 240.587 303.021 245.013 307.273 249.816L307.3 249.802Z" fill="url(#paint8_linear)"/>
<path d="M287.493 163.042L287.575 162.96L287.493 163.042Z" fill="url(#paint9_linear)"/>
<path d="M201.484 170.252C195.331 167.251 188.749 165.223 181.974 164.239C188.1 167.215 194.634 169.264 201.363 170.32C201.397 170.287 201.439 170.263 201.484 170.252Z" fill="url(#paint10_linear)"/>
<path d="M188.621 163.337L188.446 163.216C183.868 160.049 178.986 157.345 173.873 155.144C177.912 159.218 183.027 162.059 188.621 163.337Z" fill="url(#paint11_linear)"/>
<path d="M283.418 189.696L283.322 189.585L283.418 189.696Z" fill="url(#paint12_linear)"/>
<path d="M160.821 165.719C159.825 164.75 158.816 163.809 157.794 162.88C158.776 163.809 159.825 164.75 160.821 165.719Z" fill="url(#paint13_linear)"/>
<path d="M252.966 112.846H253.114C253.121 112.9 253.121 112.954 253.114 113.008C253.38 113.004 253.635 112.897 253.824 112.709C254.012 112.52 254.119 112.265 254.123 111.999H253.975C253.975 111.999 253.975 111.891 253.975 111.837C253.842 111.836 253.71 111.861 253.587 111.911C253.463 111.961 253.351 112.035 253.257 112.129C253.163 112.223 253.089 112.335 253.039 112.458C252.989 112.581 252.964 112.713 252.966 112.846Z" fill="url(#paint14_linear)"/>
<path d="M158.924 146.104C153.646 148.392 147.771 148.915 142.172 147.597C146.733 150.934 154.04 150.288 158.924 146.104Z" fill="url(#paint15_linear)"/>
<path d="M103.608 250.999C101.334 250.999 101.899 253.528 101.239 254.914C99.0057 259.609 96.9336 264.331 94.5115 269.712C92.6546 265.461 91.4167 261.479 88.2143 259.717C83.2239 256.764 78.5248 253.345 74.18 249.505C72.0943 247.77 70.4393 248.55 69.5647 250.999C68.1244 254.597 67.5172 258.474 67.7885 262.34C68.2998 267.304 66.3757 267.21 62.9714 265.031C60.4283 263.43 57.6833 262.098 55.2074 260.389C49.3811 256.353 46.8246 256.891 43.2857 263.08C42.5725 264.318 42.3573 265.959 40.1909 265.636C37.4998 265.246 34.6202 265.744 32.2251 264.829C28 263.187 26.9505 265.784 26.5468 268.676C26.2807 271.997 26.2448 275.333 26.4392 278.659C19.5229 276.385 16.482 277.421 16.8318 283.072C17.2893 290.538 13.7235 291.493 7.99142 291.224C7.15654 291.27 6.33003 291.415 5.52903 291.655C0.0256493 292.771 -0.996983 294.345 0.832991 299.727C3.33575 306.965 5.70395 314.283 10.0098 320.727C8.27399 322.005 6.53821 318.938 5.30028 320.889C4.06236 322.84 5.59631 324.441 6.48438 325.974C9.3639 330.952 14.0599 333.858 18.8233 336.737C38.0245 348.522 57.6564 342.858 77.2479 338.284C78.5239 337.928 79.6899 337.258 80.6387 336.333C82.5629 334.45 83.6259 335.149 84.8234 337.154C87.3447 341.317 89.3038 345.796 90.6497 350.473C95.1978 366.469 96.1397 382.882 95.3592 399.349C94.3366 421.062 92.8699 442.749 91.5916 464.449C90.3268 485.813 90.8247 507.137 90.8112 528.487C90.8112 550.43 90.8112 572.359 90.9323 594.287C90.9323 595.714 90.9323 597.14 90.9323 598.566C90.9323 601.929 90.3134 603.463 88.443 604.108H97.4583C96.503 603.651 96.1128 602.763 96.1128 600.88C96.2025 568.69 96.2025 536.505 96.1128 504.325V503.814C96.5837 486.324 96.2204 468.687 97.4583 451.198C99.0596 429.78 101.495 408.376 100.755 386.877C100.123 367.599 99.1403 348.186 87.4069 331.477C86.6399 330.387 86.5188 329.042 87.7299 328.382C91.8608 326.163 93.8253 321.656 97.5794 319.194C102.052 316.151 105.473 311.799 107.375 306.736C109.889 300.51 111.729 294.034 112.865 287.417C115.005 275.766 113.363 264.694 106.85 254.591C105.989 253.192 105.518 250.985 103.608 250.999ZM81.3788 279.022L78.8356 266.295C81.1769 270.21 83.0338 274.233 81.3788 279.022ZM73.5745 293.686L74.7451 306.911C71.8118 302.7 72.5788 298.22 73.5745 293.686ZM71.5561 291.937V305.808C70.3985 303.679 69.792 301.295 69.792 298.872C69.792 296.45 70.3985 294.066 71.5561 291.937ZM67.5194 283.179C65.7433 277.798 61.3836 275.551 60.9261 269.659C63.8325 274.219 70.8161 274.771 67.5598 283.233L67.5194 283.179ZM56.5126 271.757L56.7549 271.986V272.228C59.0423 273.829 59.9439 276.264 60.7916 279.493C59.6284 278.651 58.6642 277.564 57.9668 276.308C57.2693 275.053 56.8556 273.66 56.7549 272.228C56.6957 272.195 56.6413 272.155 56.5934 272.107C56.4992 272.04 56.4857 271.905 56.4857 271.757L55.813 271.112C56.701 270.91 56.5126 271.407 56.5126 271.757ZM50.1481 267.869C50.6658 269.382 51.0794 270.928 51.386 272.497C51.6282 274.179 51.8166 275.78 53.4582 276.722C53.1891 275.982 52.9334 275.255 52.449 273.95C57.1316 278.807 59.1769 285.439 57.32 288.991C57.5622 290.336 57.7909 291.574 58.0331 292.866C52.3496 285.846 49.5413 276.932 50.175 267.923L50.1481 267.869ZM46.1114 267.681C46.6631 273.331 46.1114 279.157 48.8025 284.457C48.5603 278.847 46.8649 273.318 48.1836 267.6C48.5603 271.192 48.5603 274.852 49.6772 278.363C50.794 281.874 52.0723 285.56 53.2967 289.274C50.2288 289.112 50.3903 285.964 48.8025 284.498V284.565L48.6949 284.403C48.6949 284.888 48.6949 285.601 48.4796 285.843C47.134 286.946 47.2282 285.278 47.134 284.901C45.0484 279.345 45.3175 273.573 46.1383 267.721L46.1114 267.681ZM50.4441 301.126C45.3444 298.435 41.3481 295.677 39.1144 290.901C45.7481 290.915 48.345 295.153 50.471 301.18L50.4441 301.126ZM33.638 270.896C37.7958 272.322 39.2086 274.932 39.2759 281.659C34.526 279.318 33.2747 275.538 33.638 270.896ZM25.4031 287.901C30.3089 292.442 34.2372 297.935 36.9481 304.045C33.9609 303.305 33.3554 300.722 31.337 300.009C31.9695 303.238 35.0643 304.583 36.7193 307.018C37.3114 307.866 38.0649 308.767 37.2306 309.709C36.3964 310.651 35.5352 310.355 34.5395 309.817C30.0049 307.409 27.6771 303.225 25.8606 298.798C24.8426 295.993 24.0947 293.096 23.6269 290.148C23.3982 288.91 22.8734 286.933 25.4031 287.901ZM6.56512 303.063C10.0501 310.476 12.674 316.987 18.285 321.656C12.3242 319.194 8.55656 313.261 6.49784 303.104L6.56512 303.063ZM8.52965 298.166L7.26481 295.973C16.0514 297.924 16.0514 297.924 25.5242 310.449L18.1774 306.548L20.9762 309.427C16.307 309.131 10.3731 303.749 8.46237 298.207L8.52965 298.166ZM25.8202 319.369C25.8202 318.682 25.8202 318.023 25.8202 317.283C24.9456 316.624 24.9187 315.508 25.9413 315.615C31.4716 316.221 37.2979 316.153 41.6441 321.131C40.0025 322.369 38.63 321.131 37.3248 321.279C38.7511 323.633 42.5322 322.624 43.7836 325.84C41.5096 326.499 39.8814 325.073 38.0918 324.71C40.016 328.288 45.5463 326.607 47.1609 330.723C38.9664 331.382 32.4539 327.925 26.3046 323.176C24.4343 321.79 24.219 320.916 25.7529 319.409L25.8202 319.369ZM26.9101 335.701C34.0147 336.024 40.3658 340.315 47.5915 340.033C39.7199 340.692 32.575 339.266 26.9101 335.701ZM82.7378 324.225V329.889C81.5537 328.813 80.7733 328.113 80.0467 327.4C80.4217 327.906 80.647 328.508 80.697 329.136C80.7469 329.764 80.6195 330.393 80.3292 330.952L74.2203 326.728L78.7953 332.459L75.3506 331.853C77.1133 333.871 76.4944 334.678 74.0051 334.356C70.7353 333.939 67.479 333.441 64.2093 333.01V333.131H64.1286C63.9518 333.449 63.7124 333.728 63.4247 333.951C63.1371 334.174 62.8071 334.337 62.455 334.428C62.1028 334.52 61.7356 334.54 61.3757 334.486C61.0158 334.431 60.6706 334.305 60.361 334.113C53.6362 331.186 48.3238 325.744 45.5597 318.952C45.2368 318.198 45.3444 317.297 46.542 317.189C44.8735 314.902 41.9805 312.884 44.8331 309.588C44.8331 308.848 44.1738 307.772 45.3713 307.543C46.2594 307.382 47.4031 307.422 47.7395 308.714C50.7267 305.646 52.8123 310.718 55.5842 309.588L55.7053 309.494C55.7053 308.054 56.257 307.14 57.8044 307.812C63.8056 310.503 69.78 313.194 75.7543 315.803C81.0558 316.194 83.895 319.544 84.3659 326.122L82.7378 324.225ZM87.2724 314.714C85.5366 314.135 86.2228 313.261 86.2497 312.642C86.3324 311.978 86.4674 311.321 86.6534 310.678C85.8326 311.606 84.8234 313.368 84.2448 313.368C82.4956 312.978 82.8993 311.068 82.8993 309.709C82.8993 307.772 83.0338 305.835 83.128 303.884L82.9935 304.059C80.7733 306.131 82.5225 309.104 81.1904 312.131C78.2032 306.292 81.621 302.041 83.2491 296.834C84.4198 299.807 81.9977 301.866 82.9935 304.113L86.6803 294.466V304.651C88.3757 296.336 89.5329 287.942 90.4075 279.506C91.6724 291.278 89.3849 302.875 87.2724 314.7V314.714ZM89.9635 319.449C88.3757 318.104 89.1427 316.638 89.1427 315.333C88.3757 310.261 90.3941 305.512 90.7978 300.534C91.2956 294.399 92.3183 288.291 92.1433 282.089C94.4039 290.565 92.1433 298.96 91.7666 307.382C92.843 306.036 92.8296 304.314 93.4485 302.781C93.9113 308.544 92.726 314.32 90.0308 319.436L89.9635 319.449Z" fill="url(#paint16_linear)"/>
<path d="M313.516 159.731C312.628 155.104 309.264 153.005 305.147 152.09C295.62 149.803 286.134 151.633 276.648 152.561C273.831 152.974 270.99 153.207 268.144 153.26C266.004 153.26 263.703 152.453 266.583 149.749C268.211 148.229 269.045 145.955 268.05 144.247C265.506 139.888 268.574 138.865 271.373 137.13C277.051 133.619 280.981 128.372 284.694 122.937C289.323 116.21 292.512 108.542 297.773 102.097C300.599 98.6398 297.289 96.4335 294.194 95.707C287.466 94.133 281.936 90.5544 276.527 86.5184C274.818 85.1731 273.997 84.3793 274.683 82.1326C276.029 77.5854 274.266 72.352 277.724 68.1277C278.559 67.1052 277.294 66.1366 276.244 66.3384C270.862 67.3878 267.996 63.8361 265.48 60.3382C260.097 52.764 253.221 49.5755 244.206 51.5263C241.394 52.1317 241.354 50.7325 240.883 48.7145C239.012 40.5618 236.953 32.4494 234.881 24.3371C234.196 21.4029 232.888 18.6502 231.046 16.2651C228.355 12.9959 225.193 11.5026 220.86 12.7807C210.345 15.7576 200.565 20.894 192.146 27.8619C189.872 29.7722 189.119 29.8933 187.585 27.1488C182.391 17.8122 175.474 9.65949 170.388 0.134533H170.926L170.886 0H165.235C165.241 0.0265905 165.241 0.0541295 165.235 0.08072H165.383L165.033 0.336333C148.725 12.5789 129.173 21.1621 119.754 41.2479C115.831 36.1752 113.075 30.3002 111.681 24.0411C110.981 20.5836 109.42 20.0051 106.568 22.4267C96.6375 30.983 89.4926 41.2614 86.3843 54.1362C84.7696 60.8629 85.7384 67.5223 87.528 74.3162C82.8152 73.4012 78.4766 71.1176 75.0546 67.751C72.1213 65.0603 70.6142 66.0021 69.2417 69.2039C67.051 74.1087 65.8223 79.3882 65.6222 84.756C65.1243 101.035 71.7041 115.093 79.2528 128.869C84.3659 138.193 91.9011 145.484 101.562 149.049C108.156 151.498 109.636 154.054 109.838 160.915C110.295 174.759 116.821 186.598 126.348 196.647C131.73 202.365 137.543 207.746 142.427 213.975C146.693 219.424 149.276 220.043 156.085 217.756C165.288 214.661 174.452 211.433 183.602 208.177C191.07 205.486 197.609 201.571 201.296 194.185C202.561 191.656 203.987 191.495 206.409 192.544C215.552 196.5 225.589 197.931 235.473 196.688C240.304 196.082 244.892 194.347 249.588 193.163L283.322 174.893C291.974 169.512 299.159 163.001 309.466 164.131C313.584 164.588 314.176 163.041 313.516 159.731ZM274.495 115.335C275.087 115.066 275.679 114.784 276.271 114.528C276.863 114.273 277.617 112.699 278.612 113.802C278.868 114.084 278.155 115.255 277.872 116.022C278.404 117.634 278.404 119.374 277.872 120.986C276.217 127.901 265.076 136.228 256.518 136.646C259.276 134.587 262.923 134.681 264.78 131.829L258.711 133.767C260.205 128.52 264.578 126.636 268.426 124.215C266.987 124.511 265.547 124.833 263.717 125.237C264.08 120.192 269.543 121.389 271.279 118.51L266.099 119.762C266.319 118.894 266.719 118.083 267.273 117.379C267.826 116.676 268.52 116.096 269.311 115.676C270.101 115.257 270.971 115.008 271.864 114.944C272.757 114.881 273.653 115.005 274.495 115.309V115.335ZM252.454 113.99C252.295 114.046 252.126 114.074 251.957 114.071L248.404 115.51C250.221 113.681 251.405 110.923 254.54 111.017C254.734 110.928 254.947 110.891 255.159 110.909C255.133 111.042 255.097 111.172 255.051 111.299C255.576 113.008 254.89 113.748 252.414 113.923L252.454 113.99ZM259.182 119.25C256.801 123.851 252.831 126.112 251.243 130.134C250.45 132.152 248.216 129.34 246.507 129.327C250.894 126.529 253.087 121.484 259.102 119.183L259.182 119.25ZM271.79 89.4378C265.695 88.9131 260.151 90.6889 254.782 93.2451C259.774 89.3705 265.197 87.07 271.71 89.3705L271.79 89.4378ZM247.166 56.504C250.624 55.9659 252.656 57.513 253.894 60.54C255.168 60.8696 256.351 61.4823 257.355 62.3326C258.359 63.1828 259.159 64.2485 259.694 65.4505C253.517 63.8092 247.422 60.9032 241.999 66.3922C241.999 66.3922 241.999 66.3922 241.999 66.4729C249.535 62.8943 256.343 65.1276 263.529 69.5403C256.666 69.0156 250.624 65.2218 244.273 68.316C247.385 68.2669 250.495 68.4287 253.585 68.8004C257.917 69.5941 262.143 70.926 266.946 72.1502C262.815 73.1323 259.586 71.3834 256.182 70.926C252.333 70.4148 248.337 69.1098 244.906 72.2713C250.45 70.926 252.145 71.1681 262.775 74.1279C257.595 75.3656 251.593 72.7825 247.126 77.3701V77.4912C251.701 76.3073 256.262 74.962 261.456 75.9979C257.42 78.7558 251.647 77.2356 248.821 81.7963L248.727 81.9443C251.311 80.9487 253.867 79.9128 256.464 78.9845C259.774 77.8141 259.155 79.6976 258.388 81.5676C260.017 80.7335 261.631 79.8724 263.286 79.0787C264.188 78.6347 265.251 78.2311 265.816 79.4688C265.883 79.6701 265.908 79.8831 265.889 80.0945C265.87 80.3059 265.808 80.511 265.705 80.6969C265.603 80.8828 265.463 81.0454 265.294 81.1744C265.126 81.3034 264.932 81.3961 264.726 81.4465C259.102 82.7918 255.966 88.4691 250.207 89.6665C249.319 88.0386 250.799 87.366 251.553 86.4108C250.207 87.1238 248.862 89.505 247.516 87.7561C246.171 86.0072 247.597 83.7201 248.862 81.9846L248.943 81.8501C245 81.6886 246.574 79.4419 247.247 77.545H247.126L247.287 77.397C243.56 76.7109 243.924 74.4911 245.202 71.9081C240.761 71.6121 244.22 69.6345 244.408 68.3429H244.3L244.435 68.195C244.18 68.2602 243.918 68.2963 243.654 68.3026C242.645 68.3026 242.161 67.6434 242.094 66.446L241.919 66.5267L242.08 66.3653C239.053 64.7778 242.349 63.6746 242.417 62.3293L240.506 61.8853C242.43 59.7059 243.87 57.069 247.166 56.504ZM263.313 144.462C252.791 146.09 243.385 140.345 233.105 140.762C243.695 137.843 253.289 142.888 263.259 144.502L263.313 144.462ZM219.798 158.319C233.361 165.328 247.032 162.691 260.622 161.332C243.049 168.96 223.605 167.844 219.744 158.359L219.798 158.319ZM250.463 166.7C243.103 169.162 236.039 170.898 228.598 170.225C227.442 170.098 226.305 169.84 225.207 169.458C224.551 169.28 223.987 168.861 223.628 168.285C223.268 167.708 223.14 167.017 223.269 166.35C223.821 164.588 225.301 166.108 226.175 166.35C232.459 168.019 238.77 167.481 245.094 166.848C246.682 166.714 248.27 165.987 250.409 166.741L250.463 166.7ZM171.465 77.2625C171.572 70.926 175.394 66.1635 175.757 60.6342L175.636 60.3651V60.2575C173.981 60.7553 174.492 64.5087 171.33 62.9482C170.671 61.132 172.958 59.8808 172.676 58.0646C169.406 59.6117 170.173 64.0648 167.092 66.029C166.607 64.0513 167.953 62.7329 168.101 61.1454C164.508 62.6791 166.109 67.8721 161.803 69.5807C162.046 63.9975 166.244 60.1633 167.051 55.2798C163.391 58.9525 162.086 63.863 160.095 68.4237C159.355 70.1322 159.341 72.4597 156.771 72.9709C156.098 64.3473 164.347 50.5038 172.124 47.3019C172.474 47.1539 173.039 47.5441 173.47 47.6786C175.892 49.1047 175.892 49.1047 173.954 53.5577C175.488 53.773 176.847 54.1093 176.093 56.2484C175.406 57.4768 175.227 58.9257 175.596 60.2844C175.667 60.2706 175.74 60.2706 175.811 60.2844V60.7149C177.654 64.4818 174.775 68.1142 175.353 71.8408C176.941 69.3923 177.129 66.4595 177.856 63.7688C178.782 67.2607 178.718 70.9415 177.67 74.3988C176.622 77.8561 174.632 80.9533 171.922 83.3434C172.729 80.007 173.375 77.2894 174.035 74.5718L171.465 77.2625ZM172.043 184.378C170.011 179.952 169.931 175.095 166.257 171.974L168.854 179.911C164.037 174.866 161.682 169.458 156.475 166.942L165.558 178.243C161.104 175.943 158.117 172.122 153.838 169.943L158.399 175.485L149.936 171.167C149.572 171.718 151.187 173.158 149.64 172.875C144.257 171.92 137.206 162.893 136.897 156.314C139.184 159.664 140.301 163.969 144.163 166.014C141.982 163.394 140.414 160.318 139.575 157.014L144.647 161.763C143.638 160.619 142.669 158.87 143.854 157.983C145.038 157.095 146.935 158.063 147.89 159.557C148.434 160.562 149.177 161.447 150.075 162.155C150.973 162.863 152.006 163.379 153.111 163.673L149.357 159.382C151.752 157.068 153.205 159.018 154.739 160.081C155.183 158.346 155.95 157.673 156.879 157.673C157.821 157.78 158.706 158.18 159.408 158.817C160.628 159.868 161.774 161 162.84 162.207C162.342 161.198 161.817 160.162 161.319 159.126C160.983 158.426 160.391 157.781 161.561 157.135C162.422 156.718 163.31 156.61 163.633 157.579C165.235 162.422 169.985 164.79 172.433 168.947C174.882 173.104 176.228 177.019 173.954 182.145C172.918 176.763 172.312 171.557 168.262 167.857C169.635 173.171 173.456 177.907 172.043 184.378ZM132.241 144.96C132.537 144.422 129.187 142.767 132.632 143.305C136.076 143.843 139.736 145.269 143.396 145.753C149.68 146.601 155.506 145.632 159.153 139.551C159.677 138.677 159.718 136.861 161.427 137.829C162.772 138.65 161.817 139.874 161.427 140.937C160.929 142.282 160.444 143.749 159.947 145.161C161.951 143.816 162.436 141.395 164.481 138.838C166.298 142.874 163.943 145.229 162.396 147.704C165.262 147.112 165.638 144.368 166.957 142.323C165.611 153.368 150.568 158.574 140.772 151.471C146.773 153.26 152.775 154.902 158.682 151.135C150.742 152.966 142.402 151.7 135.363 147.597L138.848 147.193C136.88 145.881 134.602 145.111 132.241 144.96ZM148.509 133.726C145.338 135.851 141.555 136.872 137.745 136.632C130.802 136.35 123.872 135.973 116.888 135.744C125.392 132.596 134.004 130.47 143.154 131.385C145.102 131.747 146.943 132.548 148.536 133.726C148.567 133.687 148.61 133.659 148.657 133.645C148.657 133.645 148.657 133.645 148.657 133.74C149.357 134.116 150.003 134.493 150.77 134.829C151.792 135.314 153.313 135.448 153.326 136.861C153.34 138.273 151.819 138.933 150.635 139.444C145.603 141.556 140.476 140.789 135.363 139.861C132.225 139.286 129.141 138.444 126.146 137.345C130.242 137.814 134.362 138.03 138.485 137.991C142.212 137.762 146.558 138.26 148.684 133.74L148.509 133.726ZM113.027 108.609C108.99 111.609 106.447 108.192 103.486 107.156C104.536 110.438 108.371 110.116 110.578 112.308C106.11 112.995 98.7501 108.676 97.7274 104.788C97.3911 103.523 98.8308 104.223 99.4767 104.062C97.4583 101.371 97.4583 101.371 99.3421 100.981C99.5709 100.281 97.2296 98.2901 99.8938 98.9493C105.666 100.295 111.533 101.64 116.781 106.47C109.918 107.613 105.801 102.568 100.486 101.64C103.729 105.407 108.788 105.958 113.027 108.609ZM129.927 112.483C122.809 113.035 118.113 116.963 114.991 123.138C117.561 112.349 120.145 110.519 129.954 112.483H129.927ZM133.022 115.457C130.734 116.708 127.761 116.318 126.132 118.658C128.406 118.336 130.667 117.945 132.941 117.744C134.112 117.636 135.632 118.04 135.632 119.291C135.794 120.999 134.098 120.636 133.076 120.73C130.532 121.134 127.814 121.107 126.428 123.892C133.695 121.08 135.847 121.12 138.835 124.215C133.358 125.923 127.142 125.17 122.54 129.448C126.576 128.372 130.519 127.107 134.569 126.26C137.556 125.627 140.624 125.627 142.75 129.811C134.044 129.273 126.065 131.157 117.723 133.242C118.799 130.672 121.288 130.914 122.54 129.448H122.62C122.446 128.6 118.718 129.031 121.719 127.026C123.293 125.964 124.908 124.941 126.496 123.905C123.091 123.367 121.113 126.219 117.938 127.672C119.849 123.327 123.657 121.389 126.186 118.255C121.504 119.439 119.324 123.838 115.704 126.609C118.126 116.923 126.55 111.663 133.049 115.457H133.022ZM152.169 45.4992C154.246 41.0027 155.608 36.2093 156.206 31.2925C157.847 41.6246 153.34 50.6249 149.195 59.8001C149.438 57.5803 149.666 55.3739 149.909 53.1541C149.248 53.7635 148.734 54.5146 148.405 55.3512C148.077 56.1877 147.942 57.0878 148.011 57.9839C146.329 49.4948 146.451 49.024 153.999 32.4225C154.241 37.2388 151.725 41.1807 152.196 45.5126L152.169 45.4992ZM163.27 80.868C160.902 87.4467 158.588 94.0523 155.977 100.537C152.452 109.255 149.438 118.026 149.788 127.686C143.275 117.205 147.096 107.035 150.837 96.864C145.993 103.456 144.54 110.977 144.97 119.008C142.696 107.734 146.491 97.8461 151.914 88.3346C146.06 93.7159 144.325 101.008 143.208 108.515C142.858 110.829 142.939 113.196 142.777 116.479C140.557 112.443 141.001 108.824 141.512 105.501C142.858 96.9851 147.231 89.8817 152.829 83.4914C153.34 82.9129 153.945 81.4599 154.995 82.6573C155.318 83.0205 154.726 84.191 154.537 84.9847C156.946 83.451 157.807 79.859 161.386 79.9128C161.541 79.5175 161.838 79.1945 162.219 79.0076C162.6 78.8208 163.038 78.7838 163.445 78.9038C164.522 79.3747 163.512 80.2895 163.297 80.8814L163.27 80.868ZM152.506 129.3C149.814 112.766 159.233 99.1511 163.687 84.2717C164.239 100.254 157.43 114.461 152.559 129.287L152.506 129.3ZM141.458 63.5132C141.62 71.7197 143.719 79.9128 141.983 88.1193C139.602 79.9263 140.005 71.7063 141.512 63.4997L141.458 63.5132ZM143.692 62.4235C145.199 69.3923 148.859 76.2535 145.213 83.5452C143.736 76.6036 143.242 69.489 143.746 62.41L143.692 62.4235ZM147.069 67.0514C149.761 71.8408 151.389 75.3656 148.94 79.4958C148.711 75.7557 147.514 72.1771 147.123 67.038L147.069 67.0514ZM154.699 71.222C152.909 66.3115 156.677 56.5847 161.333 54.3111C158.227 59.5459 155.999 65.2539 154.739 71.2085L154.699 71.222ZM155.614 49.0239C156.623 44.7189 157.619 40.4138 158.91 34.9249C159.731 40.925 158.776 45.3108 155.668 49.0105L155.614 49.0239ZM144.957 41.1672C138.929 44.7862 135.969 50.5845 134.192 57.0556C134.031 57.661 133.937 58.4009 132.457 58.4009C133.116 47.5037 140.907 41.4766 148.159 33.9831C147.904 37.4541 147.473 39.6739 145.011 41.1538L144.957 41.1672ZM138.592 94.1733C133.291 81.9039 137.852 69.9573 139.669 58.078C137.745 70.0919 139.467 82.173 138.592 94.1733ZM137.085 100.9C132.228 94.1733 131.945 75.8633 136.184 65.9213C134.354 77.6392 133.21 89.3032 137.085 100.9ZM143.948 142.161C147.823 141.879 151.644 141.475 154.43 138.327C155.345 137.291 156.556 136.74 157.444 137.56C158.789 138.906 157.202 139.915 156.488 140.803C153.932 143.951 150.232 144.61 146.531 144.57C140.548 144.258 134.667 142.892 129.16 140.534C134.152 140.682 138.915 142.511 143.975 142.148L143.948 142.161ZM164.131 132.273C161.238 133.619 162.369 131.843 163.095 130.592C162.032 132.044 160.27 132.219 158.789 132.717C156.744 133.417 157.309 131.802 157.444 130.726C156.273 130.524 155.641 132.273 154.053 131.466C158.803 114.918 165.786 98.8686 167.307 81.3792C166.284 93.9357 165.257 106.528 164.225 119.156C167.509 112.43 166.136 105.057 167.293 98.0345C167.562 96.4201 167.549 94.7384 167.684 92.7877C171.438 99.5143 169.164 118.026 163.311 130.013C169.096 124.632 170.227 117.515 170.873 109.833C171.601 114.895 171.196 120.055 169.688 124.941C169.372 126.496 168.711 127.961 167.754 129.228C166.797 130.494 165.568 131.53 164.158 132.26L164.131 132.273ZM197.636 103.039C194.91 106.759 191.126 109.572 186.777 111.111C185.687 111.515 184.274 111.999 184.907 109.766C181.96 109.645 180.103 112.578 176.833 112.672L179.861 108.757C178.933 108.568 176.78 108.972 178.69 107.089C182.646 103.214 187.652 101.411 193.007 100.47C193.989 100.295 194.016 100.47 193.613 103.066L197.636 103.039ZM206.18 117.219C201.404 119.91 195.725 120.165 191.137 123.233C185.553 123.434 180.803 127.107 174.869 127.269C175.528 124.484 178.489 124.255 179.471 122.264L174.721 123.34C182.458 114.569 192.213 118.188 200.542 116.842C195.16 117.838 189.845 118.86 184.503 119.815C183.505 119.917 182.538 120.222 181.661 120.71C180.784 121.198 180.016 121.859 179.404 122.654C188.069 119.425 197.421 119.735 206.207 117.205L206.18 117.219ZM203.18 85.5498C203.731 81.2447 205.104 77.1952 210.567 75.2176L208.118 82.5497C208.925 80.1684 211.401 78.8365 211.818 76.1997C211.818 82.0653 208.454 88.2135 202.574 92.976C202.171 89.8279 203.826 87.931 205.494 86.061C204.525 87.07 203.005 87.3256 203.18 85.5498ZM212.047 99.7699C215.855 95.2765 221.157 94.7384 223.673 90.3526C225.018 92.6666 222.986 93.8236 223.592 95.29C225.166 94.9536 226.149 93.1105 228.678 93.6487C223.915 100.375 218.304 105.299 210.621 107.654C210.295 107.732 209.951 107.686 209.657 107.524C209.364 107.362 209.141 107.096 209.033 106.779C206.584 106.86 206.692 106.026 208.145 104.506C210.675 101.815 214.873 101.936 217.066 98.7475L212.047 99.7699ZM221.466 74.6526L223.713 72.5269C226.62 74.0471 227.333 70.8318 229.095 69.8363C229.322 70.3876 229.425 70.9824 229.394 71.5779C229.364 72.1734 229.202 72.7548 228.92 73.2803C231.073 71.0874 232.056 68.2622 233.132 65.3563C236.079 73.2265 229.553 76.6436 226.189 81.7156C224.507 80.3702 226.189 79.3612 225.839 78.3522C222.892 79.6034 222.798 83.9623 218.788 84.5542L221.466 74.6526ZM219.623 74.1548C219.647 72.9306 220.149 71.7644 221.021 70.9049C221.893 70.0453 223.067 69.5605 224.292 69.5537L219.623 74.1548ZM208.952 120.623L209.046 120.502C199.345 123.3 189.98 127.228 180.103 129.448C178.245 130.022 176.269 130.101 174.371 129.677C179.901 126.986 185.916 126.475 190.895 123.327L213.446 117.273C212.518 119.21 210.136 119.022 209.019 120.502L208.939 120.609L211.791 121.712C199.52 128.304 186.764 131.224 173.55 132.569C183.401 130.295 193.095 127.392 202.574 123.878C204.781 123.111 207.499 123.017 208.939 120.609L208.952 120.623ZM226.445 126.273C222.637 128.789 218.371 129.206 213.164 129.246C217.779 125.842 222.623 128.089 226.552 126.273H226.445ZM203.664 135.381L222.623 132.112C216.75 134.885 210.236 136.015 203.772 135.381H203.664ZM216.407 136.148C211.112 138.589 205.214 139.413 199.452 138.516L216.407 136.148ZM250.988 145.848C239.9 144.247 228.894 145.323 217.873 145.579C229.001 140.924 240.075 142.094 251.095 145.848H250.988ZM209.167 89.0745C209.813 93.9177 207.243 96.5277 203.704 98.4111C203.252 98.564 202.769 98.601 202.299 98.5188C201.829 98.4365 201.387 98.2376 201.013 97.9403C200.3 97.1062 201.121 96.1106 201.901 95.4245C204.323 93.3796 206.665 91.3481 209.275 89.0745H209.167ZM196.56 130.995C188.298 131.95 180.763 137.87 171.855 134.439C180.48 135.26 188.217 130.672 196.667 130.995H196.56ZM221.385 137.426C211.468 141.233 201.282 143.049 190.531 141.462C200.967 141.239 211.349 139.886 221.493 137.426H221.385ZM250.921 147.475C242.847 150.26 219.044 150.449 211.388 147.475C224.709 147.556 237.909 145.498 251.028 147.475H250.921ZM246.884 150.408C236.213 153.099 225.543 154.444 214.9 150.812C225.772 151.148 236.402 151.794 247.045 150.408H246.884ZM228.476 58.1453C227.44 52.3335 233.24 50.0733 234.545 45.8221C233.509 50.3962 233.765 55.5623 228.476 58.1453ZM207.647 23.5433C211.334 21.9693 215.007 20.3818 218.923 18.6867C218.25 20.032 217.671 21.1083 217.093 22.2249C218.008 21.5926 219.152 20.5836 220.026 21.6599C220.18 21.8453 220.275 22.0724 220.299 22.312C220.323 22.5517 220.275 22.793 220.161 23.0052C221.022 22.3056 222.125 21.8213 223.296 21.0679C222.946 22.8976 222.717 24.1218 222.489 25.3326C223.027 29.1937 219.407 31.2655 218.56 34.5213C223.094 31.0772 224.978 25.9111 227.508 20.4625C228.423 26.799 224.816 31.4808 223.659 36.7276C227.696 32.6916 228.207 27.391 229.445 22.2922C229.68 28.1502 228.347 33.9648 225.583 39.1357C224.682 40.9116 223.363 42.4991 223.188 44.5844C227.225 40.5484 228.786 35.315 230.616 28.7094C231.033 38.1268 226.175 44.5709 223.7 51.7146C228.867 46.3333 230.279 39.1761 232.567 32.4494C232.015 43.4946 227.669 53.0465 220.982 61.9526C218.627 59.679 221.21 57.9166 220.982 56.1273C219.636 56.2484 219.259 59.1543 217.066 57.3516C215.384 56.0062 216.326 54.8492 216.851 53.5443C217.227 52.6563 217.564 51.7415 217.9 50.8536C217.524 51.3959 217.07 51.8808 216.555 52.2931C214.9 53.2887 214.725 57.1363 211.912 55.4816C209.585 54.1362 212.949 52.1451 212.357 50.302C211.616 51.163 210.823 51.9971 210.163 52.912C209.504 53.8268 209.248 56.2753 207.284 55.2394C205.804 54.4726 206.436 52.6429 206.907 51.2034C207.378 49.7639 207.755 48.7414 208.172 47.5172C206.826 47.7728 206.745 50.8805 204.889 49.4948C203.032 48.1091 203.678 46.2929 204.794 44.5171C207.338 40.4811 211.024 37.5214 214.321 34.1984C215.855 32.6647 217.335 31.0772 218.842 29.5032C212.424 32.9472 207.876 38.4631 203.086 43.8579C200.825 38.0057 206.369 36.0415 208.602 32.4898C206.127 34.3867 203.328 35.8935 201.417 38.5034C200.677 39.5124 199.547 40.2658 198.443 39.4183C196.95 38.2613 198.618 37.4272 199.17 36.6334C200.65 34.4674 203.207 33.1894 204.216 30.6063C199.466 32.6512 197.488 37.7904 192.832 41.4363C194.003 34.7096 199.089 32.14 202.144 28.104C197.165 29.3417 195.281 33.9697 192.146 37.333C192.415 31.4674 200.489 24.3774 207.647 23.5433ZM198.053 47.3826C198.955 49.1988 197.259 50.3558 197.474 51.8222C198.161 52.1855 199.372 50.4769 199.264 51.5801C198.928 55.1452 197.488 58.4144 193.774 59.6521C191.904 60.3113 192.926 58.6431 192.805 57.9301C190.451 58.4951 189.361 60.9032 186.589 62.3024C189.038 55.6968 193.855 51.8895 198.053 47.3826ZM190.679 77.7468L186.777 80.007C186.533 78.9253 186.581 77.798 186.917 76.741C187.253 75.6841 187.864 74.7357 188.688 73.9933C185.997 74.6795 186.548 72.9305 187.504 71.9753C193.46 65.8383 201.219 61.7615 209.652 60.3382C205.131 63.2038 200.233 63.3248 197.905 67.5761C200.812 66.2308 203.462 64.3069 206.799 63.9437C204.808 65.5177 202.48 66.6344 201.108 68.8273L210.459 64.28C207.997 67.7914 204.054 68.2219 202.938 71.5852C203.933 70.8856 205.131 70.2399 206.032 71.3834C207.176 72.8094 205.615 73.24 204.781 73.9799C201.148 77.1549 197.69 80.5451 193.909 83.5048C193.155 84.0833 191.083 87.3256 189.778 83.5048L184.557 87.7023C185.93 83.1551 189.038 80.8814 190.679 77.7468ZM194.447 89.5857L195.201 90.6486L183.359 99.0973C185.553 92.6666 191.07 92.4782 194.447 89.5857ZM180.305 32.4629C180.453 33.9428 180.426 35.8531 178.394 35.8935C175.582 35.9608 177.049 33.862 177.21 32.6512C177.789 28.0098 175.69 23.651 175.569 18.0544C178.245 22.4244 179.866 27.3575 180.305 32.4629ZM175.394 34.9787C175.138 36.6065 174.048 37.5348 172.568 37.1043C170.644 36.4989 172.218 35.1267 172.474 34.2387C173.544 30.3448 174.114 26.3302 174.169 22.2922C175.86 26.2977 176.287 30.7238 175.394 34.9787ZM171.841 18.8347C173.187 26.5972 172.783 33.9293 167.038 39.9968C166.499 32.288 172.232 26.3147 171.841 18.8347ZM165.114 27.6062L165.275 27.4448C168.572 25.3057 168.06 21.1486 170.065 18.2024C170.442 24.7272 167.495 30.2027 165.006 36.0953C161.898 32.9338 166.096 30.2565 165.275 27.4448L161.736 32.732C160.592 24.66 167.414 20.3953 167.859 14.0856C168.948 19.0096 166.419 23.1532 165.114 27.539V27.6062ZM163.768 14.8928C164.279 13.9559 165.14 13.2594 166.163 12.9556C165.84 17.9198 163.297 21.7809 161.144 25.7766C160.74 26.5165 160.633 28.5614 158.87 27.1892C157.74 26.3147 157.121 25.1577 158.44 23.8259C159.6 22.6181 160.418 21.1227 160.808 19.4939C158.345 20.7316 157.834 25.0367 153.542 23.9469C156.906 20.1531 160.498 16.8974 163.337 12.3502C163.582 12.7028 163.745 13.1054 163.815 13.5289C163.885 13.9524 163.86 14.3862 163.741 14.7987L163.768 14.8928ZM127.828 40.5214C130.519 30.3642 137.247 24.0949 146.8 20.2069C150.837 18.5791 154.255 15.5386 158.144 13.0094C158.722 14.7449 157.255 15.283 156.973 16.2785C157.847 18.6867 155.627 19.5611 154.497 20.7047C150.46 24.5389 146.424 28.1713 142.252 31.871C136.87 36.7141 133.425 43.0103 129.523 48.997C129.913 46.7369 130.304 44.4633 130.707 42.2031C128.756 43.3197 126.953 43.8175 127.828 40.5214ZM125.702 58.0108C125.406 64.7509 128.877 71.1681 127.666 78.0293C125.809 71.5066 125.144 64.7024 125.702 57.9435V58.0108ZM124.545 71.8677C124.921 78.5944 128.689 84.6887 127.68 91.4961C125.473 84.9578 123.643 78.6078 124.545 71.8004V71.8677ZM122.903 57.2843C122.244 70.3206 122.298 83.2896 127.074 95.7474C121.544 88.4826 119.889 72.944 122.903 57.2843ZM120.077 93.6083C115.435 89.3436 115.018 82.6573 110.658 78.258C112.165 84.1372 115.408 89.236 117.965 94.6308C118.732 96.2721 120.01 97.7923 118.665 99.7027C118.665 100.12 118.665 100.537 118.665 100.954C117.319 100.873 117.023 100.012 117.009 98.9089C115.327 100.254 114.897 98.3977 114.036 97.6578C109.999 97.8461 109.999 93.8908 108.317 91.7652C106.817 89.7574 105.733 87.4705 105.128 85.0385C104.536 82.6976 106.339 84.5138 107.025 84.339C103.554 77.3163 100.607 70.1591 101.212 62.0199C104.536 72.7825 106.918 84.0295 114.238 93.1374C111.789 85.8995 107.362 79.4688 105.612 71.9484C104.792 68.4237 103.877 64.9258 103.312 61.3203C106.77 66.7016 106.823 73.4283 110.833 78.3791C111.345 74.9216 108.223 72.4058 108.694 68.9618C112.69 77.0742 115.92 85.5632 120.077 93.6352V93.6083ZM115.476 44.6382C117.386 50.3424 116.942 55.8313 116.74 61.3607C114.857 58.4951 114.48 53.5846 115.476 44.6382ZM112.784 45.3108C114.52 50.2751 113.592 55.4143 113.551 60.4996C111.277 55.5757 112.327 50.4231 112.798 45.3108H112.784ZM116.135 75.0293L109.299 63.6881C111.137 65.029 112.689 66.7225 113.865 68.6697C115.041 70.6169 115.817 72.7788 116.148 75.0293H116.135ZM110.753 45.0687V58.6162C107.644 54.0959 109.663 49.589 110.712 45.0687H110.753ZM109.676 36.1626C110.295 40.6425 108.869 43.8041 108.586 47.0598C108.304 50.3155 107.819 53.477 107.389 56.9211C104.603 53.625 105.68 51.6608 109.636 36.1626H109.676ZM105.841 40.4273C107.389 39.9564 106.998 41.2883 106.877 41.7726C105.909 46.1449 104.832 50.5038 103.54 55.9659C100.647 50.7325 104.671 47.2078 104.455 43.3466C101.024 46.5082 102.343 51.9837 98.0908 56.0197C99.867 48.4417 102.626 41.1284 106.299 34.2656C106.763 35.2462 106.962 36.3316 106.874 37.4131C106.787 38.4945 106.417 39.534 105.801 40.4273H105.841ZM93.7311 45.5664C94.9444 42.2674 96.7706 39.2273 99.1134 36.6065C100.647 34.9652 100.863 35.9339 100.459 37.4272L100.567 37.2523C100.561 37.3284 100.561 37.4049 100.567 37.481C102.423 35.8935 103.527 33.7006 105.101 31.8037C102.679 39.0685 99.2345 45.9028 97.2161 53.2483C95.0653 60.6463 94.9537 68.4879 96.8932 75.9441C92.3855 68.5178 92.8565 60.7149 94.7941 52.6563C96.1397 47.275 99.0596 42.6874 100.567 37.481L100.486 37.5483V37.4272C92.6412 48.7818 89.7213 61.0512 93.5562 74.6122C88.1874 64.8854 89.9231 55.1587 93.6504 45.5664H93.7311ZM84.0296 87.0296L84.1507 87.1642C84.2987 85.469 83.0877 83.5856 84.8907 82.1326C86.936 82.7515 92.6816 90.0835 92.6412 92.1419C92.6289 92.3761 92.5615 92.6041 92.4446 92.8075C92.3277 93.0108 92.1646 93.1838 91.9684 93.3123C91.04 93.689 90.4076 93.0163 90.0173 92.2764C88.4161 89.236 86.8687 86.1552 85.2944 83.1012C85.2944 86.9758 87.9855 90.1777 89.1696 94.9133C85.3078 92.6935 86.1152 89.0611 84.1237 87.1507H83.9757C83.0607 90.2315 85.8864 92.6531 85.4962 96.6488C82.8051 91.8459 82.0381 87.3794 80.7598 82.738C83.1011 83.5048 82.0785 86.3031 84.0296 87.0296ZM85.4962 130.645C77.8803 119.425 73.3861 106.86 70.695 93.541C69.621 88.0542 69.6714 82.4065 70.843 76.9396C71.4485 81.9174 71.8791 86.9085 72.6729 91.8459C74.3215 102.277 77.4004 112.431 81.8228 122.022C83.5553 126.033 86.346 129.497 89.8962 132.044C86.2497 126.973 82.7647 121.806 80.6656 115.833C80.1274 114.313 79.0644 112.82 80.7464 111.353C79.7641 107.317 78.7953 103.281 77.813 99.3394C80.7329 105.326 82.8589 111.663 87.0167 117.044C88.8467 119.371 90.2192 122.224 93.3678 123.246C86.64 115.174 81.4999 106.429 79.172 96.1241C78.9226 95.135 78.9226 94.0996 79.172 93.1105C81.2846 97.9403 83.3702 102.783 85.55 107.586C86.4381 109.537 87.3127 111.622 89.5868 112.362C84.2987 103.12 80.262 93.4334 78.9029 82.7649C81.7017 88.6306 81.4999 95.7474 86.7207 100.564C87.9182 100.295 87.9721 100.268 88.2681 100.833C91.1611 106.402 96.2608 110.075 100.271 114.69C102.397 117.044 105.424 118.08 109.851 118.389C106.178 120.286 104.011 118.389 101.778 118.255C103.05 119.582 104.715 120.464 106.527 120.771C108.438 120.999 109.326 121.82 108.721 123.703C108.115 125.587 106.581 124.874 105.37 124.591C104.085 124.216 102.823 123.767 101.589 123.246C101.948 123.98 102.487 124.611 103.155 125.081C103.823 125.551 104.599 125.846 105.411 125.937C106.675 126.219 108.304 126.138 107.86 128.116C107.416 130.094 105.989 129.905 104.428 129.313C103.491 129.054 102.532 128.883 101.562 128.802C104.832 130.605 102.76 133.551 103.123 135.986C107.765 139.444 113.484 140.641 119.162 143.049C115.274 146.022 112.031 144.274 108.855 143.278C102.397 141.287 97.3238 136.686 91.3629 133.753C97.2565 140.318 104.953 143.816 113.027 146.641C101.132 146.022 92.0222 140.238 85.4962 130.645ZM138.068 187.069C138.458 191.185 141.674 193.997 142.992 197.683C143.706 199.688 144.849 201.585 144.176 203.845C144.148 204.002 144.068 204.144 143.948 204.249C143.1 204.598 143.369 203.872 143.262 203.509C140.407 202.729 137.91 200.984 136.197 198.571C130.546 194.602 124.773 190.943 122.163 183.853C120.293 178.741 117.494 173.979 116.041 168.651C114.264 162.166 114.224 155.951 117.844 150.045C117.839 150.014 117.839 149.982 117.844 149.951C113.296 152.023 114.803 157.121 112.461 160.714C112.246 156.583 112.636 152.938 115.153 149.857C115.906 148.955 117.009 147.449 117.736 149.857L117.911 149.763L117.83 149.897C118.952 148.987 120.171 148.202 121.463 147.556C123.845 146.614 123.818 148.256 123.589 149.911C124.185 149.686 124.811 149.555 125.446 149.52C127.195 149.52 126.509 151.363 126.038 153.045C126.089 153.013 126.143 152.986 126.2 152.964C126.205 153.009 126.205 153.054 126.2 153.099C127.68 152.911 129.079 151.552 130.68 153.099C132.282 154.646 130.68 155.79 130.344 157.135C128.608 164.992 128.595 172.539 134.26 179.064C131.569 172.889 129.792 166.579 131.192 159.812C140.019 170.857 138.983 185.374 145.293 197.239C142.212 194.28 141.284 189.894 138.068 187.069ZM147.769 203.966C147.648 192.706 139.696 183.571 139.104 171.893C144.621 174.221 147.621 176.777 146.397 182.925C145.347 188.118 147.312 193.445 148.132 198.706C148.337 200.467 148.214 202.25 147.769 203.966ZM149.761 202.352C148.953 196.19 148.092 190.028 147.392 183.853C147.191 182.077 146.666 179.669 148.402 178.701C150.433 177.557 151.86 179.898 153.488 180.853C153.986 181.149 154.174 181.956 154.995 181.781C151.806 183.557 151.618 186.8 151.241 189.853C150.703 194.011 150.474 198.181 149.761 202.352ZM175.326 205.042L179.888 201.356C176.901 201.154 175.125 204.047 171.68 204.37L173.927 201.329C170.738 201.692 168.679 204.275 165.854 205.432C166.688 202.742 169.514 202.177 171.236 200.508C172.958 198.84 176.08 198.006 176.484 194.872C175.114 196.082 173.652 197.184 172.111 198.168C168.854 199.93 166.728 203.697 162.301 203.387C162.301 203.751 162.301 204.114 162.301 204.477L157.269 204.396C156.717 206.159 155.103 206.078 153.636 206.536L154.753 201.383L151.12 206.226C152.99 197.481 150.716 189.154 155.022 181.701C158.762 183.046 160.404 185.239 158.655 189.288C158.267 190.727 158.073 192.211 158.076 193.701C158.776 192.033 159.422 190.365 160.202 188.723C160.66 187.701 160.202 185.562 162.14 186.154C164.077 186.746 165.934 187.943 165.181 190.486C164.575 192.517 163.633 194.522 162.853 196.432C164.616 193.607 166.89 192.087 170.361 193.392C171.532 193.836 170.9 194.737 170.98 195.369C175.474 191.199 177.883 185.024 184.113 182.051L182.767 187.728C185.351 185.293 185.459 181.849 186.508 178.768C187.194 176.79 187.046 173.467 190.047 173.763C193.774 174.127 192.025 177.557 192.375 179.75C192.428 180.242 192.428 180.738 192.375 181.23C193.143 180.369 193.615 179.285 193.72 178.136C193.922 176.965 192.805 174.88 195.604 175.122C198.403 175.364 197.932 177.086 197.878 178.983C197.73 184.687 193.963 188.548 191.15 192.894C197.004 189.14 198.901 183.181 199.816 176.481C206.086 185.925 192.644 201.248 175.286 205.096L175.326 205.042ZM201.659 170.144L201.821 170.333L201.404 170.265C200.744 170.817 204.095 172.593 201.404 171.853C191.406 169.243 181.22 166.969 172.164 161.682C171.007 161.01 169.473 160.337 170.281 158.696C170.725 157.781 171.707 158.561 172.326 159.126C171.518 157.781 170.644 156.328 169.931 154.861C169.5 153.987 169.123 152.695 170.025 152.171C170.563 151.861 171.734 152.682 172.622 152.991C171.887 151.783 171.278 150.503 170.805 149.171C170.24 146.991 171.518 146.776 173.214 147.381C172.837 146.641 172.42 145.915 172.057 145.161C171.693 144.408 170.711 143.291 171.707 142.538C172.703 141.785 173.806 142.659 174.667 143.547C175.918 144.892 177.358 146.036 178.623 147.274C177.762 145.256 178.717 145.363 180.17 145.928C184.315 147.489 188.459 149.009 192.617 150.556C192.55 148.188 193.007 147.718 195.187 148.74C202.517 151.923 208.577 157.457 212.41 164.467L206.53 160.431C206.786 160.74 207.284 161.077 207.257 161.359C207.149 162.18 206.53 162.18 205.911 161.951L203.314 161.05C204.794 163.741 208.253 164.75 209.571 167.911H206.665C206.745 168.099 206.826 168.288 206.92 168.476C200.596 167.481 195.106 163.593 188.607 163.189L188.701 163.256H188.809C193.72 166.741 200.206 166.633 205.05 170.292L201.659 170.144ZM208.145 188.979C215.895 189.746 223.605 190.607 231.477 189.759C239.349 188.912 246.763 186.88 254.352 184.983C239.51 192.262 224.103 194.374 208.105 189.033L208.145 188.979ZM288.475 164.534C284.318 169.633 278.061 170.252 272.503 172.485C276.702 168.046 282.918 166.781 287.533 162.987C282.017 164.104 277.469 167.306 272.732 169.969C256.047 179.198 238.649 185.952 219.138 185.562C215.761 185.495 212.585 184.539 209.289 184.149L209.41 184.284C211.078 186.477 213.594 186.396 215.99 186.571C229.445 187.566 242.201 184.943 254.634 180.1C255.98 179.589 257.177 178.526 259.102 178.835C258.829 179.696 258.353 180.478 257.713 181.115C257.074 181.752 256.29 182.225 255.428 182.494C241.241 188.591 225.573 190.373 210.379 187.62C209.878 187.586 209.382 187.5 208.898 187.365C207.432 186.773 204.996 186.557 205.656 184.418C206.315 182.279 208.145 185.347 209.41 184.284L209.262 184.122C208.913 183.671 208.506 183.268 208.051 182.925C206.705 182.118 205.104 181.176 205.979 179.467C206.853 177.759 208.333 179.467 209.41 179.723C223.767 184.042 237.599 180.88 251.338 176.844C254.15 176.01 257.245 175.579 259.411 173.225C250.127 175.701 240.963 178.714 231.356 179.952C228.504 180.357 225.62 180.483 222.744 180.328C223.027 177.409 225.059 177.638 226.996 177.638C232.379 177.638 237.559 177.275 242.242 174.328C237.263 174.665 232.567 176.871 227.44 176.521C225.664 176.4 224.642 175.983 224.749 173.952C224.749 172.337 225.234 171.436 227.037 171.557C241.73 172.552 255.119 166.848 268.951 163.485C270.189 163.189 271.36 162.14 272.84 162.866C269.624 165.476 264.766 164.736 262.075 168.328L277.186 163.189C276.473 164.534 275.962 165.395 275.464 166.283C284.008 162.53 292.512 158.601 303.223 158.346C297.275 160.122 292.055 160.444 287.52 163.041C287.184 163.902 290.278 162.328 288.435 164.588L288.475 164.534Z" fill="url(#paint17_linear)"/>
<path d="M130.29 205.46C127.841 203.859 125.419 207.545 124.814 210.411C113.309 265.152 119.755 320.62 119.755 375.967C119.826 451.925 119.777 527.883 119.607 603.84H125.312C128.878 603.84 125.715 473.8 125.514 463.132C124.572 413.126 125.662 363.093 123.482 313.1C122.015 279.467 121.558 245.268 130.492 212.59C130.654 211.998 130.815 211.406 130.99 210.814C131.542 208.958 131.865 206.523 130.29 205.46Z" fill="url(#paint18_linear)"/>
<path d="M62.6754 332.056C57.5218 327.034 52.8627 321.529 48.7622 315.616C52.8627 321.529 57.5218 327.034 62.6754 332.056L63.1598 332.379L62.6754 332.056Z" fill="url(#paint19_linear)"/>
<path d="M157.794 162.88L154.86 160.189L157.794 162.88Z" fill="url(#paint20_linear)"/>
<path d="M416.103 196.5C416.104 196.469 416.104 196.438 416.103 196.406L416.21 196.527L406.038 182.307C408.103 187.832 411.572 192.724 416.103 196.5Z" fill="url(#paint21_linear)"/>
<path d="M149.734 362.231C144.553 363.643 139.628 366.334 133.95 365.19C139.238 364.37 144.096 361.329 149.734 362.231Z" fill="url(#paint22_linear)"/>
<path d="M149.828 362.19L150.245 362.042L149.922 362.257H149.734L149.828 362.19Z" fill="url(#paint23_linear)"/>
<path d="M164.36 375.819C168.579 376.612 172.477 378.613 175.582 381.577C173.399 381.524 171.255 380.978 169.312 379.981C167.369 378.984 165.676 377.561 164.36 375.819Z" fill="url(#paint24_linear)"/>
<path d="M173.658 322.733L173.537 322.584L173.645 322.652C173.656 322.678 173.66 322.705 173.658 322.733Z" fill="url(#paint25_linear)"/>
<path d="M194.501 285.279H194.434L194.582 285.117C194.582 285.117 194.528 285.211 194.501 285.279Z" fill="url(#paint26_linear)"/>
<path d="M201.727 380.998V380.931C201.782 380.993 201.84 381.051 201.902 381.106L201.727 380.998Z" fill="url(#paint27_linear)"/>
<path d="M222.543 357.86C222.535 357.806 222.535 357.751 222.543 357.697L222.746 357.887L222.543 357.86Z" fill="url(#paint28_linear)"/>
<path d="M227.965 302.298C228.008 302.358 228.058 302.412 228.114 302.46H228.046L227.938 302.311L227.965 302.298Z" fill="url(#paint29_linear)"/>
<path d="M266.315 293.083L266.126 292.88L266.302 293.002C266.302 293.002 266.315 293.056 266.315 293.083Z" fill="url(#paint30_linear)"/>
<path d="M288.839 343.261C279.689 338.808 270.001 335.323 262.412 328.153C271.118 333.373 282.743 333.521 288.839 343.261Z" fill="url(#paint31_linear)"/>
<path d="M283.376 189.693L283.255 189.531H283.349L283.43 189.666L283.376 189.693Z" fill="url(#paint32_linear)"/>
<path d="M301.609 295.476H301.514L301.447 295.368L301.609 295.476Z" fill="url(#paint33_linear)"/>
<path d="M317.365 348.535V348.603H317.257L317.19 348.468L317.365 348.535Z" fill="url(#paint34_linear)"/>
<path d="M338.423 360.549C346.066 360.334 352.847 362.998 359.239 366.792C352.35 364.397 345.312 362.715 338.423 360.549Z" fill="url(#paint35_linear)"/>
<path d="M347.828 344.728C347.865 344.781 347.905 344.83 347.95 344.877L347.828 344.728Z" fill="url(#paint36_linear)"/>
<path d="M355.404 212.562C353.876 222.825 354.245 233.282 356.494 243.411C350.856 239.577 350.6 223.635 355.404 212.562Z" fill="url(#paint37_linear)"/>
<path d="M368.241 190.163C357.597 207.06 357.826 225.612 359.939 244.474C351.986 232.742 355.942 202.176 368.241 190.163Z" fill="url(#paint38_linear)"/>
<path d="M376.758 339.023C379.987 347.66 383.957 356.123 381.616 365.715C377.108 357.293 377.727 347.956 376.758 339.023Z" fill="url(#paint39_linear)"/>
<path d="M382.141 243.035C382.105 242.978 382.064 242.924 382.019 242.873H382.1L382.195 242.995L382.141 243.035Z" fill="url(#paint40_linear)"/>
<path d="M380.351 340.854C382.463 344.459 384.953 347.943 383.93 352.518C381.696 348.952 380.943 344.93 380.351 340.854Z" fill="url(#paint41_linear)"/>
<path d="M406.361 172.674L406.226 172.553L406.361 172.634V172.674Z" fill="url(#paint42_linear)"/>
<path d="M418.35 263.847C415.389 260.313 412.434 256.779 409.482 253.246C411.666 254.227 413.599 255.691 415.135 257.527C416.671 259.363 417.77 261.524 418.35 263.847Z" fill="url(#paint43_linear)"/>
<path d="M431.012 222.384L431.16 222.519L431.079 222.721C431.044 222.612 431.022 222.498 431.012 222.384Z" fill="url(#paint44_linear)"/>
<path d="M436.542 223.985L436.38 223.863H436.488C436.508 223.903 436.526 223.943 436.542 223.985Z" fill="url(#paint45_linear)"/>
<path d="M440 307.449V323.338C438.822 318.107 438.822 312.68 440 307.449Z" fill="url(#paint46_linear)"/>
</g>
<defs>
<linearGradient id="paint0_linear" x1="127.319" y1="153.14" x2="127.319" y2="184.492" gradientUnits="userSpaceOnUse">
<stop offset="0.161458" stop-color="#FAC438"/>
<stop offset="0.510417" stop-color="#CEBA4E"/>
<stop offset="1" stop-color="#FF5C00" stop-opacity="0"/>
</linearGradient>
<linearGradient id="paint1_linear" x1="254.493" y1="110.923" x2="254.493" y2="111.986" gradientUnits="userSpaceOnUse">
<stop offset="0.161458" stop-color="#FAC438"/>
<stop offset="0.510417" stop-color="#CEBA4E"/>
<stop offset="1" stop-color="#FF5C00" stop-opacity="0"/>
</linearGradient>
<linearGradient id="paint2_linear" x1="210.984" y1="376.814" x2="210.984" y2="390.967" gradientUnits="userSpaceOnUse">
<stop offset="0.161458" stop-color="#FAC438"/>
<stop offset="0.510417" stop-color="#CEBA4E"/>
<stop offset="1" stop-color="#FF5C00" stop-opacity="0"/>
</linearGradient>
<linearGradient id="paint3_linear" x1="307.429" y1="249.896" x2="307.429" y2="250.007" gradientUnits="userSpaceOnUse">
<stop offset="0.161458" stop-color="#FAC438"/>
<stop offset="0.510417" stop-color="#CEBA4E"/>
<stop offset="1" stop-color="#FF5C00" stop-opacity="0"/>
</linearGradient>
<linearGradient id="paint4_linear" x1="362.307" y1="346.611" x2="362.307" y2="356.688" gradientUnits="userSpaceOnUse">
<stop offset="0.161458" stop-color="#FAC438"/>
<stop offset="0.510417" stop-color="#CEBA4E"/>
<stop offset="1" stop-color="#FF5C00" stop-opacity="0"/>
</linearGradient>
<linearGradient id="paint5_linear" x1="121.94" y1="152.628" x2="121.94" y2="184.472" gradientUnits="userSpaceOnUse">
<stop offset="0.161458" stop-color="#FAC438"/>
<stop offset="0.510417" stop-color="#CEBA4E"/>
<stop offset="1" stop-color="#FF5C00" stop-opacity="0"/>
</linearGradient>
<linearGradient id="paint6_linear" x1="191.184" y1="151.121" x2="191.184" y2="166.337" gradientUnits="userSpaceOnUse">
<stop offset="0.161458" stop-color="#FAC438"/>
<stop offset="0.510417" stop-color="#CEBA4E"/>
<stop offset="1" stop-color="#FF5C00" stop-opacity="0"/>
</linearGradient>
<linearGradient id="paint7_linear" x1="306.183" y1="208.622" x2="306.183" y2="224.766" gradientUnits="userSpaceOnUse">
<stop offset="0.161458" stop-color="#FAC438"/>
<stop offset="0.510417" stop-color="#CEBA4E"/>
<stop offset="1" stop-color="#FF5C00" stop-opacity="0"/>
</linearGradient>
<linearGradient id="paint8_linear" x1="301.332" y1="234.748" x2="301.332" y2="249.816" gradientUnits="userSpaceOnUse">
<stop offset="0.161458" stop-color="#FAC438"/>
<stop offset="0.510417" stop-color="#CEBA4E"/>
<stop offset="1" stop-color="#FF5C00" stop-opacity="0"/>
</linearGradient>
<linearGradient id="paint9_linear" x1="287.534" y1="162.96" x2="287.534" y2="163.042" gradientUnits="userSpaceOnUse">
<stop offset="0.161458" stop-color="#FAC438"/>
<stop offset="0.510417" stop-color="#CEBA4E"/>
<stop offset="1" stop-color="#FF5C00" stop-opacity="0"/>
</linearGradient>
<linearGradient id="paint10_linear" x1="191.729" y1="164.239" x2="191.729" y2="170.32" gradientUnits="userSpaceOnUse">
<stop offset="0.161458" stop-color="#FAC438"/>
<stop offset="0.510417" stop-color="#CEBA4E"/>
<stop offset="1" stop-color="#FF5C00" stop-opacity="0"/>
</linearGradient>
<linearGradient id="paint11_linear" x1="181.247" y1="155.144" x2="181.247" y2="163.337" gradientUnits="userSpaceOnUse">
<stop offset="0.161458" stop-color="#FAC438"/>
<stop offset="0.510417" stop-color="#CEBA4E"/>
<stop offset="1" stop-color="#FF5C00" stop-opacity="0"/>
</linearGradient>
<linearGradient id="paint12_linear" x1="283.37" y1="189.585" x2="283.37" y2="189.696" gradientUnits="userSpaceOnUse">
<stop offset="0.161458" stop-color="#FAC438"/>
<stop offset="0.510417" stop-color="#CEBA4E"/>
<stop offset="1" stop-color="#FF5C00" stop-opacity="0"/>
</linearGradient>
<linearGradient id="paint13_linear" x1="159.307" y1="162.88" x2="159.307" y2="165.719" gradientUnits="userSpaceOnUse">
<stop offset="0.161458" stop-color="#FAC438"/>
<stop offset="0.510417" stop-color="#CEBA4E"/>
<stop offset="1" stop-color="#FF5C00" stop-opacity="0"/>
</linearGradient>
<linearGradient id="paint14_linear" x1="253.544" y1="111.837" x2="253.544" y2="113.008" gradientUnits="userSpaceOnUse">
<stop offset="0.161458" stop-color="#FAC438"/>
<stop offset="0.510417" stop-color="#CEBA4E"/>
<stop offset="1" stop-color="#FF5C00" stop-opacity="0"/>
</linearGradient>
<linearGradient id="paint15_linear" x1="150.548" y1="146.104" x2="150.548" y2="149.728" gradientUnits="userSpaceOnUse">
<stop offset="0.161458" stop-color="#FAC438"/>
<stop offset="0.510417" stop-color="#CEBA4E"/>
<stop offset="1" stop-color="#FF5C00" stop-opacity="0"/>
</linearGradient>
<linearGradient id="paint16_linear" x1="56.8749" y1="248.569" x2="56.8749" y2="604.108" gradientUnits="userSpaceOnUse">
<stop offset="0.161458" stop-color="#FAC438"/>
<stop offset="0.510417" stop-color="#CEBA4E"/>
<stop offset="1" stop-color="#FF5C00" stop-opacity="0"/>
</linearGradient>
<linearGradient id="paint17_linear" x1="189.671" y1="0" x2="189.671" y2="219.007" gradientUnits="userSpaceOnUse">
<stop offset="0.161458" stop-color="#FAC438"/>
<stop offset="0.510417" stop-color="#CEBA4E"/>
<stop offset="1" stop-color="#FF5C00" stop-opacity="0"/>
</linearGradient>
<linearGradient id="paint18_linear" x1="124.699" y1="205.072" x2="124.699" y2="603.84" gradientUnits="userSpaceOnUse">
<stop offset="0.161458" stop-color="#FAC438"/>
<stop offset="0.510417" stop-color="#CEBA4E"/>
<stop offset="1" stop-color="#FF5C00" stop-opacity="0"/>
</linearGradient>
<linearGradient id="paint19_linear" x1="55.961" y1="315.616" x2="55.961" y2="332.379" gradientUnits="userSpaceOnUse">
<stop offset="0.161458" stop-color="#FAC438"/>
<stop offset="0.510417" stop-color="#CEBA4E"/>
<stop offset="1" stop-color="#FF5C00" stop-opacity="0"/>
</linearGradient>
<linearGradient id="paint20_linear" x1="156.327" y1="160.189" x2="156.327" y2="162.88" gradientUnits="userSpaceOnUse">
<stop offset="0.161458" stop-color="#FAC438"/>
<stop offset="0.510417" stop-color="#CEBA4E"/>
<stop offset="1" stop-color="#FF5C00" stop-opacity="0"/>
</linearGradient>
<linearGradient id="paint21_linear" x1="411.124" y1="182.307" x2="411.124" y2="196.527" gradientUnits="userSpaceOnUse">
<stop offset="0.161458" stop-color="#FAC438"/>
<stop offset="0.510417" stop-color="#CEBA4E"/>
<stop offset="1" stop-color="#FF5C00" stop-opacity="0"/>
</linearGradient>
<linearGradient id="paint22_linear" x1="141.842" y1="362.065" x2="141.842" y2="365.466" gradientUnits="userSpaceOnUse">
<stop offset="0.161458" stop-color="#FAC438"/>
<stop offset="0.510417" stop-color="#CEBA4E"/>
<stop offset="1" stop-color="#FF5C00" stop-opacity="0"/>
</linearGradient>
<linearGradient id="paint23_linear" x1="149.989" y1="362.042" x2="149.989" y2="362.257" gradientUnits="userSpaceOnUse">
<stop offset="0.161458" stop-color="#FAC438"/>
<stop offset="0.510417" stop-color="#CEBA4E"/>
<stop offset="1" stop-color="#FF5C00" stop-opacity="0"/>
</linearGradient>
<linearGradient id="paint24_linear" x1="169.971" y1="375.819" x2="169.971" y2="381.577" gradientUnits="userSpaceOnUse">
<stop offset="0.161458" stop-color="#FAC438"/>
<stop offset="0.510417" stop-color="#CEBA4E"/>
<stop offset="1" stop-color="#FF5C00" stop-opacity="0"/>
</linearGradient>
<linearGradient id="paint25_linear" x1="173.598" y1="322.584" x2="173.598" y2="322.733" gradientUnits="userSpaceOnUse">
<stop offset="0.161458" stop-color="#FAC438"/>
<stop offset="0.510417" stop-color="#CEBA4E"/>
<stop offset="1" stop-color="#FF5C00" stop-opacity="0"/>
</linearGradient>
<linearGradient id="paint26_linear" x1="194.508" y1="285.117" x2="194.508" y2="285.279" gradientUnits="userSpaceOnUse">
<stop offset="0.161458" stop-color="#FAC438"/>
<stop offset="0.510417" stop-color="#CEBA4E"/>
<stop offset="1" stop-color="#FF5C00" stop-opacity="0"/>
</linearGradient>
<linearGradient id="paint27_linear" x1="201.814" y1="380.931" x2="201.814" y2="381.106" gradientUnits="userSpaceOnUse">
<stop offset="0.161458" stop-color="#FAC438"/>
<stop offset="0.510417" stop-color="#CEBA4E"/>
<stop offset="1" stop-color="#FF5C00" stop-opacity="0"/>
</linearGradient>
<linearGradient id="paint28_linear" x1="222.641" y1="357.697" x2="222.641" y2="357.887" gradientUnits="userSpaceOnUse">
<stop offset="0.161458" stop-color="#FAC438"/>
<stop offset="0.510417" stop-color="#CEBA4E"/>
<stop offset="1" stop-color="#FF5C00" stop-opacity="0"/>
</linearGradient>
<linearGradient id="paint29_linear" x1="228.026" y1="302.298" x2="228.026" y2="302.46" gradientUnits="userSpaceOnUse">
<stop offset="0.161458" stop-color="#FAC438"/>
<stop offset="0.510417" stop-color="#CEBA4E"/>
<stop offset="1" stop-color="#FF5C00" stop-opacity="0"/>
</linearGradient>
<linearGradient id="paint30_linear" x1="266.22" y1="292.88" x2="266.22" y2="293.083" gradientUnits="userSpaceOnUse">
<stop offset="0.161458" stop-color="#FAC438"/>
<stop offset="0.510417" stop-color="#CEBA4E"/>
<stop offset="1" stop-color="#FF5C00" stop-opacity="0"/>
</linearGradient>
<linearGradient id="paint31_linear" x1="275.625" y1="328.153" x2="275.625" y2="343.261" gradientUnits="userSpaceOnUse">
<stop offset="0.161458" stop-color="#FAC438"/>
<stop offset="0.510417" stop-color="#CEBA4E"/>
<stop offset="1" stop-color="#FF5C00" stop-opacity="0"/>
</linearGradient>
<linearGradient id="paint32_linear" x1="283.342" y1="189.531" x2="283.342" y2="189.693" gradientUnits="userSpaceOnUse">
<stop offset="0.161458" stop-color="#FAC438"/>
<stop offset="0.510417" stop-color="#CEBA4E"/>
<stop offset="1" stop-color="#FF5C00" stop-opacity="0"/>
</linearGradient>
<linearGradient id="paint33_linear" x1="301.528" y1="295.368" x2="301.528" y2="295.476" gradientUnits="userSpaceOnUse">
<stop offset="0.161458" stop-color="#FAC438"/>
<stop offset="0.510417" stop-color="#CEBA4E"/>
<stop offset="1" stop-color="#FF5C00" stop-opacity="0"/>
</linearGradient>
<linearGradient id="paint34_linear" x1="317.278" y1="348.468" x2="317.278" y2="348.603" gradientUnits="userSpaceOnUse">
<stop offset="0.161458" stop-color="#FAC438"/>
<stop offset="0.510417" stop-color="#CEBA4E"/>
<stop offset="1" stop-color="#FF5C00" stop-opacity="0"/>
</linearGradient>
<linearGradient id="paint35_linear" x1="348.831" y1="360.537" x2="348.831" y2="366.792" gradientUnits="userSpaceOnUse">
<stop offset="0.161458" stop-color="#FAC438"/>
<stop offset="0.510417" stop-color="#CEBA4E"/>
<stop offset="1" stop-color="#FF5C00" stop-opacity="0"/>
</linearGradient>
<linearGradient id="paint36_linear" x1="347.889" y1="344.728" x2="347.889" y2="344.877" gradientUnits="userSpaceOnUse">
<stop offset="0.161458" stop-color="#FAC438"/>
<stop offset="0.510417" stop-color="#CEBA4E"/>
<stop offset="1" stop-color="#FF5C00" stop-opacity="0"/>
</linearGradient>
<linearGradient id="paint37_linear" x1="354.255" y1="212.562" x2="354.255" y2="243.411" gradientUnits="userSpaceOnUse">
<stop offset="0.161458" stop-color="#FAC438"/>
<stop offset="0.510417" stop-color="#CEBA4E"/>
<stop offset="1" stop-color="#FF5C00" stop-opacity="0"/>
</linearGradient>
<linearGradient id="paint38_linear" x1="362.026" y1="190.163" x2="362.026" y2="244.474" gradientUnits="userSpaceOnUse">
<stop offset="0.161458" stop-color="#FAC438"/>
<stop offset="0.510417" stop-color="#CEBA4E"/>
<stop offset="1" stop-color="#FF5C00" stop-opacity="0"/>
</linearGradient>
<linearGradient id="paint39_linear" x1="379.54" y1="339.023" x2="379.54" y2="365.715" gradientUnits="userSpaceOnUse">
<stop offset="0.161458" stop-color="#FAC438"/>
<stop offset="0.510417" stop-color="#CEBA4E"/>
<stop offset="1" stop-color="#FF5C00" stop-opacity="0"/>
</linearGradient>
<linearGradient id="paint40_linear" x1="382.107" y1="242.873" x2="382.107" y2="243.035" gradientUnits="userSpaceOnUse">
<stop offset="0.161458" stop-color="#FAC438"/>
<stop offset="0.510417" stop-color="#CEBA4E"/>
<stop offset="1" stop-color="#FF5C00" stop-opacity="0"/>
</linearGradient>
<linearGradient id="paint41_linear" x1="382.259" y1="340.854" x2="382.259" y2="352.518" gradientUnits="userSpaceOnUse">
<stop offset="0.161458" stop-color="#FAC438"/>
<stop offset="0.510417" stop-color="#CEBA4E"/>
<stop offset="1" stop-color="#FF5C00" stop-opacity="0"/>
</linearGradient>
<linearGradient id="paint42_linear" x1="406.294" y1="172.553" x2="406.294" y2="172.674" gradientUnits="userSpaceOnUse">
<stop offset="0.161458" stop-color="#FAC438"/>
<stop offset="0.510417" stop-color="#CEBA4E"/>
<stop offset="1" stop-color="#FF5C00" stop-opacity="0"/>
</linearGradient>
<linearGradient id="paint43_linear" x1="413.916" y1="253.246" x2="413.916" y2="263.847" gradientUnits="userSpaceOnUse">
<stop offset="0.161458" stop-color="#FAC438"/>
<stop offset="0.510417" stop-color="#CEBA4E"/>
<stop offset="1" stop-color="#FF5C00" stop-opacity="0"/>
</linearGradient>
<linearGradient id="paint44_linear" x1="431.086" y1="222.384" x2="431.086" y2="222.721" gradientUnits="userSpaceOnUse">
<stop offset="0.161458" stop-color="#FAC438"/>
<stop offset="0.510417" stop-color="#CEBA4E"/>
<stop offset="1" stop-color="#FF5C00" stop-opacity="0"/>
</linearGradient>
<linearGradient id="paint45_linear" x1="436.461" y1="223.863" x2="436.461" y2="223.985" gradientUnits="userSpaceOnUse">
<stop offset="0.161458" stop-color="#FAC438"/>
<stop offset="0.510417" stop-color="#CEBA4E"/>
<stop offset="1" stop-color="#FF5C00" stop-opacity="0"/>
</linearGradient>
<linearGradient id="paint46_linear" x1="439.558" y1="307.449" x2="439.558" y2="323.338" gradientUnits="userSpaceOnUse">
<stop offset="0.161458" stop-color="#FAC438"/>
<stop offset="0.510417" stop-color="#CEBA4E"/>
<stop offset="1" stop-color="#FF5C00" stop-opacity="0"/>
</linearGradient>
</defs>
</svg>
