<svg width="243" height="362" viewBox="0 0 243 362" fill="none" xmlns="http://www.w3.org/2000/svg">
<g clip-path="url(#clip0)">
<path d="M227.463 124.742C220.873 128.262 214.175 131.483 207.886 135.658C204.7 137.759 205.462 140.952 204.618 143.845C204.373 144.609 205.217 144.855 205.871 145.018L210.146 146.219C210.799 143.163 209.22 140.215 210.146 136.777C212.689 139.644 214.666 142.968 215.972 146.574C216.225 147.338 216.634 148.041 217.173 148.638C217.712 149.235 218.37 149.712 219.104 150.04C224.369 152.544 229.307 155.688 233.807 159.4C228.515 158.531 223.312 157.188 218.259 155.388C218.259 158.363 218.259 160.846 218.259 163.575C218.259 165.049 219.185 165.704 219.975 166.577C223.406 170.343 226.836 174.109 229.967 178.203C218.477 172.745 209.519 164.094 200.888 154.652C197.899 160.368 194.458 165.834 190.596 170.998C191.196 164.597 192.427 158.271 194.272 152.114C194.489 151.377 194.707 150.64 194.98 149.931C195.252 149.221 195.687 147.884 194.626 147.338C193.564 146.792 193.182 148.048 192.692 148.621C187.954 153.877 184.034 159.82 181.066 166.25C179.296 170.398 179.759 171.107 184.088 171.107H191.549C191.712 171.107 191.848 171.326 192.229 171.626C190.083 172.626 187.811 173.333 185.477 173.727C180.249 175.064 180.222 175.01 181.202 180.495C184.429 178.417 187.775 176.531 191.222 174.846C189.042 178.255 186.504 181.42 183.653 184.288C182.945 185.107 181.883 185.762 182.264 187.017C184.524 194.877 185.177 203.391 191.168 209.777C192.007 210.563 192.706 211.486 193.237 212.506C190.514 211.633 189.071 209.231 187.111 207.485C188.635 206.093 186.866 205.384 186.375 204.756C183.653 200.853 180.739 197.06 177.826 193.267C177.309 192.585 177.172 191.111 175.865 191.657C174.84 192.037 173.969 192.747 173.388 193.676C172.925 194.74 174.422 195.095 175.021 195.805C175.62 196.514 176.328 197.197 176.982 197.906C176.791 197.906 176.492 197.906 176.383 197.77C172.979 193.758 169.848 195.586 166.526 198.015C163.919 199.782 161.189 201.36 158.358 202.736C160.82 199.332 163.621 196.186 166.717 193.349C168.623 191.793 168.187 190.62 166.417 189.692C161.462 187.208 156.506 184.752 151.442 182.515C149.182 181.505 148.147 184.561 145.996 184.698C145.534 182.979 149.781 181.669 145.996 179.622C148.311 180.959 149.182 179.622 150.38 178.148C153.266 174.901 156.261 171.735 159.393 168.706C160.563 167.56 160.754 166.796 159.801 165.431C158.637 163.853 157.633 162.162 156.806 160.383C155.853 158.254 154.682 157.654 152.368 158.827C152.831 158.336 153.293 157.845 153.702 157.353C154.682 156.153 153.702 155.252 153.076 154.624C152.449 153.997 151.578 154.624 151.034 155.225C148.684 157.423 146.079 159.329 143.274 160.901C144.668 157.187 146.545 153.672 148.855 150.449C149.186 149.254 149.222 147.997 148.961 146.785C148.7 145.573 148.15 144.442 147.358 143.49C146.65 143.026 146.133 143.654 145.588 143.845C143.355 144.664 141.177 145.564 138.236 146.71C139.692 144.354 141.632 142.335 143.927 140.788C145.261 139.861 145.615 138.96 144.689 137.595C144.354 137.032 144.071 136.438 143.845 135.822C140.823 128.344 138.972 119.884 128.679 118.329C130.569 117.584 132.66 117.526 134.588 118.165C136.222 118.465 136.739 118.165 136.004 116.282C134.964 114.265 133.438 112.539 131.565 111.262C129.692 109.985 127.53 109.197 125.276 108.968C124.268 108.968 123.996 109.542 123.615 110.224C120.62 115.682 120.647 115.682 125.521 119.257C127.155 120.512 128.707 121.986 130.231 123.296C131.051 124.092 131.74 125.013 132.274 126.025C129.033 123.678 125.494 121.877 122.199 119.693C118.905 117.51 118.551 120.185 117.461 121.904C115.964 124.251 118.469 124.032 119.367 124.633C121.546 125.97 123.915 127.062 126.12 128.535C120.716 128.233 115.363 127.318 110.164 125.806C107.85 125.288 105.236 123.487 103.357 124.442C101.479 125.397 101.125 128.235 100.063 130.227C99.8178 130.691 99.5455 131.128 99.0554 131.919C98.3294 129.672 98.1981 127.274 98.6742 124.96C98.7684 124.622 98.7857 124.267 98.725 123.922C98.6642 123.576 98.5269 123.249 98.3232 122.963C98.1194 122.678 97.8543 122.442 97.5475 122.273C97.2407 122.103 96.9 122.005 96.5504 121.986C94.7533 121.576 93.0108 121.003 91.1048 120.457C89.3773 120 87.7326 119.272 86.231 118.302C89.9068 118.302 93.5826 118.138 97.2583 118.302C98.8648 118.302 99.4366 118.302 99.9811 116.555C100.643 113.201 101.818 109.97 103.466 106.976C99.4366 107.195 96.0058 107.386 92.5751 107.631C92.0469 107.742 91.5636 108.008 91.1865 108.395C90.8006 108.771 90.4623 109.192 90.179 109.651C87.4562 113.117 83.3721 115.463 81.2755 119.066C79.179 122.668 80.7582 127.253 79.6418 131.537C79.1195 134.38 78.203 137.136 76.919 139.724C77.1146 135.339 76.3623 130.964 74.7136 126.898C73.7061 124.387 72.8621 123.869 70.7383 125.506C70.0416 125.972 69.1991 126.166 68.3694 126.052L71.2828 122.804C71.9635 121.986 72.9165 121.276 72.6987 120.075C72.4809 118.875 73.1888 117.865 71.8546 117.592C70.5205 117.319 70.1937 118.383 69.7853 119.311C67.0515 125.26 63.4648 130.776 59.1392 135.685C55.9991 140.113 53.1697 144.755 50.6713 149.576C54.102 141.143 54.7555 132.083 57.3149 123.023C48.4113 125.233 39.9434 127.935 31.2849 130.2C34.6612 128.262 38.1192 126.761 41.3865 124.988C48.4658 121.222 55.5723 117.483 62.5699 113.526C64.8026 112.271 66.6269 110.278 68.7779 108.832C69.8398 108.122 70.9833 106.649 72.4536 108.996C73.4066 110.551 74.5502 108.996 75.3126 107.877C76.4562 106.239 77.4091 103.019 79.2879 107.549C80.0775 109.405 82.528 107.386 83.9711 108.668C83.2631 110.115 81.7111 110.606 80.6765 111.643C80.1864 112.134 79.778 112.68 80.1864 113.362C80.5948 114.044 81.2755 113.58 81.7928 113.362C84.5156 111.561 87.429 109.733 90.288 107.904C92.8303 106.692 95.6553 106.201 98.4564 106.485C100.122 106.737 101.824 106.432 103.3 105.618C104.776 104.805 105.945 103.527 106.625 101.982C107.653 100.393 108.849 98.9203 110.192 97.5886C102.529 100.448 94.5902 102.496 86.5033 103.701C91.9721 100.214 97.6357 97.043 103.466 94.2046C92.1048 94.4933 80.7424 93.6707 69.5402 91.7485C72.956 94.7896 75.9586 98.2669 78.471 102.091C69.9487 98.571 64.013 91.9669 58.2134 85.1171C58.5129 84.9807 58.8124 84.8169 58.8669 84.8715C63.659 88.8831 69.0774 88.8285 74.9858 88.2827C84.4448 87.561 93.9475 88.9016 102.84 92.2125C104.14 92.7402 105.549 92.9415 106.944 92.7988C108.339 92.6561 109.678 92.1738 110.845 91.3938C106.478 91.0753 102.388 89.128 99.3821 85.9358C98.0479 84.544 96.7954 85.6356 94.9439 85.9358C97.5034 83.3433 95.9514 81.4876 94.59 79.4408C93.2286 77.3941 92.2756 73.9828 90.288 72.209C87.8102 70.0258 87.8374 66.5873 85.1146 64.677C85.632 64.5405 85.877 64.3768 86.0132 64.4587C90.0429 67.0512 90.0429 67.0512 92.6296 62.9304C96.3631 57.2109 100.659 51.8809 105.454 47.0205C89.1172 42.7087 73.1071 43.8821 56.9609 45.8197C65.302 43.5876 73.7915 41.9551 82.3646 40.9348C92.0535 39.3048 101.946 39.3048 111.635 40.9348C112.117 41.0123 112.61 40.9841 113.08 40.8522C113.55 40.7203 113.986 40.4878 114.357 40.1707C116.925 38.5666 119.666 37.2576 122.526 36.2682C122.302 37.7763 121.65 39.1879 120.647 40.3344C114.004 50.6773 104.746 58.4276 95.189 65.8777C91.8127 68.4703 91.7855 68.3884 94.8623 71.1174C96.741 72.7548 98.6197 74.4468 100.308 76.1933C101.288 77.1485 102.078 77.2576 103.031 76.1933C103.241 75.9313 103.489 75.7015 103.766 75.5111C106.352 74.0938 108.546 72.0554 110.152 69.5786C111.759 67.1019 112.726 64.2643 112.969 61.3203C113.708 56.3036 116.015 51.6508 119.558 48.0302C121.96 45.5221 123.406 42.2474 123.642 38.7789C123.778 36.2682 124.84 35.7225 127.264 36.5684C130.397 37.507 133.306 39.0763 135.813 41.1804C139.734 44.8918 144.662 46.0107 149.427 47.5663C153.815 48.8034 157.966 50.7681 161.707 53.379L145.642 49.613L152.858 58.6459C149.88 57.49 147.119 55.8385 144.689 53.7611C140.142 50.0769 135.595 46.3109 129.469 45.5741C128.57 45.4376 127.046 44.4825 127.019 46.4201C127.019 51.6324 125.984 56.7629 125.358 62.1663L132.519 60.0377C129.775 63.4004 126.741 66.5144 123.452 69.3436C119.422 73.055 113.813 75.4565 113.513 82.4154C111.961 80.969 112.86 78.4857 111.553 78.7313C109.582 79.3059 107.754 80.2917 106.189 81.624C105.59 82.0606 106.516 82.7156 106.897 83.1795C108.721 85.3081 110.6 87.4367 112.343 89.5653C112.526 89.8339 112.763 90.0605 113.04 90.2298C113.317 90.3992 113.627 90.5076 113.949 90.5478C115.596 90.5858 117.207 90.0684 118.526 89.0787C119.844 88.089 120.792 86.6843 121.219 85.0898C122.882 77.2907 126.279 69.9682 131.157 63.6673C131.421 63.3255 131.723 63.0142 132.056 62.7394C132.056 62.7394 132.273 62.7394 132.682 62.8759C132.563 70.7017 130.964 78.4339 127.971 85.6629C131.075 86.5089 132.355 86.0723 132.328 82.6337C132.216 75.588 133.134 68.5639 135.051 61.7843C136.865 68.6033 137.78 75.631 137.774 82.6883C137.774 85.7993 138.345 87.7369 141.613 88.501C143.58 89.1358 145.492 89.9298 147.331 90.8753C145.36 92.9104 142.973 94.4931 140.333 95.5145C139.06 95.9399 137.953 96.7572 137.171 97.85C136.389 98.9428 135.971 100.255 135.976 101.6C135.976 102.119 135.977 102.692 135.35 102.992C133.825 102.064 135.16 99.3078 132.9 99.0895C131.511 98.9258 131.62 100.208 131.62 101.191C131.41 100.851 131.12 100.568 130.777 100.364C130.434 100.161 130.047 100.043 129.648 100.022C129.25 100 128.853 100.076 128.489 100.241C128.126 100.407 127.809 100.658 127.563 100.973C126.866 101.785 126.342 102.732 126.024 103.755C125.705 104.778 125.599 105.856 125.712 106.922C125.712 107.113 126.174 107.358 126.474 107.413C128.988 108.112 131.439 109.025 133.798 110.142C133.39 106.894 131.484 104.302 131.538 101.245C133.758 106.154 135.65 111.204 137.202 116.364C138.318 119.557 140.959 119.093 143.137 119.994C143.9 120.266 144.281 119.557 144.363 118.847C146.019 108.358 150.958 98.6683 158.467 91.1755L150.816 92.922C154.029 87.7915 163.912 83.507 175.62 82.4427C167.121 79.4405 158.99 75.476 151.388 70.6262C158.975 71.9118 166.259 74.5951 172.87 78.5402C177.908 81.8696 177.88 82.6064 172.68 85.5265C171.398 86.3509 170.028 87.0283 168.596 87.5459C155.989 91.23 151.006 101.6 147.331 112.707C144.826 120.239 145.316 120.403 152.395 123.787C156.853 125.73 161.051 128.224 164.893 131.21C158.993 130.597 153.22 129.098 147.766 126.761C145.969 126.079 145.288 126.598 145.425 128.344C145.46 131.07 145.77 133.786 146.35 136.449C146.813 138.114 147.249 138.578 149.073 137.65C154.15 134.988 159.55 132.997 165.138 131.728C161.87 135.876 157.16 137.95 152.776 140.461C148.855 142.699 148.801 142.617 151.496 146.929C155.481 141.834 160.219 137.38 165.546 133.72C165.497 135.03 165.019 136.286 164.185 137.295C161.747 142.043 158.798 146.509 155.39 150.613C154.709 151.431 153.947 152.086 154.6 153.342C155.254 154.597 155.853 155.307 157.323 153.915C160.777 150.435 164.744 147.508 169.086 145.237C170.863 144.14 172.884 143.502 174.967 143.381C173.649 145.522 171.918 147.378 169.875 148.839C166.315 151.535 162.535 153.927 158.576 155.989C157.078 156.753 156.751 157.572 157.813 158.936C158.385 159.728 158.766 160.655 159.338 161.447C160.454 162.839 160.945 166.086 162.36 165.54C163.709 165.177 164.949 164.491 165.974 163.54C166.999 162.589 167.777 161.402 168.242 160.082C169.706 153.707 172.824 147.833 177.281 143.053C176.138 148.266 175.185 152.578 174.15 157.19C175.389 156.925 176.526 156.308 177.424 155.413C178.322 154.517 178.944 153.381 179.215 152.141C180.979 146.02 184.641 140.619 189.67 136.722C194.289 132.552 199.39 128.952 204.863 125.997C201.748 131.157 198.224 136.058 194.326 140.652C193.645 141.389 191.739 142.262 193.482 143.79C195.225 145.319 195.824 143.517 196.722 142.808C198.772 140.695 200.391 138.202 201.487 135.467L205.163 129.327C206.443 131.292 205.435 133.229 206.279 135.058C212.894 130.776 219.962 127.243 227.354 124.524L227.463 124.742ZM152.068 181.368C152.613 182.242 153.784 182.378 154.791 182.869C159.311 185.298 164.593 186.363 168.405 190.101C169.167 190.811 169.685 190.401 170.365 189.91C173.714 187.427 173.823 186.99 171.509 183.579C170.501 182.179 169.592 180.711 168.786 179.185C167.752 177.002 167.071 178.694 166.39 179.431C165.791 178.503 166.771 177.084 165.247 176.866C160.019 176.129 155.417 176.92 152.068 181.368ZM179.95 155.034C177.826 157.49 176.519 159.318 174.885 160.846C172.425 163.449 170.746 166.693 170.039 170.207C169.848 170.889 169.086 172.117 170.774 172.008C173.034 172.008 175.294 171.599 177.554 171.38C178.534 171.38 179.106 170.916 179.106 169.77C178.88 164.842 179.163 159.904 179.95 155.034ZM168.405 176.702L172.108 182.596C174.313 186.144 174.123 185.817 177.554 183.743C180.984 181.669 180.276 178.776 179.351 176.374C178.425 173.973 176.192 175.856 174.559 175.91C172.495 176.066 170.441 176.33 168.405 176.702ZM180.031 164.585C181.393 164.176 181.257 163.084 181.611 162.402C184.51 156.773 188.176 151.575 192.502 146.956C193.21 146.192 193.945 145.537 192.856 144.527C192.42 144.118 192.093 143.354 191.358 144.145C188.226 147.471 184.84 150.545 181.229 153.342C180.868 153.75 180.657 154.27 180.63 154.815C180.331 158.008 180.195 161.229 180.031 164.585ZM115.474 117.647C115.991 116.664 115.474 116.146 114.466 115.736C113.067 115.174 111.703 114.527 110.382 113.799C108.231 112.434 107.305 113.035 106.625 115.409C105.399 119.53 105.263 119.475 109.348 120.649L110.6 121.003C115.147 122.395 115.147 122.395 115.474 117.647ZM214.448 160.71C213.059 156.098 212.623 151.568 207.722 149.794C206.933 149.494 206.361 148.621 205.571 148.375C204.782 148.129 204.264 146.192 203.366 147.856C202.848 148.784 201.705 150.012 203.366 151.295C206.933 154.215 210.418 157.299 214.448 160.71ZM120.021 93.2222L112.098 96.6334C111.739 96.7568 111.421 96.9779 111.181 97.2719C110.94 97.5659 110.786 97.9213 110.736 98.2981C110.464 100.236 110.164 102.173 109.892 104.111C109.892 104.739 109.565 105.475 110.546 105.584C111.526 105.694 112.016 105.803 112.261 105.066C114.123 100.686 116.751 96.6752 120.021 93.2222ZM122.744 51.8235H122.335L119.313 63.3398C119.313 63.831 119.095 64.3222 118.959 64.9499C124.405 63.2852 124.405 63.2852 123.588 58.373C123.288 56.108 123.016 53.9794 122.744 51.8508V51.8235ZM183.68 199.434L184.061 199.216L180.957 187.481C177.118 190.21 177.118 190.21 179.541 193.703L183.68 199.434ZM111.853 111.888C116.372 113.99 116.4 113.99 117.489 109.705C117.652 109.023 118.224 108.122 117.489 107.659C117.073 107.39 116.568 107.296 116.083 107.398C115.599 107.501 115.175 107.79 114.902 108.204L111.853 111.888ZM128.189 97.5613C129.687 96.6061 130.722 95.842 131.865 95.2416C133.009 94.6413 132.791 93.6588 132.709 92.7037C132.627 91.7485 131.593 91.5302 130.776 91.3392C129.251 91.039 129.306 92.3489 129.061 93.1676C128.734 94.3957 128.57 95.7056 128.217 97.5613H128.189ZM131.457 43.4728C129.981 41.5978 128.29 39.9033 126.419 38.4241C127.318 44.2369 127.318 44.2369 131.484 43.4728H131.457ZM140.442 124.005C141.15 126.54 142.343 128.912 143.954 130.991C143.383 127.935 145.098 124.769 140.469 124.005H140.442ZM111.281 108.777C111.526 107.877 111.825 107.058 110.573 107.004C108.612 107.004 108.857 108.586 108.531 109.733C108.204 110.879 108.857 111.425 109.892 111.452C112.315 111.561 110.546 109.405 111.281 108.777Z" fill="url(#paint0_linear)"/>
<path d="M128.189 272.571C133.036 270.415 138.345 270.006 143.41 268.587C144.989 268.15 146.568 267.795 147.004 265.448C145.016 265.448 143.137 265.776 141.259 265.885C121.954 266.949 102.595 267.277 83.2359 267.441C73.1343 267.441 65.2927 262.829 57.451 257.616C62.2407 258.295 66.9425 259.493 71.4734 261.191C66.1448 255.447 61.6781 248.957 58.2134 241.925C57.5055 240.56 55.8174 240.533 54.6193 239.196C56.9337 239.196 56.7159 238.049 55.8446 236.33C62.3521 241.952 70.5749 240.642 77.627 243.344C78.9884 243.862 79.5602 242.58 80.3498 241.87C85.0382 236.927 90.4008 232.673 96.2781 229.235C99.0085 227.609 102.092 226.673 105.263 226.506C106.788 226.506 108.585 226.506 109.157 228.143C109.729 229.781 108.204 230.681 107.115 231.527C102.938 234.658 98.4271 237.312 93.6642 239.441C92.7113 239.878 91.5677 239.96 90.7236 241.188C98.1821 245.439 104.829 250.983 110.355 257.562C111.58 258.953 112.642 260.509 113.949 261.792C114.933 262.941 116.165 263.851 117.552 264.451C118.939 265.052 120.445 265.328 121.954 265.257C130.122 264.657 138.291 264.111 146.459 263.838C149.182 263.838 149.89 261.928 151.224 260.454C154.9 256.416 154.873 256.388 150.162 253.659C147.576 252.158 147.576 252.158 143.219 255.733C142.266 255.269 142.811 254.423 142.811 253.768C142.811 252.076 144.281 250.275 141.939 248.829C139.598 247.383 137.529 246.1 134.615 248.065C131.794 249.781 128.812 251.216 125.712 252.349C128.487 249.61 131.555 247.184 134.86 245.118C133.989 243.398 131.865 243.289 130.939 241.788C131.157 241.788 131.457 241.515 131.511 241.57C134.942 244.654 137.937 243.207 141.667 241.57C147.113 239.223 150.435 234.174 155.771 231.909C157.441 230.871 159.287 230.15 161.217 229.781C159.961 233.592 158.29 237.253 156.234 240.697C154.464 243.67 152.343 246.418 149.917 248.884C148.556 250.248 147.793 251.367 150.244 252.431C152.232 253.277 154.41 255.542 155.935 255.16C158.728 253.988 161.326 252.396 163.64 250.439C164.43 249.893 164.103 249.047 163.94 248.338C163.183 243.72 162.818 239.045 162.851 234.365C162.739 233.825 162.754 233.266 162.895 232.733C163.037 232.199 163.3 231.706 163.665 231.293C164.03 230.88 164.486 230.557 164.997 230.352C165.508 230.146 166.059 230.063 166.608 230.108C168.004 230.013 169.405 230.013 170.801 230.108C173.524 230.326 174.232 231.664 173.905 234.311C172.568 241.848 169.795 249.057 165.737 255.542C164.566 254.369 165.002 252.813 163.994 251.285C162.742 253.086 161.625 254.778 160.482 256.416C159.992 257.152 159.828 257.78 160.808 258.271C164.104 260.308 167.61 261.983 171.264 263.265C170.502 258.544 168.378 254.232 170.12 249.402C173.91 251.759 176.642 255.495 177.744 259.827C178.318 262.349 179.687 264.619 181.649 266.3C183.61 267.981 186.06 268.984 188.635 269.16C189.693 269.387 190.738 269.67 191.767 270.006C191.767 264.257 186.893 257.18 177.145 248.774C178.84 248.546 180.563 248.667 182.21 249.129C184.932 249.484 186.648 247.956 185.994 245.281C184.996 241.04 183.468 236.941 181.447 233.083C179.715 230.519 177.096 228.691 174.096 227.952C181.774 227.734 184.279 231.227 187.9 246.018C192.816 242.238 197.973 238.783 203.339 235.675C204.918 234.775 203.584 233.82 203.148 232.946C199.962 227.024 196.368 221.293 193.673 215.099C193.428 214.553 192.366 213.789 193.428 213.188C194.489 212.588 194.816 213.843 195.116 214.498C197.838 220.338 200.561 226.178 203.556 231.8C204.754 233.956 205.762 234.693 208.24 233.437C211.866 231.593 215.749 230.305 219.757 229.617C216.753 232.528 213.49 235.159 210.009 237.476C208.294 238.65 208.212 239.632 209.41 241.106C210.783 242.481 211.728 244.225 212.133 246.127C209.41 246.127 209.138 243.398 208.049 241.57C206.96 239.741 206.688 239.769 205.108 240.806C200.327 244.007 195.157 246.584 189.725 248.474C187.492 249.211 187.22 250.794 188.554 252.186C192.501 256.632 194.554 262.451 194.272 268.396C194.192 269.087 194.378 269.783 194.793 270.341C195.208 270.899 195.82 271.277 196.504 271.398C201.46 272.598 206.361 273.963 211.289 275.191C212.024 275.355 213.413 275.873 213.576 274.782C214.202 270.961 217.66 267.632 214.856 263.156C212.492 258.99 211.192 254.303 211.071 249.511C214.205 253.629 216.635 258.24 218.259 263.156C220.247 261.846 220.056 260.427 218.967 258.981C216.571 255.46 214.284 251.885 212.051 248.283C211.725 247.737 210.064 246.809 212.051 246.209C213.495 245.964 213.386 247.328 213.821 248.038C217.016 253.556 220.496 258.903 224.25 264.057C223.814 259.636 223.406 255.187 222.888 250.767C222.725 249.238 221.118 248.993 220.165 248.283C218.341 247.276 216.642 246.058 215.101 244.654C216.397 244.759 217.682 244.978 218.94 245.309C221.663 246.264 222.534 245.909 222.153 242.743C220.755 230.86 218.71 219.062 216.027 207.403C215.811 206.865 215.537 206.353 215.21 205.875C216.058 214.228 214.267 222.638 210.091 229.917C209.305 227.461 209.018 224.872 209.247 222.303C208.811 214.135 209.657 205.948 211.752 198.043C212.487 195.586 213.44 194.604 215.972 196.487C222.017 201.056 226.72 207.175 229.586 214.198C225.161 212.797 221.131 210.366 217.824 207.103C218.477 210.705 218.94 213.625 219.512 216.518C221.275 225.37 222.592 234.305 223.46 243.289C223.44 244.358 223.77 245.403 224.399 246.266C225.029 247.129 225.923 247.761 226.945 248.065C231.19 249.476 235.108 251.732 238.463 254.696C242.574 258.571 247.53 258.189 252.403 258.708C253.94 258.712 255.446 259.137 256.76 259.936C252.213 258.599 247.829 260.891 243.146 260.291C238.463 259.69 233.807 261.109 228.388 261.873C231.388 260.181 234.659 259.027 238.054 258.462L224.604 251.776C225.039 260.836 224.903 269.597 231.247 276.746C234.215 280.076 236.257 284.142 239.416 287.335C239.814 287.653 240.083 288.105 240.173 288.607C240.264 289.109 240.168 289.627 239.906 290.064C238.898 290.364 238.027 290.473 237.564 289.191C235.304 282.832 230.213 281.004 224.141 280.512C223.592 280.51 223.047 280.409 222.534 280.212C220.165 279.175 219.294 280.212 218.804 282.505C217.749 286.719 215.901 290.693 213.358 294.212C212.473 289.884 212.307 285.44 212.868 281.058C213.25 278.575 212.324 277.702 209.955 277.183C205.517 276.201 201.188 274.836 196.777 273.663C195.905 273.444 194.816 272.598 194.054 273.826C193.851 274.28 193.792 274.784 193.885 275.272C193.977 275.76 194.217 276.208 194.571 276.555C199.309 282.013 198.492 288.781 197.947 295.385C196.341 287.908 195.225 280.267 190.405 273.908C190.923 273.308 191.304 273.908 191.712 274.072C192.121 274.236 192.42 274.481 193.455 275.054C192.121 271.07 188.772 271.752 186.566 270.634C185.64 270.17 184.742 269.678 183.843 271.016C182.264 273.171 182.128 273.745 183.843 276.992C184.008 276.479 184.227 275.985 184.497 275.518C185.395 274.181 186.484 273.117 188.254 273.717C188.65 273.836 189.016 274.036 189.331 274.303C189.646 274.571 189.902 274.901 190.083 275.272C190.265 275.644 190.368 276.049 190.386 276.463C190.404 276.876 190.336 277.288 190.187 277.674C188.637 284.461 186.355 291.059 183.38 297.35C181.421 301.778 178.885 305.926 175.838 309.685C175.996 306.677 176.517 303.699 177.39 300.816C178.394 295.803 179.667 290.847 181.202 285.97C182.346 282.641 180.195 280.867 178.888 278.629C178.234 277.538 177.581 278.629 177.118 279.066C173.795 282.239 170.144 285.047 166.227 287.444C164.294 288.618 165.138 290.173 165.383 291.428C166.554 297.487 167.86 303.518 168.868 309.631C166.526 304.518 164.085 299.47 161.544 294.485C160.209 291.756 159.12 291.374 156.833 293.148C155.726 293.927 154.445 294.424 153.103 294.594C158.93 290.501 157.977 284.797 157.623 279.039C157.72 274.778 158.231 270.538 159.148 266.376C153.103 284.633 143.873 300.707 128.543 312.769L134.996 296.559C135.905 294.579 136.696 292.547 137.365 290.473C139.731 282.007 144.982 274.64 152.204 269.651C152.98 269.061 153.725 268.433 154.437 267.768C154.437 267.768 154.437 267.577 154.682 267.168C149.645 267.768 147.494 272.98 142.838 273.936C142.538 272.298 144.526 271.207 144.281 269.597C138.835 270.306 133.58 272.326 127.944 272.544L128.189 272.571ZM116.1 265.667C105.189 264.575 94.3454 262.89 83.6171 260.618C92.3846 258.1 101.701 258.252 110.382 261.055C104.12 255.597 98.3747 251.367 93.3647 246.291C89.7706 242.634 86.3671 241.406 81.8201 243.808C81.6128 244.001 81.4216 244.211 81.2483 244.435C88.2459 247.164 95.3524 249.484 100.58 256.061C89.7574 253.992 79.1742 250.819 68.9957 246.591C73.8099 251.808 77.4744 257.982 79.7507 264.712C79.8445 265.285 80.16 265.799 80.6289 266.141C81.0977 266.483 81.6822 266.627 82.2557 266.54C93.5553 266.813 104.8 266.267 116.1 265.667ZM163.64 282.041C167.054 278.862 170.765 276.02 174.722 273.554C175.158 273.308 175.62 273.035 175.593 272.326C175.593 269.378 170.801 264.139 167.833 263.866C165.798 264.088 163.791 264.518 161.843 265.148C160.155 265.367 160.128 266.076 160.482 267.55C161.598 272.271 162.524 276.937 163.64 282.15V282.041ZM231.71 279.312L220.819 262.556C220.819 265.066 220.819 266.567 220.819 268.014C221.064 271.207 218.995 275.409 221.173 277.32C223.351 279.23 227.49 278.875 230.757 279.503C231.002 279.639 231.111 279.557 231.71 279.366V279.312ZM164.947 262.583C159.284 258.408 158.576 258.49 156.425 263.402L164.947 262.583ZM139.053 246.209C140.322 247.372 141.855 248.205 143.519 248.638L145.18 242.88L139.053 246.209Z" fill="url(#paint1_linear)"/>
<path d="M81.2211 280.322C78.7433 280.922 78.1988 281.822 79.7507 284.333C84.7607 292.52 86.4761 301.689 87.6741 310.995C87.9736 313.37 88.1642 315.744 88.4365 318.227C87.1567 317.982 87.184 316.999 86.9117 316.29C82.4773 306.231 79.2244 295.69 77.2185 284.879C77.2185 284.169 77.2185 283.105 76.1566 283.214C75.91 283.244 75.6718 283.324 75.4564 283.448C75.241 283.572 75.0528 283.738 74.9029 283.937C74.753 284.136 74.6445 284.362 74.5839 284.604C74.5233 284.845 74.5118 285.097 74.5502 285.343L74.9586 292.52C75.685 304.51 73.8277 316.517 69.513 327.724C69.3224 328.188 69.268 328.788 68.2605 328.87V316.835C66.164 320.247 64.5848 322.921 62.8149 325.514C62.1342 326.551 62.8149 327.397 62.9783 328.243C64.1734 332.461 65.0831 336.755 65.7011 341.096L59.357 330.18C55.074 335.335 50.0007 339.775 44.3272 343.334C47.2701 337.537 50.6184 331.956 54.347 326.632C55.0462 325.823 55.4641 324.808 55.5378 323.74C55.6115 322.672 55.3369 321.609 54.7555 320.711C52.1661 315.569 50.0341 310.208 48.3841 304.691C46.7657 305.402 45.4566 306.673 44.6966 308.271C43.9366 309.87 43.7764 311.689 44.2455 313.397C44.9806 318.091 45.5796 322.785 45.8519 327.56C40.9506 319.726 38.3552 310.664 38.3642 301.417C37.5746 305.483 34.2256 308.812 36.1315 313.642C38.691 320.219 38.7182 327.287 39.0994 334.246C39.5804 343.471 39.4075 352.718 38.5821 361.918C36.54 349.119 29.6513 337.357 30.4137 323.712L23.1438 341.123C23.1723 334.216 23.9113 327.33 25.3493 320.574C18.9911 327.226 11.5635 332.761 3.37628 336.948C5.93571 333.864 8.41346 330.699 11.0818 327.724C14.7726 323.278 18.8852 319.202 23.3616 315.553C28.1537 312.005 30.1686 306.875 33.1909 301.307C24.1886 307.698 14.3597 312.83 3.9753 316.562C5.3367 315.225 6.69809 313.833 8.08672 312.524C15.4793 306.231 24.119 301.58 33.436 298.879C34.6046 298.653 35.7047 298.158 36.6489 297.432C37.5474 296.586 36.6489 296.45 36.1315 296.15C33.4087 294.021 29.8419 294.076 26.7379 292.902C19.4952 290.173 12.5793 286.871 5.69066 283.487C5.15629 283.103 4.6635 282.664 4.22035 282.177C14.2424 284.003 24.0006 287.065 33.2726 291.292C35.8449 292.489 38.046 294.362 39.6424 296.711C41.2387 299.061 42.1707 301.799 42.3395 304.637C47.3495 294.812 51.8693 285.861 60.9907 279.284C58.4576 286.281 55.1708 292.979 51.1886 299.261C50.9041 299.534 50.6822 299.866 50.5384 300.234C50.3945 300.602 50.3321 300.997 50.3554 301.391C50.3787 301.786 50.4872 302.171 50.6733 302.519C50.8595 302.867 51.1189 303.171 51.4337 303.409C55.0001 307.982 57.8551 313.07 59.9016 318.5C62.6243 315.389 65.3471 312.578 67.9066 309.522C68.5328 308.758 68.2878 307.202 68.2061 306.029C67.5353 299.879 68.2996 293.657 70.4388 287.854C73.1616 281.44 73.7878 279.284 78.6072 275.846C83.1343 272.622 88.3951 270.586 93.9093 269.924C94.2678 269.943 94.6235 269.998 94.9712 270.088C90.9687 274.618 85.3597 276.61 81.1394 280.376L81.2211 280.322Z" fill="url(#paint2_linear)"/>
<path d="M81.1393 280.376C84.9785 283.105 84.924 283.105 87.783 279.066C89.9961 275.832 93.0073 273.228 96.5231 271.507C94.5997 275.444 92.2533 279.159 89.5256 282.587C88.9265 283.378 88.3275 284.142 87.783 284.961C87.7121 285.045 87.6603 285.144 87.6313 285.251C87.6022 285.357 87.5966 285.469 87.6147 285.578C87.6328 285.687 87.6743 285.791 87.7362 285.882C87.7982 285.973 87.8792 286.05 87.9736 286.107C88.0651 286.163 88.1674 286.199 88.2738 286.213C88.3803 286.227 88.4884 286.218 88.5912 286.187C88.6941 286.157 88.7892 286.104 88.8704 286.034C88.9517 285.964 89.0172 285.877 89.0627 285.779C89.8795 284.497 90.6964 283.214 91.5404 281.959C94.936 276.552 99.4943 271.974 104.882 268.56C102.523 274.978 98.8821 280.847 94.1815 285.807C91.0503 289.082 90.9959 289.054 94.0454 292.247C94.7806 293.011 95.2707 294.076 96.5776 294.43C97.7212 289.736 98.3746 284.906 101.669 280.403C102.107 284.902 101.915 289.44 101.097 293.885C100.671 295.427 100.633 297.052 100.984 298.614C101.336 300.175 102.067 301.625 103.112 302.836C106.502 306.716 109.259 311.11 111.281 315.853C106.887 312.876 102.809 309.456 99.1098 305.646L96.387 314.898C94.5083 310.095 97.3944 304.91 94.7806 301.089C92.1667 297.268 90.4785 293.421 85.9315 291.347C85.9315 290.91 86.9934 289.655 85.6864 288.618C84.3795 287.581 84.325 289.818 83.0998 289.218C85.6592 285.616 81.4661 283.46 81.1938 280.376H81.1393Z" fill="url(#paint3_linear)"/>
<path d="M240.042 289.955C241.43 290.173 241.812 291.347 242.329 292.411C245.433 298.879 248.646 305.292 251.641 311.814C252.621 313.97 253.356 313.724 254.718 312.223C256.391 310.213 258.388 308.497 260.626 307.147C261.851 306.465 263.512 305.674 264.493 306.956C265.473 308.239 264.248 309.685 263.158 310.504C260.817 312.442 258.366 314.27 255.997 316.153C255.289 316.726 254.146 317.026 254.772 318.391C258.012 325.35 261.198 332.309 264.71 339.213C264.084 331.927 265.99 324.749 265.064 317.381C264.723 314.565 264.806 311.713 265.309 308.921C265.5 307.939 265.772 306.602 267.106 306.492C268.441 306.383 268.822 307.53 269.203 308.594C271.069 314.352 270.64 320.611 268.005 326.059C266.262 330.344 265.609 330.18 266.045 335.338C266.371 339.322 265.881 343.525 267.76 347.182C268.876 349.419 269.72 351.766 270.782 354.031C271.272 354.987 270.782 355.369 270.129 355.751C269.475 356.133 268.795 356.051 268.386 355.096C265.2 347.4 258.965 341.969 253.928 335.583C248.265 328.434 239.77 327.397 231.928 324.668C230.703 324.258 229.423 324.067 228.225 323.549C234.215 323.767 239.661 326.278 245.787 327.397L241.893 324.94L242.901 323.931C251.219 330.753 258.786 338.447 265.473 346.881C262.926 338.948 259.842 331.198 256.242 323.685C255.371 321.829 254.799 319.237 253.302 318.418C251.804 317.599 250.007 320.274 248.02 320.71C247.393 320.083 248.02 319.646 248.292 319.373C251.832 316.426 251.695 313.424 249.381 309.549C246.195 304.091 243.636 298.633 240.232 293.366C239.443 292.193 238.572 290.992 240.232 289.682L240.042 289.955Z" fill="url(#paint4_linear)"/>
<path d="M8.82184 89.538C16.8609 88.2299 25.0745 88.4614 33.0275 90.2203C45.9025 92.7989 58.3749 97.0943 70.112 102.992C70.8056 103.296 71.4708 103.661 72.0996 104.084C72.7531 104.575 73.7878 105.011 73.3794 106.076C72.9709 107.14 72.1541 106.813 71.3917 106.922C66.7949 107.865 62.0493 107.805 57.4777 106.745C52.9062 105.686 48.616 103.652 44.8989 100.781C35.0424 93.0311 23.6066 90.9571 11.7352 89.8655H9.77482C9.44579 89.793 9.12607 89.6831 8.82184 89.538Z" fill="url(#paint5_linear)"/>
<path d="M122.172 35.1221C118.465 34.0678 114.828 32.7827 111.281 31.2742L114.004 36.7322C109.375 35.2851 105.268 32.5157 102.187 28.7635C99.0347 25.1871 95.1903 22.2903 90.887 20.2491C89.3888 19.4764 88.0274 18.4623 86.8572 17.2472L94.4266 18.8573C91.0916 12.8079 88.2418 6.50225 85.9042 0C88.6831 1.84579 91.2016 4.05791 93.3919 6.57686C95.1771 8.34186 96.8161 10.2493 98.293 12.2804C102.677 18.639 107.305 24.5882 114.63 27.8084C117.787 29.4775 120.403 32.0147 122.172 35.1221Z" fill="url(#paint6_linear)"/>
<path d="M232.255 151.895C233.943 141.116 235.359 130.991 239.606 121.685C240.006 120.859 240.577 120.127 241.281 119.539C241.986 118.951 242.807 118.519 243.69 118.274C247.421 116.937 249.68 118.82 249.136 122.75C248.06 130.312 244.996 137.451 240.26 143.436C237.932 146.561 235.245 149.4 232.255 151.895Z" fill="url(#paint7_linear)"/>
<path d="M126.719 130.527C123.862 134.254 121.45 138.302 119.531 142.59C114.579 152.217 107.789 160.775 99.5455 167.778C100.09 166.386 100.635 165.049 101.206 163.63C101.778 162.211 102.404 160.901 102.976 159.455C105.073 154.351 107.496 149.385 109.13 144.063C111.008 138.059 116.127 135.194 121.328 132.629C123.043 131.783 124.922 131.21 126.719 130.527Z" fill="url(#paint8_linear)"/>
<path d="M168.65 324.013C173.769 315.826 192.502 303.845 205.136 300.789C200.452 310.668 181.828 321.829 168.65 324.013Z" fill="url(#paint9_linear)"/>
<path d="M203.148 122.532C196.89 120.528 190.858 117.876 185.15 114.617C181.611 112.789 178.098 110.797 174.695 108.723C172.925 107.659 171.727 107.386 170.556 109.46C169.715 110.661 168.757 111.777 167.697 112.789C166.308 109.596 171.455 105.585 165.818 103.183C168.759 104.52 169.467 103.183 170.175 100.809C171.95 95.1197 174.665 89.7694 178.207 84.9807C179.011 90.9351 177.885 96.9911 174.994 102.255C173.469 105.148 174.368 105.803 176.873 106.758C185.734 110.156 194.032 114.876 201.487 120.758C202.14 121.222 202.903 121.494 203.148 122.532Z" fill="url(#paint10_linear)"/>
<path d="M127.726 274.099C128.108 281.495 128.734 288.836 126.202 295.931C124.007 303.22 122.27 310.639 121.001 318.145C120.772 319.322 120.359 320.455 119.776 321.502C117.979 304.991 118.278 288.809 127.726 274.099Z" fill="url(#paint11_linear)"/>
<path d="M253.002 286.08C246.634 282.446 240.712 278.077 235.359 273.062C235.168 275.791 236.911 277.756 236.257 280.485C231.464 275.446 228.328 269.055 227.272 262.174C239.606 265.967 246.903 274.672 253.002 286.08Z" fill="url(#paint12_linear)"/>
<path d="M109.756 225.742C96.5504 218.21 87.5107 206.639 78.1171 195.723L81.6567 198.452L85.5231 201.426C89.3919 204.416 93.6637 206.842 98.2113 208.631C104.147 210.76 108.749 217.718 109.756 225.742Z" fill="url(#paint13_linear)"/>
<path d="M125.058 165.813C127.481 157.817 126.91 149.712 126.447 141.58C126.298 139.619 126.596 137.65 127.318 135.822C127.971 134.293 128.843 132.874 130.858 133.093C132.873 133.311 133.58 134.675 134.043 136.286C134.793 139.582 134.793 143.005 134.043 146.301C133.629 153.713 130.417 160.689 125.058 165.813Z" fill="url(#paint14_linear)"/>
<path d="M27.228 259.663C43.0474 260.045 65.8917 261.71 70.9833 268.178C67.2803 269.897 63.5229 268.996 59.9015 268.532C48.8509 266.923 38.0058 264.123 27.5547 260.182C27.5547 260.182 27.228 259.854 27.228 259.663Z" fill="url(#paint15_linear)"/>
<path d="M216.19 336.402C205.925 316.863 204.591 311.841 207.314 304.091C210.077 305.973 212.084 308.778 212.977 312.005C213.873 314.103 214.469 316.317 214.747 318.582C214.965 321.011 215.754 322.211 217.306 321.911C215.754 321.638 215.346 322.894 215.564 325.104C215.945 328.87 216 332.636 216.19 336.402Z" fill="url(#paint16_linear)"/>
<path d="M201.977 124.087C191.63 131.377 180.186 136.96 168.078 140.625C171.536 131.264 189.017 124.742 201.977 124.087Z" fill="url(#paint17_linear)"/>
<path d="M78.9611 304.882C83.9638 311.148 86.8271 318.859 87.1295 326.878C87.1295 332.336 88.736 337.794 89.3894 343.252C89.61 344.166 89.514 345.128 89.1171 345.981C87.8102 342.242 86.5305 338.476 85.1963 334.737C84.1621 331.423 82.8975 328.186 81.4116 325.05C77.9537 318.855 78.2259 312.36 78.9611 304.882Z" fill="url(#paint18_linear)"/>
<path d="M213.74 306.82C224.601 308.04 234.705 312.997 242.329 320.847C236.875 320.52 231.539 319.112 226.632 316.705C221.725 314.297 217.342 310.937 213.74 306.82Z" fill="url(#paint19_linear)"/>
<path d="M119.803 197.77C127.073 192.312 148.011 186.854 159.529 187.672C147.012 193.438 133.548 196.86 119.803 197.77Z" fill="url(#paint20_linear)"/>
<path d="M257.495 190.319C243.826 190.419 230.18 191.458 216.653 193.431C216.653 193.048 216.653 192.748 216.898 192.666C220.547 190.756 220.519 190.783 217.878 187.536C213.343 181.675 207.64 176.823 201.133 173.291C203.536 173.463 205.881 174.108 208.035 175.19C210.189 176.272 212.109 177.768 213.685 179.595C216.284 182.248 218.419 185.32 220.002 188.682C220.9 190.565 221.799 190.729 223.732 190.265C234.875 187.998 246.36 188.016 257.495 190.319Z" fill="url(#paint21_linear)"/>
<path d="M53.2579 300.489C58.1317 291.292 63.3051 282.368 71.1195 275.327C69.5675 286.789 62.8966 294.731 53.2579 300.489Z" fill="url(#paint22_linear)"/>
<path d="M128.162 272.489C125.058 274.427 121.41 274.099 118.061 274.918C115.338 275.573 113.65 275.955 115.528 279.066C116.018 279.858 115.528 281.086 116.645 281.795L123.561 275.164L124.459 275.655C121.409 277.828 119.053 280.84 117.676 284.328C116.299 287.815 115.96 291.627 116.699 295.304C113.731 294.13 115.746 289.846 111.934 289.6C114.249 285.534 110.954 281.686 110.382 277.538C110.001 274.672 109.184 271.834 108.966 268.56C110.701 269.503 112.035 271.045 112.724 272.899C113.541 274.864 114.711 274.809 116.509 274.536C120.402 273.936 124.132 272.189 128.189 272.571L128.162 272.489Z" fill="url(#paint23_linear)"/>
<path d="M239.606 109.405C229.451 107.004 220.403 101.234 213.93 93.0312C221.227 93.3587 232.609 100.536 239.606 109.405Z" fill="url(#paint24_linear)"/>
<path d="M192.692 197.906C192.2 191.266 192.2 184.598 192.692 177.957C192.69 177.572 192.769 177.191 192.924 176.839C193.079 176.486 193.307 176.171 193.593 175.913C193.878 175.655 194.215 175.461 194.581 175.343C194.946 175.225 195.333 175.186 195.715 175.228C196.594 175.263 197.427 175.632 198.044 176.261C198.662 176.889 199.016 177.73 199.037 178.612C199.498 183.392 198.551 188.202 196.314 192.448C195.423 194.46 194.199 196.305 192.692 197.906Z" fill="url(#paint25_linear)"/>
<path d="M127.1 34.74C141.204 29.438 156.487 28.1073 171.291 30.8921C156.561 31.9291 141.912 33.6484 127.1 34.74Z" fill="url(#paint26_linear)"/>
<path d="M112.288 227.843C113.023 229.835 114.548 230.572 115.937 231.8C114.167 231.5 114.031 232.018 114.385 233.437C116.506 240.105 116.236 247.306 113.622 253.796C110.763 248.856 109.239 233.738 112.288 227.843Z" fill="url(#paint27_linear)"/>
<path d="M170.692 68.7159L137.719 60.0377C150.081 57.8272 160.781 61.757 170.692 68.7159Z" fill="url(#paint28_linear)"/>
<path d="M106.407 269.569C109.13 279.83 107.55 289.709 104.201 299.588C103.055 289.532 103.803 279.349 106.407 269.569Z" fill="url(#paint29_linear)"/>
<path d="M212.051 302.918C221.812 301.499 231.771 303.179 240.532 307.721C230.801 308.254 221.073 306.613 212.051 302.918Z" fill="url(#paint30_linear)"/>
<path d="M36.1315 296.04C32.2797 298.136 28.1142 299.593 23.7972 300.352C15.9855 302.387 8.02988 303.819 0 304.637C1.43657 303.37 3.16927 302.487 5.03717 302.071C6.7678 301.44 8.5311 300.903 10.3194 300.461C18.7437 298.011 27.4247 296.555 36.186 296.122L36.1315 296.04Z" fill="url(#paint31_linear)"/>
<path d="M26.6562 279.339C33.8443 275 45.4979 272.817 52.2232 274.345C49.0103 278.056 37.0572 280.458 26.6562 279.339Z" fill="url(#paint32_linear)"/>
<path d="M223.024 86.1814C231.91 89.6217 240.109 94.6314 247.23 100.972C251.096 104.629 250.579 107.768 245.869 110.333C247.121 104.165 243.473 100.536 239.361 97.2065C234.185 93.145 228.726 89.4606 223.024 86.1814Z" fill="url(#paint33_linear)"/>
<path d="M115.855 180.277C125.14 178.53 134.397 177.548 143.6 180.686C134.455 182.803 124.934 182.663 115.855 180.277Z" fill="url(#paint34_linear)"/>
<path d="M65.6466 272.134C60.2689 277.912 54.432 283.242 48.1935 288.072C49.7999 279.666 55.899 273.99 65.6466 272.134Z" fill="url(#paint35_linear)"/>
<path d="M147.494 92.7855C147.847 96.2822 147.483 99.8143 146.425 103.165C145.367 106.516 143.637 109.614 141.34 112.27C138.863 107.167 141.776 97.9433 147.494 92.7855Z" fill="url(#paint36_linear)"/>
<path d="M127.318 217.118C138.74 216.486 150.032 219.8 159.311 226.506C149.073 221.948 138.019 220.12 127.318 217.118Z" fill="url(#paint37_linear)"/>
<path d="M136.521 156.999C139.346 159.471 141.652 162.481 143.307 165.854C144.962 169.227 145.931 172.896 146.16 176.647C141.302 171.046 137.981 164.275 136.521 156.999Z" fill="url(#paint38_linear)"/>
<path d="M209.438 195.668C208.185 201.945 206.933 208.167 202.848 213.27C202.723 210.045 203.241 206.826 204.373 203.804C205.504 200.781 207.226 198.015 209.438 195.668Z" fill="url(#paint39_linear)"/>
<path d="M149.754 80.587L139.462 65.4957C144.662 69.289 149.073 73.6826 149.754 80.587Z" fill="url(#paint40_linear)"/>
<path d="M132.709 287.908C131.862 282.53 133.004 277.027 135.922 272.435C136.411 277.798 135.292 283.185 132.709 287.908Z" fill="url(#paint41_linear)"/>
<path d="M227.272 124.524C230.535 122.645 234.117 121.387 237.836 120.812L227.462 124.742L227.272 124.524Z" fill="url(#paint42_linear)"/>
<path d="M201.487 269.46C198.928 261.109 201.732 251.176 207.995 248.42C208.569 252.192 208.282 256.045 207.154 259.69C206.027 263.334 204.089 266.675 201.487 269.46Z" fill="url(#paint43_linear)"/>
</g>
<defs>
<linearGradient id="paint0_linear" x1="132.546" y1="36.1975" x2="132.546" y2="212.506" gradientUnits="userSpaceOnUse">
<stop stop-color="#29711D"/>
<stop offset="1" stop-color="#69B95C" stop-opacity="0"/>
</linearGradient>
<linearGradient id="paint1_linear" x1="155.69" y1="195.503" x2="155.69" y2="312.769" gradientUnits="userSpaceOnUse">
<stop stop-color="#29711D"/>
<stop offset="1" stop-color="#69B95C" stop-opacity="0"/>
</linearGradient>
<linearGradient id="paint2_linear" x1="49.1737" y1="269.924" x2="49.1737" y2="361.918" gradientUnits="userSpaceOnUse">
<stop stop-color="#29711D"/>
<stop offset="1" stop-color="#69B95C" stop-opacity="0"/>
</linearGradient>
<linearGradient id="paint3_linear" x1="96.21" y1="268.56" x2="96.21" y2="315.853" gradientUnits="userSpaceOnUse">
<stop stop-color="#29711D"/>
<stop offset="1" stop-color="#69B95C" stop-opacity="0"/>
</linearGradient>
<linearGradient id="paint4_linear" x1="249.603" y1="289.682" x2="249.603" y2="355.964" gradientUnits="userSpaceOnUse">
<stop stop-color="#29711D"/>
<stop offset="1" stop-color="#69B95C" stop-opacity="0"/>
</linearGradient>
<linearGradient id="paint5_linear" x1="41.147" y1="88.7035" x2="41.147" y2="107.587" gradientUnits="userSpaceOnUse">
<stop stop-color="#29711D"/>
<stop offset="1" stop-color="#69B95C" stop-opacity="0"/>
</linearGradient>
<linearGradient id="paint6_linear" x1="104.038" y1="0" x2="104.038" y2="36.7322" gradientUnits="userSpaceOnUse">
<stop stop-color="#29711D"/>
<stop offset="1" stop-color="#69B95C" stop-opacity="0"/>
</linearGradient>
<linearGradient id="paint7_linear" x1="240.736" y1="117.847" x2="240.736" y2="151.895" gradientUnits="userSpaceOnUse">
<stop stop-color="#29711D"/>
<stop offset="1" stop-color="#69B95C" stop-opacity="0"/>
</linearGradient>
<linearGradient id="paint8_linear" x1="113.132" y1="130.527" x2="113.132" y2="167.778" gradientUnits="userSpaceOnUse">
<stop stop-color="#29711D"/>
<stop offset="1" stop-color="#69B95C" stop-opacity="0"/>
</linearGradient>
<linearGradient id="paint9_linear" x1="186.893" y1="300.789" x2="186.893" y2="324.013" gradientUnits="userSpaceOnUse">
<stop stop-color="#29711D"/>
<stop offset="1" stop-color="#69B95C" stop-opacity="0"/>
</linearGradient>
<linearGradient id="paint10_linear" x1="184.483" y1="84.9807" x2="184.483" y2="122.532" gradientUnits="userSpaceOnUse">
<stop stop-color="#29711D"/>
<stop offset="1" stop-color="#69B95C" stop-opacity="0"/>
</linearGradient>
<linearGradient id="paint11_linear" x1="123.499" y1="274.099" x2="123.499" y2="321.502" gradientUnits="userSpaceOnUse">
<stop stop-color="#29711D"/>
<stop offset="1" stop-color="#69B95C" stop-opacity="0"/>
</linearGradient>
<linearGradient id="paint12_linear" x1="240.137" y1="262.174" x2="240.137" y2="286.08" gradientUnits="userSpaceOnUse">
<stop stop-color="#29711D"/>
<stop offset="1" stop-color="#69B95C" stop-opacity="0"/>
</linearGradient>
<linearGradient id="paint13_linear" x1="93.9365" y1="195.723" x2="93.9365" y2="225.742" gradientUnits="userSpaceOnUse">
<stop stop-color="#29711D"/>
<stop offset="1" stop-color="#69B95C" stop-opacity="0"/>
</linearGradient>
<linearGradient id="paint14_linear" x1="129.832" y1="133.07" x2="129.832" y2="165.813" gradientUnits="userSpaceOnUse">
<stop stop-color="#29711D"/>
<stop offset="1" stop-color="#69B95C" stop-opacity="0"/>
</linearGradient>
<linearGradient id="paint15_linear" x1="49.1056" y1="259.663" x2="49.1056" y2="269.186" gradientUnits="userSpaceOnUse">
<stop stop-color="#29711D"/>
<stop offset="1" stop-color="#69B95C" stop-opacity="0"/>
</linearGradient>
<linearGradient id="paint16_linear" x1="211.697" y1="304.091" x2="211.697" y2="336.402" gradientUnits="userSpaceOnUse">
<stop stop-color="#29711D"/>
<stop offset="1" stop-color="#69B95C" stop-opacity="0"/>
</linearGradient>
<linearGradient id="paint17_linear" x1="185.028" y1="124.087" x2="185.028" y2="140.625" gradientUnits="userSpaceOnUse">
<stop stop-color="#29711D"/>
<stop offset="1" stop-color="#69B95C" stop-opacity="0"/>
</linearGradient>
<linearGradient id="paint18_linear" x1="84.0023" y1="304.882" x2="84.0023" y2="345.981" gradientUnits="userSpaceOnUse">
<stop stop-color="#29711D"/>
<stop offset="1" stop-color="#69B95C" stop-opacity="0"/>
</linearGradient>
<linearGradient id="paint19_linear" x1="228.034" y1="306.82" x2="228.034" y2="320.847" gradientUnits="userSpaceOnUse">
<stop stop-color="#29711D"/>
<stop offset="1" stop-color="#69B95C" stop-opacity="0"/>
</linearGradient>
<linearGradient id="paint20_linear" x1="139.666" y1="187.59" x2="139.666" y2="197.77" gradientUnits="userSpaceOnUse">
<stop stop-color="#29711D"/>
<stop offset="1" stop-color="#69B95C" stop-opacity="0"/>
</linearGradient>
<linearGradient id="paint21_linear" x1="229.314" y1="173.291" x2="229.314" y2="193.431" gradientUnits="userSpaceOnUse">
<stop stop-color="#29711D"/>
<stop offset="1" stop-color="#69B95C" stop-opacity="0"/>
</linearGradient>
<linearGradient id="paint22_linear" x1="62.1887" y1="275.327" x2="62.1887" y2="300.489" gradientUnits="userSpaceOnUse">
<stop stop-color="#29711D"/>
<stop offset="1" stop-color="#69B95C" stop-opacity="0"/>
</linearGradient>
<linearGradient id="paint23_linear" x1="118.578" y1="268.56" x2="118.578" y2="295.304" gradientUnits="userSpaceOnUse">
<stop stop-color="#29711D"/>
<stop offset="1" stop-color="#69B95C" stop-opacity="0"/>
</linearGradient>
<linearGradient id="paint24_linear" x1="226.768" y1="93.0312" x2="226.768" y2="109.405" gradientUnits="userSpaceOnUse">
<stop stop-color="#29711D"/>
<stop offset="1" stop-color="#69B95C" stop-opacity="0"/>
</linearGradient>
<linearGradient id="paint25_linear" x1="195.737" y1="175.212" x2="195.737" y2="197.906" gradientUnits="userSpaceOnUse">
<stop stop-color="#29711D"/>
<stop offset="1" stop-color="#69B95C" stop-opacity="0"/>
</linearGradient>
<linearGradient id="paint26_linear" x1="149.196" y1="29.4732" x2="149.196" y2="34.74" gradientUnits="userSpaceOnUse">
<stop stop-color="#29711D"/>
<stop offset="1" stop-color="#69B95C" stop-opacity="0"/>
</linearGradient>
<linearGradient id="paint27_linear" x1="113.276" y1="227.843" x2="113.276" y2="253.796" gradientUnits="userSpaceOnUse">
<stop stop-color="#29711D"/>
<stop offset="1" stop-color="#69B95C" stop-opacity="0"/>
</linearGradient>
<linearGradient id="paint28_linear" x1="154.206" y1="59.4214" x2="154.206" y2="68.7159" gradientUnits="userSpaceOnUse">
<stop stop-color="#29711D"/>
<stop offset="1" stop-color="#69B95C" stop-opacity="0"/>
</linearGradient>
<linearGradient id="paint29_linear" x1="105.737" y1="269.569" x2="105.737" y2="299.588" gradientUnits="userSpaceOnUse">
<stop stop-color="#29711D"/>
<stop offset="1" stop-color="#69B95C" stop-opacity="0"/>
</linearGradient>
<linearGradient id="paint30_linear" x1="226.292" y1="302.428" x2="226.292" y2="307.819" gradientUnits="userSpaceOnUse">
<stop stop-color="#29711D"/>
<stop offset="1" stop-color="#69B95C" stop-opacity="0"/>
</linearGradient>
<linearGradient id="paint31_linear" x1="18.093" y1="296.04" x2="18.093" y2="304.637" gradientUnits="userSpaceOnUse">
<stop stop-color="#29711D"/>
<stop offset="1" stop-color="#69B95C" stop-opacity="0"/>
</linearGradient>
<linearGradient id="paint32_linear" x1="39.4397" y1="273.858" x2="39.4397" y2="279.615" gradientUnits="userSpaceOnUse">
<stop stop-color="#29711D"/>
<stop offset="1" stop-color="#69B95C" stop-opacity="0"/>
</linearGradient>
<linearGradient id="paint33_linear" x1="236.414" y1="86.1814" x2="236.414" y2="110.333" gradientUnits="userSpaceOnUse">
<stop stop-color="#29711D"/>
<stop offset="1" stop-color="#69B95C" stop-opacity="0"/>
</linearGradient>
<linearGradient id="paint34_linear" x1="129.728" y1="178.643" x2="129.728" y2="182.176" gradientUnits="userSpaceOnUse">
<stop stop-color="#29711D"/>
<stop offset="1" stop-color="#69B95C" stop-opacity="0"/>
</linearGradient>
<linearGradient id="paint35_linear" x1="56.92" y1="272.134" x2="56.92" y2="288.072" gradientUnits="userSpaceOnUse">
<stop stop-color="#29711D"/>
<stop offset="1" stop-color="#69B95C" stop-opacity="0"/>
</linearGradient>
<linearGradient id="paint36_linear" x1="144.038" y1="92.7855" x2="144.038" y2="112.27" gradientUnits="userSpaceOnUse">
<stop stop-color="#29711D"/>
<stop offset="1" stop-color="#69B95C" stop-opacity="0"/>
</linearGradient>
<linearGradient id="paint37_linear" x1="143.314" y1="217.042" x2="143.314" y2="226.506" gradientUnits="userSpaceOnUse">
<stop stop-color="#29711D"/>
<stop offset="1" stop-color="#69B95C" stop-opacity="0"/>
</linearGradient>
<linearGradient id="paint38_linear" x1="141.34" y1="156.999" x2="141.34" y2="176.647" gradientUnits="userSpaceOnUse">
<stop stop-color="#29711D"/>
<stop offset="1" stop-color="#69B95C" stop-opacity="0"/>
</linearGradient>
<linearGradient id="paint39_linear" x1="206.134" y1="195.668" x2="206.134" y2="213.27" gradientUnits="userSpaceOnUse">
<stop stop-color="#29711D"/>
<stop offset="1" stop-color="#69B95C" stop-opacity="0"/>
</linearGradient>
<linearGradient id="paint40_linear" x1="144.608" y1="65.4957" x2="144.608" y2="80.587" gradientUnits="userSpaceOnUse">
<stop stop-color="#29711D"/>
<stop offset="1" stop-color="#69B95C" stop-opacity="0"/>
</linearGradient>
<linearGradient id="paint41_linear" x1="134.235" y1="272.435" x2="134.235" y2="287.908" gradientUnits="userSpaceOnUse">
<stop stop-color="#29711D"/>
<stop offset="1" stop-color="#69B95C" stop-opacity="0"/>
</linearGradient>
<linearGradient id="paint42_linear" x1="232.554" y1="120.812" x2="232.554" y2="124.742" gradientUnits="userSpaceOnUse">
<stop stop-color="#29711D"/>
<stop offset="1" stop-color="#69B95C" stop-opacity="0"/>
</linearGradient>
<linearGradient id="paint43_linear" x1="204.413" y1="248.42" x2="204.413" y2="269.46" gradientUnits="userSpaceOnUse">
<stop stop-color="#29711D"/>
<stop offset="1" stop-color="#69B95C" stop-opacity="0"/>
</linearGradient>
<clipPath id="clip0">
<rect width="243" height="362" fill="white"/>
</clipPath>
</defs>
</svg>
