<svg width="1440" height="1443" viewBox="0 0 1440 1443" fill="none" xmlns="http://www.w3.org/2000/svg">
<path d="M1420.91 784.665C1402.48 779.481 1384.05 780.051 1367.98 791.413C1351.91 802.776 1352.98 814.579 1367.02 825.133C1369.29 826.49 1371.68 827.618 1374.17 828.498C1347.41 854.845 1302.57 860.177 1273.13 840.743L1286.88 833.002C1287.08 832.895 1287.28 832.765 1287.45 832.616C1289.98 830.465 1290.25 832.91 1291.14 834.326C1296.48 842.563 1303.39 845.358 1312.96 843.372C1326.03 840.743 1331.58 831.035 1333.86 819.617C1336.39 807.096 1337.77 794.52 1353.22 789.17C1337.03 782.128 1321.99 779.389 1306.42 782.68C1290.84 785.971 1277.11 792.277 1269.22 807.17C1264.3 816.363 1268.65 825.556 1278.83 827.67C1280.5 828.02 1282.24 828.093 1284.21 828.332C1278.03 835.153 1268.37 838.463 1263.32 835.227C1253.36 828.62 1244.22 820.842 1236.12 812.061C1233.78 809.597 1233.65 808.255 1237.19 806.765C1244.79 803.511 1252.09 799.585 1258.99 795.035C1283.89 778.929 1303.39 757.473 1320.52 733.608C1328.26 722.833 1338.75 715.369 1351.5 708.364C1350.43 712.666 1349.66 715.461 1349.05 718.274C1346.84 729.085 1350.89 740.999 1358.27 745.393C1366.38 750.284 1376.49 748.39 1385.91 740.061C1391.78 734.592 1396.94 728.416 1401.28 721.675C1410.87 707.72 1417.54 690.29 1439.44 690.29C1432.98 681.425 1424.8 673.946 1415.38 668.301C1396.95 657.49 1377.47 653.132 1356.72 661.718C1338.99 669.073 1334.06 683.671 1344.52 699.336C1347.13 703.252 1346.21 704.558 1342.67 706.304C1333.06 711.285 1324.47 718.035 1317.37 726.198C1304.13 741.187 1289.6 754.975 1273.92 767.401C1268.85 771.336 1263.44 774.847 1257.59 778.984C1257.59 773.064 1257.7 768.725 1257.59 764.367C1257.5 761.554 1258.38 761.15 1261.28 761.334C1272.76 762.069 1280.87 754.751 1282.27 743.407C1283.56 732.927 1278.97 724.58 1272.95 716.876C1264.93 706.599 1255.33 697.093 1260.67 681.52C1252.74 683.965 1247.62 688.268 1242.39 692.294C1224.38 706.139 1215.07 733.791 1221.54 753.961C1223.66 760.58 1227.16 766.298 1234.28 768.192C1241.39 770.085 1246.44 765.765 1250.51 760.341C1250.72 760.083 1251.29 760.12 1251.69 760.01C1255.38 771.041 1252.89 782.294 1245.52 786.283C1202.3 809.634 1159.09 810.185 1115.98 786.063C1114.14 785.033 1111.56 784.445 1111.52 781.374C1120.11 779.878 1128.43 777.127 1136.22 773.211C1140.22 771.115 1141.34 771.85 1142.41 776.19C1145.58 789.207 1156.26 793.914 1168.35 788.03C1174.29 784.987 1179.43 780.575 1183.33 775.16C1205.74 745.742 1204.79 704.631 1182.96 673.706C1178.76 690.456 1167.24 698.803 1151.78 703.749C1142.03 706.676 1133.12 711.861 1125.77 718.88C1114.71 729.728 1112.63 746.974 1120.89 758.429C1123.8 762.455 1128.53 763.632 1132.66 766.647C1122.34 772.163 1111.71 773.91 1101.07 775.693C1099.45 775.861 1097.83 775.393 1096.56 774.388C1074.35 759.586 1053.87 742.349 1035.51 722.999C1033.37 720.793 1033.85 719.8 1036.45 718.66C1049.8 712.662 1061.78 704.016 1071.67 693.25C1075.08 702.443 1081.2 707.959 1091.01 708.878C1103.08 710.092 1116.52 701.708 1122.93 688.875C1128.07 678.597 1129.44 667.4 1131.1 656.313C1131.65 651.757 1133.15 647.367 1135.51 643.427C1137.87 639.488 1141.03 636.085 1144.79 633.441C1147.11 631.768 1149.36 629.966 1152.33 627.704C1124.28 617.537 1097.88 618.162 1072.56 632.871C1060.17 640.06 1050.15 649.694 1044.52 663.189C1040.3 673.265 1043.36 683.101 1051.9 687.698C1055.38 689.536 1059.44 688.746 1063.86 690.143C1054.92 700.127 1044.52 706.543 1033.37 712.078C1029.24 714.118 1026.76 714.045 1023.44 710.331C1013.63 699.299 1003.44 688.783 993.118 678.303C971.24 656.074 946.468 638.828 914.545 634.489C906.951 633.459 899.32 632.65 891.118 631.768C915.079 598.673 929.124 562.655 932.516 522.61C932.519 521.588 932.837 520.592 933.427 519.757C934.018 518.921 934.851 518.287 935.815 517.94C942.689 514.749 949.823 512.147 957.14 510.163C958.983 509.722 960.826 508.765 962.522 509.887C972.641 517.058 981.728 525.092 985.414 538.845C983.571 538.183 982.76 537.87 981.949 537.613C967.609 533.09 958.965 538.257 957.287 553.076C954.781 575.378 964.752 592.863 980.659 607.075C992.51 617.647 1007 623.347 1023.18 625.627C1016.14 606.689 1016.18 606.413 1023.51 587.531C1025.17 583.265 1026.76 578.945 1028.18 574.661C1030.11 568.995 1030.67 562.951 1029.8 557.029C1027.16 539.764 1010.3 528.383 995.607 537.65C994.151 538.569 992.805 539.488 991.92 536.951C987.773 525.166 980.401 515.807 970.779 506.853C974.134 506.265 976.309 505.916 978.613 505.474C998.408 501.521 1018.44 502.257 1038.44 502.312C1051.34 502.312 1067.18 516.028 1069.5 529.064C1051.34 528.034 1045.15 541.603 1049.45 556.477C1059.75 592.091 1106.14 607.737 1137.07 594.867C1126.16 586.409 1122.67 575.323 1124.17 561.974C1125.05 554.201 1124.79 546.339 1123.37 538.643C1121.11 526.434 1114.58 517.922 1102.38 514.851C1091.32 512.057 1083.86 518.106 1077.53 526.894C1072.86 517.999 1066.79 509.91 1059.55 502.937C1062.05 502.937 1062.94 502.937 1063.8 502.937C1092.08 505.641 1120.6 501.816 1147.15 491.758C1149.33 491.031 1151.68 490.96 1153.9 491.556C1164.5 493.715 1174.55 498.047 1183.39 504.279C1196.05 513.178 1198.85 530.774 1189.67 544.085C1186.7 538.753 1182.83 534.892 1176.36 534.322C1168 533.623 1162.28 537.76 1157.93 544.14C1145.29 562.379 1146.87 590.105 1161.53 608.491C1166.89 615.257 1172.48 621.802 1181.08 626.638C1180 612.94 1186.78 604.851 1197.06 598.434C1204.06 594.402 1210.22 589.058 1215.18 582.695C1220.71 575.029 1222.11 566.589 1218.35 557.966C1214.67 549.656 1207.53 546.567 1198.7 546.824C1197.98 546.697 1197.28 546.461 1196.62 546.126C1199.98 538.863 1200.86 531.233 1201.14 522.04C1212.6 536.51 1221.17 551.219 1233.12 563.317C1234.01 564.652 1234.49 566.216 1234.52 567.821C1236.03 579.901 1237.65 591.944 1242.68 603.196C1243.49 605.034 1243.38 605.77 1241.04 606.413C1227.97 609.925 1224.58 616.838 1230.39 628.477C1243.16 654.217 1278.75 662.196 1302.93 651.11C1290.84 645.594 1289.48 635.243 1288.93 624.358C1288.78 620.685 1288.25 617.037 1287.34 613.474C1284.76 604.115 1279.6 596.577 1269.76 594.003C1261.33 591.797 1254.31 594.628 1249.48 603.435C1245.01 593.373 1242.07 582.702 1240.76 571.774C1241.56 571.915 1242.33 572.149 1243.07 572.473C1257.26 583.247 1272.12 592.697 1290.35 595.18C1292.08 595.419 1293.05 596.761 1294.18 597.901C1301.1 605.265 1308.81 611.855 1317.16 617.555C1319.34 618.953 1319.73 619.817 1317.77 622.189C1309.62 632.117 1312.59 641.751 1324.89 645.778C1329.83 647.387 1335.05 647.998 1340.23 647.575C1345.41 647.152 1350.46 645.704 1355.08 643.314C1366.07 637.922 1375 629.097 1380.51 618.18C1370.52 620.148 1364.59 616.176 1359.59 609.649C1356.15 604.776 1351.76 600.638 1346.69 597.478C1344.36 596.109 1341.73 595.316 1339.03 595.166C1336.32 595.015 1333.62 595.511 1331.15 596.611C1328.68 597.712 1326.51 599.386 1324.81 601.494C1323.12 603.602 1321.96 606.083 1321.42 608.73C1321.02 610.569 1322.29 612.775 1320.26 614.632C1312.17 609.733 1304.96 603.519 1298.93 596.246C1322.01 596.467 1339.74 587.053 1356.2 572.657C1356.35 575.304 1356.39 576.334 1356.46 577.529C1356.98 587.77 1362.65 596.246 1370.01 597.754C1377.36 599.261 1385.49 594.499 1390.41 585.472C1393.51 580.108 1395.98 574.408 1397.78 568.483C1401.03 556.79 1404.84 545.574 1418.26 540.647C1411.36 535.004 1403.29 530.945 1394.64 528.759C1385.99 526.573 1376.96 526.313 1368.2 527.997C1362.06 529.046 1356.27 531.57 1351.34 535.352C1336.92 546.273 1338.18 559.934 1354.67 569.476C1318.64 597.643 1275.91 593.488 1249.19 560.853C1255.38 559.603 1261.46 558.113 1266.59 554.62C1270.27 552.083 1271.29 553.112 1272.56 556.937C1274.7 563.39 1279.71 566.718 1286.47 567.564C1300.65 569.402 1312.28 560.963 1317.81 544.14C1322.1 530.718 1325.31 516.837 1342.32 512.24C1325.62 501.871 1308.94 498.525 1291.32 501.521C1274.6 504.371 1260.34 511.634 1252.17 527.611C1248.87 534.065 1250.63 539.599 1255.29 544.581C1258.09 547.578 1262.2 547.542 1266 548.7C1264.01 551.899 1260.91 552.892 1257.94 554.032C1246.16 558.518 1244.52 558.058 1237.26 548.148C1230.33 538.716 1223.7 529.045 1216.47 519.852C1204.2 504.261 1190.15 490.435 1172.24 480.102C1183.41 473.023 1194.48 466.919 1202.74 457.689C1209.5 450.114 1217.1 447.816 1226.52 448.864C1227.2 448.956 1227.9 448.864 1228.6 448.864C1248.04 449.489 1267.31 451.236 1286.53 456.218C1274.42 473.244 1284.69 486.463 1301.28 488.78C1339 494.075 1369.8 461.495 1373.69 429.595C1360.15 435.7 1348.24 432.353 1336.66 424.466C1330.59 420.29 1323.84 417.181 1316.72 415.273C1300.13 410.952 1284.74 419.373 1282.55 433.953C1281.66 439.836 1284.17 444.985 1286.6 450.39C1274.72 448.79 1263.38 447.007 1252.01 445.849C1240.64 444.69 1229.47 444.139 1217.36 443.275C1225.95 432.243 1233.32 421.837 1238.53 410.033C1238.9 409.193 1239.46 408.451 1240.17 407.87C1240.87 407.288 1241.71 406.882 1242.61 406.687C1255.61 402.759 1267.8 396.531 1278.59 388.301C1285.96 403.708 1295.17 405.657 1308.08 394.717C1328.2 377.673 1331.76 338.879 1314.51 317.496C1310.68 329.3 1301.81 334.43 1290.7 337.077C1284.6 338.357 1278.77 340.65 1273.44 343.862C1265.04 349.249 1260.32 356.732 1261.15 366.881C1261.94 376.368 1268.1 381.075 1278.05 382.325C1267.27 391.812 1255.77 397.512 1242.09 402.274C1253.32 371.767 1255.37 338.649 1247.97 306.998C1251.93 308.266 1254.31 309.112 1256.73 309.811C1266.16 312.55 1277.09 309.811 1281.33 303.762C1286.09 296.941 1284.65 287.049 1277.9 278.242C1272.57 271.617 1266.44 265.67 1259.66 260.536C1249.02 252.06 1237.91 243.989 1239.97 226.375C1234.17 231.027 1229.59 234.134 1225.71 237.903C1210.96 252.208 1202.52 269.159 1204.64 290.211C1206.48 309.241 1218.35 318.636 1234.48 313.874C1237.43 312.772 1240.29 311.431 1243.03 309.866C1249.96 332.793 1237.83 394.441 1222.66 411.835C1220.68 402.869 1217.3 394.269 1212.64 386.352C1227.24 382.491 1232.91 372.507 1228.8 359.104C1225.71 349.12 1217.98 343.365 1209.36 338.714C1198.02 332.609 1187.05 326.377 1185.75 311.3C1163.06 331.304 1158.45 368.297 1175.42 391.536C1179.66 397.346 1185.16 402.568 1193.17 401.63C1201.19 400.693 1204.4 394.552 1206.08 387.418C1206.08 387.142 1206.67 386.958 1207.22 386.535C1212.49 394.369 1216.29 403.09 1218.44 412.276C1218.98 414.484 1218.99 416.785 1218.47 418.997C1217.96 421.209 1216.93 423.27 1215.48 425.017C1197.63 448.643 1174.28 464.658 1147.08 475.579C1145.23 476.277 1143.39 477.656 1141.11 476.296C1141.58 469.456 1143.24 462.672 1142.4 455.795C1141.93 452.118 1143.06 451.346 1146.87 451.714C1161.8 453.129 1171.41 444.911 1173.18 430.055C1174.83 416.229 1167.96 405.822 1159.78 395.912C1152.51 387.124 1143.45 379.365 1143.41 366.605C1143.41 362.634 1143.83 358.662 1144.07 354.434C1121.07 365.3 1105.59 382.527 1098.97 405.914C1094.49 421.8 1094.34 437.722 1103.56 452.449C1110.47 463.481 1123.25 464.676 1132.04 455.244C1132.9 454.325 1133.14 452.633 1135.48 452.707C1136.35 459.882 1136.02 467.15 1134.51 474.218C1134.35 476.241 1133.5 478.149 1132.1 479.617C1130.69 481.085 1128.82 482.022 1126.8 482.271C1107.92 486.48 1088.64 488.613 1069.3 488.633C1061.19 488.633 1053.02 489.093 1044.71 487.677C1046.27 484 1047.42 481.058 1048.86 478.208C1050.29 475.358 1049.76 471.515 1052.3 468.629C1054.03 469.824 1055.49 470.909 1057.04 471.865C1065.22 477.013 1076.69 477.583 1082.4 472.619C1089.59 466.349 1089.53 458.186 1087.16 449.783C1084.56 440.59 1079.19 432.721 1073.81 425.017C1066 413.802 1058.03 402.954 1064.32 387.565C1057.02 389.496 1050.02 392.435 1043.53 396.298C1022.48 407.863 1010.08 430.129 1012.69 451.181C1013.98 461.55 1018.87 466.441 1029.04 468.758C1034.35 469.953 1039.23 468.758 1044.32 467.287C1043.25 482.584 1037.41 488.559 1023.59 487.787C1003.13 486.647 982.686 485.618 962.246 487.787C960.402 487.989 958.135 488.596 956.347 486.39C959.186 479.605 962.043 472.802 965.029 465.706C977.304 477.803 987.57 476.075 995.588 461.44C998.688 456.052 1000.65 450.09 1001.36 443.918C1003.44 421.855 995.828 403.469 980.29 387.97C977.396 385.065 974.761 381.443 970.171 380.505C969.01 396.023 967.443 399.13 955.02 409.353C947.316 415.677 940.072 422.223 936.589 432.059C931.834 445.683 937.861 459.27 949.62 461.219C960.089 462.966 960.126 463.058 955.61 472.876C954.191 476.002 952.237 478.925 951.094 482.069C948.92 488.155 944.607 490.692 938.414 491.979C933.75 492.954 932.552 492.237 932.35 487.493C931.668 470.173 927.428 453.479 922.083 437.134C912.63 408.236 896.846 381.801 875.875 359.747C872.355 356.07 873.203 354.654 876.65 352.08C887.071 344.126 896.529 334.988 904.831 324.851C912.591 315.529 924.461 313.819 935.557 320.787C934.303 321.578 933.161 322.295 932.036 323.03C920.977 330.256 920.074 342.777 929.53 352.209C934.319 356.888 940.245 360.246 946.726 361.953C971.701 369.179 993.45 362.505 1012.71 346.086C1019.31 340.779 1024.74 334.169 1028.65 326.671C1010.68 325.899 1006.54 323.545 995.478 309.48C990.484 302.878 984.64 296.962 978.097 291.884C964.015 281.349 937.197 284.218 936.146 308.285C936.017 311.098 934.93 311.962 932.294 311.429C927.428 310.565 922.544 309.829 917.162 308.965C922.803 300.166 927.966 291.07 932.626 281.717C933.299 280.518 934.262 279.507 935.428 278.775C944.432 272.404 954.059 266.959 964.162 262.522C991.496 250.865 1019.07 252.079 1047.29 259.323C1061.57 263 1067.56 272.561 1071.82 285.449C1066.51 284.585 1062.37 281.68 1057.22 283.078C1045.11 286.369 1039.38 297.014 1042.31 311.355C1047.93 338.934 1079.18 356.07 1106.53 355.059C1099.15 344.652 1101.11 334.724 1107.41 324.869C1110.69 319.586 1113.03 313.776 1114.32 307.696C1117.07 295.69 1111.69 284.732 1101.42 281.184C1093.16 278.352 1085.57 280.283 1078.49 285.137L1070.79 267.284C1095.51 275.264 1119.56 285.045 1141.77 263.827C1143.61 267.597 1145.2 271.182 1147.1 274.547C1150.08 279.776 1154.52 284.034 1159.87 286.81C1175.11 294.937 1190.85 284.971 1193.51 265.574C1194.69 254.618 1194.44 243.554 1192.75 232.663C1190.56 215.491 1187.64 198.245 1204.12 184.952C1185.12 181.422 1167.52 182.212 1150.67 188.813C1130.56 196.7 1114.71 209.276 1108.92 231.266C1106.36 240.974 1108.48 249.174 1117.07 255.609C1122.48 259.629 1128.95 261.981 1135.69 262.375C1131.67 265.712 1126.81 267.875 1121.64 268.626C1110.2 270.851 1099.17 268.626 1088.35 265.317C1071.03 259.948 1054.37 252.447 1036.75 248.181C1033.06 247.299 1032.58 246.214 1035.07 243.382C1045.83 230.816 1055.26 217.168 1063.19 202.657C1066.35 197.05 1067.88 195.156 1073.77 200.819C1087.62 213.91 1108.48 206.739 1112.68 188.132C1113.66 182.682 1113.8 177.115 1113.11 171.622C1113.11 170.482 1112.78 169.342 1112.57 168.22C1110.27 154.872 1108.2 141.579 1123.8 132.221C1106.97 127.587 1091.86 126.043 1076.93 129.849C1056.65 135.015 1040.54 145.551 1035.66 167.65C1032.71 181.017 1042.77 192.563 1056.49 192.012C1057.91 192.012 1059.6 190.725 1061.15 193.097C1051.49 210.324 1041 227.203 1027.36 241.967C1026.53 243.058 1025.43 243.907 1024.16 244.428C1022.89 244.948 1021.5 245.12 1020.14 244.927C994.206 241.25 970.484 248.089 947.887 260.169C945.841 261.253 943.906 262.908 940.81 262.835C943.095 254.726 946.542 247.354 947.021 239.779C948.035 223.617 954.633 211.023 966.135 199.844C975.35 190.982 980.88 179.252 987.239 168.037C1000.64 181.918 1013.15 181.992 1022.89 168.625C1027.34 162.726 1030.45 155.932 1032.01 148.713C1037.7 120.251 1030.9 94.9707 1012.14 73.0178C1005.45 65.3509 998.279 57.9965 987.939 53.1242C989.487 67.4285 986.501 79.1955 976.143 88.3885C971.682 92.3415 967.277 96.3864 962.983 100.542C954.08 109.22 947.205 119.038 945.676 131.798C943.925 146.507 952.643 160.186 965.729 163.164C971.259 164.415 976.53 163.311 982.889 160.48C975.42 177.818 964.711 193.579 951.334 206.923C952.145 153.843 931.76 111.04 894.823 74.5439C899.998 74.1305 905.025 72.6198 909.568 70.1129C916.554 65.976 922.599 60.5154 922.304 51.8556C921.991 43.5084 916.775 37.9374 909.144 34.0947C898.933 29.0202 888.04 28.0641 877.073 27.2368C862.439 26.1336 847.823 25.2879 839.584 9.77009C836.525 15.5054 834.486 21.7261 833.557 28.1561C829.244 52.591 832.672 74.8564 852.873 91.9002C867.176 103.961 882.621 100.578 890.51 83.5714C892.095 80.17 892.869 79.5633 895.302 82.744C914.453 107.639 929.124 134.666 934.948 165.83C935.907 170.978 937.474 176.255 936.239 182.764C928.719 175.152 920.203 170.776 911.614 166.216C920.424 156.361 921.328 146.985 914.471 137.589C912.017 134.235 908.83 131.482 905.151 129.539C901.472 127.596 897.398 126.513 893.238 126.374C885.19 125.834 877.109 126.086 869.111 127.128C865.231 127.669 861.28 127.373 857.525 126.259C853.769 125.146 850.297 123.241 847.343 120.674C845.832 119.461 844.8 117.365 841.961 117.494C840.899 124.455 840.72 131.521 841.427 138.527C843.141 163.458 861.996 187.802 884.446 193.998C891.561 195.946 898.694 196.535 904.5 190.78C910.306 185.025 909.513 178.425 906.84 171.603C906.73 171.309 907.098 170.85 907.467 169.765C916.601 173.491 925.019 178.766 932.35 185.356C934.419 187.157 936.001 189.448 936.951 192.018C937.902 194.588 938.189 197.355 937.787 200.065C936.418 220.489 931.262 240.481 922.581 259.029C916.439 272.407 908.509 284.894 899.007 296.15C895.2 286.935 890.159 278.276 884.022 270.41C892.04 268.222 897.385 263.938 900.187 256.767C904.242 246.453 900.353 232.185 891.487 224.224C881.479 215.233 868.908 212.145 856.467 209.166C844.837 206.426 835.584 201.058 830.221 190.045C829.317 188.206 828.156 186.496 826.903 184.363C819.576 196.477 815.324 210.191 814.517 224.316C813.153 251.895 821.226 275.558 844.505 292.344C859.932 303.376 874.899 297.18 877.829 278.83C877.921 278.279 878.585 277.819 879.156 277.102C886.252 283.703 889.404 292.399 893.33 300.636C894.547 303.173 892.648 304.424 891.303 305.913C880.786 317.146 869.275 327.411 856.909 336.581C854.919 338.125 853.444 338.897 850.993 336.912C837.684 326.323 823.057 317.498 807.476 310.657C806.317 310.299 805.297 309.593 804.555 308.635C803.813 307.678 803.385 306.515 803.329 305.306C801.265 287.564 793.523 272.009 783.957 257.245C771.793 238.418 756.476 222.312 740.772 206.39C739.169 204.772 736.717 203.338 737.178 200.874C738.855 191.681 742.321 183.15 749.97 175.998C751.813 197.877 764.549 203.705 781.985 191.846C790.278 186.04 797.018 178.294 801.615 169.287C814.388 145.385 814.185 120.711 805.098 93.9043C797.726 110.194 784.824 114.754 769.802 115.967C764.742 116.518 759.781 117.755 755.057 119.645C742.155 124.462 733.842 133.489 732.552 147.463C731.575 158.071 736.422 165.959 746.726 170.298C743.813 174.361 741.196 178.112 738.45 181.734C735.335 185.816 735.777 194.457 730.985 194.145C727.557 193.942 724.387 186.11 721.53 181.422C697.329 141.653 706.508 101.626 737.233 70.5725C737.65 71.1131 738.014 71.6918 738.321 72.3008C746.044 91.4038 760.439 94.1249 774.336 79.1036C791.035 60.9934 793.523 25.4166 779.423 3.92335C774.594 14.3666 766.134 19.2205 755.094 20.7833C743.5 22.438 731.815 24.3134 721.456 30.2337C714.71 34.0947 710.084 39.9599 710.526 48.0865C710.968 56.2131 716.056 61.4898 723.244 64.6338C727.073 66.0944 730.988 67.3224 734.966 68.311C725.609 75.524 717.598 84.3243 711.3 94.3088C705.181 103.961 701.532 114.993 699.043 127.863C689.441 114.993 681.589 102.803 676.612 88.6092C677.829 88.4621 678.566 88.1311 679.119 88.3334C694.03 93.3527 708.517 79.2691 707.854 63.8616C707.411 53.9884 702.693 46.1743 696.666 39.298C687.45 28.7628 679.524 18.2276 685.717 1.95605C668.981 9.31044 655.895 18.3196 646.624 31.9804C636.081 47.5165 631.455 64.5235 637.408 82.9463C642.127 97.3057 655.379 100.56 666.77 90.7971C667.691 90.0249 668.281 88.3885 670.309 89.0504C677.035 105.336 685.972 120.622 696.868 134.482C698.48 136.72 699.291 139.433 699.172 142.186C699.535 152.516 701.602 162.716 705.292 172.376C708.204 180.447 712.001 188.151 716.35 197.307C704.001 192.802 693.072 189.236 683.561 181.605C697.163 174.251 700.499 162.466 693.201 149.853C687.966 140.77 679.322 136.688 669.756 134.335C657.406 131.32 645.481 127.992 641.629 112.842C625.778 140.163 629.022 174.582 648.817 194.972C651.705 197.972 655.233 200.285 659.139 201.738C668.097 205.048 675.967 201.223 678.179 191.865C679.156 187.728 680.538 187.268 683.561 189.603C690.977 195.107 699.397 199.116 708.351 201.407C717.678 204.11 725.456 208.228 730.69 216.906C733.363 221.356 737.694 224.794 741.104 228.821C747.113 235.899 754.596 241.691 760.531 250.461C752.994 248.807 745.191 248.769 737.639 250.351C734.377 251.012 733.731 250.056 734.303 246.802C735.943 237.462 733.437 229.409 725.198 224.095C716.959 218.782 707.983 218.855 699.191 223.581C691.818 227.57 685.994 233.417 680.335 239.484C674.677 245.552 669.608 252.097 660.872 254.193C656.319 255.26 651.656 254.193 646.44 255.113C654.001 272.189 667.111 286.225 683.653 294.955C647.324 301.978 616.341 315.621 589.044 337.243C586.869 338.953 585.579 338.327 583.717 336.893C571.554 327.825 560.201 317.725 549.785 306.704C548.55 305.38 546.522 304.074 547.038 302.162C549.761 292.224 554.931 283.123 562.079 275.686C563.295 298.632 581.874 301.942 595.255 292.657C598.746 290.432 601.984 287.837 604.913 284.916C622.479 265.979 628.653 243.401 625.188 218.138C623.35 205.949 619.136 194.238 612.784 183.665C607.346 199.219 596.969 206.426 582.519 209.626C571.368 212.071 560.217 215.141 550.872 222.496C531.906 237.388 533.989 260.297 555.886 271.2C549.637 278.555 545.232 287.012 540.772 296.536C517.456 265.813 502.563 233.031 502.545 194.659C502.39 193.294 502.66 191.914 503.319 190.706C511.379 181.049 521.963 173.807 533.897 169.783C525.99 187.673 538.505 197.767 552.162 195.082C554.2 194.656 556.193 194.04 558.116 193.244C581.487 184.051 593.836 166.124 598.241 142.204C599.771 133.82 600.361 125.252 597.449 115.894C588.767 126.742 578.096 128.764 565.875 126.815C559.022 125.822 552.064 125.767 545.195 126.65C530.763 128.323 520.092 139.998 520.995 152.721C521.382 158.237 524.681 162.208 528.994 166.584C518.838 170.261 511.392 176.384 502.637 182.911C506.655 142.829 523.151 109.845 547.61 79.4897C548.66 81.9718 549.269 83.6266 550.061 85.2077C556.107 97.1586 568.29 102.233 579.386 96.9564C584.86 94.4696 589.699 90.78 593.541 86.1638C612.636 62.4827 611.272 36.8894 600.693 9.12659C598.786 13.2603 595.918 16.881 592.328 19.6884C588.738 22.4958 584.529 24.409 580.049 25.2695C573.58 26.6668 566.816 26.6668 560.18 27.3471C548.716 28.5238 537.196 29.5166 527.132 35.9517C515.926 43.1406 514.875 56.8933 524.552 65.7554C530.081 70.8851 536.901 73.1098 545.232 74.9484C508.093 111.316 487.929 154.247 489.034 207.235C476.044 194.162 465.485 178.892 457.848 162.135C459.802 160.995 461 162.135 462.217 162.502C466.608 164.003 471.353 164.132 475.82 162.87C480.286 161.608 484.26 159.017 487.21 155.442C496.112 145.698 496.997 128.341 489.292 115.545C482.749 104.789 473.368 96.607 464.133 88.3885C455.305 80.4642 451.582 70.5909 451.618 58.971C451.618 57.2978 452.614 55.3857 450.531 53.4552C429.851 67.4285 414.921 85.41 408.839 110.102C404.028 129.61 404.876 148.511 415.529 165.922C425.759 182.653 442.827 182.47 451.913 168.496C452.079 168.257 452.651 168.312 453.48 168.129C460.745 183.462 470.546 197.465 482.473 209.552C487.604 214.403 490.705 221.011 491.154 228.048C492.106 237.875 494.317 247.539 497.734 256.804C498.398 258.643 499.817 260.481 498.25 263.018C496.241 262.007 494.195 261.051 492.205 259.985C469.552 248.034 445.831 241.194 419.898 244.872C418.778 245.109 417.616 245.047 416.528 244.692C415.441 244.337 414.466 243.701 413.705 242.849C399.512 227.681 388.675 210.251 378.316 191.681C380.159 191.681 381.376 191.681 382.5 191.681C397.043 192.711 406.756 182.488 404.618 168.165C403.745 162.48 401.576 157.071 398.278 152.353C381.837 128.01 344.605 122.66 317.492 132.68C330.118 141.083 330.523 152.905 327.924 165.775C326.413 173.387 325.602 181.164 327.648 188.997C331.334 202.896 344.476 210.306 358.041 205.985C364.013 204.147 368.013 199.66 372.547 195.174C382.634 213.531 394.427 230.902 407.77 247.059C392.361 250.608 378.666 255.903 364.824 260.775C353.987 264.581 343.186 268.571 331.648 269.325C322.266 269.913 313.216 268.884 304.498 262.449C330.634 258.771 339.518 239.411 326.137 218.194C326.007 217.991 325.897 217.789 325.786 217.587C313.769 198.373 295.559 188.647 273.975 184.492C261.308 182.142 248.3 182.298 235.693 184.952C250.438 196.829 250.125 211.391 248.208 226.725C246.291 242.059 243.692 257.723 248.669 273.112C254.014 289.329 270.105 294.624 283.891 284.53C290.883 279.331 295.858 271.881 297.973 263.441C320.515 285.174 344.642 275.172 369.303 267.339L361.451 285.284C360.18 284.493 359.24 283.85 358.244 283.28C350.669 278.996 342.928 278.389 335.352 282.967C331.574 285.025 328.532 288.206 326.649 292.068C324.766 295.929 324.136 300.28 324.846 304.516C325.907 311.347 328.38 317.883 332.108 323.711C338.209 334.135 342.264 344.358 332.809 355.537C341.103 356.419 347.757 354.305 354.263 352.393C375.238 346.178 391.679 334.779 397.301 312.164C400.987 297.455 394.647 285.891 382.095 282.949C377.376 281.827 373.469 284.99 367.884 284.788C372.105 275.153 375.257 265.151 385.154 261.842C415.64 251.656 445.978 250.075 476.833 262.559C499.135 271.605 513.696 286.828 521.677 309.131C517.603 309.774 513.309 310.252 509.125 311.153C505.438 311.962 504.038 311.3 503.595 307.035C502.195 293.631 494.029 286.461 480.851 286.056C473.427 285.862 466.178 288.32 460.41 292.988C452.227 299.184 446.236 307.384 439.859 315.18C437.126 318.584 433.682 321.355 429.767 323.298C425.852 325.241 421.559 326.31 417.188 326.432C415.493 326.542 413.502 325.586 411.659 327.682C418.344 338.642 427.606 347.811 438.643 354.397C458.18 365.888 478.713 368.664 500.038 359.453C511.539 354.489 517.64 345.608 516.903 335.992C516.295 327.792 510.12 324.152 503.78 320.217C508.624 318.17 513.788 316.976 519.041 316.687C525.179 316.044 529.879 317.533 533.786 322.828C542.387 334.197 552.615 344.245 564.143 352.65C567.461 355.095 567.166 356.769 564.512 359.545C541.067 384.109 525.566 413.158 515.41 445.334C510.95 459.454 509.328 473.998 507.503 488.559C507.3 490.14 507.982 493.248 505.328 492.623C501.015 491.593 495.522 492.181 492.739 488.173C487.21 480.342 483.369 471.452 481.459 462.065C489.569 462.433 497.937 459.583 500.554 455.409C503.864 450.244 505.381 444.137 504.872 438.028C504.362 431.919 501.854 426.146 497.734 421.598C492.458 415.862 486.765 410.522 480.703 405.62C475.443 401.437 471.971 395.418 470.99 388.779C470.548 385.966 470.142 383.152 469.626 379.586C449.775 394.607 438.292 413.25 438.514 437.814C438.643 450.225 441.555 462.028 451.969 470.449C458.567 475.781 465.792 475.45 471.764 469.622C472.954 468.184 474.044 466.667 475.026 465.08C477.183 474.09 482.399 479.789 483.284 486.39C473.939 486.39 464.76 486.647 455.636 486.39C440.43 485.857 425.298 487.401 410.129 487.677C407.051 487.677 404.231 487.805 402.277 484.735C398.996 479.532 395.974 474.292 395.845 467.507L400.913 468.537C416.082 471.754 426.552 464.492 427.915 449.085C429.243 434.376 423.621 421.726 414.11 410.676C404.102 399.056 391.347 392.143 375.699 387.657C380.731 400.619 376.639 410.621 369.801 420.237C362.428 430.699 354.669 441.16 351.922 454.067C348.899 468.353 359.295 478.502 373.653 475.505C377.981 474.773 382.053 472.957 385.486 470.228C387.2 468.794 388.914 468.114 389.449 470.964C390.536 476.755 393.135 481.995 395.476 488.155C366.354 489.607 338.228 488.614 310.691 481.426C309.253 481.058 307.392 481.058 306.894 478.98C304.885 470.431 303.042 461.9 305.051 452.504C312.423 459.638 314.691 460.962 319.446 461.422C328.662 462.286 336.311 457.193 339.942 446.437C348.512 420.972 342.817 398.027 326.302 377.471C318.35 367.345 307.94 359.409 296.056 354.415C298.139 372.544 297.236 375.394 285.661 389.698C281.196 394.936 277 400.398 273.091 406.061C266.105 416.725 264.28 428.308 270.086 440.057C275.118 450.225 284.002 453.442 294.95 451.622C296.443 451.383 297.936 451.273 297.697 453.35C296.757 461.219 298.434 469.033 299.079 477.105C272.869 470.798 235.601 443.606 222.736 421.947C221.646 420.461 221.13 418.634 221.28 416.799C222.602 405.875 226.792 395.492 233.426 386.701C234.255 389.091 234.735 390.801 235.417 392.456C236.127 394.468 237.293 396.29 238.823 397.781C240.353 399.272 242.206 400.391 244.24 401.052C246.273 401.714 248.432 401.899 250.549 401.594C252.666 401.29 254.684 400.503 256.447 399.295C259.801 397.262 262.729 394.603 265.073 391.463C281.809 368.719 276.998 330.513 254.309 311.227C253.184 325.237 243.913 332.131 232.818 337.666C227.821 339.996 223.224 343.098 219.197 346.859C212.303 353.643 209.152 361.567 210.884 371.165C212.488 380.1 218.57 384.697 227.767 386.186C222.588 394.35 220.155 403.046 216.506 412.166C198.24 379.494 193.503 345.406 196.36 309.388C216.635 321.651 233.02 313.267 235.066 290.211V289.513C237.352 261.272 222.68 242.463 200.599 227.129C199.162 242.941 197.982 245.239 185.854 255.756C183.44 257.87 180.785 259.727 178.482 261.879C171.109 268.479 163.128 274.399 158.668 283.611C155.221 290.726 154.17 298.044 159.442 304.369C164.713 310.693 172.344 312.072 180.214 310.491C183.9 309.756 187.439 308.45 191.642 307.218C185.412 339.523 186.002 370.705 198.13 402.421C184.214 397.328 172.325 391.886 161.783 382.068C170.261 381.314 176.104 378.096 178.131 370.54C179.252 366.67 179.29 362.569 178.241 358.68C177.191 354.79 175.095 351.262 172.178 348.477C165.487 341.416 156.53 338.805 147.719 336.562C136.918 333.805 129.103 328.307 124.827 316.614C122.8 320.622 121.141 323.6 119.74 326.671C109.031 349.598 114.837 380.56 132.532 395.048C145.434 405.62 154.65 403.598 161.58 388.135C167.515 393.522 174.224 398.413 181.486 400.233C197.134 404.168 205.133 414.942 211.732 428.106C214.386 433.457 218.57 438.09 222.588 443.826C199.431 444.103 176.342 446.385 153.581 450.647C159.589 434.725 158.152 426.58 148.715 419.391C140.844 413.471 132.126 413.011 123.113 415.328C114.1 417.645 105.843 422.774 97.8251 427.72C93.5982 430.54 88.7317 432.261 83.6682 432.726C78.6046 433.192 73.5048 432.387 68.8323 430.386C67.7817 429.963 66.768 429.338 65.6805 430.202C70.27 450.721 80.0571 467.985 98.1569 479.421C113.4 489.056 129.914 492.954 147.443 486.132C159.313 481.499 162.501 469.401 155.147 459.068C154.539 458.204 153.304 457.542 154.17 456.053C172.897 451.291 192.121 449.857 211.456 448.846C221.759 448.312 230.366 449.746 237.868 458.149C245.996 467.342 256.926 473.391 267.911 480.212C259.436 484.951 251.564 490.692 244.466 497.311C237.312 503.804 230.715 510.882 224.745 518.473C216.119 529.781 207.732 541.29 199.254 552.726C197.577 554.988 195.918 556.992 192.545 556.532C185.688 555.576 179.071 554.216 173.45 548.461C181.062 547.909 187.015 545.354 188.877 538.201C190.738 531.049 187.587 524.798 182.721 519.411C178.492 514.861 173.572 511.001 168.141 507.975C148.825 496.723 115.317 498.782 98.9494 512.424C110.008 516.506 116.533 524.228 119.445 535.627C120.896 542.112 123.385 548.32 126.818 554.013C132.734 563.206 140.826 568.446 152.106 567.729C161.654 567.123 166.741 561.257 169.321 552.138C175.92 557.084 183.329 559.143 191.052 561C162.483 593.893 121.012 597.128 85.2179 569.366C93.5121 565.688 98.8389 559.456 98.4334 550.299C98.0094 540.573 90.6184 535.241 82.8034 531.766C60.6856 521.911 40.3003 527.115 20.5786 540.5C24.9239 541.702 28.887 543.997 32.0885 547.164C35.2899 550.332 37.6224 554.267 38.8626 558.591C40.245 562.728 41.7195 566.828 43.1019 570.947C45.1962 577.764 48.4304 584.179 52.6679 589.921C56.9993 595.437 62.6762 599.114 69.9935 597.515C77.0159 596.025 80.6469 590.638 82.4532 584.13C83.2999 580.291 83.952 576.413 84.407 572.51C92.0151 579.917 100.867 585.935 110.561 590.289C119.906 594.536 130.099 595.474 141.139 596.706C133.767 603.858 127.684 610.293 119.021 614.595C118.8 612.996 118.634 611.929 118.505 610.918C116.662 596.467 102.875 590.326 91.116 598.949C87.6251 601.538 84.4895 604.573 81.7897 607.976C76.2602 614.834 70.4727 620.718 60.0589 618.272C62.1601 625.277 66.8786 629.175 70.8966 633.422C82.7297 645.998 102.23 650.963 116.423 645.318C127.481 640.887 130.301 631.308 122.597 622.428C119.906 619.32 121.141 618.75 123.537 617.059C129.937 612.961 135.78 608.054 140.918 602.46C144.8 597.646 150.377 594.49 156.511 593.635C163.884 592.55 170.427 589.131 176.989 585.692C184.509 581.758 191.015 576.297 198.388 571.701C198.019 584.074 194.296 597.312 189.927 602.148C180.841 587.439 163.054 593.286 156.493 604.373C151.866 612.205 151.074 620.92 150.76 629.598C150.723 633.278 149.861 636.904 148.238 640.209C146.614 643.514 144.271 646.416 141.379 648.701C140.181 649.694 138.448 650.209 138.504 652.194C163.828 662.656 195.309 652.617 208.765 630.131C214.81 620.001 213.63 606.689 197.595 606.064C197.319 606.064 197.079 605.457 196.71 605.016C200.231 595.621 203.659 586.097 204.47 575.93C205.097 568.189 207.216 561.515 213.28 555.944C217.612 551.972 220.653 546.659 224.339 541.86C228.892 535.664 233.334 529.395 238.587 522.077C239.232 527.317 239.527 531.123 240.209 534.855C240.891 538.588 242.052 542.393 243.01 546.42C242.033 546.567 241.167 546.788 240.319 546.843C223.915 547.946 215.455 561.184 221.538 576.444C224.542 583.964 230.348 589.204 236.651 593.948C241.628 597.625 246.807 601.1 251.544 605.071C257.829 610.366 259.046 618.144 260.023 626.05C275.597 616.029 287.191 599.372 289.697 582.273C292.001 566.516 290.14 551.347 278.067 539.452C269.662 531.16 258.382 532.557 251.434 542.154C250.844 542.945 250.309 543.515 249.277 543.386C240.983 520.33 244.706 509.06 264.981 499.26C266.234 498.672 267.377 497.881 268.667 497.421C279.302 492.659 289.624 489.368 301.659 494.424C314.801 499.94 329.049 501.871 343.333 503.158C355.185 504.224 366.981 503.415 380.841 502.735C373.363 509.815 367.132 518.1 362.41 527.243C359.442 523.566 357.654 520.441 354.539 518.326C343.702 510.972 328.864 514.428 321.565 526.085C314.856 536.822 314.193 548.792 315.649 560.724C317.179 574.256 314.377 585.711 303.65 594.702C303.447 594.849 303.65 595.511 303.65 596.007C313.529 599.271 324.019 600.27 334.339 598.93C358.945 595.86 378.224 584.552 389.062 561.368C394.13 550.502 392.951 540.665 386.315 533.789C381.744 529.1 375.791 529.137 369.322 528.972C372.713 521.997 377.262 515.644 382.777 510.181C388.306 504.665 394.223 501.632 402.351 502.11C413.41 502.753 424.469 501.797 435.528 502.643C446.587 503.489 457.48 503.526 469.036 507.203C459.581 515.789 451.803 524.688 448.282 536.51C447.158 540.279 445.094 537.448 443.564 536.749C438.544 534.376 432.813 533.973 427.51 535.622C422.206 537.271 417.719 540.85 414.94 545.648C406.701 558.794 410.535 571.664 415.474 584.534C417.188 589.039 419.437 593.341 421.004 597.864C424.358 607.351 421.243 616.25 416.709 625.682C441.979 621.049 461.995 610.348 474.732 588.616C482.012 576.224 485.901 562.875 482.104 548.406C479.266 537.374 469.902 532.833 459.102 536.859C457.959 537.282 456.945 538.845 455.139 537.521C458.604 525.754 466.677 517.536 476.151 510.365C477.01 509.777 478.003 509.412 479.039 509.303C480.075 509.193 481.122 509.344 482.086 509.74C488.986 511.541 495.696 514.004 502.121 517.094C503.892 517.827 505.411 519.059 506.491 520.64C507.572 522.22 508.167 524.081 508.203 525.993C511.392 562.967 524.46 596.356 545.564 626.767C546.651 628.329 548.789 629.58 547.794 632.282L542.984 632.521C517.382 633.864 493.753 640.832 472.741 656.037C454.162 669.459 438.974 686.392 423.271 702.829C411.051 715.7 410.903 715.792 396.01 706.341C389.062 701.929 381.8 697.608 376.639 689.794L380.823 689.426C392.472 688.213 398.425 680.638 396.785 669.201C395.909 663.264 393.488 657.66 389.762 652.948C373.708 632.08 352.033 622.097 326.081 621.012C312.786 620.302 299.513 622.78 287.375 628.238C302.452 635.408 308.369 647.23 310.212 662.105C311.668 673.927 314.009 685.675 321.565 695.585C332.624 710.055 358.539 716.95 368.842 693.361C378.686 704.063 390.598 712.669 403.862 718.66C407.936 720.498 405.116 722.337 403.733 723.716C385.56 742.341 366.317 759.697 344.236 773.671C342.845 774.896 341.041 775.552 339.186 775.509C328.348 773.818 317.603 771.832 306.636 766.059C312.811 763.558 317.879 761.187 320.902 755.855C328.275 742.782 323.519 724.929 309.567 714.523C300.775 707.977 290.711 703.951 280.5 700.458C271.395 697.35 265.441 691.007 260.834 683.12C259.443 680.301 258.266 677.381 257.313 674.386C256.768 674.549 256.247 674.784 255.765 675.085C255.297 675.588 254.889 676.143 254.548 676.74C244.19 694.666 238.513 713.787 240.946 734.6C243.25 754.329 250.715 771.777 266.584 784.537C281.329 796.414 296.701 789.096 298.028 774.774C298.286 772.016 298.932 770.527 302.286 772.273C310.989 776.744 320.305 779.91 329.933 781.669C328.957 782.675 327.903 783.603 326.782 784.445C281.256 810.81 237.886 810.185 192.508 784.923C191.468 784.436 190.557 783.714 189.846 782.814C189.136 781.914 188.646 780.86 188.416 779.738C186.81 772.932 186.847 765.842 188.527 759.054C189.798 760.506 190.499 761.37 191.255 762.179C200.931 772.145 211.529 770.159 217.188 757.289C218.561 754.361 219.558 751.273 220.155 748.096C224.616 721.914 206.479 690.97 181.265 681.906C180.97 681.796 180.527 682.182 180.159 682.329C181.025 698.637 181.062 698.656 170.593 712.317C165.414 719.064 160.05 725.646 158.299 734.38C155.147 749.934 166.096 764.349 179.643 761.297C182.039 760.764 182.389 761.536 182.352 763.577C182.352 768.265 182.352 772.954 182.352 778.506C167.109 768.817 154.428 757.675 142.061 746.073C126.91 731.861 115.059 713.898 95.3369 704.797C92.1851 703.344 94.3047 701.781 95.429 700.09C106.175 683.929 101.124 668.54 83.0062 661.314C67.6158 655.191 52.4651 656.203 37.296 661.994C22.5507 667.62 11.0495 677.273 0.432903 690.033C14.9754 690.382 23.7119 697.792 30.4579 708.419C35.1395 715.773 39.9317 723.128 45.2031 730.096C49.3376 736.207 54.8238 741.29 61.2385 744.952C74.4908 751.883 86.6925 746.386 90.5815 732.082C92.7011 724.249 90.729 716.766 88.7384 708.364C104.147 716.067 115.224 726.86 124.717 739.877C145.268 768.1 169.911 791.799 202.387 806.159C207.124 808.255 206.332 810.02 203.401 812.851C196.481 819.903 189.038 826.424 181.136 832.359C172.731 838.353 162.704 836.679 156.437 828.185C174.869 826.88 176.104 813.476 168.787 802.923C167.883 801.591 166.879 800.331 165.782 799.154C147.351 780.069 111.815 775.362 88.0933 789.354C100.682 794.079 104.424 804.063 105.751 815.977C106.335 820.533 107.668 824.962 109.695 829.086C117.805 846.755 137.914 849.035 149.139 833.885C150.263 832.377 150.76 831.403 152.825 832.634C157.47 835.503 162.262 838.15 167.22 841.037C160.397 844.937 153.108 847.964 145.526 850.046C128.495 854.826 111.852 852.767 95.3737 847.325C85.218 841.809 74.4355 837.121 65.8833 828.59C66.539 828.164 67.2295 827.795 67.9476 827.486C76.4998 824.563 82.5638 818.643 83.4854 809.873C84.407 801.103 78.3061 795.532 71.6339 791.009C62.9897 785.21 52.8536 782.018 42.4384 781.816C27.3061 781.264 13.335 785.254 -0.93103 792.755C10.8836 797.223 15.6573 805.368 17.2793 816.234C18.7723 825.96 20.9656 835.613 25.721 844.438C29.5547 851.425 35.1579 855.727 43.3231 855.635C51.4882 855.543 56.944 850.598 60.2985 843.537C61.8861 839.687 63.2402 835.746 64.3535 831.734C72.8873 839.566 80.3152 847.876 91.116 851.517C97.5302 856.224 104.903 858.191 112.589 859.625C114.155 859.919 117.455 859.901 115.409 862.53C108.184 871.723 100.553 880.806 89.918 887.884C89.1254 879.133 86.4713 872.403 78.1771 870.087C74.0979 868.775 69.7224 868.687 65.5938 869.835C61.4651 870.982 57.7652 873.314 54.9534 876.54C51.6692 879.789 48.7235 883.362 46.1615 887.204C40.798 895.993 33.7755 901.729 21.9794 901.288C29.1308 910.646 36.7246 917.927 46.6408 921.88C63.0632 928.389 79.4489 929.234 94.4153 918.019C102.912 911.584 102.691 901.012 94.5443 895.423C93.5306 894.724 91.8717 894.65 91.6874 892.609C101.924 884.874 111.036 875.759 118.763 865.527C119.826 863.919 121.317 862.638 123.068 861.826C124.819 861.014 126.762 860.704 128.68 860.93C135.132 861.186 141.585 860.448 147.811 858.742C174.316 852.087 196.95 838.647 216.469 819.709C218.699 817.521 220.653 813.697 224.026 814.322C235.65 816.404 247.386 817.804 259.175 818.514L252.152 824.195C231.638 840.743 216.579 861.151 209.004 886.708C205.779 897.647 198.461 903.696 187.107 905.241C188.766 890.881 183.753 882.019 172.934 880.456C166.516 879.463 159.948 880.391 154.06 883.122C131.297 893.694 118.505 923.02 124.182 951.463C136.808 943.483 138.227 943.318 153.028 947.933C160.271 950.176 167.533 952.401 175.274 952.106C189.817 951.536 199.051 938.85 195.328 924.822C194.093 920.207 191.126 916.805 188.121 913.018L204.839 905.057C203.825 921.604 202.885 937.434 201.89 953.228C201.742 955.508 201.337 957.769 201.06 960.049C199.881 969.849 198.701 979.704 194.222 988.658C190.831 995.461 186.849 1001.9 179.034 1006.14C179.699 1003.85 180.21 1001.52 180.564 999.156C182.039 980.292 174.906 967.588 155.11 966.889C147.98 966.422 140.825 967.276 134.006 969.408C100.111 981.064 83.8171 1007.26 74.6567 1041.11C91.7796 1032.4 105.99 1037.34 120.275 1046.13C132.569 1053.76 145.342 1060.73 159.663 1064.04C170.169 1066.49 180.214 1065.33 187.568 1056.87C194.922 1048.41 193.798 1038.85 189.725 1029.03C187.052 1022.6 182.223 1017.89 177.523 1012.49C196.655 1005.02 204.028 989.779 207.253 971.835C208.801 963.212 209.446 954.441 210.571 945.248C213.508 948.784 216.653 952.142 219.989 955.306C223.676 958.376 224.911 959.976 219.989 963.634C211.843 969.72 209.705 978.619 212.414 988.327C215.123 998.035 222.256 1002.85 231.951 1004.27C238.584 1005.12 245.299 1005.12 251.931 1004.27C263.912 1002.94 274.565 1004.51 281.182 1016.4C289.458 1000.99 290.398 968.084 279.486 951.647C272.611 941.314 264.575 933.022 251.95 930.411C239.324 927.8 228.892 935.927 228.099 948.65C228.007 950.066 229.021 951.886 226.588 953.026C218.662 946.223 210.847 938.611 211.621 927.414C214.036 892.389 225.685 861.078 252.392 836.863C257.811 831.936 263.082 826.383 270.713 823.68C271.118 830.41 269.883 836.716 271.598 842.692C273.22 848.373 272.759 850.616 265.773 850.193C255.691 849.568 247.876 854.698 243.526 863.67C239.177 872.642 240.375 881.376 246.549 889.539C250.773 895.01 255.941 899.686 261.81 903.347C273.496 910.701 282.859 919.14 279.855 936.147C299.134 924.362 313.382 910.665 320.533 890.734C324.586 879.633 324.941 867.524 321.547 856.205C317.861 843.335 307.097 835.117 296.075 836.293C288.886 837.065 284.242 841.809 279.247 847.325C276.537 838.389 275.837 830.207 278.454 821.75C278.86 819.993 279.81 818.408 281.17 817.22C282.53 816.032 284.23 815.301 286.03 815.131C312.849 809.46 338.391 798.908 361.378 784.004C367.405 780.179 373.506 776.429 380.491 772.071C379.441 785.272 379.477 797.058 383.311 809.045C365.617 804.412 355.166 809.045 349.563 823.184C344.808 835.19 346.798 846.681 352.623 857.639C355.601 863.341 359.054 868.784 362.944 873.911C371.847 885.512 374.501 898.015 368.474 913.11C386.905 905.425 401.392 895.184 411.511 879.905C425.095 859.404 432.173 837.323 422.939 812.87C417.409 798.161 405.189 795.293 392.932 805.203C392.107 805.747 391.231 806.208 390.315 806.581C387.16 796.12 386.423 785.082 388.159 774.296C388.529 771.252 389.516 768.315 391.059 765.664C392.602 763.012 394.669 760.701 397.135 758.87C415.848 744.367 433.507 728.558 449.978 711.563C456.55 704.519 463.916 698.257 471.93 692.901C474.197 700.476 474.787 721.804 472.981 729.93C471.912 729.526 470.861 729.158 469.829 728.754C454.07 722.576 440.762 728.754 435.454 744.676C430.993 758.024 436.818 769.368 442.827 780.602C445.923 786.467 449.812 791.928 452.927 797.793C458.143 807.611 456.411 817.558 452.208 827.542C475.284 824.14 497.421 809.836 508.756 791.045C518.156 775.454 522.082 758.796 516.626 740.962C512.221 726.474 498.545 720.737 486.177 727.669C484.887 728.386 483.929 730.151 480.408 728.643C480.408 716.251 480.519 703.197 480.408 690.161C480.408 686.264 482.934 685.069 485.514 683.635C511.926 668.926 539.961 661.737 570.299 665.065C573.248 665.396 576.953 665.065 578.943 666.646C581.782 668.963 577.45 671.628 577.487 674.478C577.308 676.069 577.031 677.647 576.658 679.203C570.152 730.868 560.77 782.165 553.01 833.646C552.545 836.575 551.187 839.29 549.121 841.423C539.131 852.877 530.192 865.086 524.22 879.206C520.841 886.729 516.833 893.956 512.24 900.81C503.485 914.507 492.794 927.065 486.786 942.38C486.307 943.744 485.558 944.997 484.582 946.065C483.607 947.133 482.426 947.993 481.109 948.595C465.718 956.629 453.959 968.121 447.822 984.686C440.768 1003.29 440.165 1023.71 446.107 1042.69C448.909 1051.89 448.817 1051.89 439.417 1051.89C419.621 1051.89 399.826 1051.89 380.03 1051.89C371.976 1051.89 363.94 1052.31 355.922 1053.14C328.275 1055.97 302.71 1065.35 277.754 1076.74C238.863 1094.51 199.733 1111.68 158.852 1124.42C148.475 1127.67 138.061 1130.84 127.684 1134.04L127.905 1135.45H639.196C636.966 1142.68 632.34 1147.55 628.395 1152.77C616.857 1167.99 603.181 1180.63 585.265 1188.29C569.82 1194.89 554.798 1196.88 539.076 1188.53C527.114 1182.17 515.115 1176.05 503.503 1168.9C495.135 1163.71 487.468 1156.93 477.699 1154.39C451.121 1147.46 426.422 1152.55 404.692 1168.9C396.103 1175.35 387.753 1175.97 378.224 1174.41C363.608 1171.86 349.968 1166.27 336.513 1160.42C306.286 1147.29 276.998 1144.7 246.531 1161.23C228.707 1170.88 208.322 1173.84 187.55 1172.76C175.145 1172.11 163.368 1168.73 151.332 1166.39C168.805 1176.34 187.808 1179.47 207.585 1178.46C227.362 1177.44 246.051 1170.86 265.276 1164.54C262.769 1177.9 246.051 1192.89 237.241 1198.57C230.495 1202.93 223.676 1207.21 217.28 1212.05C210.202 1217.4 207.456 1222.97 208.175 1229.39C216.395 1214.99 230.293 1209.16 243.748 1202.84C254.208 1197.91 263.021 1190.08 269.128 1180.28C272.464 1175.07 275.708 1169.8 278.804 1164.43C279.557 1163.03 280.665 1161.85 282.017 1161.02C283.37 1160.18 284.919 1159.72 286.509 1159.67C296.204 1158.6 305.254 1160.77 314.156 1164.24C334.855 1172.32 353.415 1185.87 376.51 1188.15C366.502 1194.54 356.235 1198.99 344.494 1196.68C328.86 1193.52 312.688 1194.24 297.402 1198.79C286.453 1202.03 276.887 1207.38 269.754 1216.59C279.097 1210.45 289.494 1206.09 300.425 1203.72C315.17 1200.7 329.27 1204.56 343.61 1206.04C362.41 1207.98 379.68 1204.69 395.31 1193.57C401.614 1189.08 406.885 1183.16 415.106 1179.19C413.262 1188.61 411.714 1197.06 410.055 1205.52C407.585 1218.13 399.199 1224.55 387.255 1227.49C375.92 1230.29 364.382 1230.29 352.789 1230.58C364.104 1234.49 376.23 1235.47 388.03 1233.43C403.696 1230.82 417.391 1225.27 419.363 1205.85C431.675 1219.6 423.05 1230.82 417.244 1242.62C420.56 1240.08 423.544 1237.13 426.128 1233.85C435.73 1221.99 435.767 1214.84 426.128 1203.19C421.944 1198.15 420.598 1193.02 423.013 1186.64C431.086 1165.44 459.231 1156.78 478.916 1170.42C461.608 1172.87 457.885 1185.41 457.627 1199.12C457.332 1214.51 453.388 1227.95 442.587 1239.31C446.077 1237.99 449.271 1236 451.988 1233.45C454.705 1230.9 456.89 1227.84 458.42 1224.44C462.106 1216.94 463.304 1208.7 465.387 1200.74C466.824 1195.22 469.073 1190.15 474.308 1187.39C481.68 1183.51 490.896 1178.57 497.495 1183.51C509.162 1192.14 519.612 1202.45 534.026 1208.59C517.513 1219.55 504.537 1235.05 496.665 1253.21C493.292 1260.86 486.97 1264.47 479.118 1266.08C458.493 1270.46 437.813 1266.78 417.17 1266.93C398.646 1267.08 381.155 1264.37 365.562 1253.67C362.753 1252.11 359.854 1250.71 356.88 1249.48C339.481 1240.29 321.731 1238.05 303.116 1245.9C297.56 1248.08 291.857 1249.87 286.048 1251.25C278.473 1253.2 271.413 1252.97 264.446 1248.01C254.548 1240.99 238.789 1243.08 229.924 1251.93C231.564 1251.32 232.799 1250.79 234.089 1250.42C244.632 1247.44 254.696 1246.06 263.58 1255.14C267.082 1258.73 272.206 1260.11 277.404 1260.79C288.776 1262.26 299.208 1258.64 309.751 1255.4C327.298 1250 342.78 1255.81 357.82 1264.17C353.53 1265.03 349.18 1265.55 344.808 1265.73C332.128 1266.23 319.668 1269.2 308.129 1274.47C297.42 1279.49 288.426 1286.58 286.011 1299.25C299.595 1281.66 318.672 1276.36 340.992 1274.03C334.486 1282.15 335.334 1290.32 336.163 1298.28C337.417 1310.14 339.002 1321.9 332.643 1334.57C337.571 1331.51 341.188 1326.73 342.799 1321.17C345.176 1314.57 345.397 1307.73 345.471 1300.8C345.692 1282.56 354.374 1274.61 373.247 1273.88C388.619 1273.27 404.028 1275.39 419.326 1277.56C423.51 1278.16 428.118 1277.24 432.413 1280.2C430.312 1281.29 428.524 1282.26 426.699 1283.11C416.439 1287.76 406.55 1293.18 397.116 1299.33C379.864 1310.95 371.46 1338.8 380.086 1358.16C380.086 1355.04 380.086 1352.76 380.086 1350.48C381.652 1318.91 392.748 1304.51 421.557 1296.64C424.837 1295.74 426.625 1295.3 426.035 1300.01C424.837 1309.42 426.146 1318.83 427.879 1328.08C430.625 1342.79 428.726 1356.4 419.253 1368.53C417.041 1371.33 414.645 1374.05 411.124 1378.11C418.394 1375.62 424.686 1370.89 429.095 1364.61C439.288 1350.68 441.149 1335.2 437.352 1318.65C434.219 1304.97 441.481 1294.93 449.149 1284.89C454.457 1277.92 461.129 1283.4 467.046 1282.36C467.709 1282.23 468.446 1282.47 469.11 1282.36C473.884 1281.66 475.1 1284.3 475.1 1288.4C475.1 1299.44 475.598 1310.47 475.1 1321.5C474.289 1337.4 469.884 1351.36 454.825 1360.62C444.596 1366.95 443.656 1378.61 442.734 1389.62C445.407 1383.57 447.232 1376.99 453.148 1373.07C457.369 1370.31 461.719 1367.7 466.179 1365.35C478.473 1358.86 485.127 1348.56 487.855 1335.16C489.532 1326.92 489.127 1318.72 488.223 1309.77C493.311 1313.32 497.753 1316.13 501.881 1319.35C510.581 1326.13 515.834 1334.65 513.622 1346.15C512.508 1352.31 510.157 1358.18 506.71 1363.4C503.153 1368.75 499.338 1373.99 497.015 1379.95C492.887 1390.76 493.329 1401.26 499.522 1411.2C499.015 1399.13 502.671 1387.25 509.88 1377.54C515.41 1369.89 521.382 1362.56 524.755 1353.64C525.861 1350.7 526.948 1351.01 529.178 1352.59C538.247 1359.08 540.606 1364.98 537.97 1375.68C536.659 1380.79 534.32 1385.57 531.095 1389.75C525.142 1397.76 524.349 1406.9 526.948 1416.32C527.943 1410.47 527.188 1403.45 531.98 1399.58C539.094 1393.79 541.675 1385.92 544.882 1377.96C547.407 1379.23 549.766 1380.55 552.255 1381.64C564.825 1387.16 567.921 1391.79 567.258 1405.54C566.908 1412.56 565.802 1419.55 565.009 1426.78C571.7 1415.87 573.93 1399.2 569.746 1388.35C567.811 1383.28 565.765 1377.82 559.351 1376.57C556.585 1376.14 554.03 1374.83 552.062 1372.85C550.094 1370.86 548.818 1368.3 548.421 1365.53C547.268 1359.9 544.989 1354.55 541.721 1349.81C538.453 1345.08 534.263 1341.04 529.399 1337.95C528.347 1337.33 527.44 1336.49 526.738 1335.49C526.036 1334.48 525.555 1333.35 525.326 1332.14C524.332 1326.48 522.08 1321.1 518.734 1316.41C515.389 1311.72 511.035 1307.84 505.991 1305.04C500.738 1302.05 496.186 1298.31 493.863 1292.38C490.472 1283.72 490.804 1282.98 499.762 1281.34C508.203 1279.82 516 1276.99 519.317 1268.16C531.409 1236.08 559.314 1223.41 589.21 1210.76C586.74 1219.81 588.694 1228.37 586.371 1235.64C581.174 1251.94 573.93 1267.39 555.038 1272.94C551.56 1273.88 548.386 1275.71 545.825 1278.24C543.264 1280.77 541.402 1283.92 540.422 1287.37C537.509 1297.47 537.491 1308.17 533.989 1318.21C538.388 1312.26 541.461 1305.44 543.002 1298.2C544.642 1289.18 550.135 1284.82 558.042 1282.13C566.228 1279.63 573.65 1275.11 579.625 1268.99C583.169 1264.69 586.473 1260.21 589.523 1255.55C590.813 1265.65 589.741 1275.9 586.39 1285.52C580.252 1302.97 576.289 1320.82 577.727 1339.46C578.298 1346.82 579.312 1354.17 582.63 1360.81C583.029 1358.29 583.165 1355.73 583.035 1353.18C582.021 1327.97 585.376 1303.79 599.108 1281.8C603.439 1274.85 603.439 1266.95 601.559 1259.1C598.555 1246.59 599.31 1234.11 601.043 1221.5C602.702 1209.53 607.77 1202.32 620.285 1198.42C645.02 1190.72 666.549 1177.22 682.953 1156.63C683.598 1155.8 684.317 1154.79 685.92 1155.79C684.283 1177.72 679.632 1199.32 672.096 1219.99C662.272 1246.41 648.135 1269.89 626.958 1289.05C608.766 1305.6 598.094 1325.47 599.679 1350.99C601.095 1372.13 597.796 1393.32 590.021 1413.04C587.883 1418.45 585.468 1423.74 583.183 1429.09C592.988 1418.43 598.407 1405.73 602.388 1392.16C606.72 1377.45 606.554 1362.28 607.31 1347.17C607.899 1335.44 612.986 1325.42 621.502 1315.08C622.423 1329.07 629.372 1337.88 638.92 1344.83C643.214 1347.94 643.896 1351.56 642.44 1356.12C640.037 1364.28 635.95 1371.84 630.441 1378.33C626.33 1382.75 623.313 1388.07 621.633 1393.86C619.952 1399.65 619.655 1405.76 620.765 1411.68C623.861 1391.11 645.573 1381.6 650.255 1361.54C648.541 1377.34 655.95 1391.88 653.831 1407.18C653.484 1408.99 653.69 1410.86 654.421 1412.55C657.959 1418.82 654.734 1421.45 649.37 1423.95C643.214 1426.83 637.371 1430.47 635.749 1439.35C641.279 1431.69 649.02 1429.3 656.024 1425.84C661.093 1423.3 663.231 1419.83 661.148 1414.15C660.282 1411.76 658.992 1409.11 660.503 1406.63C676.225 1413.67 690.104 1422.09 693.348 1440.75C694.325 1426.04 687.21 1415.71 676.76 1406.9C670.327 1401.48 662.586 1396.81 660.798 1387.73C659.768 1382.08 659.281 1376.35 659.342 1370.61C659.342 1356.52 654.586 1344.72 643.896 1335.23C636.534 1328.5 631.805 1319.38 630.552 1309.49C630.202 1307.27 629.446 1304.88 631.289 1302.95C642.2 1291.62 653.61 1280.88 666.143 1269.72C666.143 1273.4 666.143 1275.83 666.143 1278.26C665.756 1289.16 666.401 1299.86 672.133 1309.51C682.289 1326.65 692.592 1343.71 691.376 1364.89C695.265 1348.21 695.689 1331.63 686.436 1316.94C679.064 1305.15 676.723 1292.93 677.478 1279.56C678.916 1253.82 691.191 1231.26 697.219 1206.53C697.933 1207.12 698.494 1207.86 698.854 1208.71C699.214 1209.56 699.361 1210.49 699.283 1211.4C700.905 1226.68 702.637 1241.94 704.333 1257.2C707.374 1284.6 709.863 1312.03 710.305 1339.59C710.434 1349.28 709.365 1359.08 704.905 1367.76C697.827 1381.51 699.375 1395.59 701.697 1410.05C702.932 1395.47 703.725 1380.81 712.756 1366.75C715.023 1392.36 717.143 1416.39 719.263 1440.38H720.995C722.101 1428.57 723.207 1416.74 724.313 1404.9C725.419 1392.97 726.469 1381 727.723 1367.08C737.307 1381.79 737.141 1396.66 738.505 1411.2C741.067 1397.75 742.726 1384.36 736.883 1371.36C731.257 1358.44 728.891 1344.35 729.99 1330.31C731.796 1299.82 734.432 1269.42 737.897 1239.09C739.132 1228.26 740.699 1217.45 742.118 1206.62C746.67 1222.66 753.656 1237.48 757.932 1253.14C764.014 1275.44 766.834 1297.1 753.232 1318.65C743.684 1333.74 744.182 1351.14 749.767 1368.16C747.021 1347.09 755.978 1329.55 766.503 1312.56C771.694 1304.36 774.265 1294.77 773.875 1285.08C773.709 1280.26 773.875 1275.44 773.875 1268.82C785.524 1280.06 795.588 1290.08 806.038 1299.69C807.589 1301.03 808.737 1302.77 809.356 1304.71C809.974 1306.66 810.038 1308.74 809.54 1310.72C807.869 1320.77 802.787 1329.94 795.145 1336.69C787.275 1344.04 782.243 1352.77 781.635 1363.68C781.285 1369.19 780.898 1374.71 780.787 1380.22C780.845 1384.02 780.047 1387.79 778.452 1391.24C776.857 1394.7 774.506 1397.75 771.571 1400.17C766.228 1404.53 761.161 1409.22 756.402 1414.2C752.812 1417.94 750.048 1422.38 748.289 1427.25C746.53 1432.12 745.815 1437.3 746.191 1442.46C757.932 1412.36 759.093 1419.15 780.124 1406.28C780.804 1408.21 780.732 1410.33 779.921 1412.22C777.248 1421.7 777.728 1422.62 786.833 1426.92C792.768 1429.79 798.868 1432.44 804.527 1438.76C802.205 1430.23 796.97 1426.85 791.164 1424.06C786.372 1421.72 781.948 1419.53 785.874 1412.73C787.515 1409.84 786.593 1405.93 785.598 1402.6C785.215 1401.78 785.003 1400.88 784.974 1399.98C784.946 1399.07 785.102 1398.17 785.432 1397.32C789.118 1389.34 789.118 1380.78 788.86 1372.32C788.86 1368.92 787.828 1365.17 790.703 1361.71C792.288 1365.07 793.837 1367.87 794.961 1370.9C800.822 1386.25 818.406 1394.68 819.53 1412.91C820.968 1400.41 818.848 1389.01 810.536 1379.53C804.406 1372.63 799.986 1364.39 797.634 1355.48C796.417 1350.86 797.376 1347.48 801.32 1344.72C810.849 1337.9 817.318 1329.11 818.719 1317.14C818.719 1316.94 819.475 1316.83 820.396 1316.44C827.935 1327.77 833.907 1339.48 833.299 1353.82C832.514 1373.86 836.546 1393.8 845.058 1411.98C848.062 1419.18 852.574 1425.66 858.292 1430.99C845.242 1405.8 839.289 1380.32 840.966 1353.07C842.643 1325.49 830.534 1304.03 810.388 1286.16C805.097 1281.39 800.237 1276.16 795.864 1270.53C774.557 1243.6 763.296 1212.34 757.158 1179.03C755.739 1171.32 753.932 1163.58 754.706 1154.33C762.079 1162.09 768.53 1169.21 775.995 1175.26C791.809 1188.13 810.443 1195.3 829.17 1202.36C831.787 1203.33 834.073 1204.05 835.123 1207.27C840.542 1223.67 843.418 1240.36 838.957 1257.31C837.612 1261.83 837.237 1266.58 837.857 1271.25C838.476 1275.92 840.076 1280.4 842.551 1284.41C852.947 1301.62 856.836 1320.51 857.296 1340.31C857.296 1343.99 857.407 1347.66 857.425 1351.34C857.425 1354.72 857.425 1358.12 857.425 1363.09C858.129 1361.59 858.744 1360.06 859.269 1358.49C864.7 1336.04 863.366 1312.48 855.435 1290.78C851.564 1279.74 849.187 1268.71 851.527 1256.91C858.789 1270.48 870.18 1278.29 884.225 1283.02C891.155 1285.35 895.763 1289.75 897.035 1297.73C898.196 1304.95 901.532 1311.59 906.693 1319.44C904.665 1309.99 902.343 1302.6 901.551 1294.88C900.297 1282.87 893.478 1275.2 881.976 1271.65C874.364 1269.3 869.074 1264.3 864.3 1258.05C853.61 1244.33 852.983 1228.19 852.154 1211.85C857.684 1212.71 862.439 1215.78 867.36 1218.06C888.575 1227.82 908.518 1239.7 917.973 1262.33C923.042 1274.47 930.783 1280.96 943.482 1281.95C947.998 1282.3 948.846 1284.58 947.758 1288.29C945.915 1294.38 943.095 1299.69 937.271 1303C925.401 1309.84 916.609 1319.05 914.674 1333.28C914.613 1334.09 914.354 1334.86 913.92 1335.55C913.486 1336.23 912.89 1336.79 912.186 1337.18C900.445 1343.95 894.491 1354.72 891.118 1367.35C890.644 1369.74 889.434 1371.92 887.656 1373.59C885.878 1375.26 883.621 1376.33 881.202 1376.66C879.243 1376.97 877.397 1377.78 875.847 1379.01C874.296 1380.25 873.093 1381.86 872.355 1383.7C866.309 1398.57 867.839 1413.12 875.157 1427.14C874.907 1423.35 874.371 1419.57 873.553 1415.86C869.664 1395.12 873.995 1386.99 892.906 1379.19C894.307 1378.61 895.782 1377.74 896.15 1379.64C897.993 1388.83 903.689 1395.52 909.918 1402.08C911.577 1403.92 911.522 1407.23 912.186 1409.88C912.683 1411.83 912.37 1414.04 914.287 1416.19C915.356 1405.16 914.397 1395.96 907.246 1387.16C897.348 1374.97 899.32 1362.72 910.232 1353.34C913.808 1350.27 914.932 1351.28 915.982 1355.02C917.102 1358.28 918.759 1361.33 920.885 1364.04C930.617 1378.16 942.008 1391.62 941.16 1410.49C948.533 1396.7 946.782 1383.55 938.469 1371.12C934.296 1365.07 930.774 1358.6 927.963 1351.82C926.139 1347.7 925.489 1343.16 926.085 1338.7C926.68 1334.23 928.497 1330.02 931.336 1326.52C936.663 1319.42 944.385 1315.49 951.611 1310.41C951.749 1310.85 951.848 1311.3 951.905 1311.75C951.758 1313.81 951.518 1315.87 951.408 1317.91C950.21 1339.26 955.942 1357.06 976.843 1366.95C986.317 1371.45 993.985 1377.56 997.118 1388.2C996.842 1376.27 993.8 1365.52 983.147 1358.79C973.931 1352.96 969.047 1344.72 967.13 1334.28C965.059 1322.28 964.355 1310.08 965.029 1297.93C965.692 1283.57 965.729 1283.51 979.774 1282.02C982.833 1281.71 986.225 1280.19 988.99 1283.02C998.758 1293.66 1006.52 1305.08 1002.78 1320.67C1001.08 1327.85 1000.81 1335.29 1002 1342.57C1004.55 1358.33 1012.53 1370.33 1027.33 1377.23C1027.2 1376.17 1026.72 1375.18 1025.96 1374.41C1014.31 1361.89 1008.84 1347.66 1012.34 1330.29C1014.17 1321.51 1014.89 1312.53 1014.48 1303.57C1014.06 1295.21 1014.13 1295.19 1022.3 1297.96C1024.89 1298.87 1027.47 1299.8 1030.04 1300.85C1047.03 1307.47 1056.54 1319.73 1058.77 1337.9C1059.58 1344.52 1059.82 1351.12 1060.28 1359.48C1063.47 1350.59 1062.9 1343.05 1062.59 1335.58C1061.9 1319.7 1055.9 1307.08 1041.65 1298.42C1030.76 1291.79 1019.25 1286.36 1006.19 1279.58C1029.28 1276.89 1050.42 1272.81 1071.78 1274.5C1086.99 1275.72 1093.9 1284.21 1094.75 1299.55C1095.04 1304.58 1095.21 1309.64 1095.73 1314.66C1096.05 1318.45 1097.17 1322.13 1099.01 1325.45C1100.86 1328.78 1103.38 1331.69 1106.42 1333.98C1101.27 1322.73 1102.6 1311.13 1103.89 1299.53C1104.83 1291.03 1105.55 1282.58 1099.6 1274.27C1121.27 1276.6 1140.4 1281.77 1154.25 1299.1C1152.41 1291.9 1148.21 1285.52 1142.32 1280.98C1129.42 1271.1 1114.14 1268 1098.47 1266.27C1093.18 1265.66 1087.84 1265.48 1082.53 1265.11C1098.53 1255.57 1114.82 1249.79 1133.09 1256.52C1137.18 1258.04 1141.38 1259.24 1145.66 1260.11C1156.72 1262.37 1168.07 1262.9 1177.14 1254.89C1180.14 1252.04 1183.84 1250.02 1187.86 1249.04C1191.89 1248.05 1196.1 1248.13 1200.09 1249.26C1201.43 1249.57 1203.02 1250.31 1204.42 1248.89C1196.09 1242.94 1184.27 1242.18 1176 1248.07C1168.62 1253.31 1161.12 1253.58 1153.07 1251.3C1144.68 1248.91 1136.35 1246.3 1128.04 1243.63C1117.51 1239.93 1105.98 1240.32 1095.73 1244.72C1090.2 1247.09 1084.26 1248.67 1079.3 1251.85C1060.23 1264.06 1039.34 1267.87 1017.06 1267.54C998.242 1267.26 979.368 1270.46 960.624 1266.29C953.251 1264.65 946.929 1261.49 943.832 1254.41C935.903 1235.89 922.791 1220.04 906.066 1208.76C920.277 1202.89 931.447 1193.88 941.731 1183.68C942.178 1183.14 942.745 1182.72 943.385 1182.45C944.026 1182.17 944.722 1182.05 945.418 1182.1C960.384 1183.55 971.701 1186.03 975.516 1203.66C976.438 1207.93 977.193 1212.25 978.465 1216.4C981.783 1227.18 987.294 1236.22 999.422 1240.99C986.999 1226.52 984.29 1220.89 983.313 1208.17C982.981 1203.83 982.741 1199.45 982.244 1195.13C980.548 1180.64 975.645 1174.61 962.762 1170.94C962.153 1170.77 961.398 1170.53 962.024 1168.93C972.999 1164.5 985.049 1163.42 996.639 1165.84C1009.43 1168.34 1013.65 1178.71 1017.5 1189.18C1020.54 1197.38 1015.13 1202.6 1009.95 1207.56C1008.21 1209.08 1006.97 1211.09 1006.38 1213.32C1005.8 1215.55 1005.91 1217.91 1006.68 1220.08C1009.34 1229.06 1015.15 1236.77 1023.05 1241.81C1016.42 1230.41 1008.45 1219.25 1020.93 1205.72C1021.43 1215.6 1025.41 1223.01 1033.35 1227.34C1050.86 1236.87 1069.22 1235.84 1087.71 1230.73C1078.33 1230.75 1068.96 1230.18 1059.66 1229C1049.91 1227.45 1039.93 1225.18 1034.59 1216.37C1027.95 1205.34 1027.77 1192.36 1024.71 1178.92C1029.78 1181.82 1034.53 1185.26 1038.87 1189.18C1049.41 1197.67 1060.98 1203.72 1074.6 1205.89C1086.01 1207.73 1097.15 1206.4 1108.24 1204.58C1124.44 1201.92 1140.31 1201.66 1155.56 1208.74C1160.29 1210.93 1164.77 1213.55 1171.04 1216.85C1165.59 1210.05 1158.45 1204.79 1150.34 1201.59C1133.18 1194.59 1114.32 1192.86 1096.17 1196.6C1083.84 1199.01 1073.65 1194.49 1063.69 1188.24C1076.54 1186.19 1088.98 1182.13 1100.56 1176.21C1112.7 1170.18 1124.65 1163.75 1137.97 1160.49C1152.81 1156.82 1158.78 1159.32 1166.1 1172.26C1166.89 1173.66 1167.68 1175.05 1168.53 1176.42C1175.9 1188.42 1184.95 1198.31 1198.48 1203.76C1209.66 1207.96 1219.74 1214.63 1227.97 1223.26C1228.77 1224.13 1229.48 1225.25 1230.7 1224.27C1231.92 1223.3 1231.31 1222.12 1230.7 1221.13C1227.69 1216.21 1223.61 1212.03 1218.76 1208.89C1211.09 1203.37 1203.26 1198.18 1195.68 1192.61C1186.34 1185.72 1175.81 1173.4 1175.68 1164.83C1194.8 1171.25 1213.8 1177.7 1233.93 1178.62C1254.35 1179.49 1273.9 1175.83 1292.91 1164.94C1283.69 1167.19 1275.89 1169.52 1267.82 1171.01C1239.12 1176.31 1212.1 1170.55 1186.11 1158.14C1175.06 1152.92 1163.76 1148.95 1151.09 1148.95C1134.08 1148.95 1118.77 1155.14 1103.17 1160.77C1085.96 1167.02 1069.39 1175.48 1050.35 1175.35C1046.45 1175.5 1042.63 1174.24 1039.6 1171.78C1022.15 1157.5 1001.98 1151.3 979.497 1151.56C968.881 1151.69 958.529 1154.88 949.694 1160.75C934.23 1170.72 918.655 1180.44 901.772 1188.09C889.791 1193.61 878.235 1196.14 864.743 1191.88C834.884 1182.46 816.157 1161.43 799.753 1134.88H1311.84C1311.15 1133.77 1310.06 1132.97 1308.8 1132.66C1261.42 1119.37 1215.32 1101.9 1171.06 1080.44C1131.02 1061.32 1089.59 1049.46 1044.69 1051.74C1028.84 1052.55 1012.91 1051.89 997.044 1051.74C994.611 1051.74 990.851 1052.92 992.879 1047.71C998.5 1033.43 998.519 1018.42 997.1 1003.59C995.256 984.355 987.22 968.323 971.406 956.151C962.577 949.349 952.698 945.635 942.469 942.233C939.722 941.314 936.773 940.983 935.704 937.343C931.336 922.211 921.659 910.701 909.9 900.736C905.316 896.866 901.555 892.12 898.839 886.777C896.123 881.434 894.507 875.603 894.086 869.627C893.339 860.006 893.487 850.337 894.528 840.743C895.394 831.403 896.979 822.118 895.892 812.63C894.288 798.676 888.519 786.21 883.119 773.542C878.746 763.667 876.246 753.069 875.746 742.286C874.899 716.196 870.751 690.805 858.568 667.124C861.024 665.903 863.715 665.226 866.457 665.138C897.938 661.332 927.281 667.97 954.744 683.34C958.854 685.639 960.845 687.974 960.052 692.993C958.393 703.455 959.002 714.063 958.854 724.635C958.854 726.235 959.849 728.312 957.564 729.581C952.034 726.143 946.394 723.311 939.464 725.058C929.419 727.595 922.876 736.862 921.678 750.192C917.881 791.211 953.527 822.835 988.197 827.045C980.824 812.042 985.082 799.08 993.856 786.394C999.201 779.152 1003.01 770.901 1005.06 762.143C1007.31 750.964 1006.06 740.668 997.229 732.394C988.953 724.617 979.645 724.433 969.784 728.717C967.72 729.618 966.245 729.949 966.098 726.878C965.824 715.281 966.329 703.678 967.609 692.147C973.779 696.142 979.517 700.763 984.732 705.937C1002.56 724.179 1021.44 741.368 1041.28 757.417C1044.14 759.679 1048.23 761.738 1049.28 764.772C1053.87 778.279 1053.97 792.905 1049.56 806.471C1033.28 794.024 1020.69 798.381 1015.22 817.65C1014.72 819.411 1014.34 821.205 1014.09 823.019C1010.81 847.325 1018.57 868.358 1034.02 886.726C1043.69 898.236 1055.99 906.381 1071.73 912.779C1064.02 895.239 1070.4 881.964 1080.04 869.388C1084.13 864.105 1087.46 858.283 1089.94 852.087C1095.06 839.088 1094.84 826.346 1085.81 815.002C1078.44 805.681 1068.58 804.853 1057.13 808.898C1060.39 796.488 1060.34 784.702 1059.53 773.193C1060.12 772.887 1060.8 772.777 1061.46 772.879C1062.13 772.982 1062.74 773.291 1063.21 773.763C1091.62 793.38 1121.9 808.825 1156.24 815.241C1157.25 815.454 1158.19 815.932 1158.95 816.627C1159.72 817.322 1160.28 818.209 1160.59 819.194C1164.66 828.222 1163.89 837.194 1160.83 847.27L1157.82 843.905C1148.61 833.572 1136.48 833.057 1126.49 842.71C1119.45 849.476 1117.03 858.356 1116.31 867.605C1114.2 894.466 1134.32 922.101 1159.65 934.677C1157.8 920.906 1164.35 911.878 1175.35 905.02C1180 902.032 1184.36 898.636 1188.4 894.871C1193.93 889.852 1198.37 883.95 1199.05 876.172C1200.36 861.464 1188.9 849.899 1173.08 849.623C1170.95 849.623 1166.39 851.737 1167.55 846.571C1169.29 838.941 1168.79 831.219 1169.01 823.497C1169.86 823.497 1170.39 823.331 1170.72 823.497C1171.93 824.163 1173.1 824.893 1174.23 825.685C1209.73 850.45 1225.24 885.954 1228.84 927.69C1229.52 935.541 1220.05 948.889 1212.05 952.125C1212.4 942.582 1209.49 934.621 1200.09 931.091C1190.28 927.414 1181.51 930.889 1173.58 936.699C1165.99 942.393 1160.2 950.14 1156.9 959.02C1149.99 976.541 1150.93 1002.85 1159.11 1015.67C1165.43 1005.11 1175.02 1002.58 1186.48 1003.88C1193.57 1004.79 1200.74 1004.83 1207.85 1004.03C1220.16 1002.48 1228.84 993.273 1228.88 981.579C1228.88 971.669 1223.13 965.032 1215.37 959.112L1230 945.34C1232.1 972.147 1232.93 999.303 1262.66 1012.54C1257.41 1017.15 1253.17 1022.78 1250.18 1029.09C1242.94 1044.75 1249.5 1060.16 1265.26 1064.02C1271.61 1065.35 1278.2 1064.93 1284.34 1062.83C1295.95 1059.09 1307.03 1053.87 1317.29 1047.29C1332.04 1038.1 1346.78 1031.24 1365.05 1040.63C1361.36 1022.89 1354.67 1008.17 1344.13 995.534C1328.19 976.468 1308.44 964.535 1282.38 966.797C1272.25 967.679 1264.73 972.055 1261.2 982.498C1258.43 990.238 1258.51 998.708 1261.41 1006.4C1252.73 1000.64 1246.37 992.003 1243.46 982.02C1235.36 956.979 1238.99 930.724 1234.66 904.229L1252.08 912.944C1251.03 914.139 1250.24 914.948 1249.57 915.813C1243.69 923.369 1242.4 931.79 1246.39 940.376C1250.37 948.963 1257.94 952.29 1267.32 951.996C1274.69 951.626 1281.94 950.023 1288.78 947.253C1297.66 943.833 1305.72 943.704 1313.35 949.992C1316.81 952.842 1317.46 950.562 1317.64 947.473C1318.17 940.359 1317.76 933.206 1316.41 926.201C1312.11 905.553 1302.71 888.509 1281.39 881.394C1263.34 875.4 1251.77 884.777 1253.21 903.457C1253.11 904.434 1252.93 905.401 1252.65 906.344C1245.04 901.766 1234.87 900.828 1232.38 891.065C1225.32 862.916 1209.34 840.982 1186.93 823.166C1185.32 821.897 1182.78 821.125 1182.87 818.459C1192.09 817.374 1201.41 816.97 1210.33 815.002C1216.16 813.697 1219.37 815.352 1223.46 819.176C1249.11 843.17 1278.03 860.416 1314.58 860.839C1315.38 860.704 1316.19 860.768 1316.95 861.025C1317.71 861.282 1318.4 861.723 1318.95 862.309C1327.51 873.684 1337.51 883.905 1348.7 892.72C1336.06 902.887 1336.72 913.514 1350.04 921.126C1352.45 922.484 1355.01 923.535 1357.68 924.252C1377.86 929.529 1395.4 924.38 1410.43 910.297C1413.08 907.796 1416.49 905.608 1417.56 901.104C1413.1 901.343 1408.65 900.342 1404.73 898.213C1400.8 896.083 1397.54 892.909 1395.31 889.043C1391.65 882.907 1386.86 877.518 1381.19 873.157C1370.76 865.527 1356.24 868.634 1352.07 879.611C1351.23 882.506 1350.61 885.463 1350.23 888.454C1341.41 881.532 1333.42 873.623 1326.42 864.883C1323.58 861.372 1323.93 860.342 1328.46 859.368C1344.94 856.132 1358.86 847.987 1370.85 836.404C1372.55 834.767 1373.6 832.083 1376.73 831.954C1376.94 833.168 1377.08 834.289 1377.29 835.392C1379.24 846.663 1386.28 854.569 1395.18 855.488C1404.53 856.463 1412.62 850.708 1416.66 839.529C1418.65 833.671 1420.26 827.689 1421.47 821.621C1424.03 809.634 1426.13 797.462 1440.86 792.718C1434.67 789.017 1427.94 786.3 1420.91 784.665V784.665ZM736.035 258.698C749.638 251.877 767.572 257.025 774.908 269.729C780.437 279.345 782.962 289.807 784.123 301.629C767.922 296.316 751.702 294.275 735.188 292.068C746.67 276.992 746.726 271.274 736.035 258.698ZM634.183 889.833C631.492 897.096 627.4 901.729 619.327 904.211C594.758 911.768 570.539 920.409 546.172 928.554C544.532 929.106 542.891 930.393 540.643 929.271C547.18 919.795 555.416 911.605 564.935 905.112C576.861 897.114 584.602 885.972 590.426 873.323C600.711 850.708 606.241 826.53 612.231 802.629C614.424 793.785 616.488 784.812 621.649 775.252C630.046 791.295 635.997 808.497 639.307 826.291C643.423 847.543 641.651 869.511 634.183 889.833V889.833ZM825.871 643.461C824.759 644.409 823.403 645.029 821.957 645.25C820.512 645.471 819.032 645.284 817.687 644.711C807.623 641.549 797.412 638.718 787.312 635.831C768.346 630.444 761.766 621.729 759.867 602.093C758.835 591.392 762.872 583.063 769.083 574.201C771.018 580.397 772.106 585.895 776.456 589.811C777.801 591.043 779.294 592.495 781.322 591.649C783.349 590.804 783.441 588.8 783.386 586.943C783.386 584.644 783.128 582.346 782.852 580.085C781.008 564.788 779.349 549.711 785.469 534.635C788.068 528.236 790.372 520.496 784.934 513.638C783.921 512.351 784.934 511.009 785.284 509.758C787.376 502.962 788.838 495.989 789.653 488.927C792.436 466.294 783.404 448.79 762.89 438.697C758.54 436.545 757.139 434.376 757.527 429.393C759.167 408.911 748.753 396.096 728.478 392.971C722.981 392.127 717.387 392.127 711.89 392.971C692.242 395.931 682.271 407.679 682.86 428.216C683.026 434.045 681.589 436.95 676.096 439.579C656.522 448.937 647.619 468.574 651.342 492.236C651.582 493.818 651.951 495.381 652.19 496.98C653.278 504.757 657.83 512.093 653.462 520.551C651.969 523.456 653.167 528.457 654.531 531.95C660.853 547.964 660.061 564.254 657.628 580.765C657.093 584.442 655.029 589.811 659.286 591.319C664.595 593.157 665.793 586.924 668.318 583.652C670.272 581.114 669.461 577.345 672.004 575.065C683.635 590.013 682.344 605.604 674.824 621.6C673.374 624.615 671.265 627.268 668.653 629.365C666.041 631.461 662.992 632.948 659.729 633.717C646.477 637.394 633.077 640.74 619.788 644.344C616.599 645.208 614.516 643.627 612.323 641.917C520.018 569.586 523.667 429.448 619.696 361.641C653.787 337.676 695.373 326.722 736.881 330.771C778.389 334.821 817.059 353.605 845.85 383.704C886.068 425.826 901.901 476.277 892.482 533.642C885.036 578.853 861.96 615.294 825.834 643.535L825.871 643.461Z" stroke="url(#paint0_radial)" stroke-opacity="0.16" stroke-width="2" stroke-miterlimit="10"/>
<defs>
<radialGradient id="paint0_radial" cx="0" cy="0" r="1" gradientUnits="userSpaceOnUse" gradientTransform="translate(719.963 722.208) rotate(90) scale(720.252 720.894)">
<stop offset="0.401042" stop-color="white" stop-opacity="0"/>
<stop offset="0.401142" stop-color="#EBC644" stop-opacity="0.03"/>
<stop offset="0.557292" stop-color="#F0D575"/>
<stop offset="0.776042" stop-color="#F0D575" stop-opacity="0.4"/>
<stop offset="1" stop-color="white" stop-opacity="0"/>
</radialGradient>
</defs>
</svg>
