<svg width="1440" height="1444" viewBox="0 0 1440 1444" fill="none" xmlns="http://www.w3.org/2000/svg">
<path d="M95.1844 847.43C111.656 852.96 128.35 854.97 145.319 850.177C152.899 848.084 160.186 845.043 167.006 841.126C162.049 838.232 157.277 835.596 152.616 832.702C150.607 831.467 150.11 832.463 148.931 833.974C137.636 849.181 117.608 846.877 109.224 829.311C107.195 825.177 105.863 820.736 105.281 816.168C103.955 804.278 100.214 794.232 87.6301 789.495C111.343 775.467 146.867 780.278 165.292 799.32C166.39 800.467 167.394 801.699 168.295 803.006C175.665 813.642 174.376 826.969 155.951 828.333C162.307 836.868 172.238 838.546 180.64 832.518C188.536 826.569 195.975 820.037 202.898 812.979C205.827 810.121 206.583 808.352 201.884 806.269C169.419 791.873 144.766 768.112 124.241 739.909C114.752 726.84 103.678 715.946 88.2749 708.296C90.3386 716.739 92.31 724.241 90.1175 732.075C86.2297 746.472 74.0507 751.965 60.7846 744.979C54.3712 741.3 48.8872 736.198 44.7547 730.066C39.5588 723.043 34.7683 715.725 30.0146 708.352C23.271 697.66 14.5375 690.232 0 689.918C10.705 677.126 22.2392 667.43 36.8503 661.789C52.0142 655.983 67.1597 654.988 82.5447 661.126C100.657 668.352 105.705 683.799 94.9633 700.001C93.8393 701.697 91.7205 703.264 94.9633 704.72C114.678 713.845 126.526 731.836 141.671 746.103C154.034 757.734 166.711 768.905 181.948 778.619C181.948 773.089 181.948 768.333 181.948 763.651C181.948 761.605 181.635 760.831 179.24 761.366C165.716 764.426 154.753 749.974 157.904 734.361C159.746 725.661 164.629 718.711 170.285 712.37C178.042 703.633 182.87 694.269 179.222 682.435C180.124 682.066 180.567 681.697 180.861 681.808C206.067 690.803 224.197 721.845 219.738 748.075C219.147 751.262 218.15 754.359 216.772 757.292C211.079 770.195 200.521 772.204 190.848 762.195C190.092 761.403 189.392 760.518 188.121 759.08C186.442 765.886 186.404 772.994 188.01 779.817C188.24 780.943 188.73 781.999 189.44 782.901C190.15 783.804 191.061 784.528 192.101 785.015C237.463 810.324 280.818 810.969 326.328 784.518C327.459 783.685 328.513 782.754 329.479 781.734C319.855 779.974 310.543 776.807 301.841 772.333C298.488 770.49 297.843 772.075 297.585 774.822C296.258 789.181 281.002 796.536 266.151 784.61C250.287 771.817 242.825 754.343 240.522 734.564C238.09 713.679 243.765 694.527 254.12 676.554C254.455 675.953 254.864 675.396 255.336 674.895C255.816 674.585 256.337 674.343 256.884 674.177C257.833 677.18 259.009 680.107 260.403 682.932C265.009 690.859 270.96 697.2 280.062 700.333C290.27 703.836 300.33 707.854 309.119 714.416C323.067 724.868 327.857 742.748 320.45 755.854C317.429 761.2 312.362 763.578 306.189 766.103C317.244 771.817 327.894 773.882 338.728 775.559C340.585 775.617 342.393 774.957 343.777 773.716C365.887 759.707 385.086 742.379 403.253 723.651C404.635 722.232 407.454 720.37 403.382 718.582C390.152 712.541 378.253 703.932 368.374 693.255C358.093 716.868 332.15 709.845 321.132 695.448C313.578 685.494 311.238 673.716 309.782 661.863C307.94 646.969 302.025 635.117 286.953 627.909C299.141 622.348 312.492 619.819 325.867 620.536C351.81 621.623 373.478 631.596 389.526 652.536C393.253 657.265 395.674 662.89 396.546 668.849C398.186 680.37 392.235 687.946 380.59 689.126L376.408 689.495C381.567 697.402 388.826 701.716 395.772 706.084C410.66 715.578 410.807 715.393 423.023 702.564C438.721 686.103 453.904 669.126 472.476 655.651C493.481 640.425 517.102 633.439 542.695 632.094L547.504 631.835C548.499 629.218 546.361 627.946 545.274 626.398C524.177 595.909 511.114 562.434 507.926 525.365C507.892 523.447 507.298 521.581 506.218 519.996C505.138 518.411 503.618 517.176 501.846 516.443C495.423 513.345 488.716 510.876 481.818 509.07C480.855 508.673 479.808 508.522 478.772 508.632C477.736 508.741 476.744 509.107 475.885 509.697C466.359 516.831 458.455 525.199 454.807 536.849C456.649 538.25 457.699 536.683 458.842 536.259C469.639 532.204 478.999 536.72 481.855 547.817C485.54 562.342 481.689 575.725 474.485 588.149C461.753 609.918 441.743 620.646 416.482 625.31C421.015 615.78 424.129 606.877 420.775 597.421C419.172 592.868 416.925 588.554 415.248 584.057C410.31 571.153 406.478 558.25 414.714 545.052C417.495 540.245 421.982 536.66 427.283 535.011C432.584 533.361 438.312 533.768 443.328 536.149C444.857 536.831 446.921 539.688 448.045 535.909C451.564 524.056 459.339 515.135 468.791 506.508C457.239 502.821 446.165 502.821 435.313 501.937C424.46 501.052 413.203 502.066 402.148 501.42C394.022 500.941 388.089 504.038 382.58 509.494C377.076 514.98 372.535 521.355 369.148 528.351C375.615 528.517 381.567 528.462 386.136 533.162C392.769 540.001 393.948 549.863 388.881 560.812C378.084 583.983 358.812 595.301 334.14 598.398C323.831 599.729 313.355 598.734 303.481 595.485C303.481 594.987 303.204 594.324 303.481 594.158C314.204 585.163 317.005 573.66 315.476 560.093C314.112 548.13 314.683 536.13 321.39 525.365C328.76 513.679 343.5 510.176 354.353 517.605C357.427 520.016 359.957 523.05 361.778 526.508C364.652 521.918 366.937 517.771 369.701 513.992C372.465 510.213 375.781 506.711 379.853 501.9C366.679 502.563 354.887 503.374 343.003 502.305C328.723 501.015 314.481 499.079 301.344 493.531C289.33 488.462 278.994 491.78 268.381 496.536C267.11 497.107 265.967 497.881 264.696 498.49C244.428 508.314 240.743 519.614 248.979 542.729C250.011 542.858 250.545 542.287 251.135 541.476C258.081 531.854 269.357 530.416 277.759 538.766C289.828 550.711 291.781 565.918 289.367 581.697C286.511 600.481 275.511 614.305 259.776 626.047C258.745 617.66 257.528 609.863 251.245 604.573C246.51 600.591 241.333 597.199 236.376 593.402C230.057 588.665 224.253 583.411 221.249 575.872C215.169 560.554 223.626 547.301 240.025 546.195C240.891 546.195 241.738 545.918 242.954 545.715C240.215 537.753 238.784 529.399 238.716 520.978C233.189 528.702 228.73 534.987 224.179 541.255C220.641 546.066 217.527 551.411 213.124 555.393C207.062 560.923 204.943 567.651 204.317 575.43C203.506 585.605 200.079 595.153 196.56 604.573C196.928 605.034 197.168 605.623 197.444 605.642C213.511 606.269 214.653 619.633 208.61 629.771C195.159 652.388 163.708 662.435 138.391 651.891C138.391 649.882 140.05 649.365 141.247 648.388C144.136 646.095 146.478 643.186 148.1 639.873C149.723 636.559 150.585 632.926 150.626 629.236C150.939 620.499 151.731 611.78 156.356 603.946C162.934 592.886 180.714 586.914 189.779 601.716C194.146 596.849 197.868 583.614 198.236 571.172C190.866 575.78 184.362 581.255 176.845 585.218C170.285 588.646 163.671 592.075 156.374 593.163C150.245 594.028 144.673 597.191 140.787 602.01C135.645 607.619 129.806 612.544 123.412 616.665C121.016 618.287 119.727 618.932 122.472 622.047C130.174 630.951 127.355 640.481 116.3 644.997C102.223 650.656 82.6184 645.679 70.7895 633.07C66.7912 628.794 62.0559 624.905 59.9555 617.863C70.3657 620.333 76.1696 614.434 81.6787 607.54C84.3832 604.134 87.517 601.092 91.0019 598.49C102.757 589.845 116.558 596.001 118.382 610.49C118.511 611.559 118.676 612.628 118.898 614.176C127.502 609.845 133.638 603.411 141.008 596.241C129.953 595.006 119.8 594.029 110.44 589.808C100.822 585.381 91.9809 579.431 84.2583 572.186C83.8427 576.024 83.2277 579.839 82.4157 583.614C80.5732 590.139 76.9803 595.54 69.9788 597.052C62.6087 598.6 56.9706 594.987 52.6407 589.421C48.3966 583.721 45.1449 577.346 43.0227 570.563C41.6409 566.416 40.1668 562.305 38.8034 558.176C37.5603 553.839 35.2253 549.894 32.0218 546.718C28.8183 543.542 24.8536 541.242 20.5072 540.038C40.2221 526.6 60.5819 521.384 82.7105 531.264C90.5228 534.748 97.9113 540.093 98.3351 549.844C98.7404 559.061 93.4156 565.218 85.1243 568.96C120.924 596.812 162.363 593.568 190.922 560.591C183.201 558.748 175.794 556.665 169.198 551.688C166.619 560.904 161.533 566.711 151.989 567.319C140.713 568.057 132.624 562.729 126.71 553.568C123.275 547.862 120.786 541.637 119.34 535.135C116.429 523.725 109.961 515.983 98.851 511.89C115.194 498.139 148.709 496.13 168.019 507.411C173.44 510.456 178.357 514.324 182.593 518.877C187.458 524.278 190.627 530.434 188.747 537.715C186.868 544.997 180.953 547.448 173.344 548.02C178.871 553.771 185.56 555.135 192.414 556.093C195.786 556.573 197.444 554.563 199.121 552.278C207.596 540.831 215.703 529.126 224.64 517.973C236.579 502.969 250.085 489.568 267.773 479.595C256.718 472.701 245.847 466.563 237.721 457.476C230.222 449.07 221.618 447.614 211.318 448.167C192.009 449.181 172.791 450.6 154.053 455.393C153.242 456.886 154.421 457.549 155.029 458.397C162.399 468.757 159.193 480.886 147.328 485.531C129.805 492.388 113.296 488.462 98.0587 478.803C79.9652 467.337 70.1814 450.047 65.5936 429.476C66.6807 428.609 67.6941 429.218 68.7443 429.641C73.414 431.653 78.513 432.462 83.5757 431.995C88.6384 431.528 93.5036 429.8 97.7271 426.969C105.742 422.029 113.757 416.923 122.988 414.545C132.219 412.167 140.731 412.701 148.599 418.637C158.033 425.789 159.47 433.955 153.463 449.973C176.222 445.693 199.31 443.398 222.465 443.116C218.43 437.365 214.248 432.738 211.595 427.356C205.017 414.102 197.002 403.393 181.359 399.429C174.099 397.586 167.393 392.683 161.46 387.3C154.513 402.784 145.319 404.83 132.422 394.231C114.733 379.687 108.93 348.646 119.635 325.66C121.072 322.6 122.693 319.595 124.72 315.577C128.995 327.3 136.807 332.83 147.604 335.595C156.411 337.826 165.347 340.443 172.054 347.521C174.97 350.314 177.066 353.851 178.115 357.751C179.164 361.65 179.126 365.762 178.005 369.641C175.997 377.273 170.046 380.314 162.62 381.236C168.535 388.609 185.781 398.305 197.628 400.646C185.873 369.826 185.283 338.563 191.511 306.157C187.31 307.392 183.754 308.72 180.088 309.457C172.165 311.024 164.592 309.623 159.322 303.3C154.053 296.978 155.103 289.641 158.53 282.508C163.007 273.291 171.041 267.337 178.356 260.719C180.74 258.549 183.237 256.507 185.836 254.6C195.362 247.669 200.926 238.71 199.913 225.475C222.539 241.236 237.206 260.111 234.921 288.425V289.107C232.857 312.24 216.496 320.646 196.228 308.351C193.372 344.443 198.07 378.618 216.33 411.337C220.015 402.213 222.576 393.568 227.514 385.328C218.43 383.835 212.368 379.245 210.747 370.286C209.015 360.72 212.166 352.701 219.057 345.918C223.071 342.109 227.668 338.967 232.673 336.609C243.728 331.079 252.941 324.13 254.138 310.102C276.82 329.42 281.647 367.724 264.917 390.526C262.589 393.687 259.658 396.356 256.294 398.379C248.113 403.393 238.956 400.388 235.271 391.522C234.589 389.881 234.11 388.148 233.281 385.752C226.65 394.566 222.461 404.975 221.139 415.927C220.994 417.769 221.503 419.603 222.576 421.107C235.474 442.821 272.692 470.084 298.911 476.407C298.267 468.314 296.59 460.48 297.53 452.572C297.769 450.508 296.277 450.6 294.784 450.858C283.858 452.701 274.959 449.457 269.929 439.245C264.125 427.485 265.949 415.872 272.913 405.162C276.612 399.339 280.85 393.878 285.572 388.849C295.134 378.987 299.132 367.78 295.447 353.475C304.273 356.425 310.722 361.678 317.097 367.024C339.668 386.01 349.636 420.204 339.668 445.549C335.522 456.148 328.299 461.31 319.087 460.572C313.025 460.093 309.322 456.038 304.771 451.356C302.633 461.052 304.476 469.623 306.484 478.176C306.982 480.278 308.843 480.259 310.261 480.628C337.899 487.854 366.016 488.831 395.128 487.393C392.88 481.199 390.19 475.964 389.103 470.158C388.587 467.301 386.855 467.964 385.141 469.42C381.709 472.156 377.639 473.977 373.312 474.711C358.996 477.697 348.567 467.522 351.589 453.218C354.334 440.314 362.054 429.807 369.443 419.282C376.223 409.66 380.498 399.669 375.173 386.563C391 391.134 403.751 398.047 413.755 409.697C423.263 420.757 428.882 433.402 427.556 448.204C426.192 463.651 415.708 470.95 400.563 467.724C399.034 467.393 397.504 467.098 395.496 466.692C395.625 473.494 398.647 478.748 401.926 483.964C403.88 487.043 406.699 486.969 409.776 486.913C424.939 486.619 440.067 485.07 455.249 485.623C464.461 485.955 473.563 485.623 482.887 485.623C482.113 478.95 476.511 473.402 474.909 463.872C473.846 465.605 472.664 467.262 471.371 468.83C465.401 474.674 458.178 474.987 451.582 469.66C441.19 461.218 438.261 449.383 438.132 436.941C437.874 412.314 449.39 393.604 469.234 378.563C469.749 382.084 470.155 384.922 470.597 387.78C471.578 394.436 475.048 400.471 480.307 404.664C486.367 409.573 492.057 414.921 497.332 420.664C501.478 425.218 504.01 431.011 504.536 437.148C505.062 443.285 503.553 449.425 500.243 454.618C497.627 458.821 489.188 461.678 481.155 461.31C483.056 470.718 486.896 479.626 492.431 487.466C495.213 491.485 500.704 490.895 505.015 491.927C507.668 492.572 506.987 489.457 507.189 487.854C509.032 473.273 510.635 458.692 515.094 444.535C525.246 412.277 540.742 383.134 564.178 358.526C566.813 355.743 567.145 354.065 563.81 351.614C552.291 343.182 542.067 333.109 533.464 321.715C529.502 316.388 524.804 314.95 518.724 315.54C513.447 315.92 508.256 317.081 503.32 318.987C509.806 323.024 515.978 326.692 516.586 334.913C517.323 344.535 511.225 353.439 499.727 358.434C478.409 367.651 457.902 364.867 438.353 353.365C427.323 346.759 418.065 337.566 411.379 326.581C413.221 324.48 415.229 325.438 416.906 325.328C421.281 325.22 425.581 324.161 429.507 322.226C433.433 320.291 436.891 317.525 439.643 314.12C446.018 306.305 452.006 298.084 460.187 291.872C465.95 287.187 473.197 284.716 480.62 284.904C493.794 285.328 501.957 292.498 503.357 305.936C503.799 310.213 505.199 310.895 508.885 310.084C513.067 309.162 517.36 308.683 521.432 308.038C513.509 285.696 498.898 270.434 476.604 261.365C445.852 248.848 415.432 250.305 384.975 260.664C375.192 263.964 371.746 273.862 367.969 283.65C373.275 283.761 377.182 280.59 381.898 281.696C394.446 284.646 400.766 296.222 397.099 311.005C391.572 333.678 374.989 345.107 354.076 351.319C347.572 353.254 340.921 355.356 332.629 354.471C342.082 343.282 338.028 333.033 331.929 322.581C328.21 316.735 325.739 310.184 324.67 303.337C323.96 299.091 324.59 294.729 326.472 290.857C328.354 286.985 331.395 283.796 335.172 281.733C342.745 277.125 350.483 277.752 358.056 282.047C359.033 282.6 359.899 283.245 361.262 284.056L369.111 266.065C344.458 273.899 320.34 283.945 297.806 262.139C295.66 270.57 290.676 278.004 283.692 283.19C269.91 293.309 253.825 288.001 248.5 271.742C243.433 256.332 245.994 240.719 247.892 225.272C249.79 209.825 250.177 195.281 235.345 183.392C247.959 180.726 260.974 180.563 273.65 182.913C295.245 187.116 313.449 196.867 325.462 216.093L325.794 216.682C339.207 237.954 330.308 257.346 304.181 261.07C312.951 267.521 321.943 268.554 331.321 267.945C343.169 267.189 354.168 263.079 365.224 259.153C378.821 254.305 392.327 249.199 407.454 245.604C394.131 229.408 382.355 211.999 372.28 193.604C367.748 198.102 363.768 202.563 357.78 204.461C344.219 208.775 331.063 201.364 327.415 187.411C325.352 179.576 326.162 171.779 327.673 164.148C330.271 151.245 329.866 139.374 317.244 130.968C344.329 120.922 381.567 126.268 398.002 150.673C401.299 155.409 403.467 160.839 404.34 166.544C406.441 180.959 396.731 191.152 382.23 190.12C381.124 190.028 379.982 190.12 378.047 190.12C388.55 208.941 399.439 226.655 413.921 241.899C414.655 242.629 415.565 243.155 416.563 243.426C417.561 243.698 418.613 243.705 419.615 243.448C445.539 239.761 469.252 246.618 491.897 258.618C493.518 259.484 495.139 260.351 496.798 261.143C497.247 261.267 497.716 261.305 498.18 261.254C499.506 259.116 498.18 257.272 497.443 255.429C493.987 246.165 491.739 236.494 490.754 226.655C490.305 219.599 487.205 212.975 482.076 208.111C470.149 195.99 460.351 181.944 453.093 166.563C452.282 166.747 451.693 166.71 451.527 166.95C442.443 180.959 425.382 181.125 415.156 164.351C404.506 146.894 403.677 127.963 408.467 108.406C414.529 83.6131 429.546 65.6775 450.071 51.5577C452.227 53.5116 451.232 55.4287 451.232 57.0877C451.232 68.719 454.917 78.6361 463.743 86.5808C472.955 94.8758 482.389 103.023 488.893 113.88C496.595 126.784 495.711 144.111 486.811 153.881C479.902 161.475 471.647 163.724 461.827 160.885C460.611 160.535 459.413 159.392 457.957 160.24C461.2 171.558 475.885 193.42 488.635 205.328C487.548 152.627 507.687 109.585 544.814 73.143C536.485 71.4287 529.723 69.143 524.141 63.9264C514.467 55.0232 515.499 41.2535 526.72 34.0461C536.78 27.5945 548.296 26.6729 559.738 25.4194C566.371 24.7374 573.133 24.7005 579.619 23.3364C588.5 21.4931 595.446 16.3318 600.365 7.39171C610.831 35.0415 612.194 60.6268 593.106 84.3873C589.259 89.0045 584.423 92.6963 578.955 95.1891C567.9 100.479 555.684 95.3919 549.659 83.4287C548.849 81.8435 548.241 80.1661 547.19 77.696C522.796 108.185 506.323 141.254 502.251 181.807C510.893 174.618 518.65 169.069 528.526 164.922C524.288 160.664 521.027 156.701 520.64 151.152C519.737 138.397 530.387 126.673 544.832 124.996C551.714 124.351 558.641 124.351 565.523 124.996C582.788 126.231 583.617 125.991 597.27 114.821C599.979 123.521 599.389 132.111 597.86 140.516C593.456 164.48 581.111 182.489 557.748 191.705C555.823 192.453 553.838 193.039 551.815 193.457C538.144 196.148 525.633 186.083 533.537 168.074C521.599 172.147 511.024 179.453 502.988 189.18C502.374 190.412 502.106 191.789 502.215 193.162C500.243 222.655 519.534 273.531 540.778 294.544C544.584 285.721 549.54 277.44 555.519 269.918C533.63 258.95 531.566 236.019 550.507 221.088C559.83 213.715 570.996 210.581 582.143 208.185C596.57 204.996 606.962 197.77 612.397 182.175C618.758 192.77 622.971 204.514 624.797 216.738C628.187 242.065 622.015 264.664 604.53 283.687C601.586 286.601 598.344 289.196 594.856 291.429C581.498 300.756 562.907 297.42 561.691 274.415C554.546 281.871 549.378 290.996 546.656 300.959C546.14 302.895 548.167 304.185 549.401 305.531C559.819 316.569 571.168 326.689 583.322 335.78C585.165 337.217 586.473 337.862 588.629 336.148C615.935 314.471 646.926 300.867 683.168 293.752C666.655 284.946 653.585 270.837 646.06 253.696C651.329 252.83 655.917 253.825 660.468 252.756C669.202 250.71 674.306 244.093 679.925 238.01C685.545 231.927 691.367 226.083 698.774 222.083C707.563 217.328 716.352 217.162 724.772 222.581C733.192 228 735.514 236.001 733.874 245.346C733.303 248.609 733.874 249.604 737.209 248.922C744.722 247.444 752.451 247.444 759.964 248.922C754.16 240.351 746.698 234.526 740.673 227.429C737.264 223.374 732.953 219.945 730.263 215.484C725.03 206.765 717.255 202.581 707.932 199.945C699.001 197.615 690.601 193.591 683.187 188.093C680.183 185.752 678.783 186.249 677.806 190.36C675.595 199.742 667.728 203.576 658.773 200.24C654.653 198.702 650.949 196.221 647.958 192.996C628.372 172.019 625.737 137.991 641.269 111.115C645.12 126.304 657.041 129.659 669.368 132.682C678.949 135.023 687.59 139.134 692.823 148.221C700.193 160.885 696.784 172.756 683.187 180.056C692.694 187.705 703.602 191.281 715.946 195.798C711.598 186.581 707.784 178.913 704.891 170.802C701.201 161.125 699.134 150.905 698.774 140.553C698.893 137.796 698.089 135.078 696.49 132.83C685.784 118.655 676.425 103.705 670.123 87.226C667.986 86.5071 667.396 88.1476 666.438 88.9403C655.051 98.7283 641.785 95.4656 637.068 81.0508C631.025 62.6176 635.631 45.5485 646.189 29.9724C655.401 16.295 668.483 7.11522 685.213 0C679.078 16.1659 686.964 26.7282 696.268 37.2904C702.441 44.3687 707.323 52.4241 707.452 62.6176C707.766 77.3642 693.726 91.4472 678.728 86.4518C678.175 86.2675 677.456 86.5808 676.222 86.7467C681.197 100.977 689.12 113.162 698.756 126.231C703.067 100.774 715.596 81.6776 734.611 66.3043C730.641 65.3561 726.733 64.1618 722.911 62.7282C715.781 59.5393 710.64 54.2305 710.198 46.1383C709.756 38.0462 714.38 32.1107 721.124 28.2397C731.479 22.2858 743.142 20.4056 754.75 18.765C765.805 17.1798 774.244 12.3318 779.053 1.86174C793.166 23.3549 790.679 59.0047 773.986 77.2167C760.13 92.2951 745.703 89.567 737.983 70.4149C737.676 69.8043 737.312 69.2242 736.896 68.6822C706.329 99.7237 697.116 139.89 721.253 179.761C724.109 184.461 727.278 192.314 730.705 192.535C735.514 192.848 735.053 184.185 738.075 180.093C740.857 176.406 743.437 172.719 746.348 168.627C736.048 164.277 731.202 156.369 732.179 145.733C733.469 131.724 741.779 122.655 754.658 117.844C759.377 115.94 764.338 114.699 769.398 114.157C784.451 112.94 797.312 108.369 804.664 92.0371C813.766 118.95 813.968 143.65 801.2 167.613C796.557 176.657 789.761 184.418 781.411 190.212C763.981 202.12 751.231 196.277 749.425 174.323C741.76 181.512 738.37 189.973 736.527 199.282C736.067 201.733 738.517 203.171 740.212 204.811C755.911 220.701 771.222 236.922 783.383 255.798C792.945 270.544 800.684 286.194 802.747 303.982C802.8 305.195 803.227 306.362 803.97 307.322C804.712 308.283 805.733 308.99 806.893 309.346C822.47 316.211 837.092 325.065 850.395 335.687C852.845 337.66 854.301 336.904 856.309 335.356C868.675 326.14 880.188 315.831 890.709 304.554C892.054 303.061 893.952 301.807 892.736 299.263C888.811 291.005 885.661 282.286 878.567 275.669C878.014 276.388 877.332 276.83 877.24 277.383C874.292 295.816 859.349 302.047 843.928 290.932C820.657 274.176 812.402 250.378 814.024 222.729C814.539 208.625 818.89 194.929 826.608 183.116C827.695 184.959 828.856 186.673 829.74 188.517C835.12 199.576 844.37 204.941 855.978 207.706C868.47 210.673 881.036 213.77 890.985 222.802C899.848 230.784 903.736 245.07 899.701 255.429C896.882 262.618 891.538 266.913 883.652 269.051C886.6 273.383 889.475 277.217 891.907 281.328C894.339 285.438 896.218 289.752 898.724 294.71C908.128 283.528 915.981 271.128 922.069 257.844C930.747 239.249 935.901 219.205 937.27 198.729C937.668 196.012 937.379 193.239 936.43 190.663C935.48 188.086 933.9 185.79 931.834 183.982C924.559 177.429 916.214 172.173 907.163 168.443C906.776 169.438 906.407 169.917 906.518 170.194C909.19 177.051 909.908 183.742 904.178 189.438C898.448 195.134 891.28 194.618 884.15 192.664C861.708 186.452 842.84 162.046 841.127 137.051C840.42 130.021 840.6 122.93 841.661 115.945C844.48 115.816 845.531 117.917 847.023 119.152C849.982 121.722 853.456 123.628 857.213 124.741C860.97 125.853 864.921 126.148 868.802 125.604C876.798 124.578 884.875 124.325 892.92 124.848C897.078 124.992 901.148 126.08 904.823 128.032C908.497 129.983 911.679 132.746 914.128 136.111C921 145.512 920.097 154.913 911.29 164.811C919.876 169.291 928.389 173.696 935.888 181.309C937.159 174.802 935.574 169.512 934.616 164.351C928.794 133.014 914.128 105.991 895.002 81.0508C892.57 77.8619 891.796 78.4333 890.193 81.8803C882.307 98.9311 866.867 102.323 852.569 90.2122C832.301 73.143 828.966 50.8204 833.241 26.3226C834.254 19.8657 836.275 13.6082 839.229 7.77881C847.521 23.4286 862.132 24.3687 876.743 25.3825C887.798 26.212 898.614 27.2259 908.821 32.2766C916.523 36.1107 921.719 41.6959 921.977 50.083C922.271 58.7651 916.228 64.2213 909.245 68.3872C904.665 70.8398 899.664 72.4093 894.505 73.014C931.539 109.493 951.623 152.387 950.941 205.475C964.317 192.097 975.018 176.287 982.466 158.894C976.11 161.751 970.822 162.857 965.313 161.604C952.249 158.618 943.516 144.867 945.266 130.157C946.795 117.254 953.668 107.484 962.567 98.8205C966.842 94.6546 971.338 90.6914 975.704 86.5993C985.433 77.5301 987.736 71.0969 987.975 51.484C997.851 56.1107 1005.02 63.5024 1011.6 71.2259C1030.37 93.2168 1037.17 118.581 1031.48 147.097C1029.92 154.339 1026.8 161.152 1022.34 167.06C1012.61 180.48 1000.1 180.387 986.704 166.489C980.366 177.715 974.746 189.475 965.626 198.36C954.11 209.567 947.514 222.212 946.5 238.415C946.021 245.991 942.576 253.383 940.291 261.512C943.387 261.604 945.321 259.927 947.348 258.839C969.956 246.747 993.669 239.853 1019.59 243.558C1020.95 243.76 1022.34 243.593 1023.61 243.074C1024.88 242.555 1025.99 241.704 1026.82 240.609C1040.38 225.862 1051.04 208.941 1060.53 191.54C1059.04 189.235 1057.36 190.47 1055.93 190.526C1042.22 191.06 1032.16 179.466 1035.11 166.102C1039.99 143.982 1056.11 133.346 1076.36 128.203C1091.29 124.406 1106.39 125.807 1123.07 130.673C1107.63 139.89 1109.69 153.272 1112.01 166.655C1112.22 167.779 1112.46 168.922 1112.55 170.065C1113.24 175.553 1113.11 181.115 1112.14 186.563C1107.94 205.199 1087.1 212.369 1073.27 199.282C1067.37 193.752 1065.9 195.595 1062.67 201.125C1054.74 215.669 1045.32 229.347 1034.55 241.936C1032.09 244.756 1032.55 245.862 1036.23 246.765C1053.88 251.116 1070.52 258.563 1087.82 263.927C1098.66 267.282 1109.67 269.457 1121.12 267.245C1125.78 266.305 1130.33 265.217 1134.92 260.977C1128.25 260.554 1121.85 258.204 1116.49 254.213C1107.9 247.761 1105.79 239.466 1108.35 229.807C1114.13 207.687 1129.98 195.134 1150.08 187.245C1166.94 180.609 1184.52 179.871 1203.51 183.374C1187.04 196.701 1189.95 213.973 1192.14 231.208C1193.77 241.667 1194.06 252.288 1193.03 262.821C1192.62 268.114 1190.94 273.229 1188.13 277.733C1177.61 293.125 1157.38 291.208 1146.86 273.807C1144.72 270.286 1143.17 266.434 1141.16 262.452C1119.05 283.724 1094.93 273.918 1070.04 265.844C1072.9 272.24 1076.05 277.604 1077.41 284.185C1085.04 278.95 1092.63 277.014 1100.88 279.853C1111.2 283.392 1116.58 294.397 1113.78 306.415C1112.49 312.508 1110.16 318.332 1106.89 323.632C1100.59 333.512 1098.51 343.466 1105.99 353.899C1078.76 354.95 1047.42 337.678 1041.8 310.102C1038.87 295.724 1044.6 285.051 1056.7 281.752C1061.84 280.351 1065.91 283.245 1071.29 284.13C1067.02 271.226 1061.05 261.604 1046.77 257.936C1018.58 250.673 990.997 249.438 963.691 261.143C953.584 265.581 943.953 271.035 934.948 277.42C933.788 278.154 932.831 279.168 932.166 280.369C927.558 289.808 922.326 298.928 916.504 307.669C922.032 308.572 926.951 309.291 931.816 310.157C934.432 310.637 935.501 309.844 935.666 307.024C936.717 282.895 963.507 280.001 977.584 290.563C984.125 295.653 989.967 301.585 994.959 308.203C1006.01 322.323 1010.14 324.683 1028.12 325.457C1024.21 332.982 1018.79 339.616 1012.19 344.941C992.932 361.402 971.19 368.093 946.224 360.867C939.754 359.132 933.836 355.769 929.033 351.098C919.379 341.438 920.576 328.978 932.11 321.457L935.04 319.614C923.985 312.701 912.101 314.323 904.344 323.669C896.055 333.846 886.614 343.026 876.209 351.024C872.763 353.604 871.897 354.969 875.416 358.729C896.383 380.83 912.163 407.328 921.608 436.296C926.951 452.683 931.189 469.476 931.889 486.784C932.074 491.54 933.253 492.314 937.933 491.301C944.105 490.01 948.417 487.466 950.609 481.347C951.752 478.139 953.705 475.208 955.123 472.13C959.638 462.195 959.601 462.195 949.135 460.443C937.38 458.489 931.355 444.867 936.09 431.208C939.499 421.402 946.519 414.471 954.515 408.517C964.17 401.31 970.251 392.48 969.256 379.448C974.249 380.462 976.865 384.093 979.758 386.987C995.198 402.471 1002.9 420.996 1000.82 443.079C1000.12 449.269 998.157 455.248 995.051 460.646C987.036 475.393 976.773 477.07 964.502 464.923L955.824 485.66C957.666 487.89 959.859 487.282 961.701 487.079C982.153 484.83 1002.57 485.844 1023.04 486.987C1036.86 487.761 1042.68 481.789 1043.79 466.453C1038.68 467.872 1033.8 469.125 1028.51 467.927C1018.32 465.586 1013.44 460.701 1012.15 450.305C1009.53 429.181 1021.91 406.876 1042.96 395.263C1049.46 391.418 1056.47 388.484 1063.78 386.545C1057.35 402.25 1065.8 413.254 1073.65 424.664C1078.87 432.222 1084.1 439.89 1086.55 448.923C1088.91 457.347 1088.98 465.512 1081.8 471.817C1076.1 476.794 1064.62 476.222 1056.44 471.079C1054.91 470.121 1053.44 469.015 1051.47 467.669C1048.89 474.029 1047.97 480.572 1043.62 486.821C1052.43 488.351 1060.59 487.946 1068.7 487.872C1088.03 487.858 1107.31 485.725 1126.18 481.513C1128.2 481.26 1130.07 480.318 1131.47 478.847C1132.87 477.376 1133.73 475.466 1133.88 473.439C1135.39 466.353 1135.72 459.066 1134.86 451.872C1132.54 451.78 1132.28 453.476 1131.43 454.397C1122.64 463.872 1109.86 462.692 1102.95 451.614C1093.74 436.867 1093.88 420.886 1098.36 404.959C1105.09 380.996 1120.75 364.314 1143.47 352.978C1143.21 357.512 1142.77 361.494 1142.78 365.457C1142.78 378.231 1151.87 386.047 1159.15 394.84C1167.33 404.775 1174.2 415.208 1172.54 429.07C1170.7 443.964 1161.17 452.204 1146.25 450.803C1142.45 450.434 1141.31 451.116 1141.77 454.895C1142.62 461.771 1140.96 468.572 1140.48 475.43C1142.84 476.812 1144.66 475.43 1146.43 474.711C1173.63 463.835 1196.99 447.724 1214.86 424.038C1216.32 422.286 1217.34 420.219 1217.86 418.002C1218.37 415.784 1218.36 413.477 1217.83 411.264C1215.68 402.053 1211.88 393.309 1206.61 385.457C1206.06 385.863 1205.54 386.047 1205.47 386.342C1203.77 393.475 1200.71 399.706 1192.57 400.572C1184.42 401.439 1179.06 396.296 1174.83 390.471C1157.86 367.227 1162.46 330.139 1185.14 310.01C1186.45 325.125 1197.4 331.392 1208.73 337.494C1217.37 342.157 1225.09 347.945 1228.18 357.936C1232.35 371.392 1226.62 381.402 1212.32 385.181C1214.27 389.328 1216.41 393.328 1218.09 397.494C1219.76 401.66 1221.04 406.121 1222.91 411.724C1241.19 378.766 1246.08 344.517 1243.61 308.13C1240.56 309.853 1237.4 311.35 1234.14 312.609C1218 317.383 1206.18 307.964 1204.29 288.885C1202.17 267.761 1210.64 250.784 1225.35 236.443C1229.23 232.646 1233.8 229.549 1239.57 224.904C1237.58 242.802 1249.02 250.913 1259.84 259.54C1266.44 264.557 1272.39 270.377 1277.55 276.867C1284.27 285.715 1285.73 295.614 1280.99 302.452C1276.73 308.554 1265.81 311.282 1256.39 308.517C1253.98 307.816 1251.6 306.987 1247.62 305.715C1255.07 337.463 1252.99 370.704 1241.63 401.273C1255.42 396.443 1266.91 390.729 1277.69 381.236C1267.74 379.964 1261.59 375.263 1260.8 365.752C1259.97 355.595 1264.67 348.074 1273.07 342.674C1278.39 339.451 1284.22 337.152 1290.31 335.872C1301.37 333.199 1310.32 328.074 1314.14 316.24C1331.38 337.604 1327.85 376.535 1307.71 393.66C1294.81 404.72 1285.43 402.692 1278.14 387.227C1267.15 395.603 1254.75 401.929 1241.52 405.899C1240.75 406.117 1240.04 406.515 1239.45 407.059C1238.85 407.603 1238.4 408.28 1238.12 409.033C1232.86 420.849 1225.51 431.374 1216.69 442.655C1240.08 443.153 1263.39 445.619 1286.37 450.029C1283.74 444.038 1281.21 438.969 1282.1 433.052C1284.27 418.434 1299.67 409.992 1316.26 414.323C1323.48 416.167 1329.87 419.853 1336.25 423.54C1353.55 433.457 1354.56 433.715 1373.1 429.365C1369.32 460.701 1338.55 493.42 1300.8 488.112C1284.22 485.771 1273.9 472.48 1286.06 455.448C1266.9 450.545 1247.59 448.812 1228.15 448.167C1227.47 448.167 1226.77 448.167 1226.08 448.167C1216.67 447.098 1209.08 449.402 1202.3 456.996C1194.06 466.213 1182.99 472.388 1171.77 479.485C1185.78 487.837 1198.34 498.421 1208.95 510.821C1218.9 522.029 1227.28 534.434 1235.96 546.582C1243.83 557.642 1247.68 558.508 1260.02 552.573C1262.05 551.596 1264.26 550.729 1265.42 548.222C1261.74 547.079 1257.63 547.116 1254.81 544.13C1250.15 539.135 1248.4 533.586 1251.69 527.116C1259.86 511.098 1274.12 503.817 1290.83 500.96C1308.43 497.955 1325.12 501.291 1341.81 511.706C1324.81 516.296 1321.54 530.139 1317.31 543.669C1311.91 560.536 1300.25 568.96 1286.08 567.172C1279.31 566.324 1274.32 562.987 1272.17 556.517C1270.89 552.702 1269.92 551.614 1266.21 554.176C1261.09 557.734 1254.94 559.043 1248.88 560.517C1275.46 593.107 1318.17 597.384 1354.25 569.089C1338.05 559.651 1336.52 545.881 1350.32 535.245C1355.48 531.347 1361.44 528.658 1367.77 527.374C1384.36 523.78 1402.98 528.536 1417.52 540.278C1404.42 545.089 1400.63 556.351 1397.36 568.057C1395.48 574.223 1392.87 580.144 1389.59 585.697C1384.82 594.268 1376.69 598.932 1369.54 597.402C1362.39 595.872 1356.64 587.411 1356.02 577.789C1356.02 576.462 1356.02 575.098 1356.02 572.259C1346.92 579.043 1339.03 585.642 1329.56 589.752C1320.09 593.863 1310.23 595.467 1298.7 596.057C1304.65 603.287 1311.81 609.436 1319.85 614.232C1321.84 612.388 1320.57 610.25 1320.96 608.37C1321.49 605.714 1322.66 603.225 1324.35 601.109C1326.04 598.994 1328.21 597.314 1330.69 596.208C1333.16 595.103 1335.86 594.605 1338.56 594.755C1341.27 594.905 1343.9 595.698 1346.23 597.07C1351.3 600.251 1355.68 604.405 1359.13 609.292C1364.13 615.817 1370.04 619.799 1380.03 617.845C1374.54 628.789 1365.62 637.633 1354.64 643.024C1350.02 645.424 1344.98 646.879 1339.79 647.303C1334.61 647.727 1329.4 647.112 1324.46 645.494C1312.15 641.476 1309.18 631.817 1317.33 621.863C1319.26 619.485 1318.91 618.619 1316.74 617.218C1308.38 611.508 1300.66 604.9 1293.74 597.513C1292.62 596.37 1291.66 595.006 1289.91 594.766C1271.69 592.296 1256.85 582.821 1242.65 572.001C1241.91 571.696 1241.13 571.468 1240.34 571.319C1241.65 582.275 1244.59 592.973 1249.06 603.061C1253.78 594.213 1260.82 591.393 1269.22 593.587C1279.07 596.167 1284.23 603.743 1286.81 613.126C1287.72 616.692 1288.25 620.343 1288.4 624.02C1288.95 634.932 1290.24 645.384 1302.4 650.84C1278.32 661.9 1242.67 653.955 1229.88 628.167C1224.08 616.481 1227.47 609.531 1240.51 606.047C1242.87 605.421 1242.98 604.683 1242.17 602.84C1237.14 591.559 1235.52 579.485 1234.01 567.356C1233.99 565.752 1233.5 564.188 1232.61 562.858C1220.67 550.729 1212.1 535.983 1200.62 521.476C1200.36 530.692 1199.48 538.324 1196.12 545.605C1196.77 545.942 1197.47 546.184 1198.19 546.324C1207.03 546.047 1214.24 549.144 1217.85 557.384C1221.53 566.029 1220.22 574.49 1214.68 582.176C1209.73 588.565 1203.57 593.925 1196.57 597.955C1186.29 604.388 1179.54 612.536 1180.56 626.213C1171.99 621.402 1166.4 614.84 1161.06 608.057C1146.32 589.457 1144.81 561.752 1157.38 543.54C1161.8 537.144 1167.51 532.997 1175.8 533.679C1182.27 534.213 1186.14 538.121 1189.1 543.467C1198.32 530.176 1195.5 512.499 1182.84 503.577C1174 497.327 1163.96 492.983 1153.36 490.821C1151.15 490.227 1148.81 490.291 1146.63 491.006C1120.09 501.097 1091.57 504.932 1063.3 502.213C1062.43 502.213 1061.45 502.213 1059.02 502.213C1066.3 509.208 1072.39 517.338 1077.06 526.287C1083.38 517.494 1090.88 511.43 1101.9 514.213C1114.08 517.31 1120.62 525.826 1122.88 538.066C1124.3 545.782 1124.56 553.664 1123.68 561.457C1122.2 574.84 1125.69 585.955 1136.57 594.434C1110.98 606.564 1070.81 594.139 1055.25 569.605C1052.12 565.054 1049.83 559.978 1048.5 554.619C1045.3 539.651 1051.69 527.448 1068.99 528.443C1066.67 515.448 1050.88 501.605 1037.98 501.568C1017.99 501.568 997.962 500.775 978.173 504.738C975.944 505.199 973.696 505.531 970.343 506.121C979.961 515.024 987.275 524.554 991.384 536.075C992.269 538.563 993.595 537.715 995.069 536.794C1009.81 527.466 1026.65 538.969 1029.27 556.204C1030.13 562.14 1029.58 568.198 1027.66 573.881C1026.4 578.293 1024.82 582.606 1022.93 586.785C1016.68 599.319 1014.95 611.743 1023.57 625.181C1006.99 622.711 992.969 617.365 981.195 607.264C964.612 592.904 954.313 575.172 956.745 552.296C958.329 537.439 967.045 532.241 981.379 536.794C982.172 537.033 982.964 537.347 984.843 538.029C981.158 524.241 972.075 516.185 961.959 508.996C960.375 507.872 958.274 508.831 956.597 509.255C949.281 511.244 942.149 513.859 935.28 517.07C934.313 517.409 933.475 518.04 932.881 518.875C932.287 519.71 931.966 520.709 931.963 521.734C928.591 561.881 914.514 598.047 890.58 631.19C898.779 632.13 906.407 632.868 913.999 633.9C945.893 638.269 970.656 655.559 992.545 677.826C1002.86 688.333 1013.05 698.969 1022.85 709.937C1026.17 713.624 1028.64 713.734 1032.79 711.78C1044.27 706.481 1054.63 699.021 1063.3 689.808C1058.84 688.37 1054.8 689.236 1051.32 687.338C1042.86 682.73 1039.81 672.868 1043.95 662.766C1049.59 649.236 1059.61 639.559 1071.99 632.37C1097.31 617.623 1123.58 616.923 1151.7 627.209C1148.77 629.458 1146.52 631.246 1144.2 632.923C1140.45 635.576 1137.29 638.988 1134.93 642.937C1132.57 646.887 1131.07 651.287 1130.51 655.854C1128.85 666.914 1127.49 678.213 1122.35 688.499C1120.24 693.12 1117.14 697.224 1113.28 700.528C1109.42 703.832 1104.89 706.257 1100 707.633C1086.88 711.319 1078.13 706.748 1070.89 693.126C1061.05 703.827 1049.14 712.413 1035.88 718.361C1033.28 719.504 1032.77 720.499 1034.92 722.711C1053.27 742.119 1073.74 759.402 1095.95 774.232C1096.57 774.735 1097.29 775.109 1098.06 775.334C1098.84 775.558 1099.64 775.629 1100.44 775.541C1111.09 773.697 1121.71 771.854 1132.02 766.49C1127.91 763.449 1123.18 762.287 1120.27 758.25C1112.01 746.767 1114.17 729.476 1125.15 718.601C1132.51 711.563 1141.44 706.376 1151.2 703.467C1166.64 698.49 1178.18 690.14 1182.38 673.347C1204.36 704.536 1205.15 746.048 1182.38 775.596C1178.55 780.805 1173.57 785.057 1167.82 788.02C1155.7 793.919 1145.07 789.218 1141.88 776.149C1140.81 771.817 1139.71 771.043 1135.69 773.144C1127.88 777.119 1119.52 779.914 1110.89 781.439C1110.89 784.518 1113.51 785.126 1115.35 786.122C1158.45 810.343 1201.5 809.532 1244.95 786.601C1252.32 782.73 1254.16 768.481 1251.01 760.02C1250.61 760.112 1250.04 760.02 1249.83 760.333C1245.76 765.771 1240.95 770.177 1233.6 768.223C1226.25 766.269 1222.99 760.591 1220.87 753.956C1214.4 733.679 1223.69 706.029 1241.71 692.13C1246.92 688.094 1252.06 683.78 1259.99 681.329C1254.64 696.923 1264.22 706.453 1272.26 716.757C1278.28 724.481 1282.87 732.85 1281.58 743.356C1280.18 754.73 1272.07 762.085 1260.61 761.329C1257.79 761.163 1256.93 761.55 1256.93 764.37C1257.08 768.739 1256.93 773.089 1256.93 779.117C1262.77 774.969 1268.19 771.467 1273.23 767.504C1288.91 755.058 1303.45 741.24 1316.68 726.214C1323.77 717.971 1332.36 711.147 1342 706.103C1345.46 704.352 1346.42 703.061 1343.84 699.117C1333.39 683.412 1338.31 668.757 1356.04 661.402C1376.78 652.794 1396.22 657.144 1414.68 667.983C1424.16 673.601 1432.4 681.075 1438.91 689.955C1417.02 689.955 1410.35 707.43 1400.77 721.421C1396.31 728.396 1390.95 734.755 1384.84 740.333C1375.83 748.094 1366.17 749.937 1358.25 745.587C1350.88 741.568 1346.46 730.029 1348.21 719.412C1348.76 716.094 1349.77 712.849 1350.93 708.112C1338.2 715.135 1327.72 722.601 1320 733.421C1302.88 757.384 1283.37 778.84 1258.49 794.988C1251.58 799.546 1244.28 803.482 1236.68 806.748C1233.18 808.241 1233.25 809.587 1235.61 812.057C1243.7 820.883 1252.82 828.706 1262.77 835.357C1267.82 838.582 1277.51 835.357 1283.66 828.426C1281.67 828.186 1279.98 828.131 1278.28 827.781C1268.09 825.642 1263.74 816.518 1268.65 807.227C1276.53 792.297 1290.39 785.937 1305.85 782.674C1321.31 779.412 1336.45 782.048 1350.88 788.462C1350.88 790.435 1349.24 790.453 1348.13 791.08C1344.54 792.937 1341.48 795.662 1339.21 799.006C1336.94 802.351 1335.54 806.21 1335.14 810.232C1334.33 817.775 1332.13 825.101 1328.64 831.836C1320.94 846.582 1296.67 848.96 1290.26 833.863C1289.47 832.02 1288.8 831.449 1286.83 832.665C1282.19 835.541 1277.38 838.195 1272.57 840.905C1305.57 861.384 1346.18 854.195 1373.3 828.333C1369.62 826.49 1365.53 825.458 1362.5 822.38C1352.06 811.67 1353.97 799.688 1367.83 790.933C1384.28 780.518 1402.01 779.522 1420.27 784.665C1426.81 786.509 1433.53 788.352 1440 792.886C1425.5 797.55 1423.42 809.753 1420.84 821.771C1419.63 827.855 1418.02 833.852 1416.03 839.725C1411.99 850.933 1403.92 856.702 1394.58 855.744C1385.66 854.822 1378.63 846.896 1376.67 835.615C1376.49 834.49 1376.32 833.366 1376.14 832.149C1372.99 832.26 1371.94 834.969 1370.24 836.592C1358.21 848.204 1344.3 856.37 1327.86 859.633C1323.35 860.518 1322.94 861.476 1325.78 865.071C1332.8 873.83 1340.8 881.764 1349.61 888.721C1349.99 885.722 1350.6 882.757 1351.45 879.854C1355.59 868.794 1370.15 865.753 1380.56 873.366C1386.22 877.738 1391 883.142 1394.66 889.292C1396.91 893.235 1400.22 896.468 1404.22 898.628C1408.21 900.787 1412.73 901.787 1417.26 901.513C1412.62 909.661 1405.97 914.656 1398.84 918.988C1392.19 923.167 1384.67 925.752 1376.86 926.542C1369.04 927.332 1361.16 926.305 1353.81 923.541C1350.76 922.482 1347.94 920.842 1345.52 918.712C1335.75 910.159 1336.3 902.453 1348.08 893.052C1336.87 884.232 1326.85 874.004 1318.26 862.619C1317.72 862.03 1317.04 861.585 1316.28 861.324C1315.52 861.063 1314.71 860.996 1313.92 861.126C1277.36 860.721 1248.47 843.43 1222.8 819.375C1218.71 815.541 1215.53 813.679 1209.69 815.209C1200.82 817.568 1191.54 817.753 1182.25 818.269C1182.12 821.329 1184.68 822.085 1186.29 823.357C1208.69 841.218 1224.65 863.209 1231.72 891.43C1234.19 901.292 1244.36 902.177 1251.99 906.767C1252.27 905.824 1252.46 904.854 1252.54 903.873C1251.11 885.089 1262.68 875.688 1280.71 881.753C1302.12 888.868 1311.52 905.956 1315.72 926.656C1317.07 933.68 1317.49 940.851 1316.96 947.984C1316.77 951.062 1316.15 953.403 1312.66 950.527C1305.04 944.223 1296.98 944.334 1288.1 947.762C1281.28 950.555 1274.04 952.163 1266.67 952.518C1257.3 952.813 1249.74 949.532 1245.73 940.887C1241.71 932.242 1243.03 923.836 1248.91 916.26C1249.59 915.394 1250.37 914.583 1251.42 913.384L1234.06 904.85C1238.39 931.412 1234.73 957.735 1242.85 982.841C1246.54 994.417 1252.06 1001.55 1260.5 1006.49C1257.84 998.997 1257.87 990.81 1260.59 983.339C1264.11 972.868 1271.65 968.481 1281.76 967.596C1307.82 965.311 1327.53 977.292 1343.49 996.389C1354.05 1009.03 1360.64 1023.87 1364.55 1041.7C1346.12 1032.19 1331.38 1039.1 1316.64 1048.28C1306.39 1054.9 1295.32 1060.13 1283.7 1063.85C1277.57 1065.99 1270.98 1066.4 1264.63 1065.05C1248.89 1061.26 1242.32 1045.81 1249.56 1030.03C1252.54 1023.71 1256.78 1018.06 1262.03 1013.44C1232.42 1000.13 1231.45 972.961 1229.6 945.974L1214.86 959.689C1220.39 964.573 1225.72 968.997 1227.47 976.131C1230.89 989.993 1222.33 1002.67 1207.95 1004.72C1202.01 1005.53 1196 1005.59 1190.04 1004.92C1177.4 1003.58 1165.39 1003.76 1157.74 1017.83C1149.55 992.02 1148 968.592 1163.77 946.546C1167.13 941.845 1171.42 937.886 1176.37 934.914C1194.39 924.076 1209.28 931.56 1211.86 952.592C1219.43 949.532 1228.92 936.149 1228.24 928.279C1224.65 886.435 1209.15 850.859 1173.65 826.011C1172.21 824.997 1170.99 823.357 1168.43 823.873C1168.19 831.522 1168.71 839.264 1166.98 846.914C1165.78 852.094 1170.35 849.937 1172.5 849.974C1188.33 850.251 1199.79 861.808 1198.5 876.592C1197.8 884.407 1193.34 890.306 1187.83 895.338C1183.81 899.118 1179.45 902.524 1174.81 905.513C1163.75 912.389 1157.21 921.44 1159.09 935.246C1133.85 922.712 1113.65 894.97 1115.77 868.02C1116.49 858.804 1118.9 849.845 1125.92 843.062C1135.97 833.366 1148.03 833.845 1157.25 844.241L1160.25 847.633C1163.31 837.513 1164.08 828.536 1160.03 819.486C1159.72 818.496 1159.15 817.607 1158.38 816.91C1157.62 816.213 1156.68 815.734 1155.66 815.522C1121.36 809.108 1091.17 793.605 1062.69 773.937C1062.2 773.451 1061.58 773.132 1060.9 773.026C1060.22 772.92 1059.52 773.032 1058.91 773.347C1059.72 784.886 1059.78 796.721 1056.52 809.163C1067.94 805.089 1077.8 805.919 1085.19 815.264C1094.2 826.675 1094.4 839.412 1089.31 852.444C1086.84 858.655 1083.52 864.493 1079.44 869.79C1069.8 882.398 1063.41 895.707 1071.11 913.292C1055.37 906.896 1043.09 898.711 1033.41 887.191C1017.97 868.758 1010.21 847.707 1013.49 823.32C1013.74 821.501 1014.12 819.702 1014.62 817.937C1020.15 798.601 1032.67 794.232 1048.93 806.73C1053.36 793.133 1053.27 778.465 1048.67 764.923C1047.62 761.919 1043.55 759.854 1040.67 757.55C1020.85 741.449 1001.98 724.216 984.143 705.937C978.927 700.74 973.184 696.101 967.008 692.094C965.743 703.655 965.245 715.287 965.515 726.914C965.515 729.919 967.026 729.605 969.09 728.757C978.947 724.389 988.27 724.573 996.543 732.444C1005.57 740.96 1006.7 751.485 1004.19 762.951C1002.01 771.685 998.142 779.907 992.803 787.154C984.106 799.725 980.384 812.61 987.496 827.338C952.765 823.117 916.873 791.264 921.166 749.624C922.474 736.72 929.034 727.596 938.873 725.107C945.819 723.264 951.457 726.177 956.984 729.624C959.287 728.37 958.256 726.287 958.274 724.684C958.44 714.324 957.74 703.909 959.416 693.66C960.338 688.13 958.219 685.513 953.576 682.932C926.178 667.762 897.121 661.255 865.927 665.034C864.343 665.218 862.758 665.531 861.174 665.863C860.123 666.084 859.092 666.453 857.912 666.803C870.202 690.766 874.348 716.204 875.195 742.379C875.695 753.191 878.194 763.816 882.565 773.716C887.89 786.416 893.712 798.914 895.334 812.905C896.421 822.416 894.836 831.725 893.97 841.089C892.93 850.708 892.782 860.402 893.528 870.048C893.949 876.039 895.565 881.885 898.28 887.242C900.995 892.598 904.755 897.357 909.337 901.237C921.092 911.246 930.784 922.767 935.132 937.937C936.182 941.624 939.131 941.937 941.876 942.859C952.12 946.269 961.996 949.993 970.822 956.795C986.612 969.016 994.664 985.071 996.506 1004.35C997.925 1019.26 997.907 1034.31 992.305 1048.59C990.26 1053.79 993.982 1052.63 996.433 1052.65C1012.32 1052.65 1028.23 1053.37 1044.06 1052.65C1088.96 1050.36 1130.38 1062.25 1170.4 1081.42C1214.65 1102.93 1260.72 1120.45 1308.08 1133.77C1309.34 1134.1 1310.44 1134.89 1311.13 1136H799.265C815.663 1162.6 834.383 1183.69 864.214 1193.15C877.719 1197.42 889.254 1194.82 901.23 1189.35C918.034 1181.68 933.621 1171.91 949.135 1161.94C957.966 1156.05 968.315 1152.84 978.929 1152.72C1001.41 1152.43 1021.56 1158.64 1039.01 1173C1042.05 1175.46 1045.87 1176.73 1049.77 1176.57C1068.81 1176.76 1085.35 1168.22 1102.56 1161.97C1118.09 1156.33 1133.39 1150.18 1150.47 1150.1C1163.09 1150.1 1174.42 1154.1 1185.47 1159.32C1211.47 1171.67 1238.48 1177.46 1267.17 1172.22C1275.22 1170.73 1283.13 1168.37 1292.47 1166.09C1252.49 1188.06 1213.81 1180.28 1175.08 1165.81C1175.08 1174.55 1185.73 1186.97 1195.06 1193.86C1202.63 1199.39 1210.48 1204.7 1218.14 1210.18C1222.98 1213.33 1227.06 1217.53 1230.08 1222.45C1230.63 1223.45 1231.1 1224.74 1230.08 1225.61C1229.07 1226.47 1228.24 1225.48 1227.36 1224.63C1218.35 1214.79 1206.83 1208.78 1194.8 1203.6C1183.3 1198.64 1175.69 1189.53 1169 1179.45C1167.75 1177.61 1166.66 1175.49 1165.54 1173.48C1158.17 1160.35 1152.42 1157.99 1137.44 1161.68C1125.3 1164.3 1114.39 1169.83 1103.56 1175.36C1090.9 1182.21 1077.21 1186.92 1063.02 1189.31C1072.93 1195.56 1083.14 1200.09 1095.45 1197.68C1113.59 1193.92 1132.45 1195.65 1149.6 1202.66C1157.25 1205.53 1163.91 1210.54 1168.8 1217.09C1164.18 1214.64 1159.59 1212 1154.94 1209.81C1139.69 1202.73 1123.84 1202.99 1107.63 1205.66C1096.57 1207.5 1085.52 1208.76 1074.02 1206.95C1060.11 1204.76 1048.47 1198.47 1037.74 1189.79C1033.73 1186.55 1030.15 1182.6 1024.37 1180.44C1026.69 1192.35 1027.76 1203.91 1032.36 1214.47C1037.17 1225.53 1047.78 1228.08 1058.38 1230.03C1067.9 1231.87 1077.56 1231.45 1087.18 1231.87C1068.75 1236.94 1050.33 1237.99 1032.86 1228.41C1024.95 1224.08 1020.81 1216.72 1020.51 1207.04C1011.06 1217.42 1011.3 1221.27 1023.04 1243.82C1014.49 1237.51 1008.91 1230.4 1006.18 1221.15C1005.4 1218.97 1005.29 1216.61 1005.87 1214.37C1006.45 1212.13 1007.69 1210.12 1009.42 1208.59C1014.6 1203.6 1020.04 1198.38 1017.01 1190.16C1013.16 1179.71 1008.94 1169.26 996.138 1166.77C984.401 1164.23 972.167 1165.41 961.13 1170.14C961.351 1170.86 961.388 1171.5 961.609 1171.58C975.317 1175.74 980.237 1181.86 981.748 1196.8C982.172 1200.92 982.595 1205.05 982.724 1209.18C983.185 1222.09 989.431 1232.32 999.712 1242.36C986.815 1237.27 981.287 1228.21 977.915 1217.4C976.644 1213.24 975.907 1208.91 974.967 1204.63C971.153 1186.97 959.877 1184.46 944.897 1183.01C944.204 1182.96 943.51 1183.08 942.87 1183.36C942.231 1183.63 941.663 1184.04 941.212 1184.57C930.931 1194.8 919.784 1203.86 905.56 1209.72C922.279 1221.03 935.386 1236.92 943.313 1255.49C946.39 1262.58 952.765 1265.77 960.098 1267.39C978.837 1271.58 997.686 1268.39 1016.5 1268.67C1038.77 1269 1059.67 1265.18 1078.74 1252.92C1083.68 1249.75 1089.66 1248.15 1095.14 1245.79C1105.38 1241.37 1116.91 1240.98 1127.44 1244.68C1135.75 1247.36 1144.02 1249.97 1152.46 1252.39C1160.51 1254.69 1168.03 1254.4 1175.38 1249.15C1183.65 1243.23 1195.44 1244 1203.83 1249.96C1202.43 1251.38 1200.84 1250.66 1199.48 1250.34C1195.5 1249.2 1191.3 1249.1 1187.28 1250.07C1183.25 1251.04 1179.55 1253.04 1176.54 1255.87C1167.47 1263.91 1156.27 1263.39 1145.09 1261.13C1140.83 1260.16 1136.63 1258.97 1132.5 1257.55C1115.92 1252.28 1096.9 1255.12 1080.78 1266.05C1087.27 1266.51 1092.61 1266.69 1097.88 1267.28C1113.54 1269.13 1128.8 1272.15 1141.71 1282.03C1147.7 1286.45 1151.89 1292.89 1153.51 1300.15C1146.54 1292.65 1139.12 1285.9 1129.43 1282.25C1119.8 1278.37 1109.59 1276.11 1099.23 1275.56C1104.96 1283.62 1104.29 1292.15 1103.3 1300.61C1101.95 1312.26 1100.79 1323.87 1105.82 1335.17C1102.8 1332.9 1100.29 1330.02 1098.44 1326.73C1096.6 1323.43 1095.46 1319.78 1095.1 1316.02C1094.58 1310.99 1094.42 1305.92 1094.12 1300.87C1093.24 1285.5 1086.38 1276.91 1071.18 1275.74C1049.79 1274.01 1028.71 1278.25 1005.46 1280.78C1018.65 1287.65 1030.15 1293.09 1041.04 1299.73C1055.26 1308.41 1061.31 1321.05 1061.97 1336.98C1062.3 1344.48 1062.74 1352 1059.91 1359.21C1059.73 1350.02 1058.63 1340.86 1056.61 1331.89C1052.35 1314.95 1033.71 1299.14 1016.44 1297.59C1013.46 1297.33 1013.48 1298.71 1013.64 1300.74C1014.73 1313.02 1012.76 1325.09 1011.03 1337.16C1009.04 1351.21 1014.49 1362.79 1023.04 1373.33C1024.33 1374.93 1025.67 1376.5 1026.96 1378.1C1026.96 1378.1 1026.96 1378.44 1026.69 1379.36C1011.95 1371.82 1003.95 1359.78 1001.41 1343.98C1000.21 1336.69 1000.47 1329.22 1002.18 1322.03C1005.87 1306.38 998.165 1294.97 988.399 1284.28C985.728 1281.37 982.337 1282.95 979.297 1283.28C965.147 1284.78 965.11 1284.81 964.465 1299.21C963.74 1311.42 964.407 1323.67 966.455 1335.73C968.297 1346.2 973.217 1354.44 982.466 1360.32C993.079 1367.04 996.267 1377.75 996.414 1389.81C993.374 1379.12 985.709 1372.98 976.147 1368.48C955.234 1358.57 949.504 1340.72 950.701 1319.34C950.812 1317.27 951.052 1315.21 951.199 1313.16C951.141 1312.7 951.043 1312.23 950.904 1311.78C943.7 1316.89 935.998 1320.81 930.636 1327.93C927.843 1331.45 926.067 1335.67 925.502 1340.13C924.936 1344.58 925.604 1349.11 927.43 1353.22C930.207 1360.03 933.709 1366.53 937.878 1372.59C946.279 1385.07 947.79 1398.27 940.641 1412.08C941.489 1393.16 930.102 1379.69 920.374 1365.53C918.252 1362.81 916.595 1359.76 915.473 1356.5C914.441 1352.81 913.335 1351.69 909.724 1354.79C898.816 1364.19 896.826 1376.46 906.739 1388.68C913.888 1397.51 914.846 1406.75 913.851 1417.18C911.788 1416.94 912.488 1415.23 912.156 1414.21C911.86 1413.1 911.675 1411.96 911.603 1410.8C911.124 1406.84 910.295 1402.77 906.997 1400.33C901.046 1395.97 898.19 1389.88 896.329 1383.14C895.592 1380.43 894.947 1378.84 891.815 1381.07C889.485 1382.5 887.016 1383.69 884.445 1384.61C880.865 1385.97 877.787 1388.39 875.626 1391.55C873.465 1394.71 872.324 1398.46 872.358 1402.29C871.971 1411.27 873.445 1420.02 874.808 1428.8C867.438 1414.73 865.909 1400.15 871.934 1385.24C872.665 1383.4 873.864 1381.78 875.411 1380.54C876.959 1379.3 878.802 1378.49 880.76 1378.18C883.152 1377.83 885.381 1376.76 887.139 1375.1C888.897 1373.44 890.099 1371.28 890.58 1368.91C893.952 1356.24 899.885 1345.44 911.64 1338.66C912.339 1338.26 912.931 1337.7 913.364 1337.02C913.797 1336.34 914.059 1335.57 914.128 1334.77C916.062 1320.48 924.851 1311.25 936.717 1304.39C942.539 1301.03 945.376 1295.71 947.182 1289.64C948.288 1285.96 947.477 1283.63 942.944 1283.27C930.249 1282.27 922.493 1275.78 917.426 1263.63C907.992 1240.92 888.056 1229.02 866.849 1219.23C861.911 1216.94 857.212 1213.86 851.629 1212.98C852.477 1229.37 853.067 1245.55 863.772 1259.3C868.581 1265.48 873.832 1270.58 881.441 1272.94C892.92 1276.5 899.682 1284.19 901.027 1296.22C902.094 1303.9 903.595 1311.5 905.523 1319.01C900.921 1313.22 897.82 1306.38 896.495 1299.1C895.223 1291.19 890.617 1286.77 883.708 1284.35C869.668 1279.62 858.262 1271.78 851.003 1258.18C848.663 1269.77 850.874 1280.7 854.688 1291.45C862.703 1313.17 864.157 1336.78 858.87 1359.32C858.557 1360.63 857.949 1361.85 856.807 1364.94C856.807 1359.65 856.807 1356.24 856.807 1352.85C856.807 1349.16 856.807 1345.48 856.678 1341.79C856.291 1321.94 852.385 1303.08 841.938 1285.75C839.452 1281.74 837.84 1277.25 837.205 1272.57C836.57 1267.89 836.927 1263.13 838.253 1258.6C842.73 1241.55 839.856 1224.87 834.457 1208.41C833.388 1205.2 831.104 1204.46 828.506 1203.49C809.786 1196.41 791.158 1189.18 775.331 1176.32C767.961 1170.25 761.493 1163.12 754.068 1155.32C753.257 1164.54 755.082 1172.35 756.5 1180.08C762.71 1213.48 773.949 1244.81 795.193 1271.82C799.693 1277.64 804.719 1283.04 810.21 1287.95C831.785 1306.73 842.325 1330.07 840.372 1358.71C838.64 1384.02 845.181 1407.41 856.143 1429.86C856.393 1430.54 856.596 1431.23 856.752 1431.93C852.311 1428.06 848.147 1421.86 844.37 1413.64C835.871 1395.43 831.841 1375.45 832.615 1355.36C833.204 1340.96 827.234 1329.22 819.717 1317.86C818.796 1318.23 818.059 1318.36 818.04 1318.55C816.622 1330.55 810.173 1339.38 800.628 1346.2C796.428 1349.22 795.912 1352.87 797.201 1357.66C799.582 1366.35 803.925 1374.37 809.896 1381.11C818.225 1390.71 820.325 1402.07 818.814 1414.66C818.114 1399.51 805.916 1391.45 798.639 1380.33C795.272 1374.9 792.464 1369.14 790.255 1363.14C787.141 1366.82 788.099 1370.51 788.173 1373.96C788.357 1382.51 788.449 1391.03 784.746 1399.03C784.416 1399.87 784.26 1400.78 784.289 1401.69C784.317 1402.6 784.529 1403.49 784.912 1404.32C785.925 1407.65 786.754 1411.58 785.188 1414.47C781.337 1421.27 785.63 1423.54 790.458 1425.83C796.354 1428.61 801.273 1432.26 803.079 1438.95C798.178 1434.2 792.024 1431.58 786.146 1428.76C777.063 1424.35 776.584 1423.41 779.237 1413.92C780.036 1412.07 780.128 1409.99 779.495 1408.08C763.483 1415.32 749.02 1423.87 746.219 1443.63C744.874 1432.57 748.67 1423.36 755.69 1415.78C760.441 1410.78 765.499 1406.09 770.835 1401.72C773.765 1399.29 776.113 1396.23 777.707 1392.77C779.301 1389.31 780.101 1385.54 780.048 1381.74C780.158 1376.21 780.545 1370.68 780.895 1365.15C781.558 1354.23 786.533 1345.4 794.401 1338.09C802.034 1331.32 807.108 1322.13 808.772 1312.06C809.274 1310.07 809.216 1307.99 808.605 1306.04C807.993 1304.09 806.852 1302.34 805.308 1301C794.861 1291.34 784.783 1281.29 773.138 1270.03C773.138 1276.65 773.009 1281.48 773.138 1286.31C773.488 1296.04 770.956 1305.66 765.86 1313.96C750.53 1339.76 749.167 1344.68 748.817 1369.59C743.511 1352.61 743.013 1335.19 752.502 1320.06C766.1 1298.47 763.281 1276.76 757.2 1254.38C752.926 1238.68 745.943 1223.82 741.392 1207.74C739.973 1218.58 738.407 1229.42 737.172 1240.28C733.721 1270.69 731.092 1301.17 729.286 1331.71C728.165 1345.76 730.486 1359.87 736.048 1372.81C741.871 1385.85 740.378 1399.27 737.651 1412.76C736.325 1398.21 736.472 1383.27 726.946 1368.63C724.275 1394.44 723.261 1418.4 718.452 1442.12C716.333 1418.05 714.214 1393.99 711.948 1368.39C702.883 1382.49 702.091 1397.18 700.893 1411.78C698.535 1397.4 697.042 1383.28 704.099 1369.5C708.54 1360.8 709.627 1350.97 709.498 1341.26C709.111 1313.61 706.568 1286.12 703.528 1258.68C701.833 1243.36 700.101 1228.06 698.479 1212.76C698.529 1211.82 698.373 1210.88 698.023 1210.01C697.673 1209.14 697.137 1208.35 696.453 1207.71C690.391 1232.63 678.138 1255.32 676.682 1281.05C675.927 1294.44 678.23 1306.71 685.637 1318.53C694.85 1333.27 694.463 1349.86 690.575 1366.62C691.865 1345.11 681.178 1327.91 671.044 1310.49C665.517 1300.96 665.001 1290.42 665.351 1279.74C665.443 1277.29 665.351 1274.82 665.351 1271.15C652.822 1282.21 641.398 1293.11 630.527 1304.46C628.685 1306.4 629.422 1308.8 629.772 1311.03C631.017 1320.94 635.745 1330.09 643.112 1336.83C653.798 1346.34 658.497 1358.18 658.552 1372.3C658.491 1378.05 658.979 1383.8 660.008 1389.46C661.85 1398.57 669.497 1403.27 675.945 1408.68C686.429 1417.5 693.413 1427.95 692.528 1442.6C689.248 1423.91 675.393 1415.49 659.658 1408.41C658.128 1410.9 659.437 1413.55 660.302 1415.93C662.385 1421.64 660.302 1425.15 655.18 1427.67C648.234 1431.12 640.624 1433.61 634.913 1441.07C636.497 1432.33 642.283 1428.69 648.492 1425.79C653.817 1423.28 657.097 1420.68 653.54 1414.38C652.806 1412.68 652.6 1410.8 652.951 1408.98C655.18 1393.64 647.276 1379.1 651.329 1363.63L647.773 1362.79C644.825 1383.36 623.028 1392.85 619.97 1413.48C618.901 1407.49 619.257 1401.34 621.008 1395.52C622.759 1389.7 625.856 1384.37 630.048 1379.97C635.548 1373.46 639.633 1365.87 642.043 1357.7C643.48 1353.15 642.817 1349.5 638.542 1346.38C628.998 1339.41 621.96 1330.6 621.112 1316.54C612.6 1326.9 607.514 1336.94 606.925 1348.7C606.169 1363.86 606.335 1379.01 602.005 1393.81C598.044 1407.41 592.608 1420.15 582.806 1430.84C585.091 1425.5 587.505 1420.19 589.642 1414.77C597.433 1394.76 600.729 1373.28 599.297 1351.86C597.915 1328 606.999 1308.39 624.152 1292.87C654.093 1265.9 670.731 1231.8 679.962 1193.44C682.819 1181.41 684.668 1169.15 685.49 1156.81C683.924 1155.74 683.205 1156.81 682.56 1157.66C666.143 1178.31 644.641 1191.84 619.915 1199.56C607.404 1203.47 602.318 1210.62 600.66 1222.69C598.928 1235.34 598.173 1247.86 601.158 1260.39C603 1268.26 603 1276.19 598.726 1283.15C584.999 1305.27 581.645 1329.42 582.659 1354.71C582.789 1357.27 582.653 1359.83 582.254 1362.36C578.937 1355.63 577.924 1348.32 577.352 1340.98C575.915 1322.29 579.877 1304.39 586.012 1286.9C589.363 1277.26 590.435 1266.97 589.145 1256.85C586.097 1261.52 582.794 1266.01 579.25 1270.31C573.284 1276.44 565.87 1280.97 557.693 1283.49C549.788 1286.18 544.279 1290.55 542.639 1299.6C541.109 1306.85 538.029 1313.7 533.611 1319.65C537.296 1309.39 537.038 1298.36 540.244 1288.11C541.295 1284.78 543.167 1281.77 545.688 1279.35C548.209 1276.93 551.299 1275.18 554.671 1274.27C573.538 1268.74 580.798 1253.24 585.994 1236.89C588.315 1229.51 586.344 1221.03 588.831 1211.95C558.927 1224.57 531.068 1237.29 518.982 1269.37C515.647 1278.21 507.926 1281.05 499.414 1282.58C490.459 1284.21 490.201 1284.94 493.518 1293.64C495.84 1299.62 500.372 1303.36 505.623 1306.36C510.675 1309.15 515.035 1313.04 518.384 1317.75C521.732 1322.45 523.983 1327.84 524.97 1333.53C525.181 1334.76 525.655 1335.94 526.361 1336.97C527.067 1338 527.988 1338.86 529.06 1339.51C533.925 1342.6 538.116 1346.64 541.383 1351.39C544.65 1356.14 546.926 1361.5 548.075 1367.15C548.48 1369.92 549.759 1372.49 551.724 1374.48C553.69 1376.47 556.239 1377.78 559.001 1378.21C565.708 1379.54 568.214 1385.29 569.614 1390.64C573.207 1403.69 571.659 1416.45 564.547 1429.74C565.468 1421.31 566.574 1414.31 566.924 1407.27C567.587 1393.44 564.473 1388.83 551.944 1383.3C549.475 1382.21 547.098 1380.89 544.574 1379.62C541.571 1387.98 538.291 1395.76 531.289 1401.85C526.886 1405.66 527.604 1412.43 527.181 1418.33C523.496 1410.95 525.099 1398.14 530.755 1391.43C534.138 1387.35 536.511 1382.53 537.683 1377.37C540.318 1366.62 537.978 1360.78 528.894 1354.21C526.702 1352.65 525.596 1352.26 524.472 1355.25C521.1 1364.19 515.075 1371.54 509.622 1379.21C502.41 1388.95 498.744 1400.85 499.23 1412.96C493.076 1402.99 492.615 1392.48 496.742 1381.62C499.045 1375.56 502.878 1370.33 506.434 1365.04C509.874 1359.84 512.236 1354.01 513.38 1347.89C515.591 1336.35 510.34 1327.82 501.643 1321.02C497.516 1317.79 493.076 1314.95 488.009 1311.41C488.783 1320.13 489.299 1328.13 487.751 1336.17C485.061 1350.18 478.243 1360.89 465.346 1367.51C454.899 1372.78 444.949 1378.57 442.701 1391.76C443.438 1380.5 444.378 1368.8 454.586 1362.47C469.584 1353.26 473.987 1339.21 474.853 1323.27C475.406 1312.21 474.853 1301.15 474.853 1290.09C474.853 1285.99 473.674 1283.32 468.884 1284.02C468.202 1284.02 467.483 1283.87 466.82 1284.02C460.905 1285.09 454.236 1279.56 448.911 1286.56C441.264 1296.63 433.968 1306.69 437.119 1320.41C440.914 1337 439.053 1352.43 428.883 1366.49C424.446 1372.78 418.151 1377.53 410.881 1380.06C414.419 1375.89 416.814 1373.24 419.007 1370.44C428.477 1358.38 430.412 1344.76 427.648 1329.98C425.934 1320.76 424.626 1311.27 425.805 1301.83C426.395 1297.16 424.645 1297.53 421.347 1298.44C392.566 1306.36 381.438 1320.76 379.872 1352.41C379.761 1354.69 379.872 1357 379.872 1360.09C371.249 1340.94 379.687 1312.85 396.896 1301.24C406.294 1295.07 416.15 1289.64 426.377 1284.98C428.219 1284.13 430.062 1283.14 432.088 1282.07C428.035 1279.17 423.687 1280.22 419.707 1279.54C404.248 1277.15 388.605 1275.1 373.017 1275.67C354.15 1276.37 345.38 1284.35 345.232 1302.64C345.436 1309.46 344.553 1316.28 342.616 1322.82C341.116 1327.85 337.944 1332.22 333.624 1335.19C338.765 1323.6 337.199 1311.78 335.964 1299.91C335.117 1291.93 334.288 1283.74 340.773 1275.58C318.461 1277.88 299.409 1283.25 285.387 1302.31C286.511 1292.76 291.504 1287.27 297.419 1282.56C310.317 1272.26 325.923 1269.26 341.824 1267.47C347.02 1266.9 352.289 1266.71 357.577 1265.62C342.561 1257.24 327.083 1251.41 309.561 1256.81C299.022 1260.06 288.593 1263.71 277.225 1262.21C272.029 1261.55 266.888 1260.17 263.406 1256.57C254.304 1247.23 244.023 1248.92 233.299 1252.04C232.231 1252.33 231.217 1252.81 229.78 1253.35C238.587 1244.48 254.378 1242.29 264.272 1249.42C271.237 1254.38 278.294 1254.62 285.866 1252.65C291.681 1251.28 297.389 1249.49 302.947 1247.3C321.537 1239.43 339.281 1241.77 356.674 1250.88C359.642 1252.12 362.539 1253.52 365.353 1255.08C380.977 1265.81 398.518 1268.52 416.943 1268.39C437.579 1268.24 458.271 1271.91 478.87 1267.52C486.737 1265.85 493.057 1262.25 496.411 1254.62C504.292 1236.41 517.269 1220.88 533.777 1209.88C519.35 1203.73 508.94 1193.29 497.277 1184.74C490.588 1179.76 481.394 1184.74 474.098 1188.61C468.902 1191.36 466.617 1196.46 465.162 1201.99C463.08 1209.97 461.937 1218.23 458.197 1225.74C454.751 1232.65 449.979 1238.1 442.278 1240.57C453.333 1229.13 457.147 1215.34 457.423 1199.71C457.718 1183.12 462.73 1177.2 477.875 1171.04C459.155 1157.92 430.872 1166.62 422.802 1187.86C420.388 1194.2 421.715 1199.36 425.898 1204.44C435.571 1216.15 435.534 1223.28 425.898 1235.17C423.32 1238.47 420.336 1241.42 417.017 1243.97C422.692 1232.09 431.462 1220.85 419.136 1207.1C417.109 1226.62 403.419 1232.19 387.813 1234.75C376.009 1236.8 363.877 1235.8 352.565 1231.86C364.136 1231.54 375.671 1231.52 386.984 1228.76C399.273 1225.77 407.565 1218.99 409.96 1206.07C411.489 1197.79 413.074 1189.48 414.824 1180.26C406.625 1184.22 401.355 1190.16 395.072 1194.66C379.429 1205.83 362.183 1209.11 343.482 1207.17C329.147 1205.68 314.96 1201.79 300.312 1204.85C289.35 1207.12 278.936 1211.5 269.652 1217.75C274.736 1210.96 281.615 1205.72 289.515 1202.62C306.198 1195.73 324.548 1193.94 342.247 1197.48C354.998 1200.06 365.629 1195.97 376.316 1189.31C353.229 1187.01 334.693 1173.44 314.002 1165.35C305.139 1161.86 296.092 1159.69 286.364 1160.76C284.776 1160.8 283.228 1161.27 281.876 1162.1C280.524 1162.94 279.415 1164.11 278.662 1165.51C275.567 1170.9 272.305 1176.17 268.989 1181.4C262.884 1191.23 254.074 1199.08 243.617 1204.02C230.112 1210.44 215.98 1216.28 207.523 1230.03C208.112 1221.48 213.29 1216.17 219.333 1211.6C231.383 1202.53 245.128 1195.73 255.207 1183.95C259.428 1178.68 262.741 1172.75 265.009 1166.4C245.921 1171.93 227.274 1178.47 207.467 1179.49C187.66 1180.5 168.774 1177.38 151.215 1167.41C163.247 1169.75 175.002 1173.15 187.402 1173.79C208.112 1174.88 228.49 1171.95 246.363 1162.21C276.82 1145.62 306.097 1148.24 336.314 1161.4C349.765 1167.27 363.399 1172.87 378.011 1175.43C387.536 1177.11 395.883 1176.48 404.469 1170.01C426.192 1153.68 450.882 1148.5 477.451 1155.47C487.161 1157.99 494.808 1164.81 503.246 1169.99C514.781 1177.16 526.849 1183.3 538.807 1189.68C554.505 1198.09 569.522 1196.06 584.87 1189.46C602.779 1181.77 616.469 1169.18 627.985 1153.86C631.946 1148.61 636.571 1143.73 638.782 1136.48H127.778L127.539 1135.06C137.931 1131.85 148.323 1128.67 158.696 1125.42C199.563 1112.61 238.679 1095.43 277.557 1077.62C302.504 1066.2 328.097 1056.79 355.698 1053.96C363.731 1053.13 371.746 1052.72 379.798 1052.68C399.586 1052.68 419.375 1052.68 439.164 1052.68C448.579 1052.68 448.671 1052.68 445.871 1043.47C439.921 1024.44 440.525 1003.96 447.584 985.311C453.701 968.721 465.475 957.182 480.841 949.126C482.159 948.527 483.343 947.668 484.321 946.601C485.299 945.534 486.052 944.28 486.535 942.914C492.523 927.541 503.21 914.951 511.98 901.219C516.556 894.322 520.532 887.044 523.864 879.467C529.852 865.329 538.77 853.089 548.775 841.587C550.823 839.444 552.178 836.733 552.663 833.808C560.42 782.195 569.78 730.84 576.302 678.969C576.678 677.404 576.949 675.815 577.113 674.213C577.113 671.375 581.406 668.683 578.605 666.361C576.634 664.72 572.912 665.107 569.964 664.776C539.618 661.421 511.593 668.702 485.208 683.356C482.334 684.96 479.975 686.453 480.086 690.601C480.381 703.504 480.197 716.315 480.197 728.499C483.66 730.029 484.619 728.26 485.908 727.541C498.272 720.628 511.943 726.324 516.365 740.849C521.893 758.988 517.987 776.02 508.111 791.615C495.213 812.02 475.867 822.951 451.748 828.204C454.254 821.495 456.299 815.522 455.857 809.052C455.157 798.582 448.358 790.933 443.604 782.398C439.906 776.02 437.01 769.21 434.981 762.121C431.812 750.416 434.502 740.149 443.346 731.928C451.638 724.241 461.145 724.555 470.984 729.052C471.929 729.396 472.896 729.679 473.877 729.9C473.729 717.292 474.485 705.107 472.476 692.186C464.215 697.645 456.627 704.062 449.869 711.301C433.359 728.353 415.663 744.214 396.915 758.767C394.443 760.592 392.37 762.904 390.823 765.56C389.277 768.217 388.29 771.162 387.923 774.214C386.14 784.832 386.859 795.72 390.024 806.011C391.608 806.509 392.364 805.513 393.23 804.794C404.617 795.578 416.888 798.582 422.526 812.168C430.651 831.799 426.598 850.712 418.012 868.831C408.449 888.997 392.106 902.509 372.188 911.91C370.986 912.265 369.752 912.5 368.503 912.61C373.699 899.117 372.096 887.025 363.805 875.744C359.706 870.186 355.982 864.36 352.658 858.306C346.54 847.246 344.403 835.467 349.249 823.172C354.777 809.016 365.353 804.297 382.985 808.997C379.153 796.979 379.116 785.163 380.166 771.928C373.183 776.278 367.103 780.02 361.078 783.854C338.104 798.804 312.569 809.384 285.756 815.062C281.5 815.946 279.399 817.716 278.165 821.698C275.548 830.158 276.322 838.287 278.957 847.338C283.95 841.808 288.593 837.089 295.761 836.278C306.816 835.098 317.502 843.338 321.243 856.241C324.636 867.589 324.28 879.729 320.229 890.859C313.099 910.841 298.838 924.573 279.547 936.426C282.495 919.744 273.669 911.228 262.116 903.91C256.026 900.161 250.663 895.339 246.289 889.679C240.098 881.495 238.919 872.721 243.249 863.762C247.579 854.804 255.41 849.605 265.47 850.214C272.416 850.638 272.969 848.463 271.31 842.73C269.652 836.997 270.831 830.398 270.426 823.504C262.356 826.969 256.57 832.721 250.656 838.251C227.366 859.983 216.661 887.633 211.963 918.619C209.623 933.993 215.648 944.186 226.298 953.255C228.748 952.131 227.735 950.306 227.827 948.905C228.601 936.002 239.085 927.965 251.651 930.583C264.217 933.2 272.858 941.163 279.067 951.947C291.173 972.942 288.464 994.527 281.629 1018.14C274.259 1004.89 263.646 1003.39 251.669 1004.63C245.039 1005.48 238.327 1005.48 231.696 1004.63C222.005 1003.21 214.874 998.38 212.147 988.647C209.42 978.915 211.576 970.011 219.702 963.891C224.547 960.205 223.387 958.638 219.702 955.541C216.362 952.374 213.218 949.007 210.286 945.458C209.162 954.675 208.444 963.449 206.97 972.076C203.745 990.085 196.375 1005.37 177.287 1012.83C181.912 1018.25 186.776 1022.95 189.429 1029.42C193.519 1039.28 194.57 1048.92 187.292 1057.33C180.014 1065.73 169.917 1067.01 159.396 1064.56C145.098 1061.24 132.33 1054.25 120.04 1046.6C105.853 1037.79 91.5546 1032.81 74.4192 1041.57C83.6318 1007.6 99.8644 981.348 133.73 969.679C140.547 967.545 147.698 966.683 154.827 967.136C174.615 967.836 181.746 980.555 180.29 999.486C179.928 1001.88 179.411 1004.25 178.742 1006.58C186.463 1002.2 190.553 995.799 193.943 988.997C198.402 980.002 199.895 970.159 200.724 960.297C202.253 942.214 203.414 924.094 204.796 904.997L187.863 913.071C190.829 916.868 193.814 920.278 195.03 924.887C198.715 938.97 189.503 951.689 175.021 952.26C167.431 952.422 159.893 950.964 152.91 947.984C142.39 943.744 132.809 943.725 124.13 952.205C118.308 923.209 131.077 893.716 153.869 883.117C159.746 880.372 166.307 879.435 172.717 880.426C183.551 881.993 188.582 890.914 186.905 905.274C198.199 903.762 205.57 897.661 208.794 886.73C216.367 861.126 231.402 840.647 251.909 824.057L258.966 818.343C247.175 817.645 235.436 816.248 223.81 814.158C220.457 813.513 218.504 817.347 216.256 819.541C196.762 838.527 174.136 852.02 147.641 858.675C141.415 860.381 134.966 861.127 128.515 860.887C126.575 860.672 124.613 861.007 122.853 861.854C121.094 862.702 119.608 864.027 118.566 865.679C110.854 875.948 101.75 885.092 91.5178 892.85C91.6652 894.914 93.3603 894.97 94.3552 895.67C102.481 901.2 102.739 911.873 94.2447 918.306C79.2835 929.661 62.9219 928.721 46.4867 922.214C36.5002 918.269 29.0565 910.841 21.539 901.569C33.5891 901.974 40.6275 896.278 45.9708 887.449C48.5429 883.639 51.4869 880.095 54.7596 876.868C57.5675 873.629 61.2643 871.286 65.3913 870.129C69.5182 868.972 73.8938 869.053 77.9753 870.361C86.2666 872.684 89.0304 879.412 89.7121 888.205C100.38 881.145 107.971 872.094 115.213 862.804C117.258 860.186 113.978 860.186 112.412 859.873C104.747 858.417 97.3033 856.444 90.9098 851.707L95.1844 847.43ZM671.321 574.305C670.192 577.568 668.876 580.762 667.378 583.872C665.535 587.19 663.693 592.37 659.326 591.08C654.462 589.66 656.654 584.388 657.17 580.812C659.547 564.038 660.487 547.467 654.075 531.19C652.693 527.688 651.569 522.692 653.061 519.761C657.244 511.503 653.061 504.37 651.827 496.794C651.532 494.95 651.164 493.107 650.887 491.356C647.368 468.407 655.457 449.31 673.992 439.651C680.349 436.351 682.707 433.088 682.486 425.789C681.934 407.042 691.846 395.522 710.272 392.296C714.817 391.589 719.426 391.379 724.017 391.669C746.016 392.609 758.767 406.711 756.961 428.72C756.537 433.881 758.324 435.835 762.488 437.936C782.903 448.075 791.858 465.586 789.058 488.407C788.217 495.265 786.831 502.045 784.912 508.683C784.562 509.973 783.659 511.854 784.193 512.536C789.721 519.669 787.528 527.614 784.857 534.268C778.868 549.181 780.379 564.056 782.203 579.153C782.461 581.218 782.682 583.282 782.756 585.347C782.83 587.411 783.364 590.324 780.582 591.282C777.8 592.241 776.307 589.992 774.796 588.351C771.222 584.462 770.503 579.135 768.587 574.508C757.956 585.679 758.048 598.582 761.217 612.112C763.981 624.001 771.259 631.356 782.996 634.582C794.732 637.808 805.99 640.978 817.359 644.536C818.715 645.078 820.196 645.231 821.635 644.977C823.074 644.723 824.413 644.072 825.502 643.098C861.432 614.951 884.795 578.582 891.833 533.623C902.888 462.674 878.641 404.406 821.375 361.862C748.78 307.927 646.336 321.199 587.228 390.121C522.077 465.936 533.482 580.61 612.065 641.697C614.295 643.43 616.377 644.849 619.546 643.983C632.609 640.407 645.783 637.181 658.81 633.531C665.388 631.688 671.008 628.241 674.158 621.697C681.952 605.531 683.389 589.752 671.321 574.305ZM539.397 930.712C542.529 929.864 544.058 929.532 545.532 929.034C569.89 920.813 594.101 912.168 618.643 904.592C626.916 902.03 631.117 897.347 633.955 889.735C643.388 864.407 642.743 838.877 636.073 813.163C632.625 799.972 627.679 787.22 621.333 775.154C616.137 784.776 614.111 793.956 611.863 802.951C605.967 826.564 600.55 850.324 590.49 872.647C584.557 885.79 576.615 897.366 564.271 905.642C554.501 912.394 546.062 920.893 539.378 930.712H539.397ZM734.814 290.876C751.396 293.125 767.537 295.134 783.733 300.443C782.517 288.609 780.048 278.12 774.52 268.48C767.15 255.577 749.259 250.507 735.661 257.328C746.293 269.973 746.237 275.687 734.814 290.876Z" fill="url(#paint0_radial)" fill-opacity="0.51"/>
<defs>
<radialGradient id="paint0_radial" cx="0" cy="0" r="1" gradientUnits="userSpaceOnUse" gradientTransform="translate(720 721.817) rotate(90) scale(721.817 720)">
<stop stop-color="#6F2525" stop-opacity="0.25"/>
<stop offset="0.0001" stop-color="#D1D1D1" stop-opacity="0.386719"/>
<stop offset="0.0002" stop-color="white"/>
<stop offset="0.317708" stop-color="#484343"/>
<stop offset="0.526042" stop-color="white"/>
</radialGradient>
</defs>
</svg>
