<svg xmlns="http://www.w3.org/2000/svg" viewBox="0 0 25.31 21.17"><title>quote</title><g id="Layer_2" data-name="Layer 2"><g id="Layer_1-2" data-name="Layer 1"><path d="M22,5.7c-.2-.07-.27,0-.25.2a5.81,5.81,0,0,1,0,.59c0,.11,0,.16-.15.15H21c-.13,0-.16,0-.16-.17a5.61,5.61,0,0,0,0-.58c0-.13.05-.17.17-.17a4.66,4.66,0,0,0,.64,0c-.3,0-.29-.14-.28-.33s0-.48,0-.72,0-.19.17-.19h.88c.11,0,.17,0,.17.16q0,.45,0,.9c0,.14-.06.16-.18.16a1,1,0,0,0-.41,0Z"/><path d="M14.31,4c0-.15-.09-.41,0-.54s.38,0,.58,0h.42c.15,0,.18,0,.17.18,0,.29,0,.58,0,.87,0,.12,0,.17-.16.16h-.9c-.12,0-.17,0-.16-.16S14.31,4.14,14.31,4Z"/><path d="M18.7,1.54c.16,0,.31,0,.47,0s.15,0,.15.15c0,.3,0,.6,0,.9,0,.12-.05.15-.16.15-.3,0-.6,0-.89,0-.12,0-.16,0-.16-.16q0-.45,0-.9c0-.12.05-.15.16-.14Z"/><path d="M19.88,16.67c0-.14-.08-.38,0-.5s.37,0,.56,0,.45-.09.58,0,0,.37,0,.57,0,.29,0,.44,0,.16-.15.15H20c-.11,0-.16,0-.16-.15S19.88,16.87,19.88,16.67Z"/><path d="M.6,6.24c-.16,0-.41.09-.53,0s0-.38,0-.58C0,5,0,5,.6,5.05c.21,0,.48-.1.6,0s0,.39,0,.59c0,.56,0,.56-.55.56Z"/><path d="M8.48,9c-.16,0-.4.09-.52,0s0-.36,0-.54,0-.31,0-.47,0-.16.16-.15H9c.14,0,.19,0,.18.17s0,.59,0,.88C9.14,9,9.08,9,9,9Z"/><path d="M13.88,5.45c0-.19-.07-.43,0-.56s.36,0,.55,0,.46-.09.58,0,0,.37,0,.56.08.43,0,.56-.37,0-.56,0-.45.09-.58,0S13.9,5.65,13.88,5.45Z"/><path d="M7.67,8.24c0,.19.1.44,0,.56s-.37,0-.56,0c-.6,0-.6,0-.6-.6V8.15c0-.5,0-.5.52-.5H7.1c.19,0,.44-.09.55,0S7.67,8.05,7.67,8.24Z"/><path d="M20.27.93c0-.2-.08-.45,0-.57s.37,0,.56,0,.44-.09.56,0,0,.37,0,.56.09.44,0,.56-.37,0-.56,0-.44.08-.56,0S20.3,1.11,20.27.93Z"/><path d="M10.87,6.52c.18,0,.43-.08.55.05s0,.36,0,.54.09.45,0,.58-.37,0-.57,0-.44.09-.55,0,0-.36,0-.54-.09-.46,0-.58S10.67,6.54,10.87,6.52Z"/><path d="M24,8.23c0,.16.09.43-.05.54s-.37,0-.56,0-.45.09-.56,0,0-.36,0-.54V7.75c0-.13,0-.16.15-.16h.9c.12,0,.16,0,.15.16Z"/><path d="M4.44,11.09H4c-.12,0-.15,0-.15-.16q0-.43,0-.87c0-.12,0-.17.16-.17h.9c.12,0,.15,0,.15.16q0,.43,0,.87c0,.14-.06.18-.19.17Z"/><path d="M21.29,5.1c0,.16.08.4-.05.53s-.35,0-.54,0-.44.08-.56,0,0-.38-.05-.58c0-.58,0-.58.58-.58h.47c.12,0,.15,0,.15.16S21.29,4.92,21.29,5.1Z"/><path d="M14.86,6.55c.16,0,.41-.09.52,0s0,.36,0,.54,0,.32,0,.47-.05.16-.16.15h-.9c-.12,0-.16,0-.15-.15,0-.3,0-.6,0-.9,0-.13,0-.16.17-.16Z"/><path d="M3.24,2c.18,0,.43-.09.55,0s0,.37,0,.56.08.44,0,.56-.38,0-.58,0-.44.09-.56,0,0-.37,0-.56-.1-.45,0-.58S3,2.05,3.24,2Z"/><path d="M15.68,7.06c0-.19-.07-.43,0-.55s.36,0,.54,0,.46-.09.58,0,0,.38,0,.58.09.42,0,.54-.37,0-.56,0-.44.08-.56,0S15.71,7.25,15.68,7.06Z"/><path d="M.85,7.5c-.16,0-.41.09-.53,0s0-.36,0-.56-.09-.43,0-.56.37,0,.56,0,.46-.09.58,0,0,.37,0,.56.09.45,0,.56-.36,0-.54,0Z"/><path d="M20.42,3.24c-.2,0-.46.09-.57-.05s0-.37,0-.56-.08-.44,0-.56.37,0,.56,0,.46-.09.57.05,0,.37,0,.56.08.44,0,.56S20.61,3.22,20.42,3.24Z"/><path d="M23.83,3.83c.63,0,.63,0,.61.62a.37.37,0,0,1,0,.11c0,.48,0,.48-.5.48h-.58c-.09,0-.13,0-.13-.13,0-.31,0-.62,0-.94,0-.12.06-.15.17-.14Z"/><path d="M2.17,6.07c.18,0,.44-.08.55.06s0,.35,0,.54.06.45,0,.56-.38,0-.57,0-.43.08-.55,0,0-.37,0-.56-.06-.45,0-.56S2,6.1,2.17,6.07Z"/><path d="M19.09,4.09H18.6c-.1,0-.13,0-.13-.13,0-.32,0-.63,0-.94,0-.11,0-.15.14-.14h.94c.1,0,.13,0,.13.13V4c0,.09,0,.12-.12.11Z"/><path d="M17.75,3.64c0,.58,0,.58-.58.58h-.49c-.1,0-.13,0-.13-.13V3.15c0-.09,0-.13.13-.13h.94c.1,0,.13,0,.13.13S17.75,3.48,17.75,3.64Z"/><path d="M17.6,10c-.16,0-.42.08-.54,0s0-.37,0-.56-.08-.44,0-.56.37,0,.56,0,.3,0,.44,0,.18,0,.18.16,0,.58,0,.87c0,.13,0,.19-.18.18Z"/><path d="M5,18.59C5,18,5,18,5.57,18h0c.6,0,.6,0,.59.59v.11c0,.51,0,.51-.53.5H5.61c-.2,0-.47.09-.58-.05S5,18.78,5,18.59Z"/><path d="M19.45,1.23c-.19,0-.44.05-.56-.05s0-.38,0-.58-.09-.44,0-.55.35,0,.54,0h.2c.42,0,.42,0,.42.4,0,.21,0,.42,0,.63s0,.18-.18.17-.28,0-.43,0Z"/><path d="M23.49,13.4c0,.63,0,.64-.58.63-.2,0-.46.09-.59,0s0-.38,0-.58-.09-.44,0-.55.36,0,.55,0,.44-.09.57.05S23.47,13.25,23.49,13.4Z"/><path d="M9.94,13.18c0,.14.08.39,0,.51s-.37,0-.56,0H9.09c-.41,0-.34,0-.35-.36,0-.23,0-.46,0-.69s0-.16.16-.15h.89c.12,0,.15,0,.15.15S9.94,13,9.94,13.18Z"/><path d="M18.43,7.88c0,.15.09.4,0,.52s-.37,0-.56,0-.45.09-.58,0,0-.37,0-.56,0-.28,0-.43,0-.17.16-.17h.9c.11,0,.16,0,.15.15Z"/><path d="M16.7,9.12c0,.6,0,.6-.59.6h-.45c-.12,0-.15,0-.15-.15,0-.3,0-.59,0-.88,0-.11,0-.16.15-.16h.89c.12,0,.16,0,.15.15S16.7,9,16.7,9.12Z"/><path d="M19.31,5.25c0,.19.1.45,0,.56s-.36,0-.54,0-.46.09-.58,0,0-.37,0-.56c0-.6,0-.6.59-.59.19,0,.46-.09.57.05S19.31,5.06,19.31,5.25Z"/><path d="M11.41,5.81c0,.62,0,.63-.6.62-.19,0-.44.09-.56,0s0-.38,0-.58-.09-.44,0-.56.36,0,.54,0,.44-.08.57,0S11.38,5.65,11.41,5.81Z"/><path d="M22.26,10.49c0,.19.08.45,0,.56s-.36,0-.56,0-.46.09-.57,0,0-.37,0-.56-.09-.45.05-.56.35,0,.54,0h0c.19,0,.42-.08.54,0S22.25,10.3,22.26,10.49Z"/><path d="M1.71,9.2c0-.22-.08-.47,0-.59s.37,0,.56,0,.46-.09.58,0,0,.37,0,.57c0,.59,0,.59-.59.59-.2,0-.46.08-.58,0S1.72,9.36,1.71,9.2Z"/><path d="M8.55,3.41c0,.15.08.39,0,.51S8.15,4,8,4s-.28,0-.42,0-.21,0-.2-.18,0-.57,0-.85,0-.18.18-.18H8.4c.11,0,.16,0,.15.15Z"/><path d="M19.24,7.53c0-.16-.09-.41.05-.52s.36,0,.54,0c.61,0,.61,0,.61.6,0,.15,0,.3,0,.45s-.05.16-.16.15h-.87c-.13,0-.18,0-.17-.16S19.24,7.71,19.24,7.53Z"/><path d="M5.52,3.51H5.16c-.18,0-.25,0-.24-.23a7.3,7.3,0,0,0,0-.81c0-.12,0-.16.17-.16H6c.11,0,.16,0,.16.15q0,.45,0,.9c0,.12,0,.15-.16.15Z"/><path d="M11.22,8.87c0,.15.08.4,0,.52s-.38,0-.58,0h0c-.56,0-.56,0-.55-.56,0-.16,0-.32,0-.47s0-.18.16-.18h.89c.12,0,.16,0,.15.15S11.22,8.68,11.22,8.87Z"/><path d="M19.68,10h-.24c-.33,0-.33,0-.34-.34V9c0-.12,0-.18.16-.17h.89c.12,0,.15,0,.15.15v.88c0,.13,0,.19-.17.18h-.45Z"/><path d="M23,8.9h.42c.12,0,.18,0,.17.16v.89c0,.12,0,.16-.15.16h-.89c-.11,0-.17,0-.16-.14V9c0-.12,0-.15.16-.15Z"/><path d="M22.4,15.93v.42c0,.12,0,.18-.16.18-.3,0-.59,0-.89,0-.12,0-.16,0-.15-.16v-.89c0-.13,0-.17.17-.17h.87c.13,0,.17,0,.16.17v.45Z"/><path d="M20.64,9.05c0-.15,0-.29,0-.43s.05-.18.18-.18h.85c.13,0,.17,0,.17.17,0,.29,0,.58,0,.87,0,.1,0,.16-.14.16h-.92c-.12,0-.15-.06-.14-.17Z"/><path d="M8.91,7.08c0-.56,0-.57.56-.56.2,0,.46-.09.59,0s0,.4,0,.61c0,.54,0,.54-.55.55H9.06c-.11,0-.16,0-.15-.15Z"/><path d="M21.92,12.75h-.09c-.51,0-.51,0-.5-.52,0-.13,0-.27,0-.4s0-.31.27-.29a6.42,6.42,0,0,0,.76,0c.14,0,.19.05.19.19s0,.58,0,.87c0,.11,0,.16-.15.15Z"/><path d="M16.61,2.31c0,.23.08.49,0,.61S16.19,3,16,3s-.45.09-.55,0,0-.36,0-.54-.09-.45,0-.58.37,0,.57,0,.44-.08.55,0S16.61,2.15,16.61,2.31Z"/><path d="M16.51,5.77c0-.19-.09-.44,0-.56s.39,0,.58,0,.43-.06.54,0,.05.36.05.55.09.45-.05.58-.37,0-.56,0-.45.09-.56-.05S16.51,6,16.51,5.77Z"/><path d="M6.42,1.33h0c-.55,0-.55,0-.54-.54,0-.21-.09-.47,0-.6s.39,0,.6,0C7,.14,7,.14,7,.7,7,.84,7,1,7,1.12s-.06.24-.23.22-.25,0-.37,0Z"/><path d="M7.19,16c-.17,0-.42.09-.54,0s0-.39,0-.58-.09-.44,0-.56.36,0,.54,0h.18c.44,0,.44,0,.44.42,0,.19,0,.38,0,.58s-.05.2-.2.19Z"/><path d="M23.25,12.46c-.25,0-.52.09-.63-.05s0-.37,0-.56,0-.3,0-.45,0-.15.13-.15h.94c.11,0,.15,0,.15.16,0,.29,0,.59,0,.89,0,.13,0,.17-.17.16Z"/><path d="M20.2,11.26H20c-.35,0-.34,0-.34-.34v-.69c0-.11,0-.17.14-.17h.95c.08,0,.11,0,.11.12v1c0,.1,0,.13-.14.12Z"/><path d="M9.22,5c-.2,0-.46.11-.58,0s0-.38,0-.57c0-.58,0-.58.58-.57.2,0,.45-.09.58,0s0,.37,0,.56.09.45,0,.55S9.41,5,9.22,5Z"/><path d="M3.86,9.12H3.43c-.12,0-.18,0-.17-.16,0-.29,0-.59,0-.89,0-.11,0-.15.14-.14h.94c.09,0,.13,0,.13.13,0,.31,0,.63,0,.94,0,.1,0,.12-.13.12Z"/><path d="M18.86,10.06c.2,0,.46-.09.57,0s0,.37,0,.56a1.41,1.41,0,0,1,0,.2c0,.39,0,.39-.41.39-.2,0-.41,0-.62,0s-.17-.06-.17-.17v-.92c0-.1,0-.13.13-.12Z"/><path d="M7.69,10.47c0,.16.09.4-.05.52s-.36,0-.54,0H6.67c-.13,0-.2,0-.19-.19s0-.58,0-.87c0-.1,0-.14.14-.14h.92c.11,0,.16,0,.15.15Z"/><path d="M16.78,1.77c0-.16-.08-.41.06-.52s.35,0,.54,0,.44-.08.56,0,0,.37,0,.56.09.46-.05.57-.37,0-.57,0c-.58,0-.58,0-.58-.58Z"/><path d="M24,6c0,.15.1.4,0,.52s-.36,0-.54,0a.66.66,0,0,1-.14,0c-.48,0-.48,0-.48-.49V5.52c0-.11,0-.17.14-.16h.92c.11,0,.14,0,.14.15Z"/><path d="M20.15,18.41c0,.62,0,.62-.61.61-.19,0-.42.08-.54,0s0-.36,0-.54,0-.3,0-.45,0-.18.16-.17H20c.11,0,.15,0,.14.14Z"/><path d="M8.72,6.4c-.17,0-.42.08-.54-.05s0-.37,0-.56,0-.27,0-.4,0-.2.19-.2H9.2c.11,0,.16,0,.16.16,0,.3,0,.61,0,.91,0,.11,0,.15-.15.15Z"/><path d="M21.32,14h.4c.14,0,.21,0,.2.18s0,.57,0,.85c0,.13,0,.17-.17.17h-.89c-.11,0-.16,0-.16-.15q0-.45,0-.9c0-.11,0-.16.15-.15Z"/><path d="M5.38.81c0,.12,0,.24,0,.36s0,.25-.23.23-.55,0-.83,0c-.1,0-.14,0-.14-.14,0-.31,0-.61,0-.92,0-.12,0-.15.16-.15.3,0,.6,0,.9,0,.13,0,.16,0,.16.17s0,.3,0,.45Z"/><path d="M5.74,9c0,.15,0,.3,0,.44s0,.15-.15.15h-.9c-.12,0-.17,0-.17-.17,0-.3,0-.61,0-.91,0-.1,0-.14.13-.13H5.6c.1,0,.14,0,.14.14S5.74,8.87,5.74,9Z"/><path d="M24.87,9.68c0,.19.08.44,0,.56s-.37,0-.56,0h-.2c-.4,0-.4,0-.4-.4,0-.22,0-.44,0-.65s0-.15.15-.15h.91c.12,0,.14.06.14.15Z"/><path d="M9,1.67c0,.57,0,.57-.56.56H8c-.11,0-.16,0-.16-.16,0-.3,0-.6,0-.89,0-.13,0-.15.15-.15.29,0,.58,0,.87,0s.18.05.18.18S9,1.52,9,1.67Z"/><path d="M2,2c.58,0,.58,0,.58.57,0,.19.08.44,0,.56s-.37,0-.56,0c-.59,0-.59,0-.6-.59s0-.59.59-.59Z"/><path d="M1.91,3.85c.17,0,.44-.1.55,0s0,.38,0,.57.09.44-.05.55-.35,0-.54,0H1.41c-.09,0-.13,0-.13-.13,0-.31,0-.62,0-.92,0-.13.06-.15.16-.15Z"/><path d="M8.77,11.69v0c0,.18.09.43,0,.53s-.36,0-.54,0-.45.09-.58,0,0-.37,0-.56-.08-.42,0-.54.34,0,.51,0h.5c.12,0,.15.05.15.16S8.77,11.54,8.77,11.69Z"/><path d="M21.51,3.71a1.61,1.61,0,0,0,0-.31c0-.22,0-.3.27-.28s.51,0,.76,0,.17,0,.17.16q0,.45,0,.9c0,.1,0,.15-.14.14h-.91c-.11,0-.15,0-.15-.14s0-.31,0-.47Z"/><path d="M4,6c0,.19,0,.45,0,.56s-.38,0-.58.05H3.23c-.39,0-.39,0-.39-.38,0-.22,0-.44,0-.65s0-.18.16-.18h.87c.13,0,.17,0,.16.17V6Z"/><path d="M7,17.27v.2c0,.39,0,.39-.39.39H6c-.13,0-.17,0-.17-.17v-.87c0-.12,0-.17.16-.17q.45,0,.9,0c.1,0,.14,0,.14.15s0,.31,0,.47Z"/><path d="M10.09,11.54H9.67c-.12,0-.18,0-.18-.16,0-.29,0-.58,0-.87,0-.12,0-.16.15-.16h.87c.13,0,.19.05.18.18v.85c0,.11,0,.17-.14.15Z"/><path d="M18.46,6c.15,0,.41-.09.52,0s0,.35,0,.54.08.44,0,.56-.36,0-.55,0c-.6,0-.6,0-.6-.59v0C17.82,6,17.82,6,18.46,6Z"/><path d="M22.76,2.66c0-.59,0-.59.58-.58a2.54,2.54,0,0,0,.39,0c.18,0,.25,0,.24.23s0,.54,0,.81,0,.18-.18.18q-.44,0-.87,0c-.13,0-.15-.06-.15-.16S22.76,2.81,22.76,2.66Z"/><path d="M4.27,4.9c-.16,0-.4.08-.52,0s0-.37,0-.56-.08-.42,0-.54.35,0,.54,0h.44c.12,0,.18,0,.18.16q0,.43,0,.87c0,.12,0,.16-.16.15S4.45,4.9,4.27,4.9Z"/><path d="M9.88,4.31a2.8,2.8,0,0,0,0-.29c0-.21,0-.31.27-.28a6.42,6.42,0,0,0,.76,0c.12,0,.16,0,.16.16,0,.29,0,.59,0,.89,0,.12-.05.15-.16.15-.29,0-.58,0-.88,0-.11,0-.15,0-.15-.16S9.88,4.47,9.88,4.31Z"/><path d="M9.85,3c0,.13,0,.26,0,.4s0,.2-.18.19-.57,0-.85,0-.18,0-.18-.18,0-.55,0-.83c0-.12,0-.19.18-.18h.87c.13,0,.16,0,.16.17s0,.28,0,.43Z"/><path d="M24.09,6.94c0-.57,0-.57.57-.57.2,0,.45-.08.58,0s0,.38,0,.58c0,.56,0,.56-.55.55a3.38,3.38,0,0,0-.45,0c-.16,0-.2-.06-.19-.21S24.09,7.07,24.09,6.94Z"/><path d="M4.71,6.85c0-.15,0-.3,0-.45s0-.15.16-.15h.9c.11,0,.14,0,.14.14,0,.31,0,.62,0,.92,0,.11,0,.15-.15.15H4.87c-.12,0-.16,0-.15-.16V6.85Z"/><path d="M15.74,5.88c-.16,0-.41.09-.52,0s0-.36,0-.54-.08-.44,0-.57.36,0,.56,0c.59,0,.59,0,.59.59S16.38,5.88,15.74,5.88Z"/><path d="M6.41,10.78c0,.58,0,.58-.58.58H5.38c-.14,0-.17,0-.17-.18v-.87c0-.12,0-.16.15-.16h.9c.12,0,.15,0,.15.16S6.41,10.62,6.41,10.78Z"/><path d="M21.52,2.16c0-.12-.09-.37,0-.49s.37,0,.56,0c.58,0,.58,0,.58.57,0,.13,0,.26,0,.4s0,.23-.2.22a7.3,7.3,0,0,0-.81,0c-.12,0-.17,0-.17-.17S21.52,2.37,21.52,2.16Z"/><path d="M8,6.5v.27c0,.3,0,.3-.29.3s-.48,0-.72,0-.19,0-.19-.17,0-.57,0-.85c0-.13,0-.18.16-.17h.87c.14,0,.17,0,.16.17V6.5Z"/><path d="M25.22,5.75c0,.15.08.39,0,.5s-.35,0-.53,0-.46.09-.58,0,0-.37,0-.56V5.6c0-.51,0-.51.52-.51H25c.13,0,.19,0,.18.18S25.22,5.56,25.22,5.75Z"/><path d="M6.83,4.12c.15,0,.39-.08.52,0s0,.35,0,.54.08.43,0,.56-.37,0-.56,0H6.49c-.34,0-.29.06-.3-.32s0-.47,0-.71,0-.16.15-.16Z"/><path d="M9.49,9.71c0,.16.09.41,0,.54s-.37,0-.56,0H8.75c-.46,0-.46,0-.45-.45V9.23c0-.09,0-.13.13-.13h.93c.1,0,.14,0,.13.13Z"/><path d="M6.56,2c0-.58,0-.58.58-.58h.25c.35,0,.35,0,.35.35v.67c0,.11,0,.17-.15.16H6.7c-.11,0-.14,0-.14-.14S6.56,2.19,6.56,2Z"/><path d="M3.51.72c.15,0,.3,0,.45,0s.15,0,.15.16c0,.29,0,.58,0,.87,0,.11,0,.16-.15.16-.3,0-.59,0-.89,0-.1,0-.15,0-.15-.15,0-.3,0-.59,0-.89,0-.13.06-.15.17-.15s.28,0,.42,0Z"/><path d="M8.33,13.74c0,.6,0,.6-.59.59H7.29c-.12,0-.15-.05-.15-.17q0-.43,0-.87c0-.11,0-.16.15-.16h.88c.13,0,.17.06.16.18S8.33,13.6,8.33,13.74Z"/><path d="M22.52,7.61c0,.15.08.4,0,.52s-.36,0-.55,0h-.34c-.2,0-.28,0-.26-.25a6.77,6.77,0,0,0,0-.78c0-.12,0-.16.16-.15h.87c.14,0,.17,0,.16.17S22.52,7.44,22.52,7.61Z"/><path d="M17.88.7c0-.45,0-.45.43-.45s.47,0,.47.47,0,.44-.45.44S17.88,1.16,17.88.7Z"/><path d="M1.18,8.47c-.46,0-.46,0-.46-.45s0-.46.47-.46.43,0,.43.44v.05C1.61,8.47,1.61,8.47,1.18,8.47Z"/><path d="M3.45,3.8c0,.46,0,.46-.45.46s-.46,0-.46-.46,0-.45.46-.45S3.45,3.35,3.45,3.8Z"/><path d="M22,14.62c0-.45,0-.45.44-.45s.46,0,.46.47,0,.43-.44.43h0C22,15.07,22,15.07,22,14.62Z"/><path d="M20.59,6.17c0,.45,0,.45-.45.45s-.45,0-.45-.46,0-.45.44-.45S20.59,5.71,20.59,6.17Z"/><path d="M8.83,15.17c-.44,0-.44,0-.44-.45s0-.46.47-.47.44,0,.44.45S9.3,15.17,8.83,15.17Z"/><path d="M22.15,13.29c0,.42,0,.42-.44.42s-.47,0-.47-.47,0-.44.44-.44S22.15,12.8,22.15,13.29Z"/><path d="M23.57,6.64c.46,0,.46,0,.46.46s0,.44-.44.44-.46,0-.46-.46S23.13,6.65,23.57,6.64Z"/><path d="M1.79,6c-.42,0-.42,0-.42-.43s0-.47.48-.47.41,0,.41.42v0C2.26,6,2.26,6,1.79,6Z"/><path d="M2.62,8.48c-.45,0-.45,0-.45-.44s0-.46.46-.46.44,0,.44.45S3.07,8.48,2.62,8.48Z"/><path d="M5.51,4.54c-.46,0-.46,0-.46-.46s0-.45.46-.45.45,0,.45.44v0C6,4.54,6,4.54,5.51,4.54Z"/><path d="M4.5,20.16c-.46,0-.46,0-.46-.46s0-.44.44-.44.47,0,.47.46S5,20.15,4.5,20.16Z"/><path d="M22.82,11.05c-.44,0-.44,0-.45-.46s0-.44.43-.44.47,0,.47.47S23.27,11.06,22.82,11.05Z"/><path d="M18.43,20c0,.44,0,.44-.45.44s-.45,0-.45-.44,0-.45.46-.45S18.43,19.57,18.43,20Z"/><path d="M3.65,4.84c0,.46,0,.46-.45.46s-.45,0-.45-.46,0-.44.44-.44h0C3.65,4.4,3.65,4.4,3.65,4.84Z"/><path d="M21.43,3.75c0,.44,0,.44-.43.44s-.46,0-.46-.47,0-.43.42-.43h0C21.43,3.29,21.43,3.29,21.43,3.75Z"/><path d="M4.17,7.67c-.42,0-.42,0-.42-.42s0-.47.48-.47.41,0,.41.41v0C4.64,7.67,4.64,7.67,4.17,7.67Z"/><path d="M6.86,3.11c.42,0,.42,0,.42.42s0,.47-.47.47-.42,0-.42-.42S6.39,3.11,6.86,3.11Z"/><path d="M7.51,17c-.45,0-.45,0-.44-.44s0-.45.45-.45.44,0,.44.44S8,17,7.51,17Z"/><path d="M5.42,5.8C5,5.8,5,5.8,5,5.35s0-.45.44-.45.47,0,.46.49S5.86,5.8,5.42,5.8Z"/><path d="M7.49,4.5c0-.44,0-.44.44-.45s.45,0,.45.45,0,.44-.45.44S7.49,4.94,7.49,4.5Z"/><path d="M.23,4.53c0-.45,0-.45.46-.45s.44,0,.44.43S1.13,5,.67,5,.23,5,.23,4.53Z"/><path d="M4,3.17c0-.42,0-.42.42-.42s.46,0,.46.46,0,.43-.42.43S4,3.64,4,3.17Z"/><path d="M24.73,7.62c.47,0,.47,0,.47.47s0,.41-.4.42-.5,0-.5-.48S24.3,7.62,24.73,7.62Z"/><path d="M16.28,8.13c0-.35,0-.35.41-.34s.28,0,.29.4c0,.29,0,.29-.31.29C16.21,8.47,16.29,8.53,16.28,8.13Z"/><path d="M6.29,7.55c-.36,0-.35.09-.35-.39,0-.29,0-.29.29-.29s.43,0,.42.4S6.74,7.55,6.29,7.55Z"/><path d="M6.31,6.34C5.93,6.33,6,6.42,6,6s0-.33.36-.33.29,0,.32.43S6.46,6.33,6.31,6.34Z"/><path d="M18.2,10.54c0,.36,0,.37-.42.34s-.26.1-.25-.47c0-.41.31-.17.47-.2S18.21,10.2,18.2,10.54Z"/><path d="M.83,4c-.16,0-.37.08-.34-.25s0-.42.41-.42.26-.05.27.44C1.17,4.06,1.2,4,.83,4Z"/><path d="M18.34,9.65c0-.33,0-.33.39-.33s.29,0,.29.38,0,.3-.41.3S18.34,10,18.34,9.65Z"/><path d="M3.29,9.75c.35,0,.35,0,.35.42s0,.24-.42.24C3,10.42,3,10.41,3,10,3,9.75,3,9.75,3.29,9.75Z"/><path d="M17,4.94c-.39,0-.33,0-.33-.26,0-.47-.05-.41.25-.41.49,0,.42,0,.42.26S17.3,4.94,17,4.94Z"/><path d="M7.42,9.22c0,.4,0,.34-.29.34s-.37,0-.38-.26,0-.4.35-.4S7.41,8.87,7.42,9.22Z"/><path d="M6.32,8.9c.34,0,.34,0,.34.44,0,.27.07.22-.46.23S6,9.28,6,9.13C5.92,8.81,6.17,8.91,6.32,8.9Z"/><path d="M9.4,6c0-.38,0-.32.3-.33s.39,0,.39.39,0,.29-.42.29S9.41,6.38,9.4,6Z"/><path d="M18.34,8.91c0-.15-.08-.4.23-.32.15,0,.45-.2.45.19,0,.56,0,.47-.26.47S18.34,9.26,18.34,8.91Z"/><path d="M3.83,20.49c0,.4,0,.34-.27.34s-.41,0-.41-.34,0-.34.42-.34S3.82,20.12,3.83,20.49Z"/><path d="M21.53,17.27c-.39,0-.33.06-.33-.38s0-.3.43-.3c.25,0,.25,0,.24.45C21.87,17.27,21.87,17.27,21.53,17.27Z"/><path d="M19,19.75c-.33,0-.33,0-.32-.45,0-.27-.08-.21.44-.24.35,0,.23.22.23.37C19.31,19.8,19.36,19.74,19,19.75Z"/><path d="M6.58,18.05c.39,0,.34,0,.34.28s0,.39-.25.4-.42,0-.42-.42S6.22,18.06,6.58,18.05Z"/><path d="M20.58,7.43c0-.33,0-.33.33-.33s.35,0,.35.4,0,.28-.41.28S20.59,7.81,20.58,7.43Z"/><path d="M20.22,17.94c0-.36,0-.32.27-.32s.4,0,.39.33.07.33-.31.34S20.22,18.29,20.22,17.94Z"/><path d="M10.57,3.05c0,.34,0,.34-.33.34s-.35,0-.35-.44,0-.24.43-.24C10.59,2.71,10.57,2.66,10.57,3.05Z"/><path d="M9.2,12.31c-.38,0-.34.06-.34-.28s0-.37.43-.4.24.19.24.35C9.54,12.31,9.53,12.31,9.2,12.31Z"/><path d="M22.36,6.92C22,6.91,22,7,22,6.62s0-.38.41-.37.26-.07.26.42C22.7,6.92,22.69,6.92,22.36,6.92Z"/><path d="M4.89,2.12c-.34,0-.32,0-.34-.42s.1-.26.3-.26c.38,0,.38,0,.38.4S5.25,2.11,4.89,2.12Z"/><path d="M9.94,8.47c0,.33,0,.34-.39.33s-.27,0-.27-.36,0-.31.27-.31S9.94,8.13,9.94,8.47Z"/><path d="M17.31,6.47c.35,0,.35,0,.35.37s0,.31-.28.31-.4,0-.4-.31S17,6.47,17.31,6.47Z"/><path d="M7.68,12.35c.31,0,.3,0,.32.44s-.25.21-.4.22-.28,0-.27-.41S7.28,12.35,7.68,12.35Z"/><path d="M15,8.53c-.17,0-.38.08-.36-.25s0-.44.3-.44.39,0,.39.32S15.33,8.53,15,8.53Z"/><path d="M8.33,16.29c-.13,0-.38.09-.31-.21s-.2-.46.2-.46.47,0,.47.37S8.73,16.29,8.33,16.29Z"/><path d="M16.17,8.08c0,.33,0,.33-.38.33s-.28,0-.28-.4c0-.16,0-.29.21-.28C16.17,7.76,16.18,7.74,16.17,8.08Z"/><path d="M5.79,7.68c.34,0,.32,0,.34.47s-.21.2-.34.2c-.34,0-.32,0-.34-.43S5.64,7.7,5.79,7.68Z"/><path d="M2.85,7.11c0-.32,0-.32.41-.32s.25,0,.25.42c0,.28.05.25-.37.24S2.85,7.5,2.85,7.11Z"/><path d="M24,10.68c0-.4-.06-.35.34-.35s.34-.05.34.37,0,.31-.42.31C24,11,24,11,24,10.68Z"/><path d="M18.83,8c-.36,0-.36,0-.36-.33s0-.34.45-.34c.27,0,.23-.07.23.45C19.15,8,19.15,8,18.83,8Z"/><path d="M4.79,5.33c0,.34,0,.34-.36.34s-.32,0-.32-.4,0-.28.42-.28S4.78,4.94,4.79,5.33Z"/><path d="M10.12,9.81c0-.38-.06-.33.3-.34s.37,0,.37.38,0,.31-.37.31S10.12,10.2,10.12,9.81Z"/><path d="M2.47,1.94c-.4,0-.39,0-.4-.44s.27-.2.42-.21c.31,0,.23,0,.26.41S2.59,2,2.47,1.94Z"/><path d="M6,1.85c0,.35,0,.35-.45.34-.22,0-.23,0-.21-.47s.31-.15.47-.18S6,1.74,6,1.85Z"/><path d="M20.89,15.71c0,.35.07.33-.34.33s-.33,0-.33-.32c0-.15-.1-.37.23-.35S20.89,15.37,20.89,15.71Z"/><path d="M10.07,12.44c-.32,0-.32,0-.33-.41,0-.15,0-.32.21-.25s.45-.18.47.18S10.42,12.44,10.07,12.44Z"/><path d="M8.82,7.4c0,.39,0,.33-.33.33s-.33,0-.33-.29-.08-.36.35-.37S8.82,7.07,8.82,7.4Z"/><path d="M16.24,3.6c0,.31,0,.31-.46.32s-.17-.28-.19-.42-.08-.24.38-.25C16.24,3.25,16.24,3.25,16.24,3.6Z"/><path d="M22.25,1.53c-.12,0-.32.1-.3-.21s0-.43.39-.43.28,0,.27.35S22.64,1.53,22.25,1.53Z"/><path d="M4.4,2.28c0,.2,0,.3-.21.29s-.34,0-.31-.26,0-.3.23-.28S4.51,2,4.4,2.28Z"/><path d="M7.76,5.6c-.21.06-.29,0-.29-.24s0-.28.27-.27.29,0,.26.25S8,5.69,7.76,5.6Z"/><path d="M19.8,8.49c.05.22,0,.27-.25.27s-.27,0-.27-.26.06-.28.29-.28S19.84,8.3,19.8,8.49Z"/><path d="M20,4.41c.08.26-.08.24-.26.26s-.24-.14-.26-.31.14-.2.29-.22S20.08,4.2,20,4.41Z"/><path d="M9.31,2c-.24.07-.26-.06-.27-.26s.13-.23.31-.25.21.14.22.29S9.51,2.06,9.31,2Z"/><path d="M8.37,7c-.23.07-.27,0-.27-.24s.09-.25.28-.26.25.07.25.27S8.59,7,8.37,7Z"/><path d="M24.35,3.07c.25-.08.25.07.26.26s-.09.23-.26.24-.26-.06-.26-.26S24.13,3,24.35,3.07Z"/><path d="M21.2,8.12c.07.24-.05.26-.25.28s-.24-.11-.24-.28,0-.27.23-.26S21.28,7.87,21.2,8.12Z"/><path d="M17.6,4.89c-.24.07-.23-.08-.25-.27s.13-.21.29-.23.22.11.24.28S17.79,4.92,17.6,4.89Z"/><path d="M19.75,4.91c.24-.06.28,0,.29.25s-.07.25-.26.24-.3,0-.27-.22S19.48,4.83,19.75,4.91Z"/><path d="M5.27,19.83c-.17.05-.23,0-.22-.23s0-.27.25-.27.29.09.27.29S5.57,19.83,5.27,19.83Z"/><path d="M20,3.57c-.07-.26.12-.21.28-.23s.19.14.21.29-.12.21-.28.22S20,3.75,20,3.57Z"/><path d="M23.27,1.68c.05.23-.08.23-.26.24s-.21-.13-.23-.28.14-.21.29-.23S23.29,1.52,23.27,1.68Z"/><path d="M24.71,4.46c-.24.08-.23-.07-.23-.23s0-.28.22-.27S25,4,25,4.22,24.92,4.52,24.71,4.46Z"/><path d="M1.28,9c-.27.08-.19-.13-.21-.28s.13-.19.27-.21.23.12.24.29S1.45,9,1.28,9Z"/><path d="M9.09,11.23c-.21,0-.27,0-.27-.24s0-.27.24-.26.29,0,.28.25S9.3,11.29,9.09,11.23Z"/><path d="M18.12,2.93c.23-.07.25,0,.26.24s-.09.25-.27.25-.26,0-.26-.24S17.89,2.86,18.12,2.93Z"/><path d="M2.84,20.46c.15,0,.22,0,.23.23S3,21,2.77,21s-.22-.12-.22-.27S2.55,20.46,2.84,20.46Z"/><path d="M16.49,10.34c-.26.07-.25-.09-.27-.28s.13-.21.28-.22.26,0,.25.22S16.77,10.42,16.49,10.34Z"/><path d="M4.36,6.66c-.2,0-.29,0-.27-.22s0-.31.24-.28.29,0,.27.22S4.63,6.74,4.36,6.66Z"/><path d="M2.06,3.78c-.23.06-.24-.06-.26-.25s.09-.25.28-.25.25.06.25.25S2.29,3.84,2.06,3.78Z"/><path d="M17.55.66c.25-.08.24.07.25.26s-.1.21-.25.22-.25-.06-.25-.25S17.32.59,17.55.66Z"/><path d="M8.22,9.51c.07.23-.07.24-.25.25s-.23-.11-.25-.29.09-.21.25-.22S8.28,9.29,8.22,9.51Z"/><path d="M17.3,10.45c0,.18,0,.27-.23.26s-.29,0-.28-.25.05-.28.27-.27S17.35,10.24,17.3,10.45Z"/><path d="M24.84,5c-.17,0-.21,0-.22-.24s.09-.25.28-.26.24.08.23.25S25.13,5,24.84,5Z"/><path d="M7.57.83c0,.17,0,.28-.2.25S7,1.14,7.07.87s0-.3.21-.29S7.64.57,7.57.83Z"/><path d="M8.32,12.39c.26-.08.22.11.24.28s-.14.2-.29.23-.21-.14-.23-.29S8.14,12.37,8.32,12.39Z"/><path d="M16.86,20.34c.27-.07.22.12.24.28s-.13.2-.28.22-.23-.12-.24-.29S16.69,20.31,16.86,20.34Z"/><path d="M6.36,16.56c-.24.06-.24-.08-.25-.25s.12-.24.29-.25.23,0,.22.22S6.62,16.64,6.36,16.56Z"/><path d="M7.06,17.56c-.07-.27.12-.21.27-.23s.22.08.22.25,0,.27-.25.27S7,17.75,7.06,17.56Z"/><path d="M19.6,1.87c-.2.06-.23-.05-.23-.22s0-.26.25-.27.24.08.25.26S19.8,1.92,19.6,1.87Z"/><path d="M23.42,10.62c-.05-.19,0-.26.22-.26s.28.05.28.27-.07.25-.26.24S23.35,10.85,23.42,10.62Z"/><path d="M10.12,5.32c.06.23-.06.25-.26.26s-.22-.11-.23-.27.08-.23.26-.23S10.17,5.1,10.12,5.32Z"/><path d="M18,4c-.24.08-.22-.09-.23-.27s.16-.21.31-.22.19.16.21.3S18.18,4,18,4Z"/><path d="M4.09,9.68c-.2.05-.27,0-.26-.22s0-.3.24-.28.29,0,.26.23S4.35,9.76,4.09,9.68Z"/><path d="M10,9.9c.05.21,0,.26-.24.25s-.27,0-.26-.23.06-.28.27-.28S10.08,9.72,10,9.9Z"/><path d="M1.45,3.78c-.26.08-.21-.11-.23-.27s.13-.21.28-.23.21.14.23.29S1.64,3.81,1.45,3.78Z"/><path d="M8.76,10.67c.07.23-.08.22-.26.24s-.21-.12-.23-.28.11-.22.27-.23S8.8,10.48,8.76,10.67Z"/><path d="M15,2.66c.23-.06.25.06.26.25s-.09.24-.27.24-.25,0-.25-.25S14.73,2.6,15,2.66Z"/><path d="M24.33,11.85c0,.18,0,.28-.21.26s-.28,0-.28-.24.09-.25.28-.25S24.39,11.67,24.33,11.85Z"/><path d="M16.31,4.25c.07.23-.07.24-.26.25s-.24-.09-.25-.27.11-.24.29-.25S16.35,4.06,16.31,4.25Z"/><path d="M22.17,8.75c-.21.06-.23-.05-.24-.24s.09-.24.27-.24.23.06.23.24S22.39,8.81,22.17,8.75Z"/><path d="M4.79,7.77C5,7.73,5,7.82,5,8s-.1.25-.29.26S4.54,8.1,4.52,8,4.64,7.77,4.79,7.77Z"/><path d="M19.8,17.46c.06.24-.07.25-.25.26s-.22-.11-.23-.27.07-.23.25-.23S19.87,17.24,19.8,17.46Z"/><path d="M19.33,6.41c-.19,0-.25,0-.26-.23s.09-.25.29-.26.21.11.22.26S19.54,6.47,19.33,6.41Z"/><path d="M20.3,8.41c0,.16,0,.21-.18.21s-.22,0-.21-.19,0-.23.19-.22S20.34,8.25,20.3,8.41Z"/><path d="M6.92,7.2c.16,0,.18,0,.19.18s0,.21-.2.21-.2,0-.2-.2S6.77,7.17,6.92,7.2Z"/><path d="M3.58,9.22c.18,0,.2,0,.2.19s-.06.19-.21.2-.19-.06-.19-.21S3.42,9.17,3.58,9.22Z"/><path d="M15.87,20.94c0-.17,0-.2.19-.2s.19.06.19.21,0,.19-.2.19S15.83,21.09,15.87,20.94Z"/><path d="M18.9,4.52c-.14,0-.21,0-.2-.17s0-.22.17-.21.23,0,.22.18S19.07,4.56,18.9,4.52Z"/><path d="M22,5.71h.17c.07,0,.17,0,.17.09s.07.23,0,.29-.24.06-.3,0a.37.37,0,0,1,0-.38Z"/><path d="M22.28,9.28c0,.17-.07.18-.2.19s-.19-.08-.2-.22.08-.18.22-.18S22.31,9.13,22.28,9.28Z"/><path d="M23.63,3.33c.18,0,.17.07.18.21s-.07.17-.2.18-.18-.08-.19-.22S23.49,3.3,23.63,3.33Z"/><path d="M18.94,8.26c0,.18-.07.18-.21.19s-.16-.11-.18-.23.1-.17.23-.18S19,8.12,18.94,8.26Z"/><path d="M8,10.07c.16,0,.22,0,.22.18s0,.2-.19.2-.21,0-.2-.19S7.83,10,8,10.07Z"/><path d="M2.11,7.94c0,.17-.12.13-.22.14S1.74,8,1.73,7.86s.11-.16.23-.17S2.1,7.81,2.11,7.94Z"/><path d="M19.39,6.5c.15,0,.19,0,.19.17s0,.21-.18.2-.22,0-.22-.19S19.23,6.46,19.39,6.5Z"/><path d="M8.66,14c-.05-.2.09-.16.21-.18s.16.1.17.22-.09.17-.21.18S8.64,14.08,8.66,14Z"/><path d="M23,4.89c0,.14,0,.23-.16.21s-.22,0-.2-.16,0-.24.18-.22S23.09,4.73,23,4.89Z"/><path d="M5.71,17.73c0,.17,0,.18-.2.18s-.19-.05-.19-.2.09-.17.21-.18S5.74,17.58,5.71,17.73Z"/><path d="M24.16,11.33c0-.15,0-.18.17-.18s.22,0,.21.19,0,.2-.18.2S24.13,11.48,24.16,11.33Z"/><path d="M10.21,8c-.05-.19.06-.19.2-.2s.17.09.18.22-.09.17-.22.18S10.18,8.09,10.21,8Z"/><path d="M20.43,18.75c-.18.05-.18-.06-.19-.2s.08-.17.21-.18.17.08.17.2S20.59,18.79,20.43,18.75Z"/><path d="M15.77,5.94c.17,0,.2,0,.2.18s0,.2-.18.2-.2-.06-.2-.21S15.63,5.9,15.77,5.94Z"/><path d="M8,.66c0,.16,0,.18-.19.19S7.65.77,7.65.65s0-.18.19-.19S8,.53,8,.66Z"/><path d="M8,11c-.14,0-.22,0-.22-.17s0-.2.19-.19.22,0,.2.17S8.12,11.05,8,11Z"/><path d="M6,9.71c.15,0,.2,0,.19.18s0,.2-.18.2-.2,0-.19-.19S5.82,9.68,6,9.71Z"/><path d="M9.15,14c0-.18.08-.17.2-.17s.17,0,.18.19-.09.17-.22.18S9.13,14.11,9.15,14Z"/><path d="M18.2,4.32c0-.17.05-.18.2-.19s.17.1.18.22-.09.17-.22.19S18.18,4.45,18.2,4.32Z"/><path d="M2.66,10.08c0,.17-.05.19-.18.19s-.18-.08-.19-.21.06-.18.2-.18S2.7,9.94,2.66,10.08Z"/><path d="M11.25,8c0,.13,0,.21-.17.2s-.21,0-.2-.17,0-.23.18-.22S11.28,7.81,11.25,8Z"/><path d="M23.14,4.07c0,.14,0,.19-.17.2s-.21-.06-.21-.22,0-.18.19-.18S23.17,3.92,23.14,4.07Z"/><path d="M23,3.43c.16,0,.18,0,.18.19s0,.2-.18.19-.2-.05-.19-.2S22.81,3.41,23,3.43Z"/><path d="M15.23,6.29c0,.19-.07.19-.2.2s-.2,0-.19-.19,0-.2.19-.2S15.27,6.12,15.23,6.29Z"/><path d="M15.12,9c-.15,0-.26,0-.25-.17s0-.22.2-.21.23,0,.21.17S15.3,9,15.12,9Z"/><path d="M2.39,5.77c0-.18.06-.19.2-.2s.18.07.18.2,0,.21-.2.21S2.36,5.92,2.39,5.77Z"/><path d="M4.27,20.44c0,.15,0,.22-.16.21s-.23,0-.22-.18,0-.2.19-.19S4.33,20.26,4.27,20.44Z"/><path d="M1.09,3.08c0,.14,0,.2-.18.2s-.18-.06-.18-.2,0-.2.18-.19S1.12,2.94,1.09,3.08Z"/><path d="M4.73,19.08c-.13,0-.22,0-.21-.17s0-.22.17-.2.23,0,.22.18S4.89,19.11,4.73,19.08Z"/><path d="M8.24,15.23c0,.16-.07.16-.2.17s-.16-.11-.17-.23S8,15,8.08,15,8.25,15.09,8.24,15.23Z"/><path d="M5.71,9.85c0,.15,0,.21-.18.21s-.2,0-.2-.19,0-.21.19-.2S5.75,9.68,5.71,9.85Z"/><path d="M6,8.8c-.17,0-.16-.07-.17-.19s.11-.15.22-.16.16.06.16.18S6.16,8.82,6,8.8Z"/><path d="M21.11,1.76c0,.19-.08.17-.21.18s-.17-.05-.17-.17.05-.2.2-.2S21.14,1.62,21.11,1.76Z"/><path d="M3.53,19.92c0-.14,0-.2.17-.2s.19.06.19.2,0,.19-.17.18S3.49,20.09,3.53,19.92Z"/><path d="M21.32,17.62c0,.16-.08.15-.21.16s-.16-.11-.17-.23.14-.13.24-.15S21.32,17.5,21.32,17.62Z"/><path d="M17.05.65c.14,0,.19,0,.18.16s0,.22-.17.21-.2,0-.2-.19S16.9.61,17.05.65Z"/><path d="M7.07,5.56c0,.17-.05.18-.2.19s-.16-.09-.17-.2.1-.17.22-.18S7.09,5.44,7.07,5.56Z"/><path d="M23.87,12.66c.16,0,.16.07.17.19s-.06.18-.2.19-.18-.08-.19-.22S23.74,12.65,23.87,12.66Z"/><path d="M18.52,19.08c0,.16,0,.2-.18.2s-.2-.05-.19-.2,0-.2.18-.19S18.56,18.92,18.52,19.08Z"/><path d="M25,8.58c.16,0,.19,0,.19.17s-.06.2-.2.2-.19,0-.19-.19S24.8,8.54,25,8.58Z"/><path d="M14.31,6.47c-.13,0-.2,0-.2-.17s0-.19.19-.19.18.06.19.19S14.45,6.5,14.31,6.47Z"/><path d="M9.92,9.24c0,.16,0,.19-.18.19s-.18,0-.18-.19,0-.18.18-.17S10,9.06,9.92,9.24Z"/><path d="M16.71,1.48c0,.16,0,.2-.18.19s-.19,0-.18-.17,0-.21.18-.2S16.75,1.32,16.71,1.48Z"/><path d="M24.5,8.66c.16,0,.18.06.18.19s0,.18-.18.18-.19,0-.19-.19S24.35,8.63,24.5,8.66Z"/><path d="M17.21,2.64c0,.14,0,.21-.17.2s-.21,0-.2-.18,0-.21.18-.2S17.25,2.47,17.21,2.64Z"/><path d="M20,1.77c0-.17,0-.19.18-.19s.18,0,.18.19-.05.19-.19.18S19.91,1.91,20,1.77Z"/><path d="M7.64,7.31c0,.14,0,.19-.17.19s-.19,0-.19-.18,0-.19.19-.19S7.68,7.16,7.64,7.31Z"/><path d="M22.86,7.11c.15,0,.19,0,.19.18s0,.19-.17.18-.22,0-.21-.17S22.7,7.07,22.86,7.11Z"/><path d="M22.86,15.47c0,.16,0,.2-.17.2s-.18-.06-.19-.19.07-.18.2-.18S22.9,15.33,22.86,15.47Z"/><path d="M18.68,19.84c.17,0,.19.05.2.18s-.05.19-.19.19-.19-.05-.19-.19S18.52,19.79,18.68,19.84Z"/><path d="M8.23,14.73c0,.16-.06.17-.19.18s-.16-.08-.17-.2.06-.17.18-.17S8.26,14.58,8.23,14.73Z"/><path d="M17.74,2.84c-.14,0-.17,0-.17-.19s.06-.17.19-.18.17.08.18.2S17.88,2.86,17.74,2.84Z"/><path d="M1.87,8.49c-.14,0-.2,0-.19-.18s0-.19.16-.18.22,0,.21.17S2,8.52,1.87,8.49Z"/><path d="M19.87,19.33c0,.14,0,.21-.17.2s-.21,0-.2-.17,0-.21.18-.2S19.91,19.16,19.87,19.33Z"/><path d="M6.44,6.6c0,.16-.05.18-.18.18s-.18,0-.19-.19.06-.19.2-.19S6.47,6.46,6.44,6.6Z"/><path d="M3.69,10.69c0,.18-.06.17-.19.18s-.16-.08-.17-.2.07-.16.19-.17S3.73,10.55,3.69,10.69Z"/><path d="M8,2.3c.12,0,.19,0,.19.16s0,.21-.18.2-.2,0-.19-.17S7.84,2.26,8,2.3Z"/><path d="M21.16,13.6c0,.12,0,.18-.14.18s-.16,0-.16-.15,0-.17.14-.16S21.2,13.47,21.16,13.6Z"/><path d="M3.13,9.46C3,9.49,3,9.41,3,9.31s0-.15.15-.14.16,0,.16.15S3.24,9.48,3.13,9.46Z"/><path d="M21.38,2.19c0,.15-.06.15-.16.15s-.14-.06-.14-.16.06-.15.16-.14S21.41,2.08,21.38,2.19Z"/><path d="M7,2.86C7,3,6.91,3,6.8,3s-.14,0-.14-.14,0-.17.14-.17S7,2.74,7,2.86Z"/><path d="M7.63,9.19c-.11,0-.16,0-.16-.14s0-.16.15-.16.16,0,.16.15S7.75,9.21,7.63,9.19Z"/><path d="M18,5.22c0,.13,0,.16-.15.16s-.13,0-.14-.15.05-.15.16-.15S18.07,5.12,18,5.22Z"/><path d="M3.82,3.44c0,.14,0,.15-.16.15s-.14,0-.14-.13,0-.17.14-.16S3.84,3.32,3.82,3.44Z"/><path d="M4.45,5.86c0,.15-.07.15-.17.16S4.15,6,4.15,5.85s.06-.13.15-.13S4.47,5.76,4.45,5.86Z"/><path d="M20.21,4.1c.12,0,.17,0,.17.15s0,.16-.15.15-.15,0-.15-.14S20.07,4.07,20.21,4.1Z"/><path d="M7.14,14.52c0,.12,0,.17-.15.16s-.15,0-.15-.13,0-.17.16-.17S7.16,14.41,7.14,14.52Z"/><path d="M2.69,5.38c0,.12,0,.12-.14.13s-.15,0-.15-.15.05-.14.15-.15S2.7,5.28,2.69,5.38Z"/><path d="M7,16.36c0,.1,0,.16-.14.16s-.16,0-.15-.15,0-.17.14-.16S7,16.24,7,16.36Z"/><path d="M21.08,17.83c.13,0,.15,0,.16.15s-.07.13-.17.14-.14,0-.13-.14S21,17.8,21.08,17.83Z"/><path d="M23,4.65c-.12,0-.14,0-.14-.16s.06-.13.16-.13.14,0,.15.14S23.13,4.67,23,4.65Z"/><path d="M21.82,1.2c0,.14-.05.16-.15.16s-.15,0-.15-.15.05-.15.16-.15S21.86,1.09,21.82,1.2Z"/><path d="M1.22,2.67c0,.13,0,.17-.14.17s-.17,0-.16-.13,0-.18.14-.16S1.26,2.53,1.22,2.67Z"/><path d="M5.13,6c0,.13,0,.15-.15.15s-.15,0-.14-.14,0-.17.15-.17S5.15,5.89,5.13,6Z"/><path d="M21.57,11.28c0-.12.06-.14.16-.14s.12.06.12.15-.05.15-.16.15S21.56,11.37,21.57,11.28Z"/><path d="M21.45,2.6c0,.12-.05.14-.16.14s-.13,0-.13-.14,0-.16.14-.16S21.46,2.49,21.45,2.6Z"/><path d="M5.76.22c0,.1,0,.14-.13.14s-.15,0-.15-.15,0-.15.16-.15S5.77.12,5.76.22Z"/><path d="M9.43,11.44c0,.1,0,.15-.13.15s-.17,0-.17-.15.06-.14.16-.14S9.45,11.33,9.43,11.44Z"/><path d="M3.9.35c.08,0,.15,0,.15.13S4,.63,3.9.63,3.75.6,3.75.49,3.78.34,3.9.35Z"/><path d="M7.63,14.68c-.12,0-.14,0-.15-.15s0-.14.13-.14.17,0,.16.14S7.75,14.69,7.63,14.68Z"/><path d="M5.72.65c0,.11,0,.15-.14.15S5.44.74,5.44.64s0-.13.15-.14S5.73.56,5.72.65Z"/><path d="M16.41,6.09c0,.09,0,.15-.12.15s-.16,0-.16-.14,0-.16.15-.16S16.42,6,16.41,6.09Z"/><path d="M23,14.66c0-.1,0-.16.13-.16s.14.05.14.16,0,.14-.14.14S23,14.76,23,14.66Z"/><path d="M6.39,2c0,.09,0,.16-.12.16s-.16,0-.15-.14,0-.16.12-.15S6.41,1.91,6.39,2Z"/><path d="M6.55,15.8c0,.11,0,.14-.14.14s-.15,0-.15-.13,0-.16.15-.16S6.56,15.69,6.55,15.8Z"/><path d="M1.86,1.89c-.11,0-.13,0-.13-.14s.07-.13.16-.13.13.07.13.15S2,1.9,1.86,1.89Z"/><path d="M8.4,16.5c0,.13,0,.16-.14.16s-.15,0-.15-.15.07-.13.16-.13S8.43,16.4,8.4,16.5Z"/><path d="M5.68,5.84c.14,0,.13.08.14.17s-.07.14-.17.14S5.54,6.08,5.53,6,5.57,5.83,5.68,5.84Z"/><path d="M7.38,18.07c0,.11,0,.14-.14.15s-.14-.07-.14-.17.06-.13.15-.13S7.39,18,7.38,18.07Z"/><path d="M5.58,1.35c-.12,0-.14,0-.14-.14s0-.15.13-.15.15,0,.15.15S5.68,1.37,5.58,1.35Z"/><path d="M17.47,20c0,.14-.06.14-.16.14s-.13-.05-.13-.14.06-.14.16-.14S17.49,19.92,17.47,20Z"/><path d="M8.4.82c0,.12,0,.14-.13.15S8.1.94,8.11.82s0-.15.14-.14S8.44.69,8.4.82Z"/><path d="M1.36,9.23c0-.11,0-.14.13-.15s.14.05.14.15,0,.14-.14.14S1.34,9.33,1.36,9.23Z"/><path d="M7.29,5.78c-.1,0-.14,0-.14-.13s0-.17.12-.16.16,0,.16.12S7.44,5.8,7.29,5.78Z"/><path d="M22.1,9.79C22,9.8,22,9.73,22,9.64s.06-.12.15-.13.14.07.14.17S22.18,9.79,22.1,9.79Z"/><path d="M20.83,9.7c.14,0,.11.1.11.18s-.07.12-.15.12-.12-.09-.13-.18S20.74,9.7,20.83,9.7Z"/><path d="M19.19,4.29c0-.11,0-.15.13-.15s.15.05.15.16,0,.13-.15.13S19.17,4.39,19.19,4.29Z"/><path d="M10.93,3.55c0,.11,0,.13-.14.13s-.14,0-.14-.14,0-.15.16-.15S10.93,3.46,10.93,3.55Z"/><path d="M21.53.6c0-.12.06-.13.15-.13s.13.05.13.14,0,.14-.15.14S21.52.69,21.53.6Z"/><path d="M24.26,2.72c.1,0,.15,0,.15.12s0,.16-.14.16-.15,0-.14-.14S24.16,2.7,24.26,2.72Z"/><path d="M4.64,5.74c.09,0,.17,0,.16.13s0,.16-.15.16S4.5,6,4.5,5.87,4.54,5.72,4.64,5.74Z"/><path d="M20.85,6.83c0,.13-.05.14-.15.14s-.15,0-.15-.15.08-.13.18-.14S20.86,6.75,20.85,6.83Z"/><path d="M14,4.66c0-.11,0-.15.13-.15s.15,0,.15.14-.06.13-.15.13S13.94,4.76,14,4.66Z"/><path d="M9.26,10.48c0,.11,0,.16-.13.16s-.16,0-.16-.15,0-.14.12-.13S9.29,10.34,9.26,10.48Z"/><path d="M18,5.62c0,.1,0,.14-.14.13s-.14,0-.14-.13,0-.14.14-.14S18.06,5.5,18,5.62Z"/><path d="M3.54,7.81c-.11,0-.13,0-.13-.14s0-.13.15-.13.13,0,.13.14S3.64,7.82,3.54,7.81Z"/><path d="M19.41,2.08c0-.12,0-.13.14-.14s.13.06.14.16-.07.12-.16.13S19.4,2.17,19.41,2.08Z"/><path d="M8,17.15c0,.13,0,.15-.14.15s-.13,0-.13-.14,0-.15.14-.14S8,17.05,8,17.15Z"/><path d="M18,4.31c-.09,0-.16,0-.15-.13S17.82,4,18,4s.18,0,.17.14S18.1,4.33,18,4.31Z"/><path d="M23.37,14.32c0,.12-.05.14-.15.14s-.12-.06-.13-.15.05-.14.16-.14S23.39,14.22,23.37,14.32Z"/><path d="M9,15.37c0,.12-.06.12-.15.13s-.12-.06-.13-.15.06-.13.15-.13S9.05,15.27,9,15.37Z"/><path d="M23.76,13.39c-.12,0-.13-.05-.14-.14s.06-.14.17-.14.11.07.11.16S23.86,13.42,23.76,13.39Z"/><path d="M16.26,1.37c0,.1,0,.12-.13.13S16,1.45,16,1.35s0-.13.13-.13S16.28,1.26,16.26,1.37Z"/><path d="M20.53,1.89c-.12,0-.14,0-.14-.14s.06-.14.16-.14.12.07.13.16S20.62,1.91,20.53,1.89Z"/><path d="M19.74,2.69c0,.09,0,.13-.13.13s-.14,0-.14-.14.06-.13.15-.13S19.75,2.6,19.74,2.69Z"/><path d="M24.86,3.78c0,.11-.06.12-.15.13s-.13-.05-.14-.15.06-.13.15-.14S24.87,3.67,24.86,3.78Z"/><path d="M22.79,6.83c0-.11,0-.13.13-.14s.13.06.13.15S23,7,22.93,7,22.77,7,22.79,6.83Z"/><path d="M4.32,1.54c.11,0,.13,0,.14.13s0,.14-.15.14-.12,0-.12-.14S4.21,1.51,4.32,1.54Z"/><path d="M8.59,15.4c0,.11,0,.14-.13.14s-.15,0-.15-.13,0-.16.15-.16S8.61,15.3,8.59,15.4Z"/><path d="M5.25,7.77c.13,0,.11.07.12.15s-.06.13-.15.13S5.09,8,5.09,7.88,5.16,7.76,5.25,7.77Z"/><path d="M9.85,7.9c0,.12,0,.13-.13.14s-.14,0-.14-.15.05-.12.14-.12S9.87,7.81,9.85,7.9Z"/><path d="M21.2,6.84c0,.12-.06.12-.15.13s-.11-.08-.12-.16.06-.11.14-.12S21.22,6.74,21.2,6.84Z"/><path d="M21.35,3c0,.11,0,.14-.14.14s-.14,0-.14-.14,0-.15.15-.15S21.36,2.87,21.35,3Z"/><path d="M8,7.31c0,.11,0,.15-.13.15s-.14,0-.14-.14,0-.15.13-.15S8,7.2,8,7.31Z"/><path d="M6.34,1.39c.12,0,.15,0,.15.14s0,.15-.16.15-.12-.07-.13-.16S6.24,1.37,6.34,1.39Z"/><path d="M10,2.37c0-.13.08-.11.16-.11s.1.07.11.14-.06.13-.16.13S10,2.46,10,2.37Z"/><path d="M6.35,2.7c-.11,0-.14,0-.14-.14s0-.13.14-.13.14,0,.14.13S6.47,2.72,6.35,2.7Z"/><path d="M8.68,13.29c0,.1,0,.15-.13.14s-.16,0-.15-.13,0-.16.14-.16S8.7,13.18,8.68,13.29Z"/><path d="M15.06,2.31c0-.1,0-.16.12-.15s.15,0,.15.13,0,.15-.13.15S15,2.42,15.06,2.31Z"/><path d="M18.83,18.53c0,.11,0,.14-.14.14s-.13,0-.13-.13,0-.15.13-.15S18.84,18.42,18.83,18.53Z"/><path d="M5.91,19.4c0,.12-.06.13-.15.13s-.13,0-.14-.14.06-.14.16-.14S5.92,19.31,5.91,19.4Z"/><path d="M24.05,12.45c-.12,0-.11-.08-.11-.16s.08-.12.17-.12.1.08.11.16S24.14,12.45,24.05,12.45Z"/><path d="M4.63,2.64c-.1,0-.16,0-.16-.12s0-.14.12-.14.16,0,.15.13S4.74,2.67,4.63,2.64Z"/><path d="M17.17,20.42c0-.13,0-.14.14-.14s.12.07.12.16-.05.11-.13.11S17.14,20.52,17.17,20.42Z"/><path d="M2.21,20.74c.12,0,.14,0,.14.14s0,.14-.13.13-.15,0-.15-.13S2.1,20.72,2.21,20.74Z"/><path d="M14.78,6.22c0,.1-.06.11-.13.11s-.09,0-.09-.12,0-.1.1-.1S14.79,6.14,14.78,6.22Z"/><path d="M20.47,8.66c-.09,0-.11-.05-.11-.12s0-.09.1-.09.11,0,.11.11S20.53,8.66,20.47,8.66Z"/><path d="M7.39.27c.08,0,.12,0,.12.11s0,.11-.1.11-.12,0-.12-.12S7.31.26,7.39.27Z"/><path d="M20.15,6.9c-.08,0-.11,0-.11-.11s0-.1.1-.1.13,0,.12.11S20.22,6.9,20.15,6.9Z"/><path d="M7.32,14.52c.08,0,.1,0,.1.1s0,.11-.1.11-.12,0-.12-.12S7.25,14.51,7.32,14.52Z"/><path d="M14.39,7.91c0-.08,0-.09.11-.09s.11,0,.11.11-.07.1-.14.1S14.38,8,14.39,7.91Z"/><path d="M15.79,1.71c-.07,0-.1,0-.1-.11s0-.11.12-.11.09.05.09.11S15.87,1.71,15.79,1.71Z"/><path d="M22.64,6c0,.07,0,.1-.1.1s-.11,0-.11-.1,0-.12.12-.12S22.65,5.93,22.64,6Z"/><path d="M16.87,8.74c-.08,0-.1,0-.11-.1s.06-.1.13-.11.09.06.09.12S16.93,8.75,16.87,8.74Z"/><path d="M20,17.64c-.09,0-.1-.05-.1-.12s0-.1.11-.09.09.05.1.12S20,17.64,20,17.64Z"/><path d="M23.31,5.2c0,.09,0,.1-.1.1s-.11,0-.11-.1,0-.12.11-.11S23.32,5.13,23.31,5.2Z"/><path d="M17.64,20.52c.08,0,.11,0,.11.09s0,.13-.11.13-.11,0-.11-.11S17.55,20.5,17.64,20.52Z"/><path d="M8.19,16.76c.08,0,.09,0,.09.11s0,.1-.11.1-.12,0-.11-.12S8.12,16.76,8.19,16.76Z"/><path d="M16.05,10.14c-.1,0-.09-.06-.1-.12s.05-.09.12-.09.1,0,.09.11S16.11,10.14,16.05,10.14Z"/><path d="M10.21,12.76c0,.08,0,.11-.11.11s-.09,0-.1-.11,0-.1.11-.1S10.22,12.69,10.21,12.76Z"/><path d="M7.29,2.87c0,.07,0,.11-.1.11s-.12,0-.12-.09,0-.13.11-.13S7.3,2.79,7.29,2.87Z"/><path d="M15.5,3.21c0,.08-.05.1-.11.1s-.11-.05-.11-.13.07-.07.13-.08S15.5,3.15,15.5,3.21Z"/><path d="M17.4,3c-.09,0-.12,0-.13-.1s0-.11.12-.12.1,0,.1.11S17.47,3,17.4,3Z"/><path d="M3.81,5.14c.07,0,.11,0,.11.1s0,.11-.1.11-.13,0-.12-.11S3.73,5.14,3.81,5.14Z"/><path d="M2.1,10C2,10,2,10,2,9.94s0-.11.09-.11.13,0,.13.1S2.18,10,2.1,10Z"/><path d="M15.29,9.11c.07,0,.11,0,.11.1s0,.11-.11.11-.1,0-.1-.1S15.21,9.1,15.29,9.11Z"/><path d="M4.34,19c.08,0,.12,0,.12.1s0,.1-.1.11-.13,0-.12-.12S4.28,19,4.34,19Z"/><path d="M20.09,19.3c-.07,0-.12,0-.12-.09s0-.11.1-.11.11,0,.11.09S20.17,19.31,20.09,19.3Z"/><path d="M5.17,4.73c0,.07,0,.11-.1.11S5,4.81,5,4.73s0-.1.08-.1S5.18,4.64,5.17,4.73Z"/><path d="M7.68,1.24c0,.08,0,.11-.11.11s-.11,0-.1-.1,0-.12.08-.12S7.69,1.14,7.68,1.24Z"/><path d="M20.46,8.9c.09,0,.11,0,.11.1s-.05.1-.11.1-.1,0-.1-.11S20.4,8.89,20.46,8.9Z"/><path d="M6.43,7.74c0,.08,0,.1-.11.11s-.1,0-.1-.11,0-.1.11-.1S6.43,7.67,6.43,7.74Z"/><path d="M22.62,15.77c.07,0,.1,0,.09.11a.08.08,0,0,1-.09.09c-.08,0-.1,0-.1-.11S22.55,15.77,22.62,15.77Z"/><path d="M21.85,6.91c-.07,0-.11,0-.1-.1s0-.12.09-.12.12,0,.12.11A.1.1,0,0,1,21.85,6.91Z"/><path d="M23.54,11c0,.07,0,.11-.1.1s-.11,0-.12-.09,0-.12.12-.12S23.55,11,23.54,11Z"/><path d="M17.38,8.51c.08,0,.13,0,.14.09s0,.12-.11.12-.12,0-.11-.1S17.32,8.5,17.38,8.51Z"/><path d="M17.37,20.83c-.08,0-.11,0-.11-.11s.06-.11.14-.11.08.06.08.13S17.43,20.83,17.37,20.83Z"/><path d="M9.46,14.49c-.07,0-.11,0-.11-.1s0-.12.1-.12.13,0,.12.11A.1.1,0,0,1,9.46,14.49Z"/><path d="M19.48,5.57c.07,0,.12,0,.12.09s0,.12-.09.12-.13,0-.13-.11S19.4,5.56,19.48,5.57Z"/><path d="M18.05,19.34c0,.08,0,.12-.1.12s-.11,0-.11-.09,0-.12.09-.12S18.05,19.26,18.05,19.34Z"/><path d="M2.88,10.43c0,.09,0,.11-.11.1s-.09-.06-.09-.12,0-.08.1-.08S2.89,10.36,2.88,10.43Z"/><path d="M.59,7.66c0,.09,0,.11-.1.11s-.11,0-.11-.1,0-.11.11-.1S.61,7.58.59,7.66Z"/><path d="M17.51,2.57c0,.09,0,.11-.11.12s-.11,0-.11-.13.05-.09.12-.09S17.51,2.51,17.51,2.57Z"/><path d="M9.72,1.89c.07,0,.12,0,.12.09s0,.13-.11.12-.1,0-.11-.11S9.65,1.88,9.72,1.89Z"/><path d="M14.11,4.44c-.08,0-.09,0-.09-.1s0-.11.1-.11.11,0,.11.12S14.19,4.45,14.11,4.44Z"/><path d="M23.63,5.3c-.08,0-.11,0-.11-.1s0-.11.11-.11.09,0,.09.1S23.71,5.31,23.63,5.3Z"/><path d="M20.89,18.44c0,.09,0,.13-.1.12s-.11,0-.1-.11,0-.09.09-.09S20.9,18.36,20.89,18.44Z"/><path d="M5.53,4.71c0,.06,0,.08-.1.08s-.1,0-.1-.11.06-.08.13-.08S5.53,4.65,5.53,4.71Z"/><path d="M2,7.45c0,.07,0,.1-.1.1s-.1,0-.11-.11a.1.1,0,0,1,.11-.11C2,7.33,2,7.37,2,7.45Z"/><path d="M8.86,11.43c0-.08,0-.11.1-.11a.1.1,0,0,1,.11.11c0,.07,0,.1-.11.1S8.86,11.5,8.86,11.43Z"/><path d="M20,6.81c0,.07,0,.1-.1.1s-.1,0-.1-.1,0-.1.1-.11S20,6.73,20,6.81Z"/><path d="M21.57,6.69c.08,0,.11,0,.12.1s0,.11-.11.11-.1,0-.1-.1S21.49,6.68,21.57,6.69Z"/><path d="M15.76,21c0,.08,0,.1-.1.1s-.11,0-.11-.09,0-.12.11-.12S15.77,20.92,15.76,21Z"/><path d="M22.41,11.38c0,.07,0,.11-.08.1s-.12,0-.12-.1,0-.1.09-.1S22.41,11.31,22.41,11.38Z"/><path d="M7.34,17.15c0,.07,0,.09-.11.09s-.1,0-.1-.11,0-.11.12-.11S7.34,17.08,7.34,17.15Z"/><path d="M23.44,1.65c.07,0,.13,0,.13.09s0,.11-.1.11-.12,0-.11-.09S23.36,1.64,23.44,1.65Z"/><path d="M18.24,1.38c0,.08,0,.1-.1.1s-.09-.06-.1-.12.05-.09.12-.1S18.25,1.31,18.24,1.38Z"/><path d="M17.05,7.48c-.06,0-.11,0-.11-.1s0-.11.1-.11.12,0,.12.1A.1.1,0,0,1,17.05,7.48Z"/><path d="M6.4,8.06c0,.07,0,.11-.1.12s-.11,0-.11-.12,0-.1.11-.11S6.4,8,6.4,8.06Z"/><path d="M19.21,8.36c0,.06,0,.08-.11.08s-.1-.06-.1-.13.05-.09.12-.08S19.21,8.28,19.21,8.36Z"/><path d="M5.4,6.05c0,.07,0,.11-.1.11s-.12,0-.11-.09S5.2,6,5.28,6,5.41,6,5.4,6.05Z"/><path d="M6.35,19c-.08,0-.1,0-.1-.1s0-.11.1-.11.12,0,.12.12S6.41,19,6.35,19Z"/><path d="M15.52,6.18c0,.07,0,.11-.1.11s-.1,0-.1-.11,0-.11.1-.11S15.53,6.11,15.52,6.18Z"/><path d="M20.56,9.38c0,.09,0,.09-.11.09s-.09,0-.09-.08,0-.11.1-.11S20.57,9.3,20.56,9.38Z"/><path d="M24.08,11.44c0,.09,0,.1-.11.1s-.09,0-.09-.12.05-.09.11-.09S24.09,11.38,24.08,11.44Z"/><path d="M11.06,9.94c0,.09,0,.11-.1.11s-.1,0-.09-.09,0-.12.09-.12S11.07,9.87,11.06,9.94Z"/><path d="M19.65,16.81c.09,0,.09.05.09.11s0,.1-.11.1-.09-.05-.09-.11S19.58,16.8,19.65,16.81Z"/><path d="M16.7,1c-.08,0-.12,0-.12-.1s0-.11.11-.1.11,0,.11.1S16.77,1,16.7,1Z"/><path d="M3.06,8.77c.07,0,.12,0,.12.1s0,.12-.11.12S3,9,3,8.88,3,8.76,3.06,8.77Z"/><path d="M22.75,8.71c0,.08,0,.13-.09.13s-.12,0-.11-.09,0-.13.1-.13S22.76,8.65,22.75,8.71Z"/><path d="M17.8.44c0,.08,0,.1-.11.1s-.08-.05-.08-.11,0-.11.1-.11S17.8.37,17.8.44Z"/><path d="M21.28,1.8c.06,0,.1,0,.1.08s0,.1-.09.1-.12,0-.11-.09S21.22,1.8,21.28,1.8Z"/><path d="M20.48,15.16c-.08,0-.09,0-.09-.1s0-.1.11-.1.08.07.08.12S20.53,15.17,20.48,15.16Z"/><path d="M6.93,14.13c.08,0,.12,0,.12.09s0,.11-.1.11-.11,0-.11-.09S6.86,14.12,6.93,14.13Z"/><path d="M22.18,14c0,.08-.05.09-.12.09S22,14,22,14s0-.08.1-.08S22.19,13.89,22.18,14Z"/><path d="M9.71,13.86c.07,0,.09,0,.09.11s-.06.09-.12.09-.1,0-.1-.11S9.64,13.86,9.71,13.86Z"/><path d="M10.88,10.5c-.08,0-.08-.07-.09-.12s0-.08.09-.08.09,0,.09.11S11,10.51,10.88,10.5Z"/><path d="M7.29,1.19c.08,0,.1.05.1.12s0,.09-.09.09-.1,0-.1-.11S7.23,1.19,7.29,1.19Z"/><path d="M23.75,13.66c0,.09-.07.08-.13.08s-.07-.05-.08-.1.05-.08.1-.08S23.76,13.59,23.75,13.66Z"/><path d="M6.43,5.61c-.09,0-.09-.05-.09-.11s0-.1.08-.1.11,0,.11.11S6.51,5.62,6.43,5.61Z"/><path d="M23,1.24c0,.05,0,.1-.08.09s-.1,0-.1-.09,0-.1.09-.1S23,1.17,23,1.24Z"/><path d="M8.5,13.52c.06,0,.1,0,.09.09s0,.12-.09.12-.09,0-.09-.09S8.41,13.52,8.5,13.52Z"/><path d="M21.93,16.7c0-.09,0-.1.11-.1s.11,0,.11.1a.09.09,0,0,1-.11.09C22,16.79,21.92,16.77,21.93,16.7Z"/><path d="M8.51,2.39c0,.09,0,.12-.1.12s-.1,0-.1-.12,0-.1.11-.1S8.52,2.34,8.51,2.39Z"/><path d="M23.23,12.62c0,.07,0,.09-.1.09s-.11,0-.11-.1,0-.09.1-.09S23.23,12.54,23.23,12.62Z"/><path d="M19.57,19.71c0,.08-.05.09-.11.09s-.09,0-.09-.1,0-.09.09-.09S19.58,19.63,19.57,19.71Z"/><path d="M8,7.61c0,.06,0,.11-.08.11s-.12,0-.12-.09,0-.1.08-.11S8,7.53,8,7.61Z"/><path d="M20.13,1.37c0,.07,0,.11-.08.11s-.11,0-.1-.1,0-.09.09-.09S20.14,1.31,20.13,1.37Z"/><path d="M5.31,20c0,.09,0,.1-.11.1S5.12,20,5.13,20s0-.1.12-.09S5.3,20,5.31,20Z"/><path d="M5.94,4.79c-.07,0-.09,0-.09-.1s0-.09.09-.09.09,0,.09.09S6,4.79,5.94,4.79Z"/><path d="M2.67.92c.09,0,.1,0,.1.11s0,.1-.11.1-.09,0-.09-.11S2.6.91,2.67.92Z"/><path d="M4.66,20.24c.06,0,.1,0,.1.08s0,.1-.09.1-.11,0-.11-.1S4.6,20.24,4.66,20.24Z"/><path d="M7.5,17c.09,0,.11,0,.11.1s0,.1-.11.1-.09,0-.09-.09S7.42,17,7.5,17Z"/><path d="M22.87,12.6c0,.07,0,.12-.09.11s-.12,0-.12-.09,0-.1.11-.1S22.88,12.54,22.87,12.6Z"/><path d="M5.18,8.35c-.06,0-.08,0-.08-.09s.05-.09.11-.09.08,0,.08.1S5.24,8.35,5.18,8.35Z"/><path d="M18,11.14c-.09,0-.1,0-.1-.09s0-.1.11-.09.11,0,.1.1S18,11.13,18,11.14Z"/><path d="M9,15.67c0,.09,0,.12-.11.11s-.09-.06-.09-.12.05-.09.1-.09S9,15.61,9,15.67Z"/><path d="M16.52,20.68c0,.09,0,.11-.11.11s-.1,0-.1-.1,0-.1.09-.1S16.52,20.6,16.52,20.68Z"/><path d="M20.36,9.7c0-.09,0-.1.11-.1s.1,0,.1.1,0,.1-.11.1A.08.08,0,0,1,20.36,9.7Z"/><path d="M22.64,8.55c-.06,0-.09,0-.09-.11s.06-.09.12-.09.11,0,.1.11S22.72,8.55,22.64,8.55Z"/><path d="M21.67,17.54c0,.07,0,.1-.11.09s-.09-.06-.09-.12,0-.08.1-.08S21.67,17.46,21.67,17.54Z"/><path d="M11.06,9.67c0,.07,0,.11-.1.11s-.09,0-.09-.1,0-.12.1-.11S11.06,9.6,11.06,9.67Z"/><path d="M16.52,21c0,.07,0,.1-.1.11s-.11,0-.11-.1,0-.11.1-.11S16.53,20.87,16.52,21Z"/><path d="M1.73,21.07c0,.07,0,.09-.1.1s-.09-.06-.09-.13.05-.07.11-.07S1.73,21,1.73,21.07Z"/></g></g></svg>