<svg xmlns="http://www.w3.org/2000/svg" viewBox="0 0 197.97 198.01"><title>Search</title><g id="Layer_2" data-name="Layer 2"><g id="Layer_1-2" data-name="Layer 1"><path d="M0,75.26a75.7,75.7,0,1,1,75.16,76.13A75.19,75.19,0,0,1,0,75.26Zm75.63,64.05A63.23,63.23,0,0,0,139,75.59c-.05-35.8-28.32-63.77-64.33-63.63C40,12.09,11.92,40.69,12,75.82A63.51,63.51,0,0,0,75.63,139.31Z"/><path d="M198,179.86c-.38,7.38-3.54,13.11-10.39,16.23s-13.57,2.61-19-2.44c-9.6-8.88-18.8-18.21-28-27.53a14.37,14.37,0,0,1-3.85-13.35c1-4.67.19-7.9-3.47-11.15-3.35-3-1.81-8.36,2.25-9.66,2.86-.92,5.27.16,7.09,2.35,2.3,2.78,4.59,3.72,8.5,2.71a16,16,0,0,1,15.6,4.35c8.87,8.7,17.62,17.52,26.37,26.34C196.37,171.05,197.68,175.27,198,179.86Zm-49.43-25.25a6.65,6.65,0,0,0,2.36,4.75q12,11.91,23.94,23.79c2.73,2.7,5.76,3.49,8.74.67,3.25-3.07,2.22-6.24-.56-9.08-3.13-3.19-6.31-6.32-9.47-9.48q-7.38-7.37-14.76-14.72c-1.93-1.92-4.19-2.69-6.76-1.45A5.61,5.61,0,0,0,148.54,154.61Z"/><path d="M72.45,23.81c3.63-.37,7.09-.31,8.66,3.88,1.68,4.48-1.46,7.88-7.55,8.22A39.39,39.39,0,0,0,37.35,65,52.57,52.57,0,0,0,36,72.84c-.56,4.79-2.85,7.39-6.66,7-4.35-.51-5.5-3.35-5.38-7.42C24.76,47.14,46.08,25.72,72.45,23.81Z"/><path d="M47,104.46c-.24,3.72-2,6.08-5.77,6.2s-6-1.93-6.12-5.66,1.93-6,5.66-6.13S46.47,100.92,47,104.46Z"/></g></g></svg>