<svg xmlns="http://www.w3.org/2000/svg" viewBox="0 0 28.34 28.38"><title>youtubeIcon</title><g id="Layer_2" data-name="Layer 2"><g id="Layer_1-2" data-name="Layer 1"><path d="M28.34,14.24A14.17,14.17,0,1,1,14.7,0,14.16,14.16,0,0,1,28.34,14.24ZM14.22,9a34.31,34.31,0,0,0-5.07.1A2.3,2.3,0,0,0,7,11.46,20.9,20.9,0,0,0,7,17c.19,1.38.77,2.09,2.16,2.23a54.09,54.09,0,0,0,10,0c1.48-.13,2-.81,2.24-2.28a19.12,19.12,0,0,0,0-5.18c-.23-2-.86-2.65-2.84-2.75C17.13,9,15.67,9,14.22,9Z"/><path d="M16.29,14.18,13,16c-.42.23-.56,0-.56-.37,0-1.09,0-2.17,0-3.36a4.57,4.57,0,0,1,.64.22Z"/></g></g></svg>